<svg xmlns="http://www.w3.org/2000/svg" xmlns:xlink="http://www.w3.org/1999/xlink" width="250" zoomAndPan="magnify" viewBox="0 0 187.5 187.499992" height="250" preserveAspectRatio="xMidYMid meet" version="1.0"><defs><g/><clipPath id="a44f22ffea"><rect x="0" width="163" y="0" height="53"/></clipPath><clipPath id="4855f068de"><path d="M 0.121094 4 L 11 4 L 11 15 L 0.121094 15 Z M 0.121094 4 " clip-rule="nonzero"/></clipPath><clipPath id="523ffa3247"><rect x="0" width="155" y="0" height="19"/></clipPath></defs><g transform="matrix(1, 0, 0, 1, 10, 38)"><g clip-path="url(#a44f22ffea)"><g fill="#ffffff" fill-opacity="1"><g transform="translate(0.666787, 42.868956)"><g><path d="M 26.34375 -5.796875 C 26.90625 -4.921875 27.378906 -4.222656 27.765625 -3.703125 C 28.148438 -3.191406 28.488281 -2.789062 28.78125 -2.5 C 29.070312 -2.21875 29.359375 -2 29.640625 -1.84375 C 29.921875 -1.6875 30.296875 -1.546875 30.765625 -1.421875 L 30.765625 0 L 18.953125 0 L 18.953125 -1.4375 C 19.441406 -1.507812 19.773438 -1.628906 19.953125 -1.796875 C 20.128906 -1.960938 20.21875 -2.1875 20.21875 -2.46875 C 20.21875 -2.695312 20.179688 -2.921875 20.109375 -3.140625 C 20.046875 -3.367188 19.890625 -3.703125 19.640625 -4.140625 C 19.398438 -4.578125 18.898438 -5.378906 18.140625 -6.546875 L 14.8125 -11.6875 C 14.394531 -12.3125 14.035156 -12.796875 13.734375 -13.140625 C 13.441406 -13.492188 13.144531 -13.742188 12.84375 -13.890625 C 12.550781 -14.046875 12.144531 -14.125 11.625 -14.125 L 11.1875 -14.125 L 11.1875 -5.46875 C 11.1875 -4.957031 11.195312 -4.484375 11.21875 -4.046875 C 11.25 -3.617188 11.304688 -3.265625 11.390625 -2.984375 C 11.484375 -2.710938 11.613281 -2.476562 11.78125 -2.28125 C 11.945312 -2.09375 12.175781 -1.929688 12.46875 -1.796875 C 12.757812 -1.660156 13.117188 -1.539062 13.546875 -1.4375 L 13.546875 0 L 2.09375 0 L 2.09375 -1.4375 C 2.632812 -1.582031 3.0625 -1.738281 3.375 -1.90625 C 3.6875 -2.070312 3.914062 -2.300781 4.0625 -2.59375 C 4.21875 -2.894531 4.316406 -3.273438 4.359375 -3.734375 C 4.398438 -4.191406 4.421875 -4.769531 4.421875 -5.46875 L 4.421875 -24.265625 C 4.421875 -24.953125 4.398438 -25.523438 4.359375 -25.984375 C 4.328125 -26.453125 4.234375 -26.832031 4.078125 -27.125 C 3.929688 -27.414062 3.703125 -27.648438 3.390625 -27.828125 C 3.078125 -28.015625 2.644531 -28.179688 2.09375 -28.328125 L 2.09375 -29.765625 L 13.546875 -29.765625 L 13.546875 -28.328125 C 12.929688 -28.160156 12.484375 -27.984375 12.203125 -27.796875 C 11.921875 -27.609375 11.707031 -27.382812 11.5625 -27.125 C 11.425781 -26.863281 11.328125 -26.53125 11.265625 -26.125 C 11.210938 -25.71875 11.1875 -25.097656 11.1875 -24.265625 L 11.1875 -16.5 L 11.640625 -16.5 C 12.304688 -16.5 12.835938 -16.570312 13.234375 -16.71875 C 13.628906 -16.863281 14.03125 -17.125 14.4375 -17.5 C 14.851562 -17.882812 15.65625 -18.769531 16.84375 -20.15625 C 18.03125 -21.539062 18.890625 -22.609375 19.421875 -23.359375 C 19.953125 -24.109375 20.3125 -24.726562 20.5 -25.21875 C 20.695312 -25.707031 20.796875 -26.191406 20.796875 -26.671875 C 20.796875 -27.179688 20.625 -27.578125 20.28125 -27.859375 C 19.945312 -28.148438 19.46875 -28.304688 18.84375 -28.328125 L 18.84375 -29.765625 L 29.984375 -29.765625 L 29.984375 -28.28125 C 29.429688 -28.175781 28.957031 -28.019531 28.5625 -27.8125 C 28.164062 -27.613281 27.710938 -27.285156 27.203125 -26.828125 C 26.703125 -26.367188 26.054688 -25.695312 25.265625 -24.8125 L 18.734375 -17.484375 Z M 26.34375 -5.796875 "/></g></g></g><g fill="#ffffff" fill-opacity="1"><g transform="translate(31.104136, 42.868956)"><g><path d="M 23.71875 -29.765625 L 23.71875 -22.828125 L 20.734375 -22.828125 C 20.253906 -24.210938 19.847656 -25.144531 19.515625 -25.625 C 19.179688 -26.113281 18.78125 -26.5 18.3125 -26.78125 C 17.851562 -27.070312 17.0625 -27.21875 15.9375 -27.21875 L 11.1875 -27.21875 L 11.1875 -16.75 L 14.0625 -16.75 C 14.707031 -16.75 15.207031 -16.835938 15.5625 -17.015625 C 15.925781 -17.203125 16.226562 -17.503906 16.46875 -17.921875 C 16.707031 -18.347656 16.9375 -19.003906 17.15625 -19.890625 L 19.625 -19.890625 L 19.625 -11.03125 L 17.15625 -11.03125 C 16.957031 -11.875 16.734375 -12.515625 16.484375 -12.953125 C 16.234375 -13.398438 15.9375 -13.71875 15.59375 -13.90625 C 15.257812 -14.09375 14.75 -14.1875 14.0625 -14.1875 L 11.1875 -14.1875 L 11.1875 -2.546875 L 15.921875 -2.546875 C 16.429688 -2.546875 16.859375 -2.578125 17.203125 -2.640625 C 17.554688 -2.710938 17.867188 -2.828125 18.140625 -2.984375 C 18.421875 -3.148438 18.6875 -3.367188 18.9375 -3.640625 C 19.1875 -3.921875 19.410156 -4.21875 19.609375 -4.53125 C 19.804688 -4.851562 20.015625 -5.273438 20.234375 -5.796875 C 20.453125 -6.316406 20.691406 -7.035156 20.953125 -7.953125 L 23.9375 -7.953125 L 23.53125 0 L 2.09375 0 L 2.09375 -1.4375 C 2.632812 -1.582031 3.0625 -1.738281 3.375 -1.90625 C 3.6875 -2.070312 3.914062 -2.300781 4.0625 -2.59375 C 4.21875 -2.894531 4.316406 -3.273438 4.359375 -3.734375 C 4.398438 -4.191406 4.421875 -4.769531 4.421875 -5.46875 L 4.421875 -24.265625 C 4.421875 -24.953125 4.398438 -25.523438 4.359375 -25.984375 C 4.328125 -26.453125 4.234375 -26.832031 4.078125 -27.125 C 3.929688 -27.414062 3.703125 -27.648438 3.390625 -27.828125 C 3.078125 -28.015625 2.644531 -28.179688 2.09375 -28.328125 L 2.09375 -29.765625 Z M 23.71875 -29.765625 "/></g></g></g><g fill="#ffffff" fill-opacity="1"><g transform="translate(56.897391, 42.868956)"><g><path d="M 13.546875 0 L 2.09375 0 L 2.09375 -1.4375 C 2.632812 -1.582031 3.0625 -1.738281 3.375 -1.90625 C 3.6875 -2.070312 3.914062 -2.300781 4.0625 -2.59375 C 4.21875 -2.894531 4.316406 -3.273438 4.359375 -3.734375 C 4.398438 -4.191406 4.421875 -4.769531 4.421875 -5.46875 L 4.421875 -24.265625 C 4.421875 -24.953125 4.398438 -25.523438 4.359375 -25.984375 C 4.328125 -26.453125 4.234375 -26.832031 4.078125 -27.125 C 3.929688 -27.414062 3.703125 -27.648438 3.390625 -27.828125 C 3.078125 -28.015625 2.644531 -28.179688 2.09375 -28.328125 L 2.09375 -29.765625 L 14.8125 -29.765625 C 16.519531 -29.765625 17.972656 -29.644531 19.171875 -29.40625 C 20.367188 -29.164062 21.421875 -28.796875 22.328125 -28.296875 C 23.085938 -27.890625 23.726562 -27.378906 24.25 -26.765625 C 24.769531 -26.148438 25.171875 -25.429688 25.453125 -24.609375 C 25.734375 -23.785156 25.875 -22.828125 25.875 -21.734375 C 25.875 -20.316406 25.625 -19.097656 25.125 -18.078125 C 24.625 -17.054688 23.945312 -16.207031 23.09375 -15.53125 C 22.25 -14.851562 21.113281 -14.21875 19.6875 -13.625 L 19.6875 -13.40625 C 20.757812 -12.945312 21.648438 -12.328125 22.359375 -11.546875 C 23.066406 -10.765625 23.703125 -9.78125 24.265625 -8.59375 L 25.640625 -5.625 C 26.253906 -4.300781 26.863281 -3.304688 27.46875 -2.640625 C 28.070312 -1.984375 28.785156 -1.582031 29.609375 -1.4375 L 29.609375 0 L 21.21875 0 C 20.375 -1.164062 19.421875 -2.894531 18.359375 -5.1875 L 16.65625 -8.921875 C 16.144531 -10.023438 15.707031 -10.804688 15.34375 -11.265625 C 14.988281 -11.734375 14.617188 -12.054688 14.234375 -12.234375 C 13.847656 -12.410156 13.253906 -12.5 12.453125 -12.5 L 11.1875 -12.5 L 11.1875 -5.46875 C 11.1875 -4.382812 11.234375 -3.625 11.328125 -3.1875 C 11.429688 -2.75 11.628906 -2.398438 11.921875 -2.140625 C 12.210938 -1.878906 12.753906 -1.644531 13.546875 -1.4375 Z M 11.1875 -27.171875 L 11.1875 -15.046875 L 13.34375 -15.046875 C 14.507812 -15.046875 15.46875 -15.203125 16.21875 -15.515625 C 16.976562 -15.828125 17.578125 -16.257812 18.015625 -16.8125 C 18.460938 -17.375 18.769531 -18.03125 18.9375 -18.78125 C 19.101562 -19.539062 19.1875 -20.375 19.1875 -21.28125 C 19.1875 -23.257812 18.71875 -24.742188 17.78125 -25.734375 C 16.851562 -26.722656 15.476562 -27.21875 13.65625 -27.21875 C 12.40625 -27.21875 11.582031 -27.203125 11.1875 -27.171875 Z M 11.1875 -27.171875 "/></g></g></g><g fill="#ffffff" fill-opacity="1"><g transform="translate(84.413033, 42.868956)"><g><path d="M 20.671875 -22.609375 C 20.890625 -23.222656 21.0625 -23.796875 21.1875 -24.328125 C 21.3125 -24.867188 21.375 -25.4375 21.375 -26.03125 C 21.375 -26.75 21.1875 -27.296875 20.8125 -27.671875 C 20.4375 -28.046875 19.863281 -28.265625 19.09375 -28.328125 L 19.09375 -29.765625 L 28.5 -29.765625 L 28.5 -28.328125 C 27.945312 -28.234375 27.476562 -28.050781 27.09375 -27.78125 C 26.707031 -27.519531 26.359375 -27.132812 26.046875 -26.625 C 25.734375 -26.125 25.363281 -25.3125 24.9375 -24.1875 L 15.8125 0.15625 L 10.765625 0.15625 L 3.578125 -24.265625 C 3.253906 -25.359375 2.984375 -26.132812 2.765625 -26.59375 C 2.546875 -27.050781 2.257812 -27.421875 1.90625 -27.703125 C 1.5625 -27.984375 1.078125 -28.191406 0.453125 -28.328125 L 0.453125 -29.765625 L 12.515625 -29.765625 L 12.515625 -28.328125 C 11.753906 -28.234375 11.191406 -28.019531 10.828125 -27.6875 C 10.472656 -27.351562 10.296875 -26.882812 10.296875 -26.28125 C 10.296875 -25.800781 10.335938 -25.332031 10.421875 -24.875 C 10.503906 -24.414062 10.6875 -23.679688 10.96875 -22.671875 L 15.28125 -7.015625 Z M 20.671875 -22.609375 "/></g></g></g><g fill="#ffffff" fill-opacity="1"><g transform="translate(108.549094, 42.868956)"><g><path d="M 17.59375 -9.21875 L 8.28125 -9.21875 L 7.5625 -7.15625 C 7.363281 -6.570312 7.195312 -6.003906 7.0625 -5.453125 C 6.9375 -4.910156 6.875 -4.335938 6.875 -3.734375 C 6.875 -2.304688 7.628906 -1.539062 9.140625 -1.4375 L 9.140625 0 L -0.171875 0 L -0.171875 -1.4375 C 0.359375 -1.5 0.828125 -1.6875 1.234375 -2 C 1.648438 -2.320312 2.023438 -2.757812 2.359375 -3.3125 C 2.691406 -3.863281 3.046875 -4.65625 3.421875 -5.6875 L 12.515625 -29.921875 L 18.34375 -29.921875 L 25.53125 -5.5 C 25.851562 -4.40625 26.125 -3.628906 26.34375 -3.171875 C 26.5625 -2.710938 26.84375 -2.34375 27.1875 -2.0625 C 27.539062 -1.78125 28.03125 -1.570312 28.65625 -1.4375 L 28.65625 0 L 16.609375 0 L 16.609375 -1.4375 C 17.367188 -1.519531 17.929688 -1.726562 18.296875 -2.0625 C 18.660156 -2.40625 18.84375 -2.878906 18.84375 -3.484375 C 18.84375 -3.941406 18.789062 -4.445312 18.6875 -5 C 18.582031 -5.550781 18.414062 -6.25 18.1875 -7.09375 Z M 9.109375 -11.78125 L 16.96875 -11.78125 L 13.46875 -24.046875 Z M 9.109375 -11.78125 "/></g></g></g><g fill="#ffffff" fill-opacity="1"><g transform="translate(137.656437, 42.868956)"><g><path d="M 13.546875 -29.765625 L 13.546875 -28.328125 C 13.015625 -28.179688 12.597656 -28.023438 12.296875 -27.859375 C 11.992188 -27.691406 11.757812 -27.460938 11.59375 -27.171875 C 11.425781 -26.878906 11.316406 -26.503906 11.265625 -26.046875 C 11.210938 -25.585938 11.1875 -25.007812 11.1875 -24.3125 L 11.1875 -2.59375 L 15.421875 -2.59375 C 16.265625 -2.59375 16.9375 -2.722656 17.4375 -2.984375 C 17.945312 -3.242188 18.382812 -3.644531 18.75 -4.1875 C 19.125 -4.738281 19.445312 -5.453125 19.71875 -6.328125 C 19.988281 -7.210938 20.203125 -8.039062 20.359375 -8.8125 L 23.359375 -8.8125 L 22.875 0 L 2.09375 0 L 2.09375 -1.4375 C 2.632812 -1.582031 3.0625 -1.742188 3.375 -1.921875 C 3.6875 -2.097656 3.914062 -2.332031 4.0625 -2.625 C 4.21875 -2.925781 4.316406 -3.304688 4.359375 -3.765625 C 4.398438 -4.222656 4.421875 -4.800781 4.421875 -5.5 L 4.421875 -24.265625 C 4.421875 -24.953125 4.398438 -25.523438 4.359375 -25.984375 C 4.328125 -26.453125 4.234375 -26.832031 4.078125 -27.125 C 3.929688 -27.414062 3.703125 -27.648438 3.390625 -27.828125 C 3.078125 -28.015625 2.644531 -28.179688 2.09375 -28.328125 L 2.09375 -29.765625 Z M 13.546875 -29.765625 "/></g></g></g></g></g><path stroke-linecap="butt" transform="matrix(0.748005, 0, 0, 0.748005, 14.742214, 109.407069)" fill="none" stroke-linejoin="miter" d="M -0.0000358988 1.999016 L 216.038093 1.999016 " stroke="#c00000" stroke-width="4" stroke-opacity="1" stroke-miterlimit="4"/><g transform="matrix(1, 0, 0, 1, 14, 130)"><g clip-path="url(#523ffa3247)"><g clip-path="url(#4855f068de)"><g fill="#ffffff" fill-opacity="1"><g transform="translate(0.742214, 14.677279)"><g><path d="M 6.15625 -3.234375 L 2.90625 -3.234375 L 2.640625 -2.5 C 2.578125 -2.300781 2.519531 -2.101562 2.46875 -1.90625 C 2.425781 -1.71875 2.40625 -1.515625 2.40625 -1.296875 C 2.40625 -0.804688 2.671875 -0.539062 3.203125 -0.5 L 3.203125 0 L -0.0625 0 L -0.0625 -0.5 C 0.125 -0.519531 0.289062 -0.585938 0.4375 -0.703125 C 0.582031 -0.816406 0.710938 -0.96875 0.828125 -1.15625 C 0.941406 -1.351562 1.066406 -1.628906 1.203125 -1.984375 L 4.375 -10.46875 L 6.421875 -10.46875 L 8.9375 -1.921875 C 9.050781 -1.535156 9.144531 -1.265625 9.21875 -1.109375 C 9.289062 -0.953125 9.390625 -0.820312 9.515625 -0.71875 C 9.640625 -0.625 9.8125 -0.550781 10.03125 -0.5 L 10.03125 0 L 5.8125 0 L 5.8125 -0.5 C 6.070312 -0.53125 6.265625 -0.601562 6.390625 -0.71875 C 6.523438 -0.84375 6.59375 -1.007812 6.59375 -1.21875 C 6.59375 -1.375 6.570312 -1.546875 6.53125 -1.734375 C 6.5 -1.929688 6.441406 -2.179688 6.359375 -2.484375 Z M 3.1875 -4.125 L 5.9375 -4.125 L 4.71875 -8.421875 Z M 3.1875 -4.125 "/></g></g></g></g><g fill="#ffffff" fill-opacity="1"><g transform="translate(10.929364, 14.677279)"><g><path d="M 4.703125 -10.421875 C 5.546875 -10.421875 6.253906 -10.351562 6.828125 -10.21875 C 7.398438 -10.082031 7.90625 -9.867188 8.34375 -9.578125 C 8.789062 -9.296875 9.148438 -8.957031 9.421875 -8.5625 C 9.691406 -8.175781 9.890625 -7.722656 10.015625 -7.203125 C 10.148438 -6.679688 10.21875 -6.09375 10.21875 -5.4375 C 10.21875 -4.632812 10.125 -3.914062 9.9375 -3.28125 C 9.757812 -2.65625 9.484375 -2.117188 9.109375 -1.671875 C 8.773438 -1.273438 8.367188 -0.945312 7.890625 -0.6875 C 7.410156 -0.425781 6.859375 -0.242188 6.234375 -0.140625 C 5.691406 -0.046875 5.015625 0 4.203125 0 L 0.734375 0 L 0.734375 -0.5 C 0.921875 -0.550781 1.066406 -0.601562 1.171875 -0.65625 C 1.285156 -0.71875 1.367188 -0.800781 1.421875 -0.90625 C 1.472656 -1.007812 1.503906 -1.140625 1.515625 -1.296875 C 1.535156 -1.460938 1.546875 -1.671875 1.546875 -1.921875 L 1.546875 -8.484375 C 1.546875 -8.722656 1.539062 -8.925781 1.53125 -9.09375 C 1.519531 -9.257812 1.484375 -9.390625 1.421875 -9.484375 C 1.367188 -9.585938 1.285156 -9.671875 1.171875 -9.734375 C 1.066406 -9.796875 0.921875 -9.851562 0.734375 -9.90625 L 0.734375 -10.421875 Z M 3.90625 -0.921875 C 4 -0.910156 4.234375 -0.90625 4.609375 -0.90625 C 5.171875 -0.90625 5.640625 -0.984375 6.015625 -1.140625 C 6.304688 -1.265625 6.550781 -1.429688 6.75 -1.640625 C 7.070312 -1.992188 7.316406 -2.453125 7.484375 -3.015625 C 7.671875 -3.617188 7.765625 -4.363281 7.765625 -5.25 C 7.765625 -6.21875 7.632812 -7.019531 7.375 -7.65625 C 7.113281 -8.289062 6.75 -8.757812 6.28125 -9.0625 C 5.8125 -9.363281 5.25 -9.515625 4.59375 -9.515625 C 4.28125 -9.515625 4.050781 -9.507812 3.90625 -9.5 Z M 3.90625 -0.921875 "/></g></g></g><g fill="#ffffff" fill-opacity="1"><g transform="translate(21.566715, 14.677279)"><g><path d="M 7.234375 -7.90625 C 7.304688 -8.125 7.363281 -8.328125 7.40625 -8.515625 C 7.457031 -8.703125 7.484375 -8.898438 7.484375 -9.109375 C 7.484375 -9.359375 7.414062 -9.546875 7.28125 -9.671875 C 7.15625 -9.804688 6.957031 -9.882812 6.6875 -9.90625 L 6.6875 -10.421875 L 9.96875 -10.421875 L 9.96875 -9.90625 C 9.78125 -9.875 9.617188 -9.8125 9.484375 -9.71875 C 9.347656 -9.625 9.222656 -9.488281 9.109375 -9.3125 C 9.003906 -9.144531 8.878906 -8.863281 8.734375 -8.46875 L 5.53125 0.046875 L 3.765625 0.046875 L 1.25 -8.484375 C 1.132812 -8.867188 1.039062 -9.140625 0.96875 -9.296875 C 0.894531 -9.460938 0.796875 -9.59375 0.671875 -9.6875 C 0.546875 -9.789062 0.375 -9.863281 0.15625 -9.90625 L 0.15625 -10.421875 L 4.375 -10.421875 L 4.375 -9.90625 C 4.113281 -9.875 3.914062 -9.800781 3.78125 -9.6875 C 3.65625 -9.570312 3.59375 -9.40625 3.59375 -9.1875 C 3.59375 -9.019531 3.609375 -8.859375 3.640625 -8.703125 C 3.671875 -8.546875 3.738281 -8.289062 3.84375 -7.9375 L 5.34375 -2.453125 Z M 7.234375 -7.90625 "/></g></g></g><g fill="#ffffff" fill-opacity="1"><g transform="translate(31.479155, 14.677279)"><g><path d="M 3.90625 -1.921875 C 3.90625 -1.734375 3.910156 -1.5625 3.921875 -1.40625 C 3.929688 -1.257812 3.953125 -1.140625 3.984375 -1.046875 C 4.015625 -0.953125 4.0625 -0.867188 4.125 -0.796875 C 4.1875 -0.734375 4.265625 -0.675781 4.359375 -0.625 C 4.460938 -0.582031 4.585938 -0.539062 4.734375 -0.5 L 4.734375 0 L 0.734375 0 L 0.734375 -0.5 C 0.921875 -0.550781 1.066406 -0.601562 1.171875 -0.65625 C 1.285156 -0.71875 1.367188 -0.800781 1.421875 -0.90625 C 1.472656 -1.007812 1.503906 -1.140625 1.515625 -1.296875 C 1.535156 -1.460938 1.546875 -1.671875 1.546875 -1.921875 L 1.546875 -8.5 C 1.546875 -8.738281 1.539062 -8.9375 1.53125 -9.09375 C 1.519531 -9.257812 1.484375 -9.394531 1.421875 -9.5 C 1.367188 -9.601562 1.285156 -9.679688 1.171875 -9.734375 C 1.066406 -9.796875 0.921875 -9.851562 0.734375 -9.90625 L 0.734375 -10.421875 L 4.734375 -10.421875 L 4.734375 -9.90625 C 4.523438 -9.851562 4.367188 -9.796875 4.265625 -9.734375 C 4.171875 -9.671875 4.097656 -9.59375 4.046875 -9.5 C 3.992188 -9.40625 3.957031 -9.285156 3.9375 -9.140625 C 3.914062 -8.992188 3.90625 -8.773438 3.90625 -8.484375 Z M 3.90625 -1.921875 "/></g></g></g><g fill="#ffffff" fill-opacity="1"><g transform="translate(36.942823, 14.677279)"><g><path d="M 1.6875 -2.578125 C 1.8125 -1.960938 2.019531 -1.503906 2.3125 -1.203125 C 2.613281 -0.910156 3.050781 -0.765625 3.625 -0.765625 C 3.925781 -0.765625 4.195312 -0.816406 4.4375 -0.921875 C 4.675781 -1.023438 4.867188 -1.1875 5.015625 -1.40625 C 5.160156 -1.632812 5.234375 -1.921875 5.234375 -2.265625 C 5.234375 -2.578125 5.175781 -2.847656 5.0625 -3.078125 C 4.945312 -3.316406 4.757812 -3.539062 4.5 -3.75 C 4.238281 -3.957031 3.875 -4.175781 3.40625 -4.40625 C 3.007812 -4.601562 2.648438 -4.804688 2.328125 -5.015625 C 2.015625 -5.234375 1.742188 -5.472656 1.515625 -5.734375 C 1.285156 -5.992188 1.109375 -6.273438 0.984375 -6.578125 C 0.859375 -6.878906 0.796875 -7.222656 0.796875 -7.609375 C 0.796875 -8.234375 0.953125 -8.765625 1.265625 -9.203125 C 1.578125 -9.640625 2.023438 -9.96875 2.609375 -10.1875 C 3.203125 -10.414062 3.882812 -10.53125 4.65625 -10.53125 C 5.101562 -10.53125 5.53125 -10.503906 5.9375 -10.453125 C 6.351562 -10.410156 6.828125 -10.328125 7.359375 -10.203125 L 7.359375 -8 L 6.3125 -8 C 6.21875 -8.394531 6.09375 -8.710938 5.9375 -8.953125 C 5.789062 -9.191406 5.601562 -9.363281 5.375 -9.46875 C 5.15625 -9.582031 4.878906 -9.640625 4.546875 -9.640625 C 4.253906 -9.640625 3.992188 -9.585938 3.765625 -9.484375 C 3.535156 -9.390625 3.351562 -9.238281 3.21875 -9.03125 C 3.082031 -8.832031 3.015625 -8.59375 3.015625 -8.3125 C 3.015625 -8.007812 3.070312 -7.75 3.1875 -7.53125 C 3.300781 -7.320312 3.492188 -7.113281 3.765625 -6.90625 C 4.035156 -6.695312 4.425781 -6.460938 4.9375 -6.203125 C 5.5625 -5.878906 6.050781 -5.5625 6.40625 -5.25 C 6.769531 -4.9375 7.035156 -4.59375 7.203125 -4.21875 C 7.378906 -3.851562 7.46875 -3.425781 7.46875 -2.9375 C 7.46875 -2.3125 7.320312 -1.769531 7.03125 -1.3125 C 6.738281 -0.851562 6.316406 -0.5 5.765625 -0.25 C 5.210938 0 4.570312 0.125 3.84375 0.125 C 3.320312 0.125 2.78125 0.09375 2.21875 0.03125 C 1.65625 -0.0195312 1.128906 -0.101562 0.640625 -0.21875 L 0.640625 -2.578125 Z M 1.6875 -2.578125 "/></g></g></g><g fill="#ffffff" fill-opacity="1"><g transform="translate(44.962819, 14.677279)"><g><path d="M 5.296875 0.125 C 3.804688 0.125 2.6875 -0.3125 1.9375 -1.1875 C 1.1875 -2.0625 0.8125 -3.375 0.8125 -5.125 C 0.8125 -6.269531 0.992188 -7.242188 1.359375 -8.046875 C 1.722656 -8.859375 2.253906 -9.472656 2.953125 -9.890625 C 3.660156 -10.316406 4.503906 -10.53125 5.484375 -10.53125 C 7.003906 -10.53125 8.144531 -10.09375 8.90625 -9.21875 C 9.675781 -8.351562 10.0625 -7.0625 10.0625 -5.34375 C 10.0625 -4.382812 9.945312 -3.554688 9.71875 -2.859375 C 9.488281 -2.171875 9.164062 -1.601562 8.75 -1.15625 C 8.332031 -0.71875 7.832031 -0.394531 7.25 -0.1875 C 6.664062 0.0195312 6.015625 0.125 5.296875 0.125 Z M 3.234375 -5.328125 C 3.234375 -3.785156 3.414062 -2.640625 3.78125 -1.890625 C 4.15625 -1.140625 4.722656 -0.765625 5.484375 -0.765625 C 5.867188 -0.765625 6.195312 -0.867188 6.46875 -1.078125 C 6.75 -1.296875 6.972656 -1.59375 7.140625 -1.96875 C 7.316406 -2.351562 7.441406 -2.800781 7.515625 -3.3125 C 7.585938 -3.832031 7.625 -4.40625 7.625 -5.03125 C 7.625 -6.039062 7.539062 -6.882812 7.375 -7.5625 C 7.21875 -8.25 6.976562 -8.765625 6.65625 -9.109375 C 6.332031 -9.460938 5.921875 -9.640625 5.421875 -9.640625 C 4.679688 -9.640625 4.128906 -9.285156 3.765625 -8.578125 C 3.410156 -7.878906 3.234375 -6.796875 3.234375 -5.328125 Z M 3.234375 -5.328125 "/></g></g></g><g fill="#ffffff" fill-opacity="1"><g transform="translate(55.829109, 14.677279)"><g><path d="M 4.734375 0 L 0.734375 0 L 0.734375 -0.5 C 0.921875 -0.550781 1.066406 -0.601562 1.171875 -0.65625 C 1.285156 -0.71875 1.367188 -0.800781 1.421875 -0.90625 C 1.472656 -1.007812 1.503906 -1.140625 1.515625 -1.296875 C 1.535156 -1.460938 1.546875 -1.671875 1.546875 -1.921875 L 1.546875 -8.484375 C 1.546875 -8.722656 1.539062 -8.925781 1.53125 -9.09375 C 1.519531 -9.257812 1.484375 -9.390625 1.421875 -9.484375 C 1.367188 -9.585938 1.285156 -9.671875 1.171875 -9.734375 C 1.066406 -9.796875 0.921875 -9.851562 0.734375 -9.90625 L 0.734375 -10.421875 L 5.1875 -10.421875 C 5.78125 -10.421875 6.285156 -10.375 6.703125 -10.28125 C 7.128906 -10.195312 7.5 -10.070312 7.8125 -9.90625 C 8.070312 -9.757812 8.296875 -9.578125 8.484375 -9.359375 C 8.671875 -9.148438 8.8125 -8.898438 8.90625 -8.609375 C 9.007812 -8.316406 9.0625 -7.984375 9.0625 -7.609375 C 9.0625 -7.109375 8.972656 -6.679688 8.796875 -6.328125 C 8.617188 -5.972656 8.378906 -5.675781 8.078125 -5.4375 C 7.785156 -5.195312 7.390625 -4.972656 6.890625 -4.765625 L 6.890625 -4.6875 C 7.265625 -4.53125 7.570312 -4.3125 7.8125 -4.03125 C 8.0625 -3.757812 8.285156 -3.414062 8.484375 -3 L 8.96875 -1.96875 C 9.1875 -1.507812 9.398438 -1.160156 9.609375 -0.921875 C 9.816406 -0.691406 10.066406 -0.550781 10.359375 -0.5 L 10.359375 0 L 7.421875 0 C 7.128906 -0.40625 6.796875 -1.007812 6.421875 -1.8125 L 5.828125 -3.125 C 5.648438 -3.507812 5.5 -3.78125 5.375 -3.9375 C 5.25 -4.101562 5.117188 -4.21875 4.984375 -4.28125 C 4.847656 -4.34375 4.640625 -4.375 4.359375 -4.375 L 3.90625 -4.375 L 3.90625 -1.921875 C 3.90625 -1.535156 3.921875 -1.265625 3.953125 -1.109375 C 3.992188 -0.960938 4.066406 -0.84375 4.171875 -0.75 C 4.273438 -0.65625 4.460938 -0.570312 4.734375 -0.5 Z M 3.90625 -9.5 L 3.90625 -5.265625 L 4.671875 -5.265625 C 5.078125 -5.265625 5.410156 -5.316406 5.671875 -5.421875 C 5.941406 -5.535156 6.148438 -5.691406 6.296875 -5.890625 C 6.453125 -6.085938 6.5625 -6.316406 6.625 -6.578125 C 6.6875 -6.835938 6.71875 -7.128906 6.71875 -7.453125 C 6.71875 -8.140625 6.550781 -8.65625 6.21875 -9 C 5.894531 -9.34375 5.414062 -9.515625 4.78125 -9.515625 C 4.34375 -9.515625 4.050781 -9.507812 3.90625 -9.5 Z M 3.90625 -9.5 "/></g></g></g><g fill="#ffffff" fill-opacity="1"><g transform="translate(65.413388, 14.677279)"><g><path d="M 5.8125 -4 L 5.8125 -1.921875 C 5.8125 -1.648438 5.816406 -1.441406 5.828125 -1.296875 C 5.847656 -1.160156 5.878906 -1.046875 5.921875 -0.953125 C 5.960938 -0.867188 6.007812 -0.800781 6.0625 -0.75 C 6.125 -0.695312 6.207031 -0.648438 6.3125 -0.609375 C 6.414062 -0.566406 6.554688 -0.53125 6.734375 -0.5 L 6.734375 0 L 2.53125 0 L 2.53125 -0.5 C 2.738281 -0.539062 2.90625 -0.585938 3.03125 -0.640625 C 3.15625 -0.691406 3.242188 -0.769531 3.296875 -0.875 C 3.359375 -0.988281 3.398438 -1.128906 3.421875 -1.296875 C 3.441406 -1.460938 3.453125 -1.671875 3.453125 -1.921875 L 3.453125 -4 L 1.375 -8.375 C 1.195312 -8.738281 1.0625 -9.007812 0.96875 -9.1875 C 0.84375 -9.394531 0.738281 -9.546875 0.65625 -9.640625 C 0.570312 -9.734375 0.492188 -9.796875 0.421875 -9.828125 C 0.359375 -9.867188 0.257812 -9.894531 0.125 -9.90625 L 0.125 -10.421875 L 4.203125 -10.421875 L 4.203125 -9.90625 C 3.804688 -9.851562 3.609375 -9.660156 3.609375 -9.328125 C 3.609375 -9.191406 3.640625 -9.03125 3.703125 -8.84375 C 3.765625 -8.664062 3.867188 -8.425781 4.015625 -8.125 L 5.296875 -5.25 L 6.703125 -8.0625 C 6.835938 -8.332031 6.929688 -8.5625 6.984375 -8.75 C 7.035156 -8.9375 7.0625 -9.125 7.0625 -9.3125 C 7.0625 -9.488281 7.007812 -9.628906 6.90625 -9.734375 C 6.800781 -9.835938 6.65625 -9.894531 6.46875 -9.90625 L 6.46875 -10.421875 L 9.53125 -10.421875 L 9.53125 -9.90625 C 9.394531 -9.875 9.28125 -9.832031 9.1875 -9.78125 C 9.101562 -9.726562 9.003906 -9.644531 8.890625 -9.53125 C 8.785156 -9.414062 8.660156 -9.242188 8.515625 -9.015625 C 8.367188 -8.785156 8.195312 -8.488281 8 -8.125 Z M 5.8125 -4 "/></g></g></g><g fill="#ffffff" fill-opacity="1"><g transform="translate(74.860345, 14.677279)"><g/></g></g><g fill="#ffffff" fill-opacity="1"><g transform="translate(78.301848, 14.677279)"><g><path d="M 3.90625 -1.90625 C 3.90625 -1.570312 3.914062 -1.332031 3.9375 -1.1875 C 3.96875 -1.050781 4.015625 -0.941406 4.078125 -0.859375 C 4.140625 -0.773438 4.222656 -0.703125 4.328125 -0.640625 C 4.441406 -0.585938 4.613281 -0.539062 4.84375 -0.5 L 4.84375 0 L 0.734375 0 L 0.734375 -0.5 C 0.921875 -0.550781 1.066406 -0.601562 1.171875 -0.65625 C 1.285156 -0.71875 1.367188 -0.800781 1.421875 -0.90625 C 1.472656 -1.007812 1.503906 -1.140625 1.515625 -1.296875 C 1.535156 -1.460938 1.546875 -1.671875 1.546875 -1.921875 L 1.546875 -8.484375 C 1.546875 -8.722656 1.539062 -8.925781 1.53125 -9.09375 C 1.519531 -9.257812 1.484375 -9.390625 1.421875 -9.484375 C 1.367188 -9.585938 1.285156 -9.671875 1.171875 -9.734375 C 1.066406 -9.796875 0.921875 -9.851562 0.734375 -9.90625 L 0.734375 -10.421875 L 5.171875 -10.421875 C 6.453125 -10.421875 7.410156 -10.1875 8.046875 -9.71875 C 8.691406 -9.257812 9.015625 -8.550781 9.015625 -7.59375 C 9.015625 -6.914062 8.863281 -6.328125 8.5625 -5.828125 C 8.269531 -5.335938 7.835938 -4.960938 7.265625 -4.703125 C 6.691406 -4.441406 5.976562 -4.3125 5.125 -4.3125 C 4.632812 -4.3125 4.226562 -4.320312 3.90625 -4.34375 Z M 3.90625 -5.203125 L 4.5625 -5.203125 C 5.070312 -5.203125 5.476562 -5.273438 5.78125 -5.421875 C 6.082031 -5.566406 6.304688 -5.796875 6.453125 -6.109375 C 6.597656 -6.429688 6.671875 -6.859375 6.671875 -7.390625 C 6.671875 -7.921875 6.597656 -8.34375 6.453125 -8.65625 C 6.304688 -8.96875 6.09375 -9.1875 5.8125 -9.3125 C 5.53125 -9.445312 5.171875 -9.515625 4.734375 -9.515625 C 4.378906 -9.515625 4.101562 -9.507812 3.90625 -9.5 Z M 3.90625 -5.203125 "/></g></g></g><g fill="#ffffff" fill-opacity="1"><g transform="translate(86.451495, 14.677279)"><g><path d="M 6.15625 -3.234375 L 2.90625 -3.234375 L 2.640625 -2.5 C 2.578125 -2.300781 2.519531 -2.101562 2.46875 -1.90625 C 2.425781 -1.71875 2.40625 -1.515625 2.40625 -1.296875 C 2.40625 -0.804688 2.671875 -0.539062 3.203125 -0.5 L 3.203125 0 L -0.0625 0 L -0.0625 -0.5 C 0.125 -0.519531 0.289062 -0.585938 0.4375 -0.703125 C 0.582031 -0.816406 0.710938 -0.96875 0.828125 -1.15625 C 0.941406 -1.351562 1.066406 -1.628906 1.203125 -1.984375 L 4.375 -10.46875 L 6.421875 -10.46875 L 8.9375 -1.921875 C 9.050781 -1.535156 9.144531 -1.265625 9.21875 -1.109375 C 9.289062 -0.953125 9.390625 -0.820312 9.515625 -0.71875 C 9.640625 -0.625 9.8125 -0.550781 10.03125 -0.5 L 10.03125 0 L 5.8125 0 L 5.8125 -0.5 C 6.070312 -0.53125 6.265625 -0.601562 6.390625 -0.71875 C 6.523438 -0.84375 6.59375 -1.007812 6.59375 -1.21875 C 6.59375 -1.375 6.570312 -1.546875 6.53125 -1.734375 C 6.5 -1.929688 6.441406 -2.179688 6.359375 -2.484375 Z M 3.1875 -4.125 L 5.9375 -4.125 L 4.71875 -8.421875 Z M 3.1875 -4.125 "/></g></g></g><g fill="#ffffff" fill-opacity="1"><g transform="translate(96.638644, 14.677279)"><g><path d="M 4.734375 0 L 0.734375 0 L 0.734375 -0.5 C 0.921875 -0.550781 1.066406 -0.601562 1.171875 -0.65625 C 1.285156 -0.71875 1.367188 -0.800781 1.421875 -0.90625 C 1.472656 -1.007812 1.503906 -1.140625 1.515625 -1.296875 C 1.535156 -1.460938 1.546875 -1.671875 1.546875 -1.921875 L 1.546875 -8.484375 C 1.546875 -8.722656 1.539062 -8.925781 1.53125 -9.09375 C 1.519531 -9.257812 1.484375 -9.390625 1.421875 -9.484375 C 1.367188 -9.585938 1.285156 -9.671875 1.171875 -9.734375 C 1.066406 -9.796875 0.921875 -9.851562 0.734375 -9.90625 L 0.734375 -10.421875 L 5.1875 -10.421875 C 5.78125 -10.421875 6.285156 -10.375 6.703125 -10.28125 C 7.128906 -10.195312 7.5 -10.070312 7.8125 -9.90625 C 8.070312 -9.757812 8.296875 -9.578125 8.484375 -9.359375 C 8.671875 -9.148438 8.8125 -8.898438 8.90625 -8.609375 C 9.007812 -8.316406 9.0625 -7.984375 9.0625 -7.609375 C 9.0625 -7.109375 8.972656 -6.679688 8.796875 -6.328125 C 8.617188 -5.972656 8.378906 -5.675781 8.078125 -5.4375 C 7.785156 -5.195312 7.390625 -4.972656 6.890625 -4.765625 L 6.890625 -4.6875 C 7.265625 -4.53125 7.570312 -4.3125 7.8125 -4.03125 C 8.0625 -3.757812 8.285156 -3.414062 8.484375 -3 L 8.96875 -1.96875 C 9.1875 -1.507812 9.398438 -1.160156 9.609375 -0.921875 C 9.816406 -0.691406 10.066406 -0.550781 10.359375 -0.5 L 10.359375 0 L 7.421875 0 C 7.128906 -0.40625 6.796875 -1.007812 6.421875 -1.8125 L 5.828125 -3.125 C 5.648438 -3.507812 5.5 -3.78125 5.375 -3.9375 C 5.25 -4.101562 5.117188 -4.21875 4.984375 -4.28125 C 4.847656 -4.34375 4.640625 -4.375 4.359375 -4.375 L 3.90625 -4.375 L 3.90625 -1.921875 C 3.90625 -1.535156 3.921875 -1.265625 3.953125 -1.109375 C 3.992188 -0.960938 4.066406 -0.84375 4.171875 -0.75 C 4.273438 -0.65625 4.460938 -0.570312 4.734375 -0.5 Z M 3.90625 -9.5 L 3.90625 -5.265625 L 4.671875 -5.265625 C 5.078125 -5.265625 5.410156 -5.316406 5.671875 -5.421875 C 5.941406 -5.535156 6.148438 -5.691406 6.296875 -5.890625 C 6.453125 -6.085938 6.5625 -6.316406 6.625 -6.578125 C 6.6875 -6.835938 6.71875 -7.128906 6.71875 -7.453125 C 6.71875 -8.140625 6.550781 -8.65625 6.21875 -9 C 5.894531 -9.34375 5.414062 -9.515625 4.78125 -9.515625 C 4.34375 -9.515625 4.050781 -9.507812 3.90625 -9.5 Z M 3.90625 -9.5 "/></g></g></g><g fill="#ffffff" fill-opacity="1"><g transform="translate(106.337389, 14.677279)"><g><path d="M 2.890625 0 L 2.890625 -0.5 C 3.109375 -0.539062 3.273438 -0.585938 3.390625 -0.640625 C 3.515625 -0.703125 3.609375 -0.785156 3.671875 -0.890625 C 3.734375 -0.992188 3.769531 -1.128906 3.78125 -1.296875 C 3.800781 -1.460938 3.8125 -1.671875 3.8125 -1.921875 L 3.8125 -9.515625 L 3.203125 -9.515625 C 2.890625 -9.515625 2.648438 -9.476562 2.484375 -9.40625 C 2.328125 -9.34375 2.1875 -9.234375 2.0625 -9.078125 C 1.945312 -8.921875 1.84375 -8.710938 1.75 -8.453125 C 1.664062 -8.203125 1.597656 -7.960938 1.546875 -7.734375 L 0.5 -7.734375 L 0.5 -10.421875 L 9.484375 -10.421875 L 9.484375 -7.734375 L 8.4375 -7.734375 C 8.34375 -8.078125 8.265625 -8.332031 8.203125 -8.5 C 8.148438 -8.664062 8.085938 -8.804688 8.015625 -8.921875 C 7.953125 -9.035156 7.878906 -9.128906 7.796875 -9.203125 C 7.722656 -9.273438 7.644531 -9.332031 7.5625 -9.375 C 7.476562 -9.425781 7.367188 -9.460938 7.234375 -9.484375 C 7.109375 -9.503906 6.941406 -9.515625 6.734375 -9.515625 L 6.1875 -9.515625 L 6.1875 -1.921875 C 6.1875 -1.648438 6.191406 -1.441406 6.203125 -1.296875 C 6.210938 -1.160156 6.238281 -1.046875 6.28125 -0.953125 C 6.320312 -0.867188 6.367188 -0.800781 6.421875 -0.75 C 6.484375 -0.695312 6.566406 -0.648438 6.671875 -0.609375 C 6.785156 -0.566406 6.929688 -0.53125 7.109375 -0.5 L 7.109375 0 Z M 2.890625 0 "/></g></g></g><g fill="#ffffff" fill-opacity="1"><g transform="translate(116.326137, 14.677279)"><g><path d="M 9.984375 -10.421875 L 9.984375 -9.90625 C 9.773438 -9.84375 9.628906 -9.785156 9.546875 -9.734375 C 9.460938 -9.691406 9.390625 -9.628906 9.328125 -9.546875 C 9.273438 -9.472656 9.234375 -9.359375 9.203125 -9.203125 C 9.171875 -9.054688 9.15625 -8.820312 9.15625 -8.5 L 9.15625 0 L 7.21875 0 L 3.78125 -5.9375 C 3.320312 -6.738281 2.984375 -7.367188 2.765625 -7.828125 L 2.6875 -7.828125 C 2.738281 -6.734375 2.765625 -5.578125 2.765625 -4.359375 L 2.765625 -1.90625 C 2.765625 -1.519531 2.785156 -1.25 2.828125 -1.09375 C 2.867188 -0.945312 2.9375 -0.828125 3.03125 -0.734375 C 3.132812 -0.648438 3.320312 -0.570312 3.59375 -0.5 L 3.59375 0 L 0.703125 0 L 0.703125 -0.5 C 0.890625 -0.550781 1.035156 -0.609375 1.140625 -0.671875 C 1.253906 -0.734375 1.335938 -0.816406 1.390625 -0.921875 C 1.453125 -1.023438 1.488281 -1.15625 1.5 -1.3125 C 1.519531 -1.46875 1.53125 -1.664062 1.53125 -1.90625 L 1.53125 -8.5 C 1.53125 -8.882812 1.507812 -9.148438 1.46875 -9.296875 C 1.4375 -9.441406 1.367188 -9.5625 1.265625 -9.65625 C 1.160156 -9.75 0.972656 -9.832031 0.703125 -9.90625 L 0.703125 -10.421875 L 3.796875 -10.421875 L 6.5 -5.71875 C 6.664062 -5.425781 6.882812 -5.023438 7.15625 -4.515625 C 7.425781 -4.015625 7.664062 -3.539062 7.875 -3.09375 L 8 -3.09375 C 7.9375 -4.3125 7.90625 -5.640625 7.90625 -7.078125 L 7.90625 -8.5 C 7.90625 -8.832031 7.890625 -9.070312 7.859375 -9.21875 C 7.835938 -9.363281 7.800781 -9.472656 7.75 -9.546875 C 7.695312 -9.628906 7.625 -9.691406 7.53125 -9.734375 C 7.445312 -9.785156 7.300781 -9.84375 7.09375 -9.90625 L 7.09375 -10.421875 Z M 9.984375 -10.421875 "/></g></g></g><g fill="#ffffff" fill-opacity="1"><g transform="translate(126.940612, 14.677279)"><g><path d="M 8.296875 -10.421875 L 8.296875 -7.984375 L 7.25 -7.984375 C 7.082031 -8.472656 6.941406 -8.800781 6.828125 -8.96875 C 6.710938 -9.132812 6.570312 -9.265625 6.40625 -9.359375 C 6.25 -9.460938 5.972656 -9.515625 5.578125 -9.515625 L 3.90625 -9.515625 L 3.90625 -5.859375 L 4.921875 -5.859375 C 5.140625 -5.859375 5.3125 -5.890625 5.4375 -5.953125 C 5.570312 -6.015625 5.679688 -6.117188 5.765625 -6.265625 C 5.847656 -6.421875 5.925781 -6.648438 6 -6.953125 L 6.859375 -6.953125 L 6.859375 -3.859375 L 6 -3.859375 C 5.925781 -4.148438 5.847656 -4.375 5.765625 -4.53125 C 5.679688 -4.6875 5.578125 -4.796875 5.453125 -4.859375 C 5.335938 -4.929688 5.160156 -4.96875 4.921875 -4.96875 L 3.90625 -4.96875 L 3.90625 -0.890625 L 5.5625 -0.890625 C 5.75 -0.890625 5.898438 -0.898438 6.015625 -0.921875 C 6.140625 -0.953125 6.25 -0.992188 6.34375 -1.046875 C 6.445312 -1.097656 6.539062 -1.171875 6.625 -1.265625 C 6.71875 -1.367188 6.796875 -1.472656 6.859375 -1.578125 C 6.929688 -1.691406 7.003906 -1.835938 7.078125 -2.015625 C 7.148438 -2.203125 7.234375 -2.457031 7.328125 -2.78125 L 8.375 -2.78125 L 8.234375 0 L 0.734375 0 L 0.734375 -0.5 C 0.921875 -0.550781 1.066406 -0.601562 1.171875 -0.65625 C 1.285156 -0.71875 1.367188 -0.800781 1.421875 -0.90625 C 1.472656 -1.007812 1.503906 -1.140625 1.515625 -1.296875 C 1.535156 -1.460938 1.546875 -1.671875 1.546875 -1.921875 L 1.546875 -8.484375 C 1.546875 -8.722656 1.539062 -8.925781 1.53125 -9.09375 C 1.519531 -9.257812 1.484375 -9.390625 1.421875 -9.484375 C 1.367188 -9.585938 1.285156 -9.671875 1.171875 -9.734375 C 1.066406 -9.796875 0.921875 -9.851562 0.734375 -9.90625 L 0.734375 -10.421875 Z M 8.296875 -10.421875 "/></g></g></g><g fill="#ffffff" fill-opacity="1"><g transform="translate(135.967877, 14.677279)"><g><path d="M 4.734375 0 L 0.734375 0 L 0.734375 -0.5 C 0.921875 -0.550781 1.066406 -0.601562 1.171875 -0.65625 C 1.285156 -0.71875 1.367188 -0.800781 1.421875 -0.90625 C 1.472656 -1.007812 1.503906 -1.140625 1.515625 -1.296875 C 1.535156 -1.460938 1.546875 -1.671875 1.546875 -1.921875 L 1.546875 -8.484375 C 1.546875 -8.722656 1.539062 -8.925781 1.53125 -9.09375 C 1.519531 -9.257812 1.484375 -9.390625 1.421875 -9.484375 C 1.367188 -9.585938 1.285156 -9.671875 1.171875 -9.734375 C 1.066406 -9.796875 0.921875 -9.851562 0.734375 -9.90625 L 0.734375 -10.421875 L 5.1875 -10.421875 C 5.78125 -10.421875 6.285156 -10.375 6.703125 -10.28125 C 7.128906 -10.195312 7.5 -10.070312 7.8125 -9.90625 C 8.070312 -9.757812 8.296875 -9.578125 8.484375 -9.359375 C 8.671875 -9.148438 8.8125 -8.898438 8.90625 -8.609375 C 9.007812 -8.316406 9.0625 -7.984375 9.0625 -7.609375 C 9.0625 -7.109375 8.972656 -6.679688 8.796875 -6.328125 C 8.617188 -5.972656 8.378906 -5.675781 8.078125 -5.4375 C 7.785156 -5.195312 7.390625 -4.972656 6.890625 -4.765625 L 6.890625 -4.6875 C 7.265625 -4.53125 7.570312 -4.3125 7.8125 -4.03125 C 8.0625 -3.757812 8.285156 -3.414062 8.484375 -3 L 8.96875 -1.96875 C 9.1875 -1.507812 9.398438 -1.160156 9.609375 -0.921875 C 9.816406 -0.691406 10.066406 -0.550781 10.359375 -0.5 L 10.359375 0 L 7.421875 0 C 7.128906 -0.40625 6.796875 -1.007812 6.421875 -1.8125 L 5.828125 -3.125 C 5.648438 -3.507812 5.5 -3.78125 5.375 -3.9375 C 5.25 -4.101562 5.117188 -4.21875 4.984375 -4.28125 C 4.847656 -4.34375 4.640625 -4.375 4.359375 -4.375 L 3.90625 -4.375 L 3.90625 -1.921875 C 3.90625 -1.535156 3.921875 -1.265625 3.953125 -1.109375 C 3.992188 -0.960938 4.066406 -0.84375 4.171875 -0.75 C 4.273438 -0.65625 4.460938 -0.570312 4.734375 -0.5 Z M 3.90625 -9.5 L 3.90625 -5.265625 L 4.671875 -5.265625 C 5.078125 -5.265625 5.410156 -5.316406 5.671875 -5.421875 C 5.941406 -5.535156 6.148438 -5.691406 6.296875 -5.890625 C 6.453125 -6.085938 6.5625 -6.316406 6.625 -6.578125 C 6.6875 -6.835938 6.71875 -7.128906 6.71875 -7.453125 C 6.71875 -8.140625 6.550781 -8.65625 6.21875 -9 C 5.894531 -9.34375 5.414062 -9.515625 4.78125 -9.515625 C 4.34375 -9.515625 4.050781 -9.507812 3.90625 -9.5 Z M 3.90625 -9.5 "/></g></g></g><g fill="#ffffff" fill-opacity="1"><g transform="translate(146.155013, 14.677279)"><g><path d="M 1.6875 -2.578125 C 1.8125 -1.960938 2.019531 -1.503906 2.3125 -1.203125 C 2.613281 -0.910156 3.050781 -0.765625 3.625 -0.765625 C 3.925781 -0.765625 4.195312 -0.816406 4.4375 -0.921875 C 4.675781 -1.023438 4.867188 -1.1875 5.015625 -1.40625 C 5.160156 -1.632812 5.234375 -1.921875 5.234375 -2.265625 C 5.234375 -2.578125 5.175781 -2.847656 5.0625 -3.078125 C 4.945312 -3.316406 4.757812 -3.539062 4.5 -3.75 C 4.238281 -3.957031 3.875 -4.175781 3.40625 -4.40625 C 3.007812 -4.601562 2.648438 -4.804688 2.328125 -5.015625 C 2.015625 -5.234375 1.742188 -5.472656 1.515625 -5.734375 C 1.285156 -5.992188 1.109375 -6.273438 0.984375 -6.578125 C 0.859375 -6.878906 0.796875 -7.222656 0.796875 -7.609375 C 0.796875 -8.234375 0.953125 -8.765625 1.265625 -9.203125 C 1.578125 -9.640625 2.023438 -9.96875 2.609375 -10.1875 C 3.203125 -10.414062 3.882812 -10.53125 4.65625 -10.53125 C 5.101562 -10.53125 5.53125 -10.503906 5.9375 -10.453125 C 6.351562 -10.410156 6.828125 -10.328125 7.359375 -10.203125 L 7.359375 -8 L 6.3125 -8 C 6.21875 -8.394531 6.09375 -8.710938 5.9375 -8.953125 C 5.789062 -9.191406 5.601562 -9.363281 5.375 -9.46875 C 5.15625 -9.582031 4.878906 -9.640625 4.546875 -9.640625 C 4.253906 -9.640625 3.992188 -9.585938 3.765625 -9.484375 C 3.535156 -9.390625 3.351562 -9.238281 3.21875 -9.03125 C 3.082031 -8.832031 3.015625 -8.59375 3.015625 -8.3125 C 3.015625 -8.007812 3.070312 -7.75 3.1875 -7.53125 C 3.300781 -7.320312 3.492188 -7.113281 3.765625 -6.90625 C 4.035156 -6.695312 4.425781 -6.460938 4.9375 -6.203125 C 5.5625 -5.878906 6.050781 -5.5625 6.40625 -5.25 C 6.769531 -4.9375 7.035156 -4.59375 7.203125 -4.21875 C 7.378906 -3.851562 7.46875 -3.425781 7.46875 -2.9375 C 7.46875 -2.3125 7.320312 -1.769531 7.03125 -1.3125 C 6.738281 -0.851562 6.316406 -0.5 5.765625 -0.25 C 5.210938 0 4.570312 0.125 3.84375 0.125 C 3.320312 0.125 2.78125 0.09375 2.21875 0.03125 C 1.65625 -0.0195312 1.128906 -0.101562 0.640625 -0.21875 L 0.640625 -2.578125 Z M 1.6875 -2.578125 "/></g></g></g></g></g></svg>