<svg xmlns="http://www.w3.org/2000/svg" xmlns:xlink="http://www.w3.org/1999/xlink" width="240" zoomAndPan="magnify" viewBox="0 0 180 89.999999" height="120" preserveAspectRatio="xMidYMid meet" version="1.0"><defs><g/></defs><g fill="#473c2f" fill-opacity="1"><g transform="translate(42.978782, 42.75)"><g><path d="M 10.671875 -5.84375 C 10.671875 -4.800781 10.535156 -3.910156 10.265625 -3.171875 C 9.992188 -2.429688 9.601562 -1.828125 9.09375 -1.359375 C 8.582031 -0.890625 7.960938 -0.546875 7.234375 -0.328125 C 6.503906 -0.109375 5.640625 0 4.640625 0 L 1.921875 0 C 1.734375 0 1.570312 -0.0546875 1.4375 -0.171875 C 1.300781 -0.285156 1.234375 -0.472656 1.234375 -0.734375 L 1.234375 -10.640625 C 1.234375 -10.890625 1.300781 -11.070312 1.4375 -11.1875 C 1.570312 -11.300781 1.734375 -11.359375 1.921875 -11.359375 L 4.84375 -11.359375 C 5.851562 -11.359375 6.707031 -11.238281 7.40625 -11 C 8.113281 -10.769531 8.707031 -10.421875 9.1875 -9.953125 C 9.675781 -9.484375 10.046875 -8.90625 10.296875 -8.21875 C 10.546875 -7.539062 10.671875 -6.75 10.671875 -5.84375 Z M 8.296875 -5.765625 C 8.296875 -6.304688 8.226562 -6.804688 8.09375 -7.265625 C 7.96875 -7.734375 7.765625 -8.132812 7.484375 -8.46875 C 7.210938 -8.8125 6.859375 -9.078125 6.421875 -9.265625 C 5.984375 -9.453125 5.410156 -9.546875 4.703125 -9.546875 L 3.53125 -9.546875 L 3.53125 -1.828125 L 4.734375 -1.828125 C 5.367188 -1.828125 5.898438 -1.90625 6.328125 -2.0625 C 6.765625 -2.226562 7.128906 -2.476562 7.421875 -2.8125 C 7.710938 -3.144531 7.929688 -3.554688 8.078125 -4.046875 C 8.222656 -4.535156 8.296875 -5.109375 8.296875 -5.765625 Z M 8.296875 -5.765625 "/></g></g></g><g fill="#473c2f" fill-opacity="1"><g transform="translate(54.310687, 42.75)"><g><path d="M 9.03125 -4.296875 C 9.03125 -3.628906 8.941406 -3.019531 8.765625 -2.46875 C 8.585938 -1.914062 8.316406 -1.441406 7.953125 -1.046875 C 7.597656 -0.648438 7.148438 -0.34375 6.609375 -0.125 C 6.078125 0.09375 5.453125 0.203125 4.734375 0.203125 C 4.035156 0.203125 3.425781 0.109375 2.90625 -0.078125 C 2.394531 -0.273438 1.96875 -0.554688 1.625 -0.921875 C 1.289062 -1.296875 1.039062 -1.75 0.875 -2.28125 C 0.707031 -2.820312 0.625 -3.441406 0.625 -4.140625 C 0.625 -4.804688 0.710938 -5.414062 0.890625 -5.96875 C 1.078125 -6.519531 1.347656 -6.992188 1.703125 -7.390625 C 2.054688 -7.785156 2.5 -8.085938 3.03125 -8.296875 C 3.570312 -8.515625 4.203125 -8.625 4.921875 -8.625 C 5.628906 -8.625 6.238281 -8.53125 6.75 -8.34375 C 7.269531 -8.15625 7.695312 -7.875 8.03125 -7.5 C 8.363281 -7.132812 8.613281 -6.679688 8.78125 -6.140625 C 8.945312 -5.609375 9.03125 -4.992188 9.03125 -4.296875 Z M 6.75 -4.203125 C 6.75 -4.585938 6.71875 -4.941406 6.65625 -5.265625 C 6.59375 -5.597656 6.488281 -5.882812 6.34375 -6.125 C 6.195312 -6.363281 6.003906 -6.550781 5.765625 -6.6875 C 5.523438 -6.820312 5.21875 -6.890625 4.84375 -6.890625 C 4.519531 -6.890625 4.234375 -6.828125 3.984375 -6.703125 C 3.742188 -6.585938 3.539062 -6.410156 3.375 -6.171875 C 3.21875 -5.941406 3.097656 -5.664062 3.015625 -5.34375 C 2.941406 -5.019531 2.90625 -4.648438 2.90625 -4.234375 C 2.90625 -3.847656 2.9375 -3.488281 3 -3.15625 C 3.0625 -2.832031 3.164062 -2.550781 3.3125 -2.3125 C 3.457031 -2.070312 3.648438 -1.882812 3.890625 -1.75 C 4.140625 -1.625 4.445312 -1.5625 4.8125 -1.5625 C 5.144531 -1.5625 5.429688 -1.617188 5.671875 -1.734375 C 5.921875 -1.859375 6.125 -2.035156 6.28125 -2.265625 C 6.445312 -2.492188 6.566406 -2.769531 6.640625 -3.09375 C 6.710938 -3.414062 6.75 -3.785156 6.75 -4.203125 Z M 6.75 -4.203125 "/></g></g></g><g fill="#473c2f" fill-opacity="1"><g transform="translate(63.974844, 42.75)"><g><path d="M 6.625 -2.515625 C 6.625 -2.066406 6.539062 -1.671875 6.375 -1.328125 C 6.207031 -0.992188 5.96875 -0.710938 5.65625 -0.484375 C 5.351562 -0.253906 4.992188 -0.0820312 4.578125 0.03125 C 4.160156 0.144531 3.710938 0.203125 3.234375 0.203125 C 2.941406 0.203125 2.660156 0.175781 2.390625 0.125 C 2.128906 0.0820312 1.890625 0.03125 1.671875 -0.03125 C 1.460938 -0.09375 1.285156 -0.160156 1.140625 -0.234375 C 1.003906 -0.304688 0.90625 -0.375 0.84375 -0.4375 C 0.78125 -0.5 0.726562 -0.59375 0.6875 -0.71875 C 0.65625 -0.851562 0.640625 -1.050781 0.640625 -1.3125 C 0.640625 -1.476562 0.644531 -1.613281 0.65625 -1.71875 C 0.664062 -1.820312 0.679688 -1.90625 0.703125 -1.96875 C 0.734375 -2.03125 0.765625 -2.066406 0.796875 -2.078125 C 0.835938 -2.097656 0.882812 -2.109375 0.9375 -2.109375 C 1 -2.109375 1.09375 -2.070312 1.21875 -2 C 1.34375 -1.925781 1.5 -1.847656 1.6875 -1.765625 C 1.875 -1.679688 2.09375 -1.597656 2.34375 -1.515625 C 2.59375 -1.441406 2.875 -1.40625 3.1875 -1.40625 C 3.382812 -1.40625 3.5625 -1.425781 3.71875 -1.46875 C 3.875 -1.507812 4.007812 -1.566406 4.125 -1.640625 C 4.238281 -1.710938 4.320312 -1.804688 4.375 -1.921875 C 4.4375 -2.046875 4.46875 -2.179688 4.46875 -2.328125 C 4.46875 -2.503906 4.410156 -2.65625 4.296875 -2.78125 C 4.191406 -2.914062 4.050781 -3.03125 3.875 -3.125 C 3.695312 -3.21875 3.492188 -3.300781 3.265625 -3.375 C 3.046875 -3.457031 2.816406 -3.546875 2.578125 -3.640625 C 2.335938 -3.742188 2.101562 -3.859375 1.875 -3.984375 C 1.65625 -4.117188 1.457031 -4.28125 1.28125 -4.46875 C 1.101562 -4.65625 0.957031 -4.878906 0.84375 -5.140625 C 0.738281 -5.410156 0.6875 -5.726562 0.6875 -6.09375 C 0.6875 -6.46875 0.757812 -6.8125 0.90625 -7.125 C 1.050781 -7.4375 1.257812 -7.703125 1.53125 -7.921875 C 1.8125 -8.148438 2.148438 -8.320312 2.546875 -8.4375 C 2.941406 -8.5625 3.382812 -8.625 3.875 -8.625 C 4.113281 -8.625 4.347656 -8.609375 4.578125 -8.578125 C 4.816406 -8.546875 5.03125 -8.503906 5.21875 -8.453125 C 5.40625 -8.398438 5.5625 -8.34375 5.6875 -8.28125 C 5.820312 -8.21875 5.914062 -8.160156 5.96875 -8.109375 C 6.019531 -8.066406 6.054688 -8.023438 6.078125 -7.984375 C 6.109375 -7.941406 6.128906 -7.890625 6.140625 -7.828125 C 6.148438 -7.765625 6.160156 -7.6875 6.171875 -7.59375 C 6.179688 -7.507812 6.1875 -7.398438 6.1875 -7.265625 C 6.1875 -7.109375 6.179688 -6.976562 6.171875 -6.875 C 6.160156 -6.78125 6.144531 -6.703125 6.125 -6.640625 C 6.101562 -6.578125 6.070312 -6.535156 6.03125 -6.515625 C 6 -6.492188 5.960938 -6.484375 5.921875 -6.484375 C 5.867188 -6.484375 5.785156 -6.515625 5.671875 -6.578125 C 5.554688 -6.640625 5.414062 -6.707031 5.25 -6.78125 C 5.082031 -6.851562 4.890625 -6.914062 4.671875 -6.96875 C 4.453125 -7.03125 4.203125 -7.0625 3.921875 -7.0625 C 3.722656 -7.0625 3.550781 -7.039062 3.40625 -7 C 3.257812 -6.96875 3.140625 -6.910156 3.046875 -6.828125 C 2.953125 -6.753906 2.878906 -6.664062 2.828125 -6.5625 C 2.785156 -6.457031 2.765625 -6.347656 2.765625 -6.234375 C 2.765625 -6.054688 2.816406 -5.90625 2.921875 -5.78125 C 3.035156 -5.65625 3.179688 -5.546875 3.359375 -5.453125 C 3.546875 -5.359375 3.753906 -5.269531 3.984375 -5.1875 C 4.222656 -5.101562 4.457031 -5.015625 4.6875 -4.921875 C 4.925781 -4.828125 5.160156 -4.710938 5.390625 -4.578125 C 5.628906 -4.453125 5.835938 -4.296875 6.015625 -4.109375 C 6.191406 -3.921875 6.335938 -3.695312 6.453125 -3.4375 C 6.566406 -3.175781 6.625 -2.867188 6.625 -2.515625 Z M 6.625 -2.515625 "/></g></g></g><g fill="#473c2f" fill-opacity="1"><g transform="translate(71.146158, 42.75)"><g/></g></g><g fill="#473c2f" fill-opacity="1"><g transform="translate(75.210195, 42.75)"><g><path d="M 7.484375 -0.96875 C 7.484375 -0.789062 7.472656 -0.640625 7.453125 -0.515625 C 7.441406 -0.398438 7.421875 -0.300781 7.390625 -0.21875 C 7.359375 -0.144531 7.320312 -0.0859375 7.28125 -0.046875 C 7.238281 -0.015625 7.1875 0 7.125 0 L 1.921875 0 C 1.734375 0 1.570312 -0.0546875 1.4375 -0.171875 C 1.300781 -0.285156 1.234375 -0.472656 1.234375 -0.734375 L 1.234375 -11.046875 C 1.234375 -11.109375 1.253906 -11.160156 1.296875 -11.203125 C 1.335938 -11.253906 1.398438 -11.289062 1.484375 -11.3125 C 1.566406 -11.34375 1.679688 -11.367188 1.828125 -11.390625 C 1.984375 -11.410156 2.171875 -11.421875 2.390625 -11.421875 C 2.617188 -11.421875 2.804688 -11.410156 2.953125 -11.390625 C 3.097656 -11.367188 3.210938 -11.34375 3.296875 -11.3125 C 3.390625 -11.289062 3.457031 -11.253906 3.5 -11.203125 C 3.539062 -11.160156 3.5625 -11.109375 3.5625 -11.046875 L 3.5625 -1.90625 L 7.125 -1.90625 C 7.1875 -1.90625 7.238281 -1.890625 7.28125 -1.859375 C 7.320312 -1.828125 7.359375 -1.773438 7.390625 -1.703125 C 7.421875 -1.628906 7.441406 -1.53125 7.453125 -1.40625 C 7.472656 -1.289062 7.484375 -1.144531 7.484375 -0.96875 Z M 7.484375 -0.96875 "/></g></g></g><g fill="#473c2f" fill-opacity="1"><g transform="translate(82.811612, 42.75)"><g><path d="M 8.53125 -0.296875 C 8.53125 -0.234375 8.515625 -0.179688 8.484375 -0.140625 C 8.460938 -0.0976562 8.414062 -0.0625 8.34375 -0.03125 C 8.269531 0 8.171875 0.0195312 8.046875 0.03125 C 7.929688 0.0390625 7.78125 0.046875 7.59375 0.046875 C 7.40625 0.046875 7.25 0.0390625 7.125 0.03125 C 7.007812 0.0195312 6.914062 0 6.84375 -0.03125 C 6.769531 -0.0625 6.71875 -0.0976562 6.6875 -0.140625 C 6.65625 -0.179688 6.640625 -0.234375 6.640625 -0.296875 L 6.640625 -1.203125 C 6.210938 -0.734375 5.773438 -0.378906 5.328125 -0.140625 C 4.878906 0.0859375 4.414062 0.203125 3.9375 0.203125 C 3.394531 0.203125 2.941406 0.113281 2.578125 -0.0625 C 2.210938 -0.238281 1.914062 -0.476562 1.6875 -0.78125 C 1.46875 -1.082031 1.304688 -1.429688 1.203125 -1.828125 C 1.109375 -2.234375 1.0625 -2.738281 1.0625 -3.34375 L 1.0625 -8.125 C 1.0625 -8.1875 1.078125 -8.238281 1.109375 -8.28125 C 1.140625 -8.320312 1.195312 -8.359375 1.28125 -8.390625 C 1.363281 -8.421875 1.476562 -8.441406 1.625 -8.453125 C 1.769531 -8.472656 1.945312 -8.484375 2.15625 -8.484375 C 2.375 -8.484375 2.550781 -8.472656 2.6875 -8.453125 C 2.832031 -8.441406 2.945312 -8.421875 3.03125 -8.390625 C 3.113281 -8.359375 3.171875 -8.320312 3.203125 -8.28125 C 3.242188 -8.238281 3.265625 -8.1875 3.265625 -8.125 L 3.265625 -3.703125 C 3.265625 -3.296875 3.289062 -2.984375 3.34375 -2.765625 C 3.394531 -2.546875 3.472656 -2.359375 3.578125 -2.203125 C 3.691406 -2.046875 3.832031 -1.925781 4 -1.84375 C 4.164062 -1.757812 4.359375 -1.71875 4.578125 -1.71875 C 4.859375 -1.71875 5.140625 -1.816406 5.421875 -2.015625 C 5.710938 -2.222656 6.019531 -2.523438 6.34375 -2.921875 L 6.34375 -8.125 C 6.34375 -8.1875 6.359375 -8.238281 6.390625 -8.28125 C 6.421875 -8.320312 6.476562 -8.359375 6.5625 -8.390625 C 6.644531 -8.421875 6.753906 -8.441406 6.890625 -8.453125 C 7.035156 -8.472656 7.21875 -8.484375 7.4375 -8.484375 C 7.65625 -8.484375 7.832031 -8.472656 7.96875 -8.453125 C 8.113281 -8.441406 8.226562 -8.421875 8.3125 -8.390625 C 8.394531 -8.359375 8.453125 -8.320312 8.484375 -8.28125 C 8.515625 -8.238281 8.53125 -8.1875 8.53125 -8.125 Z M 8.53125 -0.296875 "/></g></g></g><g fill="#473c2f" fill-opacity="1"><g transform="translate(92.458214, 42.75)"><g><path d="M 3.3125 -0.296875 C 3.3125 -0.234375 3.296875 -0.179688 3.265625 -0.140625 C 3.234375 -0.0976562 3.171875 -0.0625 3.078125 -0.03125 C 2.992188 0 2.878906 0.0195312 2.734375 0.03125 C 2.597656 0.0390625 2.425781 0.046875 2.21875 0.046875 C 2 0.046875 1.816406 0.0390625 1.671875 0.03125 C 1.535156 0.0195312 1.425781 0 1.34375 -0.03125 C 1.257812 -0.0625 1.195312 -0.0976562 1.15625 -0.140625 C 1.125 -0.179688 1.109375 -0.234375 1.109375 -0.296875 L 1.109375 -8.109375 C 1.109375 -8.171875 1.125 -8.222656 1.15625 -8.265625 C 1.195312 -8.304688 1.257812 -8.34375 1.34375 -8.375 C 1.425781 -8.414062 1.535156 -8.441406 1.671875 -8.453125 C 1.816406 -8.472656 2 -8.484375 2.21875 -8.484375 C 2.425781 -8.484375 2.597656 -8.472656 2.734375 -8.453125 C 2.878906 -8.441406 2.992188 -8.414062 3.078125 -8.375 C 3.171875 -8.34375 3.234375 -8.304688 3.265625 -8.265625 C 3.296875 -8.222656 3.3125 -8.171875 3.3125 -8.109375 Z M 3.484375 -10.78125 C 3.484375 -10.332031 3.390625 -10.023438 3.203125 -9.859375 C 3.023438 -9.691406 2.691406 -9.609375 2.203125 -9.609375 C 1.703125 -9.609375 1.363281 -9.6875 1.1875 -9.84375 C 1.019531 -10.007812 0.9375 -10.304688 0.9375 -10.734375 C 0.9375 -11.179688 1.023438 -11.488281 1.203125 -11.65625 C 1.378906 -11.832031 1.71875 -11.921875 2.21875 -11.921875 C 2.707031 -11.921875 3.039062 -11.835938 3.21875 -11.671875 C 3.394531 -11.503906 3.484375 -11.207031 3.484375 -10.78125 Z M 3.484375 -10.78125 "/></g></g></g><g fill="#473c2f" fill-opacity="1"><g transform="translate(96.873356, 42.75)"><g><path d="M 6.625 -2.515625 C 6.625 -2.066406 6.539062 -1.671875 6.375 -1.328125 C 6.207031 -0.992188 5.96875 -0.710938 5.65625 -0.484375 C 5.351562 -0.253906 4.992188 -0.0820312 4.578125 0.03125 C 4.160156 0.144531 3.710938 0.203125 3.234375 0.203125 C 2.941406 0.203125 2.660156 0.175781 2.390625 0.125 C 2.128906 0.0820312 1.890625 0.03125 1.671875 -0.03125 C 1.460938 -0.09375 1.285156 -0.160156 1.140625 -0.234375 C 1.003906 -0.304688 0.90625 -0.375 0.84375 -0.4375 C 0.78125 -0.5 0.726562 -0.59375 0.6875 -0.71875 C 0.65625 -0.851562 0.640625 -1.050781 0.640625 -1.3125 C 0.640625 -1.476562 0.644531 -1.613281 0.65625 -1.71875 C 0.664062 -1.820312 0.679688 -1.90625 0.703125 -1.96875 C 0.734375 -2.03125 0.765625 -2.066406 0.796875 -2.078125 C 0.835938 -2.097656 0.882812 -2.109375 0.9375 -2.109375 C 1 -2.109375 1.09375 -2.070312 1.21875 -2 C 1.34375 -1.925781 1.5 -1.847656 1.6875 -1.765625 C 1.875 -1.679688 2.09375 -1.597656 2.34375 -1.515625 C 2.59375 -1.441406 2.875 -1.40625 3.1875 -1.40625 C 3.382812 -1.40625 3.5625 -1.425781 3.71875 -1.46875 C 3.875 -1.507812 4.007812 -1.566406 4.125 -1.640625 C 4.238281 -1.710938 4.320312 -1.804688 4.375 -1.921875 C 4.4375 -2.046875 4.46875 -2.179688 4.46875 -2.328125 C 4.46875 -2.503906 4.410156 -2.65625 4.296875 -2.78125 C 4.191406 -2.914062 4.050781 -3.03125 3.875 -3.125 C 3.695312 -3.21875 3.492188 -3.300781 3.265625 -3.375 C 3.046875 -3.457031 2.816406 -3.546875 2.578125 -3.640625 C 2.335938 -3.742188 2.101562 -3.859375 1.875 -3.984375 C 1.65625 -4.117188 1.457031 -4.28125 1.28125 -4.46875 C 1.101562 -4.65625 0.957031 -4.878906 0.84375 -5.140625 C 0.738281 -5.410156 0.6875 -5.726562 0.6875 -6.09375 C 0.6875 -6.46875 0.757812 -6.8125 0.90625 -7.125 C 1.050781 -7.4375 1.257812 -7.703125 1.53125 -7.921875 C 1.8125 -8.148438 2.148438 -8.320312 2.546875 -8.4375 C 2.941406 -8.5625 3.382812 -8.625 3.875 -8.625 C 4.113281 -8.625 4.347656 -8.609375 4.578125 -8.578125 C 4.816406 -8.546875 5.03125 -8.503906 5.21875 -8.453125 C 5.40625 -8.398438 5.5625 -8.34375 5.6875 -8.28125 C 5.820312 -8.21875 5.914062 -8.160156 5.96875 -8.109375 C 6.019531 -8.066406 6.054688 -8.023438 6.078125 -7.984375 C 6.109375 -7.941406 6.128906 -7.890625 6.140625 -7.828125 C 6.148438 -7.765625 6.160156 -7.6875 6.171875 -7.59375 C 6.179688 -7.507812 6.1875 -7.398438 6.1875 -7.265625 C 6.1875 -7.109375 6.179688 -6.976562 6.171875 -6.875 C 6.160156 -6.78125 6.144531 -6.703125 6.125 -6.640625 C 6.101562 -6.578125 6.070312 -6.535156 6.03125 -6.515625 C 6 -6.492188 5.960938 -6.484375 5.921875 -6.484375 C 5.867188 -6.484375 5.785156 -6.515625 5.671875 -6.578125 C 5.554688 -6.640625 5.414062 -6.707031 5.25 -6.78125 C 5.082031 -6.851562 4.890625 -6.914062 4.671875 -6.96875 C 4.453125 -7.03125 4.203125 -7.0625 3.921875 -7.0625 C 3.722656 -7.0625 3.550781 -7.039062 3.40625 -7 C 3.257812 -6.96875 3.140625 -6.910156 3.046875 -6.828125 C 2.953125 -6.753906 2.878906 -6.664062 2.828125 -6.5625 C 2.785156 -6.457031 2.765625 -6.347656 2.765625 -6.234375 C 2.765625 -6.054688 2.816406 -5.90625 2.921875 -5.78125 C 3.035156 -5.65625 3.179688 -5.546875 3.359375 -5.453125 C 3.546875 -5.359375 3.753906 -5.269531 3.984375 -5.1875 C 4.222656 -5.101562 4.457031 -5.015625 4.6875 -4.921875 C 4.925781 -4.828125 5.160156 -4.710938 5.390625 -4.578125 C 5.628906 -4.453125 5.835938 -4.296875 6.015625 -4.109375 C 6.191406 -3.921875 6.335938 -3.695312 6.453125 -3.4375 C 6.566406 -3.175781 6.625 -2.867188 6.625 -2.515625 Z M 6.625 -2.515625 "/></g></g></g><g fill="#473c2f" fill-opacity="1"><g transform="translate(104.04467, 42.75)"><g><path d="M 8.34375 -4.4375 C 8.34375 -4.175781 8.28125 -3.976562 8.15625 -3.84375 C 8.039062 -3.71875 7.878906 -3.65625 7.671875 -3.65625 L 2.890625 -3.65625 C 2.890625 -3.320312 2.929688 -3.015625 3.015625 -2.734375 C 3.097656 -2.460938 3.222656 -2.234375 3.390625 -2.046875 C 3.566406 -1.859375 3.789062 -1.710938 4.0625 -1.609375 C 4.332031 -1.515625 4.660156 -1.46875 5.046875 -1.46875 C 5.429688 -1.46875 5.769531 -1.492188 6.0625 -1.546875 C 6.351562 -1.609375 6.601562 -1.671875 6.8125 -1.734375 C 7.03125 -1.796875 7.207031 -1.851562 7.34375 -1.90625 C 7.488281 -1.96875 7.601562 -2 7.6875 -2 C 7.738281 -2 7.78125 -1.988281 7.8125 -1.96875 C 7.851562 -1.945312 7.882812 -1.910156 7.90625 -1.859375 C 7.9375 -1.804688 7.953125 -1.734375 7.953125 -1.640625 C 7.960938 -1.546875 7.96875 -1.421875 7.96875 -1.265625 C 7.96875 -1.140625 7.960938 -1.03125 7.953125 -0.9375 C 7.953125 -0.851562 7.945312 -0.773438 7.9375 -0.703125 C 7.925781 -0.640625 7.90625 -0.585938 7.875 -0.546875 C 7.851562 -0.503906 7.820312 -0.460938 7.78125 -0.421875 C 7.75 -0.378906 7.648438 -0.320312 7.484375 -0.25 C 7.316406 -0.1875 7.097656 -0.117188 6.828125 -0.046875 C 6.566406 0.015625 6.265625 0.0703125 5.921875 0.125 C 5.585938 0.175781 5.226562 0.203125 4.84375 0.203125 C 4.144531 0.203125 3.53125 0.113281 3 -0.0625 C 2.476562 -0.238281 2.039062 -0.503906 1.6875 -0.859375 C 1.34375 -1.210938 1.082031 -1.660156 0.90625 -2.203125 C 0.738281 -2.753906 0.65625 -3.394531 0.65625 -4.125 C 0.65625 -4.820312 0.742188 -5.445312 0.921875 -6 C 1.097656 -6.5625 1.359375 -7.035156 1.703125 -7.421875 C 2.054688 -7.816406 2.476562 -8.113281 2.96875 -8.3125 C 3.46875 -8.519531 4.023438 -8.625 4.640625 -8.625 C 5.296875 -8.625 5.859375 -8.523438 6.328125 -8.328125 C 6.796875 -8.140625 7.175781 -7.875 7.46875 -7.53125 C 7.769531 -7.195312 7.988281 -6.796875 8.125 -6.328125 C 8.269531 -5.859375 8.34375 -5.347656 8.34375 -4.796875 Z M 6.203125 -5.078125 C 6.210938 -5.691406 6.082031 -6.175781 5.8125 -6.53125 C 5.550781 -6.882812 5.144531 -7.0625 4.59375 -7.0625 C 4.3125 -7.0625 4.066406 -7.007812 3.859375 -6.90625 C 3.648438 -6.800781 3.476562 -6.660156 3.34375 -6.484375 C 3.207031 -6.304688 3.101562 -6.09375 3.03125 -5.84375 C 2.957031 -5.601562 2.910156 -5.347656 2.890625 -5.078125 Z M 6.203125 -5.078125 "/></g></g></g><g fill="#473c2f" fill-opacity="1"><g transform="translate(113.094394, 42.75)"><g><path d="M 6.625 -2.515625 C 6.625 -2.066406 6.539062 -1.671875 6.375 -1.328125 C 6.207031 -0.992188 5.96875 -0.710938 5.65625 -0.484375 C 5.351562 -0.253906 4.992188 -0.0820312 4.578125 0.03125 C 4.160156 0.144531 3.710938 0.203125 3.234375 0.203125 C 2.941406 0.203125 2.660156 0.175781 2.390625 0.125 C 2.128906 0.0820312 1.890625 0.03125 1.671875 -0.03125 C 1.460938 -0.09375 1.285156 -0.160156 1.140625 -0.234375 C 1.003906 -0.304688 0.90625 -0.375 0.84375 -0.4375 C 0.78125 -0.5 0.726562 -0.59375 0.6875 -0.71875 C 0.65625 -0.851562 0.640625 -1.050781 0.640625 -1.3125 C 0.640625 -1.476562 0.644531 -1.613281 0.65625 -1.71875 C 0.664062 -1.820312 0.679688 -1.90625 0.703125 -1.96875 C 0.734375 -2.03125 0.765625 -2.066406 0.796875 -2.078125 C 0.835938 -2.097656 0.882812 -2.109375 0.9375 -2.109375 C 1 -2.109375 1.09375 -2.070312 1.21875 -2 C 1.34375 -1.925781 1.5 -1.847656 1.6875 -1.765625 C 1.875 -1.679688 2.09375 -1.597656 2.34375 -1.515625 C 2.59375 -1.441406 2.875 -1.40625 3.1875 -1.40625 C 3.382812 -1.40625 3.5625 -1.425781 3.71875 -1.46875 C 3.875 -1.507812 4.007812 -1.566406 4.125 -1.640625 C 4.238281 -1.710938 4.320312 -1.804688 4.375 -1.921875 C 4.4375 -2.046875 4.46875 -2.179688 4.46875 -2.328125 C 4.46875 -2.503906 4.410156 -2.65625 4.296875 -2.78125 C 4.191406 -2.914062 4.050781 -3.03125 3.875 -3.125 C 3.695312 -3.21875 3.492188 -3.300781 3.265625 -3.375 C 3.046875 -3.457031 2.816406 -3.546875 2.578125 -3.640625 C 2.335938 -3.742188 2.101562 -3.859375 1.875 -3.984375 C 1.65625 -4.117188 1.457031 -4.28125 1.28125 -4.46875 C 1.101562 -4.65625 0.957031 -4.878906 0.84375 -5.140625 C 0.738281 -5.410156 0.6875 -5.726562 0.6875 -6.09375 C 0.6875 -6.46875 0.757812 -6.8125 0.90625 -7.125 C 1.050781 -7.4375 1.257812 -7.703125 1.53125 -7.921875 C 1.8125 -8.148438 2.148438 -8.320312 2.546875 -8.4375 C 2.941406 -8.5625 3.382812 -8.625 3.875 -8.625 C 4.113281 -8.625 4.347656 -8.609375 4.578125 -8.578125 C 4.816406 -8.546875 5.03125 -8.503906 5.21875 -8.453125 C 5.40625 -8.398438 5.5625 -8.34375 5.6875 -8.28125 C 5.820312 -8.21875 5.914062 -8.160156 5.96875 -8.109375 C 6.019531 -8.066406 6.054688 -8.023438 6.078125 -7.984375 C 6.109375 -7.941406 6.128906 -7.890625 6.140625 -7.828125 C 6.148438 -7.765625 6.160156 -7.6875 6.171875 -7.59375 C 6.179688 -7.507812 6.1875 -7.398438 6.1875 -7.265625 C 6.1875 -7.109375 6.179688 -6.976562 6.171875 -6.875 C 6.160156 -6.78125 6.144531 -6.703125 6.125 -6.640625 C 6.101562 -6.578125 6.070312 -6.535156 6.03125 -6.515625 C 6 -6.492188 5.960938 -6.484375 5.921875 -6.484375 C 5.867188 -6.484375 5.785156 -6.515625 5.671875 -6.578125 C 5.554688 -6.640625 5.414062 -6.707031 5.25 -6.78125 C 5.082031 -6.851562 4.890625 -6.914062 4.671875 -6.96875 C 4.453125 -7.03125 4.203125 -7.0625 3.921875 -7.0625 C 3.722656 -7.0625 3.550781 -7.039062 3.40625 -7 C 3.257812 -6.96875 3.140625 -6.910156 3.046875 -6.828125 C 2.953125 -6.753906 2.878906 -6.664062 2.828125 -6.5625 C 2.785156 -6.457031 2.765625 -6.347656 2.765625 -6.234375 C 2.765625 -6.054688 2.816406 -5.90625 2.921875 -5.78125 C 3.035156 -5.65625 3.179688 -5.546875 3.359375 -5.453125 C 3.546875 -5.359375 3.753906 -5.269531 3.984375 -5.1875 C 4.222656 -5.101562 4.457031 -5.015625 4.6875 -4.921875 C 4.925781 -4.828125 5.160156 -4.710938 5.390625 -4.578125 C 5.628906 -4.453125 5.835938 -4.296875 6.015625 -4.109375 C 6.191406 -3.921875 6.335938 -3.695312 6.453125 -3.4375 C 6.566406 -3.175781 6.625 -2.867188 6.625 -2.515625 Z M 6.625 -2.515625 "/></g></g></g><g fill="#473c2f" fill-opacity="1"><g transform="translate(120.265708, 42.75)"><g/></g></g><g fill="#473c2f" fill-opacity="1"><g transform="translate(124.329745, 42.75)"><g><path d="M 0.71875 -3.171875 C 0.71875 -3.492188 0.765625 -3.800781 0.859375 -4.09375 C 0.960938 -4.382812 1.109375 -4.65625 1.296875 -4.90625 C 1.492188 -5.164062 1.734375 -5.410156 2.015625 -5.640625 C 2.296875 -5.878906 2.625 -6.113281 3 -6.34375 C 2.789062 -6.613281 2.609375 -6.863281 2.453125 -7.09375 C 2.296875 -7.332031 2.164062 -7.5625 2.0625 -7.78125 C 1.96875 -8 1.894531 -8.203125 1.84375 -8.390625 C 1.789062 -8.585938 1.765625 -8.785156 1.765625 -8.984375 C 1.765625 -9.390625 1.835938 -9.769531 1.984375 -10.125 C 2.128906 -10.488281 2.359375 -10.800781 2.671875 -11.0625 C 2.984375 -11.332031 3.378906 -11.546875 3.859375 -11.703125 C 4.335938 -11.859375 4.910156 -11.9375 5.578125 -11.9375 C 6.191406 -11.9375 6.722656 -11.875 7.171875 -11.75 C 7.617188 -11.632812 7.984375 -11.46875 8.265625 -11.25 C 8.554688 -11.039062 8.769531 -10.78125 8.90625 -10.46875 C 9.050781 -10.15625 9.125 -9.800781 9.125 -9.40625 C 9.125 -9.0625 9.0625 -8.738281 8.9375 -8.4375 C 8.820312 -8.132812 8.640625 -7.847656 8.390625 -7.578125 C 8.148438 -7.316406 7.847656 -7.0625 7.484375 -6.8125 C 7.128906 -6.5625 6.707031 -6.3125 6.21875 -6.0625 C 6.375 -5.875 6.550781 -5.679688 6.75 -5.484375 C 6.945312 -5.285156 7.148438 -5.082031 7.359375 -4.875 C 7.566406 -4.675781 7.773438 -4.476562 7.984375 -4.28125 C 8.191406 -4.082031 8.394531 -3.894531 8.59375 -3.71875 C 8.675781 -3.84375 8.742188 -3.976562 8.796875 -4.125 C 8.859375 -4.28125 8.910156 -4.441406 8.953125 -4.609375 C 9.003906 -4.773438 9.039062 -4.945312 9.0625 -5.125 C 9.09375 -5.300781 9.109375 -5.472656 9.109375 -5.640625 L 9.109375 -5.921875 C 9.109375 -5.984375 9.117188 -6.035156 9.140625 -6.078125 C 9.160156 -6.128906 9.207031 -6.171875 9.28125 -6.203125 C 9.351562 -6.234375 9.457031 -6.253906 9.59375 -6.265625 C 9.738281 -6.273438 9.921875 -6.28125 10.140625 -6.28125 C 10.335938 -6.28125 10.503906 -6.273438 10.640625 -6.265625 C 10.773438 -6.265625 10.878906 -6.25 10.953125 -6.21875 C 11.035156 -6.1875 11.09375 -6.144531 11.125 -6.09375 C 11.15625 -6.050781 11.171875 -5.988281 11.171875 -5.90625 L 11.171875 -5.625 C 11.171875 -5.34375 11.148438 -5.054688 11.109375 -4.765625 C 11.078125 -4.484375 11.019531 -4.207031 10.9375 -3.9375 C 10.851562 -3.664062 10.753906 -3.40625 10.640625 -3.15625 C 10.523438 -2.90625 10.394531 -2.671875 10.25 -2.453125 C 10.457031 -2.296875 10.632812 -2.164062 10.78125 -2.0625 C 10.9375 -1.957031 11.066406 -1.875 11.171875 -1.8125 C 11.273438 -1.75 11.359375 -1.707031 11.421875 -1.6875 C 11.492188 -1.664062 11.554688 -1.65625 11.609375 -1.65625 C 11.671875 -1.65625 11.726562 -1.65625 11.78125 -1.65625 C 11.84375 -1.65625 11.890625 -1.632812 11.921875 -1.59375 C 11.960938 -1.550781 11.988281 -1.476562 12 -1.375 C 12.019531 -1.269531 12.03125 -1.113281 12.03125 -0.90625 C 12.03125 -0.6875 12.023438 -0.515625 12.015625 -0.390625 C 12.003906 -0.265625 11.988281 -0.171875 11.96875 -0.109375 C 11.945312 -0.0546875 11.910156 -0.015625 11.859375 0.015625 C 11.816406 0.0546875 11.734375 0.09375 11.609375 0.125 C 11.492188 0.15625 11.359375 0.171875 11.203125 0.171875 C 11.066406 0.171875 10.929688 0.15625 10.796875 0.125 C 10.660156 0.09375 10.5 0.0351562 10.3125 -0.046875 C 10.132812 -0.140625 9.925781 -0.257812 9.6875 -0.40625 C 9.445312 -0.5625 9.171875 -0.757812 8.859375 -1 C 8.578125 -0.8125 8.289062 -0.640625 8 -0.484375 C 7.707031 -0.335938 7.398438 -0.210938 7.078125 -0.109375 C 6.765625 -0.015625 6.4375 0.0546875 6.09375 0.109375 C 5.75 0.160156 5.382812 0.1875 5 0.1875 C 4.625 0.1875 4.253906 0.15625 3.890625 0.09375 C 3.523438 0.0390625 3.179688 -0.0390625 2.859375 -0.15625 C 2.546875 -0.28125 2.253906 -0.429688 1.984375 -0.609375 C 1.722656 -0.796875 1.5 -1.015625 1.3125 -1.265625 C 1.125 -1.515625 0.976562 -1.796875 0.875 -2.109375 C 0.769531 -2.429688 0.71875 -2.785156 0.71875 -3.171875 Z M 4.09375 -9.09375 C 4.09375 -8.96875 4.113281 -8.835938 4.15625 -8.703125 C 4.195312 -8.578125 4.253906 -8.441406 4.328125 -8.296875 C 4.398438 -8.160156 4.488281 -8.007812 4.59375 -7.84375 C 4.707031 -7.6875 4.835938 -7.515625 4.984375 -7.328125 C 5.328125 -7.515625 5.613281 -7.6875 5.84375 -7.84375 C 6.070312 -8 6.253906 -8.148438 6.390625 -8.296875 C 6.535156 -8.453125 6.632812 -8.601562 6.6875 -8.75 C 6.75 -8.894531 6.78125 -9.050781 6.78125 -9.21875 C 6.78125 -9.351562 6.753906 -9.484375 6.703125 -9.609375 C 6.648438 -9.734375 6.566406 -9.835938 6.453125 -9.921875 C 6.347656 -10.015625 6.210938 -10.085938 6.046875 -10.140625 C 5.878906 -10.191406 5.6875 -10.21875 5.46875 -10.21875 C 5.226562 -10.21875 5.019531 -10.191406 4.84375 -10.140625 C 4.664062 -10.085938 4.519531 -10.007812 4.40625 -9.90625 C 4.300781 -9.800781 4.222656 -9.675781 4.171875 -9.53125 C 4.117188 -9.394531 4.09375 -9.25 4.09375 -9.09375 Z M 3.109375 -3.296875 C 3.109375 -3.046875 3.15625 -2.8125 3.25 -2.59375 C 3.34375 -2.382812 3.476562 -2.203125 3.65625 -2.046875 C 3.832031 -1.898438 4.050781 -1.785156 4.3125 -1.703125 C 4.570312 -1.617188 4.867188 -1.578125 5.203125 -1.578125 C 5.378906 -1.578125 5.550781 -1.59375 5.71875 -1.625 C 5.894531 -1.65625 6.066406 -1.695312 6.234375 -1.75 C 6.398438 -1.800781 6.554688 -1.867188 6.703125 -1.953125 C 6.859375 -2.035156 7 -2.125 7.125 -2.21875 C 6.863281 -2.425781 6.597656 -2.644531 6.328125 -2.875 C 6.066406 -3.113281 5.8125 -3.351562 5.5625 -3.59375 C 5.3125 -3.832031 5.066406 -4.070312 4.828125 -4.3125 C 4.597656 -4.550781 4.394531 -4.773438 4.21875 -4.984375 C 4.007812 -4.859375 3.835938 -4.722656 3.703125 -4.578125 C 3.566406 -4.441406 3.453125 -4.300781 3.359375 -4.15625 C 3.273438 -4.019531 3.210938 -3.878906 3.171875 -3.734375 C 3.128906 -3.585938 3.109375 -3.441406 3.109375 -3.296875 Z M 0 -11.359375 Z M 0 -11.359375 "/></g></g></g><g fill="#473c2f" fill-opacity="1"><g transform="translate(63.263937, 56.249999)"><g><path d="M 9.46875 -3.40625 C 9.46875 -3 9.410156 -2.628906 9.296875 -2.296875 C 9.179688 -1.972656 9.023438 -1.6875 8.828125 -1.4375 C 8.640625 -1.1875 8.410156 -0.96875 8.140625 -0.78125 C 7.867188 -0.601562 7.566406 -0.457031 7.234375 -0.34375 C 6.910156 -0.226562 6.5625 -0.140625 6.1875 -0.078125 C 5.8125 -0.0234375 5.394531 0 4.9375 0 L 1.921875 0 C 1.734375 0 1.570312 -0.0546875 1.4375 -0.171875 C 1.300781 -0.285156 1.234375 -0.472656 1.234375 -0.734375 L 1.234375 -10.640625 C 1.234375 -10.890625 1.300781 -11.070312 1.4375 -11.1875 C 1.570312 -11.300781 1.734375 -11.359375 1.921875 -11.359375 L 4.78125 -11.359375 C 5.476562 -11.359375 6.066406 -11.300781 6.546875 -11.1875 C 7.023438 -11.070312 7.429688 -10.894531 7.765625 -10.65625 C 8.097656 -10.414062 8.351562 -10.113281 8.53125 -9.75 C 8.707031 -9.394531 8.796875 -8.96875 8.796875 -8.46875 C 8.796875 -8.195312 8.757812 -7.9375 8.6875 -7.6875 C 8.613281 -7.445312 8.507812 -7.226562 8.375 -7.03125 C 8.238281 -6.832031 8.070312 -6.65625 7.875 -6.5 C 7.6875 -6.351562 7.460938 -6.234375 7.203125 -6.140625 C 7.523438 -6.078125 7.820312 -5.972656 8.09375 -5.828125 C 8.375 -5.679688 8.613281 -5.492188 8.8125 -5.265625 C 9.007812 -5.035156 9.164062 -4.765625 9.28125 -4.453125 C 9.40625 -4.140625 9.46875 -3.789062 9.46875 -3.40625 Z M 6.484375 -8.1875 C 6.484375 -8.414062 6.445312 -8.617188 6.375 -8.796875 C 6.300781 -8.984375 6.191406 -9.132812 6.046875 -9.25 C 5.910156 -9.375 5.734375 -9.46875 5.515625 -9.53125 C 5.304688 -9.601562 5.023438 -9.640625 4.671875 -9.640625 L 3.5 -9.640625 L 3.5 -6.6875 L 4.796875 -6.6875 C 5.128906 -6.6875 5.394531 -6.722656 5.59375 -6.796875 C 5.789062 -6.878906 5.953125 -6.988281 6.078125 -7.125 C 6.210938 -7.257812 6.3125 -7.421875 6.375 -7.609375 C 6.445312 -7.796875 6.484375 -7.988281 6.484375 -8.1875 Z M 7.0625 -3.328125 C 7.0625 -3.585938 7.019531 -3.820312 6.9375 -4.03125 C 6.851562 -4.238281 6.722656 -4.410156 6.546875 -4.546875 C 6.378906 -4.691406 6.160156 -4.800781 5.890625 -4.875 C 5.628906 -4.957031 5.289062 -5 4.875 -5 L 3.5 -5 L 3.5 -1.765625 L 5.171875 -1.765625 C 5.492188 -1.765625 5.765625 -1.796875 5.984375 -1.859375 C 6.203125 -1.929688 6.390625 -2.03125 6.546875 -2.15625 C 6.710938 -2.289062 6.835938 -2.457031 6.921875 -2.65625 C 7.015625 -2.851562 7.0625 -3.078125 7.0625 -3.328125 Z M 7.0625 -3.328125 "/></g></g></g><g fill="#473c2f" fill-opacity="1"><g transform="translate(73.340642, 56.249999)"><g><path d="M 8.34375 -4.4375 C 8.34375 -4.175781 8.28125 -3.976562 8.15625 -3.84375 C 8.039062 -3.71875 7.878906 -3.65625 7.671875 -3.65625 L 2.890625 -3.65625 C 2.890625 -3.320312 2.929688 -3.015625 3.015625 -2.734375 C 3.097656 -2.460938 3.222656 -2.234375 3.390625 -2.046875 C 3.566406 -1.859375 3.789062 -1.710938 4.0625 -1.609375 C 4.332031 -1.515625 4.660156 -1.46875 5.046875 -1.46875 C 5.429688 -1.46875 5.769531 -1.492188 6.0625 -1.546875 C 6.351562 -1.609375 6.601562 -1.671875 6.8125 -1.734375 C 7.03125 -1.796875 7.207031 -1.851562 7.34375 -1.90625 C 7.488281 -1.96875 7.601562 -2 7.6875 -2 C 7.738281 -2 7.78125 -1.988281 7.8125 -1.96875 C 7.851562 -1.945312 7.882812 -1.910156 7.90625 -1.859375 C 7.9375 -1.804688 7.953125 -1.734375 7.953125 -1.640625 C 7.960938 -1.546875 7.96875 -1.421875 7.96875 -1.265625 C 7.96875 -1.140625 7.960938 -1.03125 7.953125 -0.9375 C 7.953125 -0.851562 7.945312 -0.773438 7.9375 -0.703125 C 7.925781 -0.640625 7.90625 -0.585938 7.875 -0.546875 C 7.851562 -0.503906 7.820312 -0.460938 7.78125 -0.421875 C 7.75 -0.378906 7.648438 -0.320312 7.484375 -0.25 C 7.316406 -0.1875 7.097656 -0.117188 6.828125 -0.046875 C 6.566406 0.015625 6.265625 0.0703125 5.921875 0.125 C 5.585938 0.175781 5.226562 0.203125 4.84375 0.203125 C 4.144531 0.203125 3.53125 0.113281 3 -0.0625 C 2.476562 -0.238281 2.039062 -0.503906 1.6875 -0.859375 C 1.34375 -1.210938 1.082031 -1.660156 0.90625 -2.203125 C 0.738281 -2.753906 0.65625 -3.394531 0.65625 -4.125 C 0.65625 -4.820312 0.742188 -5.445312 0.921875 -6 C 1.097656 -6.5625 1.359375 -7.035156 1.703125 -7.421875 C 2.054688 -7.816406 2.476562 -8.113281 2.96875 -8.3125 C 3.46875 -8.519531 4.023438 -8.625 4.640625 -8.625 C 5.296875 -8.625 5.859375 -8.523438 6.328125 -8.328125 C 6.796875 -8.140625 7.175781 -7.875 7.46875 -7.53125 C 7.769531 -7.195312 7.988281 -6.796875 8.125 -6.328125 C 8.269531 -5.859375 8.34375 -5.347656 8.34375 -4.796875 Z M 6.203125 -5.078125 C 6.210938 -5.691406 6.082031 -6.175781 5.8125 -6.53125 C 5.550781 -6.882812 5.144531 -7.0625 4.59375 -7.0625 C 4.3125 -7.0625 4.066406 -7.007812 3.859375 -6.90625 C 3.648438 -6.800781 3.476562 -6.660156 3.34375 -6.484375 C 3.207031 -6.304688 3.101562 -6.09375 3.03125 -5.84375 C 2.957031 -5.601562 2.910156 -5.347656 2.890625 -5.078125 Z M 6.203125 -5.078125 "/></g></g></g><g fill="#473c2f" fill-opacity="1"><g transform="translate(82.390366, 56.249999)"><g><path d="M 7.78125 -0.265625 C 7.78125 -0.191406 7.75 -0.128906 7.6875 -0.078125 C 7.632812 -0.0351562 7.546875 -0.00390625 7.421875 0.015625 C 7.296875 0.0351562 7.109375 0.046875 6.859375 0.046875 C 6.597656 0.046875 6.40625 0.0351562 6.28125 0.015625 C 6.164062 -0.00390625 6.082031 -0.0351562 6.03125 -0.078125 C 5.976562 -0.128906 5.953125 -0.191406 5.953125 -0.265625 L 5.953125 -0.890625 C 5.628906 -0.546875 5.257812 -0.273438 4.84375 -0.078125 C 4.4375 0.109375 3.984375 0.203125 3.484375 0.203125 C 3.066406 0.203125 2.679688 0.144531 2.328125 0.03125 C 1.984375 -0.0703125 1.679688 -0.226562 1.421875 -0.4375 C 1.171875 -0.65625 0.972656 -0.921875 0.828125 -1.234375 C 0.691406 -1.554688 0.625 -1.925781 0.625 -2.34375 C 0.625 -2.800781 0.710938 -3.195312 0.890625 -3.53125 C 1.066406 -3.875 1.332031 -4.15625 1.6875 -4.375 C 2.039062 -4.59375 2.476562 -4.753906 3 -4.859375 C 3.53125 -4.960938 4.144531 -5.015625 4.84375 -5.015625 L 5.609375 -5.015625 L 5.609375 -5.484375 C 5.609375 -5.734375 5.582031 -5.945312 5.53125 -6.125 C 5.488281 -6.3125 5.410156 -6.46875 5.296875 -6.59375 C 5.179688 -6.71875 5.023438 -6.804688 4.828125 -6.859375 C 4.640625 -6.921875 4.40625 -6.953125 4.125 -6.953125 C 3.757812 -6.953125 3.429688 -6.910156 3.140625 -6.828125 C 2.847656 -6.742188 2.585938 -6.648438 2.359375 -6.546875 C 2.140625 -6.453125 1.957031 -6.363281 1.8125 -6.28125 C 1.664062 -6.207031 1.546875 -6.171875 1.453125 -6.171875 C 1.390625 -6.171875 1.332031 -6.1875 1.28125 -6.21875 C 1.226562 -6.257812 1.1875 -6.316406 1.15625 -6.390625 C 1.125 -6.472656 1.097656 -6.566406 1.078125 -6.671875 C 1.054688 -6.785156 1.046875 -6.910156 1.046875 -7.046875 C 1.046875 -7.234375 1.0625 -7.378906 1.09375 -7.484375 C 1.125 -7.585938 1.179688 -7.679688 1.265625 -7.765625 C 1.347656 -7.847656 1.488281 -7.941406 1.6875 -8.046875 C 1.894531 -8.148438 2.132812 -8.242188 2.40625 -8.328125 C 2.6875 -8.421875 2.988281 -8.492188 3.3125 -8.546875 C 3.632812 -8.597656 3.972656 -8.625 4.328125 -8.625 C 4.941406 -8.625 5.460938 -8.5625 5.890625 -8.4375 C 6.328125 -8.320312 6.6875 -8.140625 6.96875 -7.890625 C 7.25 -7.648438 7.453125 -7.332031 7.578125 -6.9375 C 7.710938 -6.539062 7.78125 -6.078125 7.78125 -5.546875 Z M 5.609375 -3.625 L 4.765625 -3.625 C 4.410156 -3.625 4.109375 -3.597656 3.859375 -3.546875 C 3.609375 -3.492188 3.398438 -3.414062 3.234375 -3.3125 C 3.078125 -3.207031 2.960938 -3.078125 2.890625 -2.921875 C 2.816406 -2.773438 2.78125 -2.609375 2.78125 -2.421875 C 2.78125 -2.085938 2.882812 -1.828125 3.09375 -1.640625 C 3.300781 -1.453125 3.585938 -1.359375 3.953125 -1.359375 C 4.265625 -1.359375 4.550781 -1.4375 4.8125 -1.59375 C 5.070312 -1.75 5.335938 -1.984375 5.609375 -2.296875 Z M 5.609375 -3.625 "/></g></g></g><g fill="#473c2f" fill-opacity="1"><g transform="translate(91.264538, 56.249999)"><g><path d="M 8.59375 -0.296875 C 8.59375 -0.234375 8.570312 -0.179688 8.53125 -0.140625 C 8.5 -0.0976562 8.441406 -0.0625 8.359375 -0.03125 C 8.273438 0 8.160156 0.0195312 8.015625 0.03125 C 7.878906 0.0390625 7.703125 0.046875 7.484375 0.046875 C 7.273438 0.046875 7.097656 0.0390625 6.953125 0.03125 C 6.804688 0.0195312 6.691406 0 6.609375 -0.03125 C 6.523438 -0.0625 6.46875 -0.0976562 6.4375 -0.140625 C 6.40625 -0.179688 6.390625 -0.234375 6.390625 -0.296875 L 6.390625 -4.765625 C 6.390625 -5.148438 6.359375 -5.445312 6.296875 -5.65625 C 6.242188 -5.875 6.164062 -6.0625 6.0625 -6.21875 C 5.957031 -6.375 5.820312 -6.492188 5.65625 -6.578125 C 5.488281 -6.660156 5.289062 -6.703125 5.0625 -6.703125 C 4.78125 -6.703125 4.492188 -6.597656 4.203125 -6.390625 C 3.921875 -6.191406 3.625 -5.894531 3.3125 -5.5 L 3.3125 -0.296875 C 3.3125 -0.234375 3.296875 -0.179688 3.265625 -0.140625 C 3.234375 -0.0976562 3.171875 -0.0625 3.078125 -0.03125 C 2.992188 0 2.878906 0.0195312 2.734375 0.03125 C 2.597656 0.0390625 2.425781 0.046875 2.21875 0.046875 C 2 0.046875 1.816406 0.0390625 1.671875 0.03125 C 1.535156 0.0195312 1.425781 0 1.34375 -0.03125 C 1.257812 -0.0625 1.195312 -0.0976562 1.15625 -0.140625 C 1.125 -0.179688 1.109375 -0.234375 1.109375 -0.296875 L 1.109375 -8.125 C 1.109375 -8.1875 1.117188 -8.238281 1.140625 -8.28125 C 1.171875 -8.320312 1.222656 -8.359375 1.296875 -8.390625 C 1.378906 -8.421875 1.476562 -8.441406 1.59375 -8.453125 C 1.71875 -8.472656 1.875 -8.484375 2.0625 -8.484375 C 2.238281 -8.484375 2.390625 -8.472656 2.515625 -8.453125 C 2.640625 -8.441406 2.734375 -8.421875 2.796875 -8.390625 C 2.867188 -8.359375 2.921875 -8.320312 2.953125 -8.28125 C 2.984375 -8.238281 3 -8.1875 3 -8.125 L 3 -7.234375 C 3.425781 -7.691406 3.863281 -8.035156 4.3125 -8.265625 C 4.757812 -8.503906 5.226562 -8.625 5.71875 -8.625 C 6.25 -8.625 6.695312 -8.535156 7.0625 -8.359375 C 7.425781 -8.191406 7.722656 -7.957031 7.953125 -7.65625 C 8.179688 -7.351562 8.34375 -7 8.4375 -6.59375 C 8.539062 -6.1875 8.59375 -5.703125 8.59375 -5.140625 Z M 8.59375 -0.296875 "/></g></g></g><g fill="#473c2f" fill-opacity="1"><g transform="translate(100.91114, 56.249999)"><g><path d="M 6.59375 -0.90625 C 6.59375 -0.738281 6.582031 -0.59375 6.5625 -0.46875 C 6.539062 -0.351562 6.515625 -0.257812 6.484375 -0.1875 C 6.460938 -0.113281 6.425781 -0.0625 6.375 -0.03125 C 6.332031 -0.0078125 6.28125 0 6.21875 0 L 1.09375 0 C 0.9375 0 0.816406 -0.0507812 0.734375 -0.15625 C 0.648438 -0.257812 0.609375 -0.429688 0.609375 -0.671875 L 0.609375 -1.078125 C 0.609375 -1.179688 0.609375 -1.273438 0.609375 -1.359375 C 0.617188 -1.453125 0.640625 -1.535156 0.671875 -1.609375 C 0.703125 -1.691406 0.738281 -1.769531 0.78125 -1.84375 C 0.820312 -1.925781 0.878906 -2.019531 0.953125 -2.125 L 3.875 -6.65625 L 1.109375 -6.65625 C 0.992188 -6.65625 0.898438 -6.722656 0.828125 -6.859375 C 0.765625 -7.003906 0.734375 -7.234375 0.734375 -7.546875 C 0.734375 -7.710938 0.738281 -7.851562 0.75 -7.96875 C 0.769531 -8.082031 0.796875 -8.171875 0.828125 -8.234375 C 0.859375 -8.304688 0.894531 -8.359375 0.9375 -8.390625 C 0.988281 -8.421875 1.046875 -8.4375 1.109375 -8.4375 L 5.890625 -8.4375 C 5.972656 -8.4375 6.039062 -8.425781 6.09375 -8.40625 C 6.15625 -8.382812 6.207031 -8.347656 6.25 -8.296875 C 6.289062 -8.253906 6.316406 -8.191406 6.328125 -8.109375 C 6.347656 -8.023438 6.359375 -7.925781 6.359375 -7.8125 L 6.359375 -7.375 C 6.359375 -7.257812 6.351562 -7.15625 6.34375 -7.0625 C 6.332031 -6.96875 6.316406 -6.878906 6.296875 -6.796875 C 6.273438 -6.722656 6.238281 -6.644531 6.1875 -6.5625 C 6.144531 -6.476562 6.097656 -6.390625 6.046875 -6.296875 L 3.125 -1.78125 L 6.21875 -1.78125 C 6.269531 -1.78125 6.316406 -1.765625 6.359375 -1.734375 C 6.410156 -1.710938 6.453125 -1.671875 6.484375 -1.609375 C 6.515625 -1.546875 6.539062 -1.457031 6.5625 -1.34375 C 6.582031 -1.226562 6.59375 -1.082031 6.59375 -0.90625 Z M 6.59375 -0.90625 "/></g></g></g><g fill="#473c2f" fill-opacity="1"><g transform="translate(107.827892, 56.249999)"><g><path d="M 7.78125 -0.265625 C 7.78125 -0.191406 7.75 -0.128906 7.6875 -0.078125 C 7.632812 -0.0351562 7.546875 -0.00390625 7.421875 0.015625 C 7.296875 0.0351562 7.109375 0.046875 6.859375 0.046875 C 6.597656 0.046875 6.40625 0.0351562 6.28125 0.015625 C 6.164062 -0.00390625 6.082031 -0.0351562 6.03125 -0.078125 C 5.976562 -0.128906 5.953125 -0.191406 5.953125 -0.265625 L 5.953125 -0.890625 C 5.628906 -0.546875 5.257812 -0.273438 4.84375 -0.078125 C 4.4375 0.109375 3.984375 0.203125 3.484375 0.203125 C 3.066406 0.203125 2.679688 0.144531 2.328125 0.03125 C 1.984375 -0.0703125 1.679688 -0.226562 1.421875 -0.4375 C 1.171875 -0.65625 0.972656 -0.921875 0.828125 -1.234375 C 0.691406 -1.554688 0.625 -1.925781 0.625 -2.34375 C 0.625 -2.800781 0.710938 -3.195312 0.890625 -3.53125 C 1.066406 -3.875 1.332031 -4.15625 1.6875 -4.375 C 2.039062 -4.59375 2.476562 -4.753906 3 -4.859375 C 3.53125 -4.960938 4.144531 -5.015625 4.84375 -5.015625 L 5.609375 -5.015625 L 5.609375 -5.484375 C 5.609375 -5.734375 5.582031 -5.945312 5.53125 -6.125 C 5.488281 -6.3125 5.410156 -6.46875 5.296875 -6.59375 C 5.179688 -6.71875 5.023438 -6.804688 4.828125 -6.859375 C 4.640625 -6.921875 4.40625 -6.953125 4.125 -6.953125 C 3.757812 -6.953125 3.429688 -6.910156 3.140625 -6.828125 C 2.847656 -6.742188 2.585938 -6.648438 2.359375 -6.546875 C 2.140625 -6.453125 1.957031 -6.363281 1.8125 -6.28125 C 1.664062 -6.207031 1.546875 -6.171875 1.453125 -6.171875 C 1.390625 -6.171875 1.332031 -6.1875 1.28125 -6.21875 C 1.226562 -6.257812 1.1875 -6.316406 1.15625 -6.390625 C 1.125 -6.472656 1.097656 -6.566406 1.078125 -6.671875 C 1.054688 -6.785156 1.046875 -6.910156 1.046875 -7.046875 C 1.046875 -7.234375 1.0625 -7.378906 1.09375 -7.484375 C 1.125 -7.585938 1.179688 -7.679688 1.265625 -7.765625 C 1.347656 -7.847656 1.488281 -7.941406 1.6875 -8.046875 C 1.894531 -8.148438 2.132812 -8.242188 2.40625 -8.328125 C 2.6875 -8.421875 2.988281 -8.492188 3.3125 -8.546875 C 3.632812 -8.597656 3.972656 -8.625 4.328125 -8.625 C 4.941406 -8.625 5.460938 -8.5625 5.890625 -8.4375 C 6.328125 -8.320312 6.6875 -8.140625 6.96875 -7.890625 C 7.25 -7.648438 7.453125 -7.332031 7.578125 -6.9375 C 7.710938 -6.539062 7.78125 -6.078125 7.78125 -5.546875 Z M 5.609375 -3.625 L 4.765625 -3.625 C 4.410156 -3.625 4.109375 -3.597656 3.859375 -3.546875 C 3.609375 -3.492188 3.398438 -3.414062 3.234375 -3.3125 C 3.078125 -3.207031 2.960938 -3.078125 2.890625 -2.921875 C 2.816406 -2.773438 2.78125 -2.609375 2.78125 -2.421875 C 2.78125 -2.085938 2.882812 -1.828125 3.09375 -1.640625 C 3.300781 -1.453125 3.585938 -1.359375 3.953125 -1.359375 C 4.265625 -1.359375 4.550781 -1.4375 4.8125 -1.59375 C 5.070312 -1.75 5.335938 -1.984375 5.609375 -2.296875 Z M 5.609375 -3.625 "/></g></g></g></svg>