<svg xmlns="http://www.w3.org/2000/svg" xmlns:xlink="http://www.w3.org/1999/xlink" width="240" zoomAndPan="magnify" viewBox="0 0 180 89.999999" height="120" preserveAspectRatio="xMidYMid meet" version="1.0"><defs><g/><clipPath id="172bb4f3d9"><rect x="0" width="112" y="0" height="20"/></clipPath></defs><g transform="matrix(1, 0, 0, 1, 34, 35)"><g clip-path="url(#172bb4f3d9)"><g fill="#473c2f" fill-opacity="1"><g transform="translate(0.753964, 14.47466)"><g><path d="M 10.359375 -9.59375 C 10.359375 -9.425781 10.347656 -9.28125 10.328125 -9.15625 C 10.316406 -9.03125 10.296875 -8.929688 10.265625 -8.859375 C 10.242188 -8.785156 10.210938 -8.734375 10.171875 -8.703125 C 10.128906 -8.679688 10.082031 -8.671875 10.03125 -8.671875 C 9.957031 -8.671875 9.832031 -8.722656 9.65625 -8.828125 C 9.488281 -8.929688 9.265625 -9.046875 8.984375 -9.171875 C 8.710938 -9.296875 8.378906 -9.410156 7.984375 -9.515625 C 7.597656 -9.617188 7.144531 -9.671875 6.625 -9.671875 C 6.070312 -9.671875 5.570312 -9.570312 5.125 -9.375 C 4.6875 -9.1875 4.304688 -8.914062 3.984375 -8.5625 C 3.671875 -8.21875 3.429688 -7.800781 3.265625 -7.3125 C 3.097656 -6.832031 3.015625 -6.296875 3.015625 -5.703125 C 3.015625 -5.046875 3.097656 -4.46875 3.265625 -3.96875 C 3.441406 -3.476562 3.6875 -3.066406 4 -2.734375 C 4.3125 -2.398438 4.679688 -2.148438 5.109375 -1.984375 C 5.546875 -1.816406 6.03125 -1.734375 6.5625 -1.734375 C 6.820312 -1.734375 7.078125 -1.757812 7.328125 -1.8125 C 7.578125 -1.875 7.8125 -1.960938 8.03125 -2.078125 L 8.03125 -4.71875 L 5.875 -4.71875 C 5.769531 -4.71875 5.6875 -4.78125 5.625 -4.90625 C 5.570312 -5.039062 5.546875 -5.265625 5.546875 -5.578125 C 5.546875 -5.742188 5.550781 -5.882812 5.5625 -6 C 5.570312 -6.113281 5.59375 -6.203125 5.625 -6.265625 C 5.65625 -6.328125 5.691406 -6.375 5.734375 -6.40625 C 5.773438 -6.445312 5.820312 -6.46875 5.875 -6.46875 L 9.71875 -6.46875 C 9.8125 -6.46875 9.894531 -6.445312 9.96875 -6.40625 C 10.039062 -6.375 10.101562 -6.328125 10.15625 -6.265625 C 10.207031 -6.203125 10.25 -6.125 10.28125 -6.03125 C 10.3125 -5.945312 10.328125 -5.84375 10.328125 -5.71875 L 10.328125 -1.203125 C 10.328125 -1.023438 10.296875 -0.867188 10.234375 -0.734375 C 10.171875 -0.609375 10.046875 -0.503906 9.859375 -0.421875 C 9.671875 -0.347656 9.4375 -0.269531 9.15625 -0.1875 C 8.875 -0.101562 8.582031 -0.0351562 8.28125 0.015625 C 7.976562 0.078125 7.671875 0.117188 7.359375 0.140625 C 7.054688 0.171875 6.75 0.1875 6.4375 0.1875 C 5.53125 0.1875 4.71875 0.0546875 4 -0.203125 C 3.28125 -0.460938 2.671875 -0.835938 2.171875 -1.328125 C 1.679688 -1.828125 1.300781 -2.429688 1.03125 -3.140625 C 0.769531 -3.847656 0.640625 -4.65625 0.640625 -5.5625 C 0.640625 -6.488281 0.78125 -7.320312 1.0625 -8.0625 C 1.34375 -8.800781 1.738281 -9.429688 2.25 -9.953125 C 2.769531 -10.472656 3.394531 -10.867188 4.125 -11.140625 C 4.851562 -11.421875 5.664062 -11.5625 6.5625 -11.5625 C 7.050781 -11.5625 7.5 -11.523438 7.90625 -11.453125 C 8.3125 -11.390625 8.660156 -11.304688 8.953125 -11.203125 C 9.253906 -11.109375 9.503906 -11.003906 9.703125 -10.890625 C 9.910156 -10.785156 10.050781 -10.691406 10.125 -10.609375 C 10.207031 -10.523438 10.265625 -10.40625 10.296875 -10.25 C 10.335938 -10.101562 10.359375 -9.882812 10.359375 -9.59375 Z M 10.359375 -9.59375 "/></g></g></g><g fill="#473c2f" fill-opacity="1"><g transform="translate(12.20826, 14.47466)"><g><path d="M 6.140625 -7.40625 C 6.140625 -7.195312 6.132812 -7.023438 6.125 -6.890625 C 6.113281 -6.753906 6.09375 -6.644531 6.0625 -6.5625 C 6.039062 -6.488281 6.007812 -6.4375 5.96875 -6.40625 C 5.9375 -6.375 5.890625 -6.359375 5.828125 -6.359375 C 5.785156 -6.359375 5.734375 -6.367188 5.671875 -6.390625 C 5.609375 -6.410156 5.539062 -6.429688 5.46875 -6.453125 C 5.394531 -6.484375 5.316406 -6.507812 5.234375 -6.53125 C 5.148438 -6.550781 5.050781 -6.5625 4.9375 -6.5625 C 4.820312 -6.5625 4.703125 -6.535156 4.578125 -6.484375 C 4.453125 -6.429688 4.320312 -6.351562 4.1875 -6.25 C 4.0625 -6.144531 3.925781 -6.003906 3.78125 -5.828125 C 3.632812 -5.648438 3.476562 -5.4375 3.3125 -5.1875 L 3.3125 -0.296875 C 3.3125 -0.234375 3.296875 -0.179688 3.265625 -0.140625 C 3.234375 -0.0976562 3.171875 -0.0625 3.078125 -0.03125 C 2.992188 0 2.878906 0.0195312 2.734375 0.03125 C 2.597656 0.0390625 2.425781 0.046875 2.21875 0.046875 C 2 0.046875 1.816406 0.0390625 1.671875 0.03125 C 1.535156 0.0195312 1.425781 0 1.34375 -0.03125 C 1.257812 -0.0625 1.195312 -0.0976562 1.15625 -0.140625 C 1.125 -0.179688 1.109375 -0.234375 1.109375 -0.296875 L 1.109375 -8.125 C 1.109375 -8.1875 1.117188 -8.238281 1.140625 -8.28125 C 1.171875 -8.320312 1.222656 -8.359375 1.296875 -8.390625 C 1.378906 -8.421875 1.476562 -8.441406 1.59375 -8.453125 C 1.71875 -8.472656 1.875 -8.484375 2.0625 -8.484375 C 2.238281 -8.484375 2.390625 -8.472656 2.515625 -8.453125 C 2.640625 -8.441406 2.734375 -8.421875 2.796875 -8.390625 C 2.867188 -8.359375 2.921875 -8.320312 2.953125 -8.28125 C 2.984375 -8.238281 3 -8.1875 3 -8.125 L 3 -7.15625 C 3.195312 -7.445312 3.382812 -7.6875 3.5625 -7.875 C 3.75 -8.070312 3.925781 -8.222656 4.09375 -8.328125 C 4.257812 -8.441406 4.421875 -8.519531 4.578125 -8.5625 C 4.742188 -8.601562 4.910156 -8.625 5.078125 -8.625 C 5.148438 -8.625 5.226562 -8.617188 5.3125 -8.609375 C 5.40625 -8.609375 5.5 -8.597656 5.59375 -8.578125 C 5.6875 -8.554688 5.765625 -8.53125 5.828125 -8.5 C 5.898438 -8.476562 5.953125 -8.453125 5.984375 -8.421875 C 6.023438 -8.390625 6.050781 -8.351562 6.0625 -8.3125 C 6.070312 -8.28125 6.082031 -8.234375 6.09375 -8.171875 C 6.113281 -8.117188 6.125 -8.03125 6.125 -7.90625 C 6.132812 -7.78125 6.140625 -7.613281 6.140625 -7.40625 Z M 6.140625 -7.40625 "/></g></g></g><g fill="#473c2f" fill-opacity="1"><g transform="translate(18.598089, 14.47466)"><g><path d="M 8.53125 -0.296875 C 8.53125 -0.234375 8.515625 -0.179688 8.484375 -0.140625 C 8.460938 -0.0976562 8.414062 -0.0625 8.34375 -0.03125 C 8.269531 0 8.171875 0.0195312 8.046875 0.03125 C 7.929688 0.0390625 7.78125 0.046875 7.59375 0.046875 C 7.40625 0.046875 7.25 0.0390625 7.125 0.03125 C 7.007812 0.0195312 6.914062 0 6.84375 -0.03125 C 6.769531 -0.0625 6.71875 -0.0976562 6.6875 -0.140625 C 6.65625 -0.179688 6.640625 -0.234375 6.640625 -0.296875 L 6.640625 -1.203125 C 6.210938 -0.734375 5.773438 -0.378906 5.328125 -0.140625 C 4.878906 0.0859375 4.414062 0.203125 3.9375 0.203125 C 3.394531 0.203125 2.941406 0.113281 2.578125 -0.0625 C 2.210938 -0.238281 1.914062 -0.476562 1.6875 -0.78125 C 1.46875 -1.082031 1.304688 -1.429688 1.203125 -1.828125 C 1.109375 -2.234375 1.0625 -2.738281 1.0625 -3.34375 L 1.0625 -8.125 C 1.0625 -8.1875 1.078125 -8.238281 1.109375 -8.28125 C 1.140625 -8.320312 1.195312 -8.359375 1.28125 -8.390625 C 1.363281 -8.421875 1.476562 -8.441406 1.625 -8.453125 C 1.769531 -8.472656 1.945312 -8.484375 2.15625 -8.484375 C 2.375 -8.484375 2.550781 -8.472656 2.6875 -8.453125 C 2.832031 -8.441406 2.945312 -8.421875 3.03125 -8.390625 C 3.113281 -8.359375 3.171875 -8.320312 3.203125 -8.28125 C 3.242188 -8.238281 3.265625 -8.1875 3.265625 -8.125 L 3.265625 -3.703125 C 3.265625 -3.296875 3.289062 -2.984375 3.34375 -2.765625 C 3.394531 -2.546875 3.472656 -2.359375 3.578125 -2.203125 C 3.691406 -2.046875 3.832031 -1.925781 4 -1.84375 C 4.164062 -1.757812 4.359375 -1.71875 4.578125 -1.71875 C 4.859375 -1.71875 5.140625 -1.816406 5.421875 -2.015625 C 5.710938 -2.222656 6.019531 -2.523438 6.34375 -2.921875 L 6.34375 -8.125 C 6.34375 -8.1875 6.359375 -8.238281 6.390625 -8.28125 C 6.421875 -8.320312 6.476562 -8.359375 6.5625 -8.390625 C 6.644531 -8.421875 6.753906 -8.441406 6.890625 -8.453125 C 7.035156 -8.472656 7.21875 -8.484375 7.4375 -8.484375 C 7.65625 -8.484375 7.832031 -8.472656 7.96875 -8.453125 C 8.113281 -8.441406 8.226562 -8.421875 8.3125 -8.390625 C 8.394531 -8.359375 8.453125 -8.320312 8.484375 -8.28125 C 8.515625 -8.238281 8.53125 -8.1875 8.53125 -8.125 Z M 8.53125 -0.296875 "/></g></g></g><g fill="#473c2f" fill-opacity="1"><g transform="translate(28.244273, 14.47466)"><g><path d="M 9 -4.328125 C 9 -3.628906 8.921875 -3 8.765625 -2.4375 C 8.617188 -1.882812 8.398438 -1.410156 8.109375 -1.015625 C 7.828125 -0.628906 7.472656 -0.328125 7.046875 -0.109375 C 6.617188 0.0976562 6.128906 0.203125 5.578125 0.203125 C 5.347656 0.203125 5.132812 0.175781 4.9375 0.125 C 4.75 0.0820312 4.566406 0.0195312 4.390625 -0.0625 C 4.210938 -0.15625 4.035156 -0.269531 3.859375 -0.40625 C 3.679688 -0.539062 3.5 -0.695312 3.3125 -0.875 L 3.3125 2.8125 C 3.3125 2.863281 3.296875 2.910156 3.265625 2.953125 C 3.234375 3.003906 3.171875 3.046875 3.078125 3.078125 C 2.992188 3.117188 2.878906 3.144531 2.734375 3.15625 C 2.597656 3.175781 2.425781 3.1875 2.21875 3.1875 C 2 3.1875 1.816406 3.175781 1.671875 3.15625 C 1.535156 3.144531 1.425781 3.117188 1.34375 3.078125 C 1.257812 3.046875 1.195312 3.003906 1.15625 2.953125 C 1.125 2.910156 1.109375 2.863281 1.109375 2.8125 L 1.109375 -8.125 C 1.109375 -8.1875 1.117188 -8.238281 1.140625 -8.28125 C 1.171875 -8.320312 1.222656 -8.359375 1.296875 -8.390625 C 1.367188 -8.421875 1.46875 -8.441406 1.59375 -8.453125 C 1.71875 -8.472656 1.867188 -8.484375 2.046875 -8.484375 C 2.222656 -8.484375 2.367188 -8.472656 2.484375 -8.453125 C 2.609375 -8.441406 2.707031 -8.421875 2.78125 -8.390625 C 2.851562 -8.359375 2.90625 -8.320312 2.9375 -8.28125 C 2.96875 -8.238281 2.984375 -8.1875 2.984375 -8.125 L 2.984375 -7.203125 C 3.203125 -7.441406 3.421875 -7.648438 3.640625 -7.828125 C 3.867188 -8.003906 4.09375 -8.148438 4.3125 -8.265625 C 4.539062 -8.390625 4.773438 -8.476562 5.015625 -8.53125 C 5.265625 -8.59375 5.523438 -8.625 5.796875 -8.625 C 6.378906 -8.625 6.867188 -8.507812 7.265625 -8.28125 C 7.671875 -8.0625 8 -7.753906 8.25 -7.359375 C 8.507812 -6.972656 8.695312 -6.519531 8.8125 -6 C 8.9375 -5.476562 9 -4.921875 9 -4.328125 Z M 6.6875 -4.171875 C 6.6875 -4.503906 6.660156 -4.820312 6.609375 -5.125 C 6.566406 -5.4375 6.484375 -5.710938 6.359375 -5.953125 C 6.242188 -6.191406 6.085938 -6.382812 5.890625 -6.53125 C 5.691406 -6.675781 5.445312 -6.75 5.15625 -6.75 C 5.007812 -6.75 4.863281 -6.722656 4.71875 -6.671875 C 4.570312 -6.628906 4.425781 -6.554688 4.28125 -6.453125 C 4.132812 -6.359375 3.976562 -6.234375 3.8125 -6.078125 C 3.65625 -5.921875 3.488281 -5.722656 3.3125 -5.484375 L 3.3125 -2.90625 C 3.625 -2.507812 3.921875 -2.203125 4.203125 -1.984375 C 4.484375 -1.773438 4.773438 -1.671875 5.078125 -1.671875 C 5.367188 -1.671875 5.613281 -1.742188 5.8125 -1.890625 C 6.019531 -2.035156 6.1875 -2.226562 6.3125 -2.46875 C 6.4375 -2.707031 6.53125 -2.972656 6.59375 -3.265625 C 6.65625 -3.566406 6.6875 -3.867188 6.6875 -4.171875 Z M 6.6875 -4.171875 "/></g></g></g><g fill="#473c2f" fill-opacity="1"><g transform="translate(37.890458, 14.47466)"><g><path d="M 9.03125 -4.296875 C 9.03125 -3.628906 8.941406 -3.019531 8.765625 -2.46875 C 8.585938 -1.914062 8.316406 -1.441406 7.953125 -1.046875 C 7.597656 -0.648438 7.148438 -0.34375 6.609375 -0.125 C 6.078125 0.09375 5.453125 0.203125 4.734375 0.203125 C 4.035156 0.203125 3.425781 0.109375 2.90625 -0.078125 C 2.394531 -0.273438 1.96875 -0.554688 1.625 -0.921875 C 1.289062 -1.296875 1.039062 -1.75 0.875 -2.28125 C 0.707031 -2.820312 0.625 -3.441406 0.625 -4.140625 C 0.625 -4.804688 0.710938 -5.414062 0.890625 -5.96875 C 1.078125 -6.519531 1.347656 -6.992188 1.703125 -7.390625 C 2.054688 -7.785156 2.5 -8.085938 3.03125 -8.296875 C 3.570312 -8.515625 4.203125 -8.625 4.921875 -8.625 C 5.628906 -8.625 6.238281 -8.53125 6.75 -8.34375 C 7.269531 -8.15625 7.695312 -7.875 8.03125 -7.5 C 8.363281 -7.132812 8.613281 -6.679688 8.78125 -6.140625 C 8.945312 -5.609375 9.03125 -4.992188 9.03125 -4.296875 Z M 6.75 -4.203125 C 6.75 -4.585938 6.71875 -4.941406 6.65625 -5.265625 C 6.59375 -5.597656 6.488281 -5.882812 6.34375 -6.125 C 6.195312 -6.363281 6.003906 -6.550781 5.765625 -6.6875 C 5.523438 -6.820312 5.21875 -6.890625 4.84375 -6.890625 C 4.519531 -6.890625 4.234375 -6.828125 3.984375 -6.703125 C 3.742188 -6.585938 3.539062 -6.410156 3.375 -6.171875 C 3.21875 -5.941406 3.097656 -5.664062 3.015625 -5.34375 C 2.941406 -5.019531 2.90625 -4.648438 2.90625 -4.234375 C 2.90625 -3.847656 2.9375 -3.488281 3 -3.15625 C 3.0625 -2.832031 3.164062 -2.550781 3.3125 -2.3125 C 3.457031 -2.070312 3.648438 -1.882812 3.890625 -1.75 C 4.140625 -1.625 4.445312 -1.5625 4.8125 -1.5625 C 5.144531 -1.5625 5.429688 -1.617188 5.671875 -1.734375 C 5.921875 -1.859375 6.125 -2.035156 6.28125 -2.265625 C 6.445312 -2.492188 6.566406 -2.769531 6.640625 -3.09375 C 6.710938 -3.414062 6.75 -3.785156 6.75 -4.203125 Z M 6.75 -4.203125 "/></g></g></g><g fill="#473c2f" fill-opacity="1"><g transform="translate(47.554196, 14.47466)"><g/></g></g><g fill="#473c2f" fill-opacity="1"><g transform="translate(51.618057, 14.47466)"><g><path d="M 7.96875 -3.40625 C 7.96875 -2.8125 7.859375 -2.285156 7.640625 -1.828125 C 7.421875 -1.378906 7.117188 -1.003906 6.734375 -0.703125 C 6.359375 -0.398438 5.914062 -0.171875 5.40625 -0.015625 C 4.894531 0.128906 4.347656 0.203125 3.765625 0.203125 C 3.367188 0.203125 3.003906 0.171875 2.671875 0.109375 C 2.335938 0.046875 2.039062 -0.03125 1.78125 -0.125 C 1.519531 -0.21875 1.300781 -0.3125 1.125 -0.40625 C 0.957031 -0.507812 0.835938 -0.597656 0.765625 -0.671875 C 0.691406 -0.753906 0.632812 -0.863281 0.59375 -1 C 0.5625 -1.144531 0.546875 -1.351562 0.546875 -1.625 C 0.546875 -1.800781 0.550781 -1.953125 0.5625 -2.078125 C 0.582031 -2.203125 0.601562 -2.300781 0.625 -2.375 C 0.65625 -2.457031 0.691406 -2.515625 0.734375 -2.546875 C 0.773438 -2.578125 0.828125 -2.59375 0.890625 -2.59375 C 0.972656 -2.59375 1.085938 -2.539062 1.234375 -2.4375 C 1.378906 -2.34375 1.566406 -2.238281 1.796875 -2.125 C 2.035156 -2.007812 2.316406 -1.898438 2.640625 -1.796875 C 2.972656 -1.703125 3.351562 -1.65625 3.78125 -1.65625 C 4.0625 -1.65625 4.3125 -1.6875 4.53125 -1.75 C 4.75 -1.820312 4.9375 -1.921875 5.09375 -2.046875 C 5.25 -2.171875 5.367188 -2.320312 5.453125 -2.5 C 5.535156 -2.6875 5.578125 -2.890625 5.578125 -3.109375 C 5.578125 -3.367188 5.503906 -3.585938 5.359375 -3.765625 C 5.222656 -3.953125 5.039062 -4.117188 4.8125 -4.265625 C 4.59375 -4.410156 4.335938 -4.546875 4.046875 -4.671875 C 3.765625 -4.796875 3.46875 -4.925781 3.15625 -5.0625 C 2.851562 -5.207031 2.554688 -5.367188 2.265625 -5.546875 C 1.984375 -5.722656 1.726562 -5.9375 1.5 -6.1875 C 1.28125 -6.4375 1.097656 -6.726562 0.953125 -7.0625 C 0.816406 -7.40625 0.75 -7.816406 0.75 -8.296875 C 0.75 -8.835938 0.847656 -9.3125 1.046875 -9.71875 C 1.253906 -10.132812 1.523438 -10.476562 1.859375 -10.75 C 2.203125 -11.019531 2.609375 -11.222656 3.078125 -11.359375 C 3.546875 -11.492188 4.039062 -11.5625 4.5625 -11.5625 C 4.832031 -11.5625 5.097656 -11.539062 5.359375 -11.5 C 5.628906 -11.457031 5.878906 -11.398438 6.109375 -11.328125 C 6.347656 -11.265625 6.554688 -11.1875 6.734375 -11.09375 C 6.921875 -11.007812 7.039062 -10.9375 7.09375 -10.875 C 7.15625 -10.820312 7.195312 -10.773438 7.21875 -10.734375 C 7.238281 -10.691406 7.253906 -10.632812 7.265625 -10.5625 C 7.285156 -10.5 7.296875 -10.414062 7.296875 -10.3125 C 7.304688 -10.207031 7.3125 -10.082031 7.3125 -9.9375 C 7.3125 -9.757812 7.304688 -9.613281 7.296875 -9.5 C 7.285156 -9.382812 7.269531 -9.285156 7.25 -9.203125 C 7.238281 -9.128906 7.210938 -9.078125 7.171875 -9.046875 C 7.128906 -9.015625 7.078125 -9 7.015625 -9 C 6.953125 -9 6.847656 -9.035156 6.703125 -9.109375 C 6.566406 -9.191406 6.394531 -9.28125 6.1875 -9.375 C 5.988281 -9.476562 5.753906 -9.566406 5.484375 -9.640625 C 5.210938 -9.722656 4.914062 -9.765625 4.59375 -9.765625 C 4.34375 -9.765625 4.125 -9.734375 3.9375 -9.671875 C 3.75 -9.609375 3.59375 -9.519531 3.46875 -9.40625 C 3.34375 -9.300781 3.25 -9.171875 3.1875 -9.015625 C 3.125 -8.867188 3.09375 -8.710938 3.09375 -8.546875 C 3.09375 -8.296875 3.160156 -8.078125 3.296875 -7.890625 C 3.429688 -7.703125 3.613281 -7.535156 3.84375 -7.390625 C 4.082031 -7.253906 4.347656 -7.125 4.640625 -7 C 4.929688 -6.875 5.226562 -6.738281 5.53125 -6.59375 C 5.832031 -6.457031 6.128906 -6.296875 6.421875 -6.109375 C 6.710938 -5.929688 6.972656 -5.71875 7.203125 -5.46875 C 7.429688 -5.226562 7.613281 -4.9375 7.75 -4.59375 C 7.894531 -4.257812 7.96875 -3.863281 7.96875 -3.40625 Z M 7.96875 -3.40625 "/></g></g></g><g fill="#473c2f" fill-opacity="1"><g transform="translate(60.114423, 14.47466)"><g><path d="M 7.78125 -0.265625 C 7.78125 -0.191406 7.75 -0.128906 7.6875 -0.078125 C 7.632812 -0.0351562 7.546875 -0.00390625 7.421875 0.015625 C 7.296875 0.0351562 7.109375 0.046875 6.859375 0.046875 C 6.597656 0.046875 6.40625 0.0351562 6.28125 0.015625 C 6.164062 -0.00390625 6.082031 -0.0351562 6.03125 -0.078125 C 5.976562 -0.128906 5.953125 -0.191406 5.953125 -0.265625 L 5.953125 -0.890625 C 5.628906 -0.546875 5.257812 -0.273438 4.84375 -0.078125 C 4.4375 0.109375 3.984375 0.203125 3.484375 0.203125 C 3.066406 0.203125 2.679688 0.144531 2.328125 0.03125 C 1.984375 -0.0703125 1.679688 -0.226562 1.421875 -0.4375 C 1.171875 -0.65625 0.972656 -0.921875 0.828125 -1.234375 C 0.691406 -1.554688 0.625 -1.925781 0.625 -2.34375 C 0.625 -2.800781 0.710938 -3.195312 0.890625 -3.53125 C 1.066406 -3.875 1.332031 -4.15625 1.6875 -4.375 C 2.039062 -4.59375 2.476562 -4.753906 3 -4.859375 C 3.53125 -4.960938 4.144531 -5.015625 4.84375 -5.015625 L 5.609375 -5.015625 L 5.609375 -5.484375 C 5.609375 -5.734375 5.582031 -5.945312 5.53125 -6.125 C 5.488281 -6.3125 5.410156 -6.46875 5.296875 -6.59375 C 5.179688 -6.71875 5.023438 -6.804688 4.828125 -6.859375 C 4.640625 -6.921875 4.40625 -6.953125 4.125 -6.953125 C 3.757812 -6.953125 3.429688 -6.910156 3.140625 -6.828125 C 2.847656 -6.742188 2.585938 -6.648438 2.359375 -6.546875 C 2.140625 -6.453125 1.957031 -6.363281 1.8125 -6.28125 C 1.664062 -6.207031 1.546875 -6.171875 1.453125 -6.171875 C 1.390625 -6.171875 1.332031 -6.1875 1.28125 -6.21875 C 1.226562 -6.257812 1.1875 -6.316406 1.15625 -6.390625 C 1.125 -6.472656 1.097656 -6.566406 1.078125 -6.671875 C 1.054688 -6.785156 1.046875 -6.910156 1.046875 -7.046875 C 1.046875 -7.234375 1.0625 -7.378906 1.09375 -7.484375 C 1.125 -7.585938 1.179688 -7.679688 1.265625 -7.765625 C 1.347656 -7.847656 1.488281 -7.941406 1.6875 -8.046875 C 1.894531 -8.148438 2.132812 -8.242188 2.40625 -8.328125 C 2.6875 -8.421875 2.988281 -8.492188 3.3125 -8.546875 C 3.632812 -8.597656 3.972656 -8.625 4.328125 -8.625 C 4.941406 -8.625 5.460938 -8.5625 5.890625 -8.4375 C 6.328125 -8.320312 6.6875 -8.140625 6.96875 -7.890625 C 7.25 -7.648438 7.453125 -7.332031 7.578125 -6.9375 C 7.710938 -6.539062 7.78125 -6.078125 7.78125 -5.546875 Z M 5.609375 -3.625 L 4.765625 -3.625 C 4.410156 -3.625 4.109375 -3.597656 3.859375 -3.546875 C 3.609375 -3.492188 3.398438 -3.414062 3.234375 -3.3125 C 3.078125 -3.207031 2.960938 -3.078125 2.890625 -2.921875 C 2.816406 -2.773438 2.78125 -2.609375 2.78125 -2.421875 C 2.78125 -2.085938 2.882812 -1.828125 3.09375 -1.640625 C 3.300781 -1.453125 3.585938 -1.359375 3.953125 -1.359375 C 4.265625 -1.359375 4.550781 -1.4375 4.8125 -1.59375 C 5.070312 -1.75 5.335938 -1.984375 5.609375 -2.296875 Z M 5.609375 -3.625 "/></g></g></g><g fill="#473c2f" fill-opacity="1"><g transform="translate(68.988211, 14.47466)"><g><path d="M 8.53125 -0.296875 C 8.53125 -0.234375 8.515625 -0.175781 8.484375 -0.125 C 8.460938 -0.0820312 8.414062 -0.046875 8.34375 -0.015625 C 8.269531 0.00390625 8.171875 0.0195312 8.046875 0.03125 C 7.929688 0.0390625 7.785156 0.046875 7.609375 0.046875 C 7.421875 0.046875 7.269531 0.0390625 7.15625 0.03125 C 7.039062 0.0195312 6.945312 0.00390625 6.875 -0.015625 C 6.800781 -0.046875 6.75 -0.0820312 6.71875 -0.125 C 6.6875 -0.175781 6.671875 -0.234375 6.671875 -0.296875 L 6.671875 -1.171875 C 6.265625 -0.734375 5.835938 -0.394531 5.390625 -0.15625 C 4.953125 0.0820312 4.460938 0.203125 3.921875 0.203125 C 3.328125 0.203125 2.820312 0.0859375 2.40625 -0.140625 C 2 -0.367188 1.664062 -0.679688 1.40625 -1.078125 C 1.144531 -1.472656 0.953125 -1.929688 0.828125 -2.453125 C 0.710938 -2.972656 0.65625 -3.523438 0.65625 -4.109375 C 0.65625 -4.804688 0.726562 -5.429688 0.875 -5.984375 C 1.03125 -6.546875 1.25 -7.019531 1.53125 -7.40625 C 1.820312 -7.800781 2.179688 -8.101562 2.609375 -8.3125 C 3.035156 -8.519531 3.523438 -8.625 4.078125 -8.625 C 4.515625 -8.625 4.910156 -8.535156 5.265625 -8.359375 C 5.628906 -8.179688 5.988281 -7.921875 6.34375 -7.578125 L 6.34375 -11.8125 C 6.34375 -11.875 6.359375 -11.925781 6.390625 -11.96875 C 6.421875 -12.019531 6.476562 -12.0625 6.5625 -12.09375 C 6.644531 -12.125 6.753906 -12.148438 6.890625 -12.171875 C 7.035156 -12.191406 7.21875 -12.203125 7.4375 -12.203125 C 7.65625 -12.203125 7.832031 -12.191406 7.96875 -12.171875 C 8.113281 -12.148438 8.226562 -12.125 8.3125 -12.09375 C 8.394531 -12.0625 8.453125 -12.019531 8.484375 -11.96875 C 8.515625 -11.925781 8.53125 -11.875 8.53125 -11.8125 Z M 6.34375 -5.53125 C 6.019531 -5.925781 5.710938 -6.226562 5.421875 -6.4375 C 5.140625 -6.65625 4.835938 -6.765625 4.515625 -6.765625 C 4.234375 -6.765625 3.988281 -6.691406 3.78125 -6.546875 C 3.570312 -6.398438 3.40625 -6.207031 3.28125 -5.96875 C 3.15625 -5.726562 3.0625 -5.457031 3 -5.15625 C 2.9375 -4.863281 2.90625 -4.566406 2.90625 -4.265625 C 2.90625 -3.929688 2.929688 -3.609375 2.984375 -3.296875 C 3.035156 -2.992188 3.117188 -2.71875 3.234375 -2.46875 C 3.359375 -2.226562 3.519531 -2.035156 3.71875 -1.890625 C 3.914062 -1.742188 4.171875 -1.671875 4.484375 -1.671875 C 4.628906 -1.671875 4.773438 -1.691406 4.921875 -1.734375 C 5.066406 -1.773438 5.210938 -1.84375 5.359375 -1.9375 C 5.503906 -2.039062 5.65625 -2.171875 5.8125 -2.328125 C 5.976562 -2.492188 6.15625 -2.695312 6.34375 -2.9375 Z M 6.34375 -5.53125 "/></g></g></g><g fill="#473c2f" fill-opacity="1"><g transform="translate(78.634395, 14.47466)"><g><path d="M 3.3125 -0.296875 C 3.3125 -0.234375 3.296875 -0.179688 3.265625 -0.140625 C 3.234375 -0.0976562 3.171875 -0.0625 3.078125 -0.03125 C 2.992188 0 2.878906 0.0195312 2.734375 0.03125 C 2.597656 0.0390625 2.425781 0.046875 2.21875 0.046875 C 2 0.046875 1.816406 0.0390625 1.671875 0.03125 C 1.535156 0.0195312 1.425781 0 1.34375 -0.03125 C 1.257812 -0.0625 1.195312 -0.0976562 1.15625 -0.140625 C 1.125 -0.179688 1.109375 -0.234375 1.109375 -0.296875 L 1.109375 -8.109375 C 1.109375 -8.171875 1.125 -8.222656 1.15625 -8.265625 C 1.195312 -8.304688 1.257812 -8.34375 1.34375 -8.375 C 1.425781 -8.414062 1.535156 -8.441406 1.671875 -8.453125 C 1.816406 -8.472656 2 -8.484375 2.21875 -8.484375 C 2.425781 -8.484375 2.597656 -8.472656 2.734375 -8.453125 C 2.878906 -8.441406 2.992188 -8.414062 3.078125 -8.375 C 3.171875 -8.34375 3.234375 -8.304688 3.265625 -8.265625 C 3.296875 -8.222656 3.3125 -8.171875 3.3125 -8.109375 Z M 3.484375 -10.78125 C 3.484375 -10.332031 3.390625 -10.023438 3.203125 -9.859375 C 3.023438 -9.691406 2.691406 -9.609375 2.203125 -9.609375 C 1.703125 -9.609375 1.363281 -9.6875 1.1875 -9.84375 C 1.019531 -10.007812 0.9375 -10.304688 0.9375 -10.734375 C 0.9375 -11.179688 1.023438 -11.488281 1.203125 -11.65625 C 1.378906 -11.832031 1.71875 -11.921875 2.21875 -11.921875 C 2.707031 -11.921875 3.039062 -11.835938 3.21875 -11.671875 C 3.394531 -11.503906 3.484375 -11.207031 3.484375 -10.78125 Z M 3.484375 -10.78125 "/></g></g></g><g fill="#473c2f" fill-opacity="1"><g transform="translate(83.049345, 14.47466)"><g><path d="M 8.59375 -0.296875 C 8.59375 -0.234375 8.570312 -0.179688 8.53125 -0.140625 C 8.5 -0.0976562 8.441406 -0.0625 8.359375 -0.03125 C 8.273438 0 8.160156 0.0195312 8.015625 0.03125 C 7.878906 0.0390625 7.703125 0.046875 7.484375 0.046875 C 7.273438 0.046875 7.097656 0.0390625 6.953125 0.03125 C 6.804688 0.0195312 6.691406 0 6.609375 -0.03125 C 6.523438 -0.0625 6.46875 -0.0976562 6.4375 -0.140625 C 6.40625 -0.179688 6.390625 -0.234375 6.390625 -0.296875 L 6.390625 -4.765625 C 6.390625 -5.148438 6.359375 -5.445312 6.296875 -5.65625 C 6.242188 -5.875 6.164062 -6.0625 6.0625 -6.21875 C 5.957031 -6.375 5.820312 -6.492188 5.65625 -6.578125 C 5.488281 -6.660156 5.289062 -6.703125 5.0625 -6.703125 C 4.78125 -6.703125 4.492188 -6.597656 4.203125 -6.390625 C 3.921875 -6.191406 3.625 -5.894531 3.3125 -5.5 L 3.3125 -0.296875 C 3.3125 -0.234375 3.296875 -0.179688 3.265625 -0.140625 C 3.234375 -0.0976562 3.171875 -0.0625 3.078125 -0.03125 C 2.992188 0 2.878906 0.0195312 2.734375 0.03125 C 2.597656 0.0390625 2.425781 0.046875 2.21875 0.046875 C 2 0.046875 1.816406 0.0390625 1.671875 0.03125 C 1.535156 0.0195312 1.425781 0 1.34375 -0.03125 C 1.257812 -0.0625 1.195312 -0.0976562 1.15625 -0.140625 C 1.125 -0.179688 1.109375 -0.234375 1.109375 -0.296875 L 1.109375 -8.125 C 1.109375 -8.1875 1.117188 -8.238281 1.140625 -8.28125 C 1.171875 -8.320312 1.222656 -8.359375 1.296875 -8.390625 C 1.378906 -8.421875 1.476562 -8.441406 1.59375 -8.453125 C 1.71875 -8.472656 1.875 -8.484375 2.0625 -8.484375 C 2.238281 -8.484375 2.390625 -8.472656 2.515625 -8.453125 C 2.640625 -8.441406 2.734375 -8.421875 2.796875 -8.390625 C 2.867188 -8.359375 2.921875 -8.320312 2.953125 -8.28125 C 2.984375 -8.238281 3 -8.1875 3 -8.125 L 3 -7.234375 C 3.425781 -7.691406 3.863281 -8.035156 4.3125 -8.265625 C 4.757812 -8.503906 5.226562 -8.625 5.71875 -8.625 C 6.25 -8.625 6.695312 -8.535156 7.0625 -8.359375 C 7.425781 -8.191406 7.722656 -7.957031 7.953125 -7.65625 C 8.179688 -7.351562 8.34375 -7 8.4375 -6.59375 C 8.539062 -6.1875 8.59375 -5.703125 8.59375 -5.140625 Z M 8.59375 -0.296875 "/></g></g></g><g fill="#473c2f" fill-opacity="1"><g transform="translate(92.69553, 14.47466)"><g><path d="M 9.03125 -4.296875 C 9.03125 -3.628906 8.941406 -3.019531 8.765625 -2.46875 C 8.585938 -1.914062 8.316406 -1.441406 7.953125 -1.046875 C 7.597656 -0.648438 7.148438 -0.34375 6.609375 -0.125 C 6.078125 0.09375 5.453125 0.203125 4.734375 0.203125 C 4.035156 0.203125 3.425781 0.109375 2.90625 -0.078125 C 2.394531 -0.273438 1.96875 -0.554688 1.625 -0.921875 C 1.289062 -1.296875 1.039062 -1.75 0.875 -2.28125 C 0.707031 -2.820312 0.625 -3.441406 0.625 -4.140625 C 0.625 -4.804688 0.710938 -5.414062 0.890625 -5.96875 C 1.078125 -6.519531 1.347656 -6.992188 1.703125 -7.390625 C 2.054688 -7.785156 2.5 -8.085938 3.03125 -8.296875 C 3.570312 -8.515625 4.203125 -8.625 4.921875 -8.625 C 5.628906 -8.625 6.238281 -8.53125 6.75 -8.34375 C 7.269531 -8.15625 7.695312 -7.875 8.03125 -7.5 C 8.363281 -7.132812 8.613281 -6.679688 8.78125 -6.140625 C 8.945312 -5.609375 9.03125 -4.992188 9.03125 -4.296875 Z M 6.75 -4.203125 C 6.75 -4.585938 6.71875 -4.941406 6.65625 -5.265625 C 6.59375 -5.597656 6.488281 -5.882812 6.34375 -6.125 C 6.195312 -6.363281 6.003906 -6.550781 5.765625 -6.6875 C 5.523438 -6.820312 5.21875 -6.890625 4.84375 -6.890625 C 4.519531 -6.890625 4.234375 -6.828125 3.984375 -6.703125 C 3.742188 -6.585938 3.539062 -6.410156 3.375 -6.171875 C 3.21875 -5.941406 3.097656 -5.664062 3.015625 -5.34375 C 2.941406 -5.019531 2.90625 -4.648438 2.90625 -4.234375 C 2.90625 -3.847656 2.9375 -3.488281 3 -3.15625 C 3.0625 -2.832031 3.164062 -2.550781 3.3125 -2.3125 C 3.457031 -2.070312 3.648438 -1.882812 3.890625 -1.75 C 4.140625 -1.625 4.445312 -1.5625 4.8125 -1.5625 C 5.144531 -1.5625 5.429688 -1.617188 5.671875 -1.734375 C 5.921875 -1.859375 6.125 -2.035156 6.28125 -2.265625 C 6.445312 -2.492188 6.566406 -2.769531 6.640625 -3.09375 C 6.710938 -3.414062 6.75 -3.785156 6.75 -4.203125 Z M 6.75 -4.203125 "/></g></g></g><g fill="#473c2f" fill-opacity="1"><g transform="translate(102.359268, 14.47466)"><g><path d="M 7.78125 -0.265625 C 7.78125 -0.191406 7.75 -0.128906 7.6875 -0.078125 C 7.632812 -0.0351562 7.546875 -0.00390625 7.421875 0.015625 C 7.296875 0.0351562 7.109375 0.046875 6.859375 0.046875 C 6.597656 0.046875 6.40625 0.0351562 6.28125 0.015625 C 6.164062 -0.00390625 6.082031 -0.0351562 6.03125 -0.078125 C 5.976562 -0.128906 5.953125 -0.191406 5.953125 -0.265625 L 5.953125 -0.890625 C 5.628906 -0.546875 5.257812 -0.273438 4.84375 -0.078125 C 4.4375 0.109375 3.984375 0.203125 3.484375 0.203125 C 3.066406 0.203125 2.679688 0.144531 2.328125 0.03125 C 1.984375 -0.0703125 1.679688 -0.226562 1.421875 -0.4375 C 1.171875 -0.65625 0.972656 -0.921875 0.828125 -1.234375 C 0.691406 -1.554688 0.625 -1.925781 0.625 -2.34375 C 0.625 -2.800781 0.710938 -3.195312 0.890625 -3.53125 C 1.066406 -3.875 1.332031 -4.15625 1.6875 -4.375 C 2.039062 -4.59375 2.476562 -4.753906 3 -4.859375 C 3.53125 -4.960938 4.144531 -5.015625 4.84375 -5.015625 L 5.609375 -5.015625 L 5.609375 -5.484375 C 5.609375 -5.734375 5.582031 -5.945312 5.53125 -6.125 C 5.488281 -6.3125 5.410156 -6.46875 5.296875 -6.59375 C 5.179688 -6.71875 5.023438 -6.804688 4.828125 -6.859375 C 4.640625 -6.921875 4.40625 -6.953125 4.125 -6.953125 C 3.757812 -6.953125 3.429688 -6.910156 3.140625 -6.828125 C 2.847656 -6.742188 2.585938 -6.648438 2.359375 -6.546875 C 2.140625 -6.453125 1.957031 -6.363281 1.8125 -6.28125 C 1.664062 -6.207031 1.546875 -6.171875 1.453125 -6.171875 C 1.390625 -6.171875 1.332031 -6.1875 1.28125 -6.21875 C 1.226562 -6.257812 1.1875 -6.316406 1.15625 -6.390625 C 1.125 -6.472656 1.097656 -6.566406 1.078125 -6.671875 C 1.054688 -6.785156 1.046875 -6.910156 1.046875 -7.046875 C 1.046875 -7.234375 1.0625 -7.378906 1.09375 -7.484375 C 1.125 -7.585938 1.179688 -7.679688 1.265625 -7.765625 C 1.347656 -7.847656 1.488281 -7.941406 1.6875 -8.046875 C 1.894531 -8.148438 2.132812 -8.242188 2.40625 -8.328125 C 2.6875 -8.421875 2.988281 -8.492188 3.3125 -8.546875 C 3.632812 -8.597656 3.972656 -8.625 4.328125 -8.625 C 4.941406 -8.625 5.460938 -8.5625 5.890625 -8.4375 C 6.328125 -8.320312 6.6875 -8.140625 6.96875 -7.890625 C 7.25 -7.648438 7.453125 -7.332031 7.578125 -6.9375 C 7.710938 -6.539062 7.78125 -6.078125 7.78125 -5.546875 Z M 5.609375 -3.625 L 4.765625 -3.625 C 4.410156 -3.625 4.109375 -3.597656 3.859375 -3.546875 C 3.609375 -3.492188 3.398438 -3.414062 3.234375 -3.3125 C 3.078125 -3.207031 2.960938 -3.078125 2.890625 -2.921875 C 2.816406 -2.773438 2.78125 -2.609375 2.78125 -2.421875 C 2.78125 -2.085938 2.882812 -1.828125 3.09375 -1.640625 C 3.300781 -1.453125 3.585938 -1.359375 3.953125 -1.359375 C 4.265625 -1.359375 4.550781 -1.4375 4.8125 -1.59375 C 5.070312 -1.75 5.335938 -1.984375 5.609375 -2.296875 Z M 5.609375 -3.625 "/></g></g></g></g></g></svg>