<svg xmlns="http://www.w3.org/2000/svg" xmlns:xlink="http://www.w3.org/1999/xlink" width="240" zoomAndPan="magnify" viewBox="0 0 180 89.999999" height="120" preserveAspectRatio="xMidYMid meet" version="1.0"><defs><g/></defs><g fill="#473c2f" fill-opacity="1"><g transform="translate(46.435813, 50.999999)"><g><path d="M 9.671875 -0.296875 C 9.671875 -0.234375 9.65625 -0.175781 9.625 -0.125 C 9.601562 -0.0820312 9.546875 -0.046875 9.453125 -0.015625 C 9.367188 0.00390625 9.242188 0.0195312 9.078125 0.03125 C 8.910156 0.0390625 8.679688 0.046875 8.390625 0.046875 C 8.140625 0.046875 7.941406 0.0390625 7.796875 0.03125 C 7.648438 0.0195312 7.535156 0 7.453125 -0.03125 C 7.367188 -0.0625 7.304688 -0.101562 7.265625 -0.15625 C 7.234375 -0.207031 7.207031 -0.265625 7.1875 -0.328125 L 6.171875 -2.875 C 6.046875 -3.15625 5.921875 -3.40625 5.796875 -3.625 C 5.679688 -3.851562 5.550781 -4.039062 5.40625 -4.1875 C 5.269531 -4.34375 5.109375 -4.457031 4.921875 -4.53125 C 4.734375 -4.601562 4.515625 -4.640625 4.265625 -4.640625 L 3.546875 -4.640625 L 3.546875 -0.3125 C 3.546875 -0.257812 3.523438 -0.207031 3.484375 -0.15625 C 3.453125 -0.113281 3.390625 -0.078125 3.296875 -0.046875 C 3.210938 -0.015625 3.097656 0.00390625 2.953125 0.015625 C 2.804688 0.0351562 2.617188 0.046875 2.390625 0.046875 C 2.171875 0.046875 1.984375 0.0351562 1.828125 0.015625 C 1.679688 0.00390625 1.5625 -0.015625 1.46875 -0.046875 C 1.382812 -0.078125 1.320312 -0.113281 1.28125 -0.15625 C 1.25 -0.207031 1.234375 -0.257812 1.234375 -0.3125 L 1.234375 -10.640625 C 1.234375 -10.890625 1.300781 -11.070312 1.4375 -11.1875 C 1.570312 -11.300781 1.734375 -11.359375 1.921875 -11.359375 L 4.859375 -11.359375 C 5.160156 -11.359375 5.40625 -11.351562 5.59375 -11.34375 C 5.789062 -11.332031 5.96875 -11.316406 6.125 -11.296875 C 6.582031 -11.234375 6.992188 -11.125 7.359375 -10.96875 C 7.722656 -10.8125 8.03125 -10.601562 8.28125 -10.34375 C 8.539062 -10.09375 8.738281 -9.789062 8.875 -9.4375 C 9.007812 -9.09375 9.078125 -8.695312 9.078125 -8.25 C 9.078125 -7.863281 9.03125 -7.515625 8.9375 -7.203125 C 8.84375 -6.890625 8.703125 -6.609375 8.515625 -6.359375 C 8.328125 -6.117188 8.09375 -5.90625 7.8125 -5.71875 C 7.539062 -5.539062 7.226562 -5.394531 6.875 -5.28125 C 7.039062 -5.195312 7.195312 -5.097656 7.34375 -4.984375 C 7.5 -4.867188 7.640625 -4.726562 7.765625 -4.5625 C 7.898438 -4.394531 8.023438 -4.203125 8.140625 -3.984375 C 8.265625 -3.773438 8.378906 -3.535156 8.484375 -3.265625 L 9.453125 -1.03125 C 9.535156 -0.800781 9.59375 -0.632812 9.625 -0.53125 C 9.65625 -0.4375 9.671875 -0.359375 9.671875 -0.296875 Z M 6.6875 -8.015625 C 6.6875 -8.390625 6.601562 -8.703125 6.4375 -8.953125 C 6.269531 -9.210938 5.992188 -9.394531 5.609375 -9.5 C 5.484375 -9.53125 5.347656 -9.550781 5.203125 -9.5625 C 5.054688 -9.582031 4.847656 -9.59375 4.578125 -9.59375 L 3.546875 -9.59375 L 3.546875 -6.375 L 4.71875 -6.375 C 5.050781 -6.375 5.335938 -6.410156 5.578125 -6.484375 C 5.828125 -6.566406 6.035156 -6.679688 6.203125 -6.828125 C 6.367188 -6.972656 6.488281 -7.144531 6.5625 -7.34375 C 6.644531 -7.539062 6.6875 -7.765625 6.6875 -8.015625 Z M 6.6875 -8.015625 "/></g></g></g><g fill="#473c2f" fill-opacity="1"><g transform="translate(56.293066, 50.999999)"><g><path d="M 8.34375 -4.4375 C 8.34375 -4.175781 8.28125 -3.976562 8.15625 -3.84375 C 8.039062 -3.71875 7.878906 -3.65625 7.671875 -3.65625 L 2.890625 -3.65625 C 2.890625 -3.320312 2.929688 -3.015625 3.015625 -2.734375 C 3.097656 -2.460938 3.222656 -2.234375 3.390625 -2.046875 C 3.566406 -1.859375 3.789062 -1.710938 4.0625 -1.609375 C 4.332031 -1.515625 4.660156 -1.46875 5.046875 -1.46875 C 5.429688 -1.46875 5.769531 -1.492188 6.0625 -1.546875 C 6.351562 -1.609375 6.601562 -1.671875 6.8125 -1.734375 C 7.03125 -1.796875 7.207031 -1.851562 7.34375 -1.90625 C 7.488281 -1.96875 7.601562 -2 7.6875 -2 C 7.738281 -2 7.78125 -1.988281 7.8125 -1.96875 C 7.851562 -1.945312 7.882812 -1.910156 7.90625 -1.859375 C 7.9375 -1.804688 7.953125 -1.734375 7.953125 -1.640625 C 7.960938 -1.546875 7.96875 -1.421875 7.96875 -1.265625 C 7.96875 -1.140625 7.960938 -1.03125 7.953125 -0.9375 C 7.953125 -0.851562 7.945312 -0.773438 7.9375 -0.703125 C 7.925781 -0.640625 7.90625 -0.585938 7.875 -0.546875 C 7.851562 -0.503906 7.820312 -0.460938 7.78125 -0.421875 C 7.75 -0.378906 7.648438 -0.320312 7.484375 -0.25 C 7.316406 -0.1875 7.097656 -0.117188 6.828125 -0.046875 C 6.566406 0.015625 6.265625 0.0703125 5.921875 0.125 C 5.585938 0.175781 5.226562 0.203125 4.84375 0.203125 C 4.144531 0.203125 3.53125 0.113281 3 -0.0625 C 2.476562 -0.238281 2.039062 -0.503906 1.6875 -0.859375 C 1.34375 -1.210938 1.082031 -1.660156 0.90625 -2.203125 C 0.738281 -2.753906 0.65625 -3.394531 0.65625 -4.125 C 0.65625 -4.820312 0.742188 -5.445312 0.921875 -6 C 1.097656 -6.5625 1.359375 -7.035156 1.703125 -7.421875 C 2.054688 -7.816406 2.476562 -8.113281 2.96875 -8.3125 C 3.46875 -8.519531 4.023438 -8.625 4.640625 -8.625 C 5.296875 -8.625 5.859375 -8.523438 6.328125 -8.328125 C 6.796875 -8.140625 7.175781 -7.875 7.46875 -7.53125 C 7.769531 -7.195312 7.988281 -6.796875 8.125 -6.328125 C 8.269531 -5.859375 8.34375 -5.347656 8.34375 -4.796875 Z M 6.203125 -5.078125 C 6.210938 -5.691406 6.082031 -6.175781 5.8125 -6.53125 C 5.550781 -6.882812 5.144531 -7.0625 4.59375 -7.0625 C 4.3125 -7.0625 4.066406 -7.007812 3.859375 -6.90625 C 3.648438 -6.800781 3.476562 -6.660156 3.34375 -6.484375 C 3.207031 -6.304688 3.101562 -6.09375 3.03125 -5.84375 C 2.957031 -5.601562 2.910156 -5.347656 2.890625 -5.078125 Z M 6.203125 -5.078125 "/></g></g></g><g fill="#473c2f" fill-opacity="1"><g transform="translate(65.34279, 50.999999)"><g><path d="M 8.171875 -7.59375 C 8.171875 -7.3125 8.132812 -7.101562 8.0625 -6.96875 C 8 -6.832031 7.921875 -6.765625 7.828125 -6.765625 L 6.90625 -6.765625 C 7.039062 -6.617188 7.132812 -6.457031 7.1875 -6.28125 C 7.238281 -6.101562 7.265625 -5.914062 7.265625 -5.71875 C 7.265625 -5.269531 7.1875 -4.867188 7.03125 -4.515625 C 6.882812 -4.160156 6.671875 -3.859375 6.390625 -3.609375 C 6.109375 -3.367188 5.765625 -3.1875 5.359375 -3.0625 C 4.960938 -2.9375 4.515625 -2.875 4.015625 -2.875 C 3.765625 -2.875 3.523438 -2.90625 3.296875 -2.96875 C 3.066406 -3.03125 2.894531 -3.097656 2.78125 -3.171875 C 2.707031 -3.097656 2.640625 -3.007812 2.578125 -2.90625 C 2.523438 -2.800781 2.5 -2.6875 2.5 -2.5625 C 2.5 -2.382812 2.570312 -2.238281 2.71875 -2.125 C 2.875 -2.019531 3.085938 -1.960938 3.359375 -1.953125 L 5.265625 -1.890625 C 5.703125 -1.867188 6.09375 -1.800781 6.4375 -1.6875 C 6.789062 -1.582031 7.085938 -1.429688 7.328125 -1.234375 C 7.566406 -1.046875 7.75 -0.8125 7.875 -0.53125 C 8 -0.257812 8.0625 0.0507812 8.0625 0.40625 C 8.0625 0.789062 7.972656 1.15625 7.796875 1.5 C 7.628906 1.84375 7.375 2.140625 7.03125 2.390625 C 6.695312 2.640625 6.273438 2.835938 5.765625 2.984375 C 5.253906 3.128906 4.65625 3.203125 3.96875 3.203125 C 3.300781 3.203125 2.726562 3.148438 2.25 3.046875 C 1.78125 2.941406 1.394531 2.796875 1.09375 2.609375 C 0.800781 2.421875 0.582031 2.195312 0.4375 1.9375 C 0.300781 1.675781 0.234375 1.390625 0.234375 1.078125 C 0.234375 0.890625 0.257812 0.707031 0.3125 0.53125 C 0.363281 0.351562 0.4375 0.179688 0.53125 0.015625 C 0.625 -0.140625 0.738281 -0.289062 0.875 -0.4375 C 1.019531 -0.582031 1.1875 -0.722656 1.375 -0.859375 C 1.125 -0.992188 0.925781 -1.175781 0.78125 -1.40625 C 0.644531 -1.632812 0.578125 -1.890625 0.578125 -2.171875 C 0.578125 -2.515625 0.65625 -2.828125 0.8125 -3.109375 C 0.96875 -3.390625 1.175781 -3.644531 1.4375 -3.875 C 1.226562 -4.082031 1.0625 -4.328125 0.9375 -4.609375 C 0.8125 -4.898438 0.75 -5.257812 0.75 -5.6875 C 0.75 -6.144531 0.828125 -6.550781 0.984375 -6.90625 C 1.148438 -7.269531 1.375 -7.578125 1.65625 -7.828125 C 1.945312 -8.078125 2.289062 -8.265625 2.6875 -8.390625 C 3.09375 -8.523438 3.535156 -8.59375 4.015625 -8.59375 C 4.253906 -8.59375 4.488281 -8.578125 4.71875 -8.546875 C 4.945312 -8.523438 5.15625 -8.488281 5.34375 -8.4375 L 7.828125 -8.4375 C 7.929688 -8.4375 8.015625 -8.367188 8.078125 -8.234375 C 8.140625 -8.109375 8.171875 -7.894531 8.171875 -7.59375 Z M 5.328125 -5.734375 C 5.328125 -6.148438 5.207031 -6.472656 4.96875 -6.703125 C 4.738281 -6.941406 4.410156 -7.0625 3.984375 -7.0625 C 3.765625 -7.0625 3.570312 -7.023438 3.40625 -6.953125 C 3.25 -6.878906 3.113281 -6.78125 3 -6.65625 C 2.894531 -6.53125 2.816406 -6.382812 2.765625 -6.21875 C 2.710938 -6.050781 2.6875 -5.878906 2.6875 -5.703125 C 2.6875 -5.304688 2.800781 -4.988281 3.03125 -4.75 C 3.269531 -4.519531 3.597656 -4.40625 4.015625 -4.40625 C 4.234375 -4.40625 4.425781 -4.441406 4.59375 -4.515625 C 4.757812 -4.585938 4.894531 -4.679688 5 -4.796875 C 5.101562 -4.921875 5.179688 -5.0625 5.234375 -5.21875 C 5.296875 -5.382812 5.328125 -5.554688 5.328125 -5.734375 Z M 5.84375 0.515625 C 5.84375 0.253906 5.738281 0.0546875 5.53125 -0.078125 C 5.320312 -0.222656 5.03125 -0.300781 4.65625 -0.3125 L 3.09375 -0.359375 C 2.9375 -0.242188 2.8125 -0.132812 2.71875 -0.03125 C 2.632812 0.0625 2.5625 0.15625 2.5 0.25 C 2.445312 0.34375 2.410156 0.429688 2.390625 0.515625 C 2.378906 0.609375 2.375 0.703125 2.375 0.796875 C 2.375 1.085938 2.519531 1.304688 2.8125 1.453125 C 3.113281 1.609375 3.53125 1.6875 4.0625 1.6875 C 4.394531 1.6875 4.675781 1.65625 4.90625 1.59375 C 5.132812 1.53125 5.316406 1.441406 5.453125 1.328125 C 5.597656 1.210938 5.695312 1.085938 5.75 0.953125 C 5.8125 0.816406 5.84375 0.671875 5.84375 0.515625 Z M 5.84375 0.515625 "/></g></g></g><g fill="#473c2f" fill-opacity="1"><g transform="translate(73.672738, 50.999999)"><g><path d="M 8.34375 -4.4375 C 8.34375 -4.175781 8.28125 -3.976562 8.15625 -3.84375 C 8.039062 -3.71875 7.878906 -3.65625 7.671875 -3.65625 L 2.890625 -3.65625 C 2.890625 -3.320312 2.929688 -3.015625 3.015625 -2.734375 C 3.097656 -2.460938 3.222656 -2.234375 3.390625 -2.046875 C 3.566406 -1.859375 3.789062 -1.710938 4.0625 -1.609375 C 4.332031 -1.515625 4.660156 -1.46875 5.046875 -1.46875 C 5.429688 -1.46875 5.769531 -1.492188 6.0625 -1.546875 C 6.351562 -1.609375 6.601562 -1.671875 6.8125 -1.734375 C 7.03125 -1.796875 7.207031 -1.851562 7.34375 -1.90625 C 7.488281 -1.96875 7.601562 -2 7.6875 -2 C 7.738281 -2 7.78125 -1.988281 7.8125 -1.96875 C 7.851562 -1.945312 7.882812 -1.910156 7.90625 -1.859375 C 7.9375 -1.804688 7.953125 -1.734375 7.953125 -1.640625 C 7.960938 -1.546875 7.96875 -1.421875 7.96875 -1.265625 C 7.96875 -1.140625 7.960938 -1.03125 7.953125 -0.9375 C 7.953125 -0.851562 7.945312 -0.773438 7.9375 -0.703125 C 7.925781 -0.640625 7.90625 -0.585938 7.875 -0.546875 C 7.851562 -0.503906 7.820312 -0.460938 7.78125 -0.421875 C 7.75 -0.378906 7.648438 -0.320312 7.484375 -0.25 C 7.316406 -0.1875 7.097656 -0.117188 6.828125 -0.046875 C 6.566406 0.015625 6.265625 0.0703125 5.921875 0.125 C 5.585938 0.175781 5.226562 0.203125 4.84375 0.203125 C 4.144531 0.203125 3.53125 0.113281 3 -0.0625 C 2.476562 -0.238281 2.039062 -0.503906 1.6875 -0.859375 C 1.34375 -1.210938 1.082031 -1.660156 0.90625 -2.203125 C 0.738281 -2.753906 0.65625 -3.394531 0.65625 -4.125 C 0.65625 -4.820312 0.742188 -5.445312 0.921875 -6 C 1.097656 -6.5625 1.359375 -7.035156 1.703125 -7.421875 C 2.054688 -7.816406 2.476562 -8.113281 2.96875 -8.3125 C 3.46875 -8.519531 4.023438 -8.625 4.640625 -8.625 C 5.296875 -8.625 5.859375 -8.523438 6.328125 -8.328125 C 6.796875 -8.140625 7.175781 -7.875 7.46875 -7.53125 C 7.769531 -7.195312 7.988281 -6.796875 8.125 -6.328125 C 8.269531 -5.859375 8.34375 -5.347656 8.34375 -4.796875 Z M 6.203125 -5.078125 C 6.210938 -5.691406 6.082031 -6.175781 5.8125 -6.53125 C 5.550781 -6.882812 5.144531 -7.0625 4.59375 -7.0625 C 4.3125 -7.0625 4.066406 -7.007812 3.859375 -6.90625 C 3.648438 -6.800781 3.476562 -6.660156 3.34375 -6.484375 C 3.207031 -6.304688 3.101562 -6.09375 3.03125 -5.84375 C 2.957031 -5.601562 2.910156 -5.347656 2.890625 -5.078125 Z M 6.203125 -5.078125 "/></g></g></g><g fill="#473c2f" fill-opacity="1"><g transform="translate(82.722462, 50.999999)"><g><path d="M 8.59375 -0.296875 C 8.59375 -0.234375 8.570312 -0.179688 8.53125 -0.140625 C 8.5 -0.0976562 8.441406 -0.0625 8.359375 -0.03125 C 8.273438 0 8.160156 0.0195312 8.015625 0.03125 C 7.878906 0.0390625 7.703125 0.046875 7.484375 0.046875 C 7.273438 0.046875 7.097656 0.0390625 6.953125 0.03125 C 6.804688 0.0195312 6.691406 0 6.609375 -0.03125 C 6.523438 -0.0625 6.46875 -0.0976562 6.4375 -0.140625 C 6.40625 -0.179688 6.390625 -0.234375 6.390625 -0.296875 L 6.390625 -4.765625 C 6.390625 -5.148438 6.359375 -5.445312 6.296875 -5.65625 C 6.242188 -5.875 6.164062 -6.0625 6.0625 -6.21875 C 5.957031 -6.375 5.820312 -6.492188 5.65625 -6.578125 C 5.488281 -6.660156 5.289062 -6.703125 5.0625 -6.703125 C 4.78125 -6.703125 4.492188 -6.597656 4.203125 -6.390625 C 3.921875 -6.191406 3.625 -5.894531 3.3125 -5.5 L 3.3125 -0.296875 C 3.3125 -0.234375 3.296875 -0.179688 3.265625 -0.140625 C 3.234375 -0.0976562 3.171875 -0.0625 3.078125 -0.03125 C 2.992188 0 2.878906 0.0195312 2.734375 0.03125 C 2.597656 0.0390625 2.425781 0.046875 2.21875 0.046875 C 2 0.046875 1.816406 0.0390625 1.671875 0.03125 C 1.535156 0.0195312 1.425781 0 1.34375 -0.03125 C 1.257812 -0.0625 1.195312 -0.0976562 1.15625 -0.140625 C 1.125 -0.179688 1.109375 -0.234375 1.109375 -0.296875 L 1.109375 -8.125 C 1.109375 -8.1875 1.117188 -8.238281 1.140625 -8.28125 C 1.171875 -8.320312 1.222656 -8.359375 1.296875 -8.390625 C 1.378906 -8.421875 1.476562 -8.441406 1.59375 -8.453125 C 1.71875 -8.472656 1.875 -8.484375 2.0625 -8.484375 C 2.238281 -8.484375 2.390625 -8.472656 2.515625 -8.453125 C 2.640625 -8.441406 2.734375 -8.421875 2.796875 -8.390625 C 2.867188 -8.359375 2.921875 -8.320312 2.953125 -8.28125 C 2.984375 -8.238281 3 -8.1875 3 -8.125 L 3 -7.234375 C 3.425781 -7.691406 3.863281 -8.035156 4.3125 -8.265625 C 4.757812 -8.503906 5.226562 -8.625 5.71875 -8.625 C 6.25 -8.625 6.695312 -8.535156 7.0625 -8.359375 C 7.425781 -8.191406 7.722656 -7.957031 7.953125 -7.65625 C 8.179688 -7.351562 8.34375 -7 8.4375 -6.59375 C 8.539062 -6.1875 8.59375 -5.703125 8.59375 -5.140625 Z M 8.59375 -0.296875 "/></g></g></g><g fill="#473c2f" fill-opacity="1"><g transform="translate(92.369065, 50.999999)"><g><path d="M 6.625 -2.515625 C 6.625 -2.066406 6.539062 -1.671875 6.375 -1.328125 C 6.207031 -0.992188 5.96875 -0.710938 5.65625 -0.484375 C 5.351562 -0.253906 4.992188 -0.0820312 4.578125 0.03125 C 4.160156 0.144531 3.710938 0.203125 3.234375 0.203125 C 2.941406 0.203125 2.660156 0.175781 2.390625 0.125 C 2.128906 0.0820312 1.890625 0.03125 1.671875 -0.03125 C 1.460938 -0.09375 1.285156 -0.160156 1.140625 -0.234375 C 1.003906 -0.304688 0.90625 -0.375 0.84375 -0.4375 C 0.78125 -0.5 0.726562 -0.59375 0.6875 -0.71875 C 0.65625 -0.851562 0.640625 -1.050781 0.640625 -1.3125 C 0.640625 -1.476562 0.644531 -1.613281 0.65625 -1.71875 C 0.664062 -1.820312 0.679688 -1.90625 0.703125 -1.96875 C 0.734375 -2.03125 0.765625 -2.066406 0.796875 -2.078125 C 0.835938 -2.097656 0.882812 -2.109375 0.9375 -2.109375 C 1 -2.109375 1.09375 -2.070312 1.21875 -2 C 1.34375 -1.925781 1.5 -1.847656 1.6875 -1.765625 C 1.875 -1.679688 2.09375 -1.597656 2.34375 -1.515625 C 2.59375 -1.441406 2.875 -1.40625 3.1875 -1.40625 C 3.382812 -1.40625 3.5625 -1.425781 3.71875 -1.46875 C 3.875 -1.507812 4.007812 -1.566406 4.125 -1.640625 C 4.238281 -1.710938 4.320312 -1.804688 4.375 -1.921875 C 4.4375 -2.046875 4.46875 -2.179688 4.46875 -2.328125 C 4.46875 -2.503906 4.410156 -2.65625 4.296875 -2.78125 C 4.191406 -2.914062 4.050781 -3.03125 3.875 -3.125 C 3.695312 -3.21875 3.492188 -3.300781 3.265625 -3.375 C 3.046875 -3.457031 2.816406 -3.546875 2.578125 -3.640625 C 2.335938 -3.742188 2.101562 -3.859375 1.875 -3.984375 C 1.65625 -4.117188 1.457031 -4.28125 1.28125 -4.46875 C 1.101562 -4.65625 0.957031 -4.878906 0.84375 -5.140625 C 0.738281 -5.410156 0.6875 -5.726562 0.6875 -6.09375 C 0.6875 -6.46875 0.757812 -6.8125 0.90625 -7.125 C 1.050781 -7.4375 1.257812 -7.703125 1.53125 -7.921875 C 1.8125 -8.148438 2.148438 -8.320312 2.546875 -8.4375 C 2.941406 -8.5625 3.382812 -8.625 3.875 -8.625 C 4.113281 -8.625 4.347656 -8.609375 4.578125 -8.578125 C 4.816406 -8.546875 5.03125 -8.503906 5.21875 -8.453125 C 5.40625 -8.398438 5.5625 -8.34375 5.6875 -8.28125 C 5.820312 -8.21875 5.914062 -8.160156 5.96875 -8.109375 C 6.019531 -8.066406 6.054688 -8.023438 6.078125 -7.984375 C 6.109375 -7.941406 6.128906 -7.890625 6.140625 -7.828125 C 6.148438 -7.765625 6.160156 -7.6875 6.171875 -7.59375 C 6.179688 -7.507812 6.1875 -7.398438 6.1875 -7.265625 C 6.1875 -7.109375 6.179688 -6.976562 6.171875 -6.875 C 6.160156 -6.78125 6.144531 -6.703125 6.125 -6.640625 C 6.101562 -6.578125 6.070312 -6.535156 6.03125 -6.515625 C 6 -6.492188 5.960938 -6.484375 5.921875 -6.484375 C 5.867188 -6.484375 5.785156 -6.515625 5.671875 -6.578125 C 5.554688 -6.640625 5.414062 -6.707031 5.25 -6.78125 C 5.082031 -6.851562 4.890625 -6.914062 4.671875 -6.96875 C 4.453125 -7.03125 4.203125 -7.0625 3.921875 -7.0625 C 3.722656 -7.0625 3.550781 -7.039062 3.40625 -7 C 3.257812 -6.96875 3.140625 -6.910156 3.046875 -6.828125 C 2.953125 -6.753906 2.878906 -6.664062 2.828125 -6.5625 C 2.785156 -6.457031 2.765625 -6.347656 2.765625 -6.234375 C 2.765625 -6.054688 2.816406 -5.90625 2.921875 -5.78125 C 3.035156 -5.65625 3.179688 -5.546875 3.359375 -5.453125 C 3.546875 -5.359375 3.753906 -5.269531 3.984375 -5.1875 C 4.222656 -5.101562 4.457031 -5.015625 4.6875 -4.921875 C 4.925781 -4.828125 5.160156 -4.710938 5.390625 -4.578125 C 5.628906 -4.453125 5.835938 -4.296875 6.015625 -4.109375 C 6.191406 -3.921875 6.335938 -3.695312 6.453125 -3.4375 C 6.566406 -3.175781 6.625 -2.867188 6.625 -2.515625 Z M 6.625 -2.515625 "/></g></g></g><g fill="#473c2f" fill-opacity="1"><g transform="translate(99.540378, 50.999999)"><g><path d="M 9 -4.328125 C 9 -3.628906 8.921875 -3 8.765625 -2.4375 C 8.609375 -1.882812 8.382812 -1.410156 8.09375 -1.015625 C 7.8125 -0.628906 7.460938 -0.328125 7.046875 -0.109375 C 6.628906 0.0976562 6.15625 0.203125 5.625 0.203125 C 5.351562 0.203125 5.101562 0.175781 4.875 0.125 C 4.65625 0.0703125 4.441406 -0.00390625 4.234375 -0.109375 C 4.023438 -0.222656 3.816406 -0.363281 3.609375 -0.53125 C 3.410156 -0.707031 3.207031 -0.914062 3 -1.15625 L 3 -0.296875 C 3 -0.234375 2.976562 -0.175781 2.9375 -0.125 C 2.90625 -0.0820312 2.851562 -0.046875 2.78125 -0.015625 C 2.707031 0.00390625 2.609375 0.0195312 2.484375 0.03125 C 2.367188 0.0390625 2.222656 0.046875 2.046875 0.046875 C 1.867188 0.046875 1.71875 0.0390625 1.59375 0.03125 C 1.46875 0.0195312 1.367188 0.00390625 1.296875 -0.015625 C 1.222656 -0.046875 1.171875 -0.0820312 1.140625 -0.125 C 1.117188 -0.175781 1.109375 -0.234375 1.109375 -0.296875 L 1.109375 -11.84375 C 1.109375 -11.90625 1.125 -11.957031 1.15625 -12 C 1.195312 -12.050781 1.257812 -12.09375 1.34375 -12.125 C 1.425781 -12.15625 1.535156 -12.175781 1.671875 -12.1875 C 1.816406 -12.207031 2 -12.21875 2.21875 -12.21875 C 2.425781 -12.21875 2.597656 -12.207031 2.734375 -12.1875 C 2.878906 -12.175781 2.992188 -12.15625 3.078125 -12.125 C 3.171875 -12.09375 3.234375 -12.050781 3.265625 -12 C 3.296875 -11.957031 3.3125 -11.90625 3.3125 -11.84375 L 3.3125 -7.515625 C 3.519531 -7.710938 3.722656 -7.878906 3.921875 -8.015625 C 4.117188 -8.160156 4.316406 -8.28125 4.515625 -8.375 C 4.710938 -8.46875 4.914062 -8.53125 5.125 -8.5625 C 5.332031 -8.601562 5.554688 -8.625 5.796875 -8.625 C 6.378906 -8.625 6.867188 -8.507812 7.265625 -8.28125 C 7.671875 -8.050781 8 -7.738281 8.25 -7.34375 C 8.507812 -6.957031 8.695312 -6.5 8.8125 -5.96875 C 8.9375 -5.445312 9 -4.898438 9 -4.328125 Z M 6.703125 -4.15625 C 6.703125 -4.488281 6.675781 -4.8125 6.625 -5.125 C 6.570312 -5.4375 6.484375 -5.710938 6.359375 -5.953125 C 6.242188 -6.191406 6.085938 -6.382812 5.890625 -6.53125 C 5.691406 -6.675781 5.441406 -6.75 5.140625 -6.75 C 4.992188 -6.75 4.847656 -6.726562 4.703125 -6.6875 C 4.566406 -6.644531 4.425781 -6.570312 4.28125 -6.46875 C 4.132812 -6.375 3.976562 -6.242188 3.8125 -6.078125 C 3.65625 -5.921875 3.488281 -5.726562 3.3125 -5.5 L 3.3125 -2.890625 C 3.625 -2.492188 3.921875 -2.191406 4.203125 -1.984375 C 4.492188 -1.773438 4.796875 -1.671875 5.109375 -1.671875 C 5.390625 -1.671875 5.628906 -1.742188 5.828125 -1.890625 C 6.023438 -2.035156 6.191406 -2.222656 6.328125 -2.453125 C 6.460938 -2.691406 6.554688 -2.960938 6.609375 -3.265625 C 6.671875 -3.566406 6.703125 -3.863281 6.703125 -4.15625 Z M 6.703125 -4.15625 "/></g></g></g><g fill="#473c2f" fill-opacity="1"><g transform="translate(109.18698, 50.999999)"><g><path d="M 8.53125 -0.296875 C 8.53125 -0.234375 8.515625 -0.179688 8.484375 -0.140625 C 8.460938 -0.0976562 8.414062 -0.0625 8.34375 -0.03125 C 8.269531 0 8.171875 0.0195312 8.046875 0.03125 C 7.929688 0.0390625 7.78125 0.046875 7.59375 0.046875 C 7.40625 0.046875 7.25 0.0390625 7.125 0.03125 C 7.007812 0.0195312 6.914062 0 6.84375 -0.03125 C 6.769531 -0.0625 6.71875 -0.0976562 6.6875 -0.140625 C 6.65625 -0.179688 6.640625 -0.234375 6.640625 -0.296875 L 6.640625 -1.203125 C 6.210938 -0.734375 5.773438 -0.378906 5.328125 -0.140625 C 4.878906 0.0859375 4.414062 0.203125 3.9375 0.203125 C 3.394531 0.203125 2.941406 0.113281 2.578125 -0.0625 C 2.210938 -0.238281 1.914062 -0.476562 1.6875 -0.78125 C 1.46875 -1.082031 1.304688 -1.429688 1.203125 -1.828125 C 1.109375 -2.234375 1.0625 -2.738281 1.0625 -3.34375 L 1.0625 -8.125 C 1.0625 -8.1875 1.078125 -8.238281 1.109375 -8.28125 C 1.140625 -8.320312 1.195312 -8.359375 1.28125 -8.390625 C 1.363281 -8.421875 1.476562 -8.441406 1.625 -8.453125 C 1.769531 -8.472656 1.945312 -8.484375 2.15625 -8.484375 C 2.375 -8.484375 2.550781 -8.472656 2.6875 -8.453125 C 2.832031 -8.441406 2.945312 -8.421875 3.03125 -8.390625 C 3.113281 -8.359375 3.171875 -8.320312 3.203125 -8.28125 C 3.242188 -8.238281 3.265625 -8.1875 3.265625 -8.125 L 3.265625 -3.703125 C 3.265625 -3.296875 3.289062 -2.984375 3.34375 -2.765625 C 3.394531 -2.546875 3.472656 -2.359375 3.578125 -2.203125 C 3.691406 -2.046875 3.832031 -1.925781 4 -1.84375 C 4.164062 -1.757812 4.359375 -1.71875 4.578125 -1.71875 C 4.859375 -1.71875 5.140625 -1.816406 5.421875 -2.015625 C 5.710938 -2.222656 6.019531 -2.523438 6.34375 -2.921875 L 6.34375 -8.125 C 6.34375 -8.1875 6.359375 -8.238281 6.390625 -8.28125 C 6.421875 -8.320312 6.476562 -8.359375 6.5625 -8.390625 C 6.644531 -8.421875 6.753906 -8.441406 6.890625 -8.453125 C 7.035156 -8.472656 7.21875 -8.484375 7.4375 -8.484375 C 7.65625 -8.484375 7.832031 -8.472656 7.96875 -8.453125 C 8.113281 -8.441406 8.226562 -8.421875 8.3125 -8.390625 C 8.394531 -8.359375 8.453125 -8.320312 8.484375 -8.28125 C 8.515625 -8.238281 8.53125 -8.1875 8.53125 -8.125 Z M 8.53125 -0.296875 "/></g></g></g><g fill="#473c2f" fill-opacity="1"><g transform="translate(118.833583, 50.999999)"><g><path d="M 6.140625 -7.40625 C 6.140625 -7.195312 6.132812 -7.023438 6.125 -6.890625 C 6.113281 -6.753906 6.09375 -6.644531 6.0625 -6.5625 C 6.039062 -6.488281 6.007812 -6.4375 5.96875 -6.40625 C 5.9375 -6.375 5.890625 -6.359375 5.828125 -6.359375 C 5.785156 -6.359375 5.734375 -6.367188 5.671875 -6.390625 C 5.609375 -6.410156 5.539062 -6.429688 5.46875 -6.453125 C 5.394531 -6.484375 5.316406 -6.507812 5.234375 -6.53125 C 5.148438 -6.550781 5.050781 -6.5625 4.9375 -6.5625 C 4.820312 -6.5625 4.703125 -6.535156 4.578125 -6.484375 C 4.453125 -6.429688 4.320312 -6.351562 4.1875 -6.25 C 4.0625 -6.144531 3.925781 -6.003906 3.78125 -5.828125 C 3.632812 -5.648438 3.476562 -5.4375 3.3125 -5.1875 L 3.3125 -0.296875 C 3.3125 -0.234375 3.296875 -0.179688 3.265625 -0.140625 C 3.234375 -0.0976562 3.171875 -0.0625 3.078125 -0.03125 C 2.992188 0 2.878906 0.0195312 2.734375 0.03125 C 2.597656 0.0390625 2.425781 0.046875 2.21875 0.046875 C 2 0.046875 1.816406 0.0390625 1.671875 0.03125 C 1.535156 0.0195312 1.425781 0 1.34375 -0.03125 C 1.257812 -0.0625 1.195312 -0.0976562 1.15625 -0.140625 C 1.125 -0.179688 1.109375 -0.234375 1.109375 -0.296875 L 1.109375 -8.125 C 1.109375 -8.1875 1.117188 -8.238281 1.140625 -8.28125 C 1.171875 -8.320312 1.222656 -8.359375 1.296875 -8.390625 C 1.378906 -8.421875 1.476562 -8.441406 1.59375 -8.453125 C 1.71875 -8.472656 1.875 -8.484375 2.0625 -8.484375 C 2.238281 -8.484375 2.390625 -8.472656 2.515625 -8.453125 C 2.640625 -8.441406 2.734375 -8.421875 2.796875 -8.390625 C 2.867188 -8.359375 2.921875 -8.320312 2.953125 -8.28125 C 2.984375 -8.238281 3 -8.1875 3 -8.125 L 3 -7.15625 C 3.195312 -7.445312 3.382812 -7.6875 3.5625 -7.875 C 3.75 -8.070312 3.925781 -8.222656 4.09375 -8.328125 C 4.257812 -8.441406 4.421875 -8.519531 4.578125 -8.5625 C 4.742188 -8.601562 4.910156 -8.625 5.078125 -8.625 C 5.148438 -8.625 5.226562 -8.617188 5.3125 -8.609375 C 5.40625 -8.609375 5.5 -8.597656 5.59375 -8.578125 C 5.6875 -8.554688 5.765625 -8.53125 5.828125 -8.5 C 5.898438 -8.476562 5.953125 -8.453125 5.984375 -8.421875 C 6.023438 -8.390625 6.050781 -8.351562 6.0625 -8.3125 C 6.070312 -8.28125 6.082031 -8.234375 6.09375 -8.171875 C 6.113281 -8.117188 6.125 -8.03125 6.125 -7.90625 C 6.132812 -7.78125 6.140625 -7.613281 6.140625 -7.40625 Z M 6.140625 -7.40625 "/></g></g></g><g fill="#473c2f" fill-opacity="1"><g transform="translate(125.013014, 50.999999)"><g><path d="M 8.171875 -7.59375 C 8.171875 -7.3125 8.132812 -7.101562 8.0625 -6.96875 C 8 -6.832031 7.921875 -6.765625 7.828125 -6.765625 L 6.90625 -6.765625 C 7.039062 -6.617188 7.132812 -6.457031 7.1875 -6.28125 C 7.238281 -6.101562 7.265625 -5.914062 7.265625 -5.71875 C 7.265625 -5.269531 7.1875 -4.867188 7.03125 -4.515625 C 6.882812 -4.160156 6.671875 -3.859375 6.390625 -3.609375 C 6.109375 -3.367188 5.765625 -3.1875 5.359375 -3.0625 C 4.960938 -2.9375 4.515625 -2.875 4.015625 -2.875 C 3.765625 -2.875 3.523438 -2.90625 3.296875 -2.96875 C 3.066406 -3.03125 2.894531 -3.097656 2.78125 -3.171875 C 2.707031 -3.097656 2.640625 -3.007812 2.578125 -2.90625 C 2.523438 -2.800781 2.5 -2.6875 2.5 -2.5625 C 2.5 -2.382812 2.570312 -2.238281 2.71875 -2.125 C 2.875 -2.019531 3.085938 -1.960938 3.359375 -1.953125 L 5.265625 -1.890625 C 5.703125 -1.867188 6.09375 -1.800781 6.4375 -1.6875 C 6.789062 -1.582031 7.085938 -1.429688 7.328125 -1.234375 C 7.566406 -1.046875 7.75 -0.8125 7.875 -0.53125 C 8 -0.257812 8.0625 0.0507812 8.0625 0.40625 C 8.0625 0.789062 7.972656 1.15625 7.796875 1.5 C 7.628906 1.84375 7.375 2.140625 7.03125 2.390625 C 6.695312 2.640625 6.273438 2.835938 5.765625 2.984375 C 5.253906 3.128906 4.65625 3.203125 3.96875 3.203125 C 3.300781 3.203125 2.726562 3.148438 2.25 3.046875 C 1.78125 2.941406 1.394531 2.796875 1.09375 2.609375 C 0.800781 2.421875 0.582031 2.195312 0.4375 1.9375 C 0.300781 1.675781 0.234375 1.390625 0.234375 1.078125 C 0.234375 0.890625 0.257812 0.707031 0.3125 0.53125 C 0.363281 0.351562 0.4375 0.179688 0.53125 0.015625 C 0.625 -0.140625 0.738281 -0.289062 0.875 -0.4375 C 1.019531 -0.582031 1.1875 -0.722656 1.375 -0.859375 C 1.125 -0.992188 0.925781 -1.175781 0.78125 -1.40625 C 0.644531 -1.632812 0.578125 -1.890625 0.578125 -2.171875 C 0.578125 -2.515625 0.65625 -2.828125 0.8125 -3.109375 C 0.96875 -3.390625 1.175781 -3.644531 1.4375 -3.875 C 1.226562 -4.082031 1.0625 -4.328125 0.9375 -4.609375 C 0.8125 -4.898438 0.75 -5.257812 0.75 -5.6875 C 0.75 -6.144531 0.828125 -6.550781 0.984375 -6.90625 C 1.148438 -7.269531 1.375 -7.578125 1.65625 -7.828125 C 1.945312 -8.078125 2.289062 -8.265625 2.6875 -8.390625 C 3.09375 -8.523438 3.535156 -8.59375 4.015625 -8.59375 C 4.253906 -8.59375 4.488281 -8.578125 4.71875 -8.546875 C 4.945312 -8.523438 5.15625 -8.488281 5.34375 -8.4375 L 7.828125 -8.4375 C 7.929688 -8.4375 8.015625 -8.367188 8.078125 -8.234375 C 8.140625 -8.109375 8.171875 -7.894531 8.171875 -7.59375 Z M 5.328125 -5.734375 C 5.328125 -6.148438 5.207031 -6.472656 4.96875 -6.703125 C 4.738281 -6.941406 4.410156 -7.0625 3.984375 -7.0625 C 3.765625 -7.0625 3.570312 -7.023438 3.40625 -6.953125 C 3.25 -6.878906 3.113281 -6.78125 3 -6.65625 C 2.894531 -6.53125 2.816406 -6.382812 2.765625 -6.21875 C 2.710938 -6.050781 2.6875 -5.878906 2.6875 -5.703125 C 2.6875 -5.304688 2.800781 -4.988281 3.03125 -4.75 C 3.269531 -4.519531 3.597656 -4.40625 4.015625 -4.40625 C 4.234375 -4.40625 4.425781 -4.441406 4.59375 -4.515625 C 4.757812 -4.585938 4.894531 -4.679688 5 -4.796875 C 5.101562 -4.921875 5.179688 -5.0625 5.234375 -5.21875 C 5.296875 -5.382812 5.328125 -5.554688 5.328125 -5.734375 Z M 5.84375 0.515625 C 5.84375 0.253906 5.738281 0.0546875 5.53125 -0.078125 C 5.320312 -0.222656 5.03125 -0.300781 4.65625 -0.3125 L 3.09375 -0.359375 C 2.9375 -0.242188 2.8125 -0.132812 2.71875 -0.03125 C 2.632812 0.0625 2.5625 0.15625 2.5 0.25 C 2.445312 0.34375 2.410156 0.429688 2.390625 0.515625 C 2.378906 0.609375 2.375 0.703125 2.375 0.796875 C 2.375 1.085938 2.519531 1.304688 2.8125 1.453125 C 3.113281 1.609375 3.53125 1.6875 4.0625 1.6875 C 4.394531 1.6875 4.675781 1.65625 4.90625 1.59375 C 5.132812 1.53125 5.316406 1.441406 5.453125 1.328125 C 5.597656 1.210938 5.695312 1.085938 5.75 0.953125 C 5.8125 0.816406 5.84375 0.671875 5.84375 0.515625 Z M 5.84375 0.515625 "/></g></g></g></svg>