<svg xmlns="http://www.w3.org/2000/svg" xmlns:xlink="http://www.w3.org/1999/xlink" width="240" zoomAndPan="magnify" viewBox="0 0 180 89.999999" height="120" preserveAspectRatio="xMidYMid meet" version="1.0"><defs><g/></defs><g fill="#473c2f" fill-opacity="1"><g transform="translate(49.154563, 42.75)"><g><path d="M 8.796875 -10.421875 C 8.796875 -10.242188 8.785156 -10.09375 8.765625 -9.96875 C 8.753906 -9.851562 8.734375 -9.757812 8.703125 -9.6875 C 8.679688 -9.613281 8.644531 -9.554688 8.59375 -9.515625 C 8.550781 -9.484375 8.503906 -9.46875 8.453125 -9.46875 L 5.609375 -9.46875 L 5.609375 -0.3125 C 5.609375 -0.257812 5.585938 -0.207031 5.546875 -0.15625 C 5.515625 -0.113281 5.453125 -0.078125 5.359375 -0.046875 C 5.273438 -0.015625 5.15625 0.00390625 5 0.015625 C 4.851562 0.0351562 4.671875 0.046875 4.453125 0.046875 C 4.234375 0.046875 4.046875 0.0351562 3.890625 0.015625 C 3.742188 0.00390625 3.625 -0.015625 3.53125 -0.046875 C 3.445312 -0.078125 3.382812 -0.113281 3.34375 -0.15625 C 3.3125 -0.207031 3.296875 -0.257812 3.296875 -0.3125 L 3.296875 -9.46875 L 0.453125 -9.46875 C 0.390625 -9.46875 0.335938 -9.484375 0.296875 -9.515625 C 0.253906 -9.554688 0.21875 -9.613281 0.1875 -9.6875 C 0.164062 -9.757812 0.144531 -9.851562 0.125 -9.96875 C 0.113281 -10.09375 0.109375 -10.242188 0.109375 -10.421875 C 0.109375 -10.585938 0.113281 -10.734375 0.125 -10.859375 C 0.144531 -10.984375 0.164062 -11.082031 0.1875 -11.15625 C 0.21875 -11.226562 0.253906 -11.28125 0.296875 -11.3125 C 0.335938 -11.34375 0.390625 -11.359375 0.453125 -11.359375 L 8.453125 -11.359375 C 8.503906 -11.359375 8.550781 -11.34375 8.59375 -11.3125 C 8.644531 -11.28125 8.679688 -11.226562 8.703125 -11.15625 C 8.734375 -11.082031 8.753906 -10.984375 8.765625 -10.859375 C 8.785156 -10.734375 8.796875 -10.585938 8.796875 -10.421875 Z M 8.796875 -10.421875 "/></g></g></g><g fill="#473c2f" fill-opacity="1"><g transform="translate(57.133372, 42.75)"><g><path d="M 8.53125 -0.296875 C 8.53125 -0.234375 8.515625 -0.179688 8.484375 -0.140625 C 8.460938 -0.0976562 8.414062 -0.0625 8.34375 -0.03125 C 8.269531 0 8.171875 0.0195312 8.046875 0.03125 C 7.929688 0.0390625 7.78125 0.046875 7.59375 0.046875 C 7.40625 0.046875 7.25 0.0390625 7.125 0.03125 C 7.007812 0.0195312 6.914062 0 6.84375 -0.03125 C 6.769531 -0.0625 6.71875 -0.0976562 6.6875 -0.140625 C 6.65625 -0.179688 6.640625 -0.234375 6.640625 -0.296875 L 6.640625 -1.203125 C 6.210938 -0.734375 5.773438 -0.378906 5.328125 -0.140625 C 4.878906 0.0859375 4.414062 0.203125 3.9375 0.203125 C 3.394531 0.203125 2.941406 0.113281 2.578125 -0.0625 C 2.210938 -0.238281 1.914062 -0.476562 1.6875 -0.78125 C 1.46875 -1.082031 1.304688 -1.429688 1.203125 -1.828125 C 1.109375 -2.234375 1.0625 -2.738281 1.0625 -3.34375 L 1.0625 -8.125 C 1.0625 -8.1875 1.078125 -8.238281 1.109375 -8.28125 C 1.140625 -8.320312 1.195312 -8.359375 1.28125 -8.390625 C 1.363281 -8.421875 1.476562 -8.441406 1.625 -8.453125 C 1.769531 -8.472656 1.945312 -8.484375 2.15625 -8.484375 C 2.375 -8.484375 2.550781 -8.472656 2.6875 -8.453125 C 2.832031 -8.441406 2.945312 -8.421875 3.03125 -8.390625 C 3.113281 -8.359375 3.171875 -8.320312 3.203125 -8.28125 C 3.242188 -8.238281 3.265625 -8.1875 3.265625 -8.125 L 3.265625 -3.703125 C 3.265625 -3.296875 3.289062 -2.984375 3.34375 -2.765625 C 3.394531 -2.546875 3.472656 -2.359375 3.578125 -2.203125 C 3.691406 -2.046875 3.832031 -1.925781 4 -1.84375 C 4.164062 -1.757812 4.359375 -1.71875 4.578125 -1.71875 C 4.859375 -1.71875 5.140625 -1.816406 5.421875 -2.015625 C 5.710938 -2.222656 6.019531 -2.523438 6.34375 -2.921875 L 6.34375 -8.125 C 6.34375 -8.1875 6.359375 -8.238281 6.390625 -8.28125 C 6.421875 -8.320312 6.476562 -8.359375 6.5625 -8.390625 C 6.644531 -8.421875 6.753906 -8.441406 6.890625 -8.453125 C 7.035156 -8.472656 7.21875 -8.484375 7.4375 -8.484375 C 7.65625 -8.484375 7.832031 -8.472656 7.96875 -8.453125 C 8.113281 -8.441406 8.226562 -8.421875 8.3125 -8.390625 C 8.394531 -8.359375 8.453125 -8.320312 8.484375 -8.28125 C 8.515625 -8.238281 8.53125 -8.1875 8.53125 -8.125 Z M 8.53125 -0.296875 "/></g></g></g><g fill="#473c2f" fill-opacity="1"><g transform="translate(66.779974, 42.75)"><g><path d="M 6.140625 -7.40625 C 6.140625 -7.195312 6.132812 -7.023438 6.125 -6.890625 C 6.113281 -6.753906 6.09375 -6.644531 6.0625 -6.5625 C 6.039062 -6.488281 6.007812 -6.4375 5.96875 -6.40625 C 5.9375 -6.375 5.890625 -6.359375 5.828125 -6.359375 C 5.785156 -6.359375 5.734375 -6.367188 5.671875 -6.390625 C 5.609375 -6.410156 5.539062 -6.429688 5.46875 -6.453125 C 5.394531 -6.484375 5.316406 -6.507812 5.234375 -6.53125 C 5.148438 -6.550781 5.050781 -6.5625 4.9375 -6.5625 C 4.820312 -6.5625 4.703125 -6.535156 4.578125 -6.484375 C 4.453125 -6.429688 4.320312 -6.351562 4.1875 -6.25 C 4.0625 -6.144531 3.925781 -6.003906 3.78125 -5.828125 C 3.632812 -5.648438 3.476562 -5.4375 3.3125 -5.1875 L 3.3125 -0.296875 C 3.3125 -0.234375 3.296875 -0.179688 3.265625 -0.140625 C 3.234375 -0.0976562 3.171875 -0.0625 3.078125 -0.03125 C 2.992188 0 2.878906 0.0195312 2.734375 0.03125 C 2.597656 0.0390625 2.425781 0.046875 2.21875 0.046875 C 2 0.046875 1.816406 0.0390625 1.671875 0.03125 C 1.535156 0.0195312 1.425781 0 1.34375 -0.03125 C 1.257812 -0.0625 1.195312 -0.0976562 1.15625 -0.140625 C 1.125 -0.179688 1.109375 -0.234375 1.109375 -0.296875 L 1.109375 -8.125 C 1.109375 -8.1875 1.117188 -8.238281 1.140625 -8.28125 C 1.171875 -8.320312 1.222656 -8.359375 1.296875 -8.390625 C 1.378906 -8.421875 1.476562 -8.441406 1.59375 -8.453125 C 1.71875 -8.472656 1.875 -8.484375 2.0625 -8.484375 C 2.238281 -8.484375 2.390625 -8.472656 2.515625 -8.453125 C 2.640625 -8.441406 2.734375 -8.421875 2.796875 -8.390625 C 2.867188 -8.359375 2.921875 -8.320312 2.953125 -8.28125 C 2.984375 -8.238281 3 -8.1875 3 -8.125 L 3 -7.15625 C 3.195312 -7.445312 3.382812 -7.6875 3.5625 -7.875 C 3.75 -8.070312 3.925781 -8.222656 4.09375 -8.328125 C 4.257812 -8.441406 4.421875 -8.519531 4.578125 -8.5625 C 4.742188 -8.601562 4.910156 -8.625 5.078125 -8.625 C 5.148438 -8.625 5.226562 -8.617188 5.3125 -8.609375 C 5.40625 -8.609375 5.5 -8.597656 5.59375 -8.578125 C 5.6875 -8.554688 5.765625 -8.53125 5.828125 -8.5 C 5.898438 -8.476562 5.953125 -8.453125 5.984375 -8.421875 C 6.023438 -8.390625 6.050781 -8.351562 6.0625 -8.3125 C 6.070312 -8.28125 6.082031 -8.234375 6.09375 -8.171875 C 6.113281 -8.117188 6.125 -8.03125 6.125 -7.90625 C 6.132812 -7.78125 6.140625 -7.613281 6.140625 -7.40625 Z M 6.140625 -7.40625 "/></g></g></g><g fill="#473c2f" fill-opacity="1"><g transform="translate(73.17008, 42.75)"><g><path d="M 3.3125 -0.296875 C 3.3125 -0.234375 3.296875 -0.179688 3.265625 -0.140625 C 3.234375 -0.0976562 3.171875 -0.0625 3.078125 -0.03125 C 2.992188 0 2.878906 0.0195312 2.734375 0.03125 C 2.597656 0.0390625 2.425781 0.046875 2.21875 0.046875 C 2 0.046875 1.816406 0.0390625 1.671875 0.03125 C 1.535156 0.0195312 1.425781 0 1.34375 -0.03125 C 1.257812 -0.0625 1.195312 -0.0976562 1.15625 -0.140625 C 1.125 -0.179688 1.109375 -0.234375 1.109375 -0.296875 L 1.109375 -8.109375 C 1.109375 -8.171875 1.125 -8.222656 1.15625 -8.265625 C 1.195312 -8.304688 1.257812 -8.34375 1.34375 -8.375 C 1.425781 -8.414062 1.535156 -8.441406 1.671875 -8.453125 C 1.816406 -8.472656 2 -8.484375 2.21875 -8.484375 C 2.425781 -8.484375 2.597656 -8.472656 2.734375 -8.453125 C 2.878906 -8.441406 2.992188 -8.414062 3.078125 -8.375 C 3.171875 -8.34375 3.234375 -8.304688 3.265625 -8.265625 C 3.296875 -8.222656 3.3125 -8.171875 3.3125 -8.109375 Z M 3.484375 -10.78125 C 3.484375 -10.332031 3.390625 -10.023438 3.203125 -9.859375 C 3.023438 -9.691406 2.691406 -9.609375 2.203125 -9.609375 C 1.703125 -9.609375 1.363281 -9.6875 1.1875 -9.84375 C 1.019531 -10.007812 0.9375 -10.304688 0.9375 -10.734375 C 0.9375 -11.179688 1.023438 -11.488281 1.203125 -11.65625 C 1.378906 -11.832031 1.71875 -11.921875 2.21875 -11.921875 C 2.707031 -11.921875 3.039062 -11.835938 3.21875 -11.671875 C 3.394531 -11.503906 3.484375 -11.207031 3.484375 -10.78125 Z M 3.484375 -10.78125 "/></g></g></g><g fill="#473c2f" fill-opacity="1"><g transform="translate(77.585221, 42.75)"><g><path d="M 13.5625 -0.296875 C 13.5625 -0.234375 13.546875 -0.179688 13.515625 -0.140625 C 13.484375 -0.0976562 13.425781 -0.0625 13.34375 -0.03125 C 13.257812 0 13.144531 0.0195312 13 0.03125 C 12.863281 0.0390625 12.6875 0.046875 12.46875 0.046875 C 12.25 0.046875 12.066406 0.0390625 11.921875 0.03125 C 11.785156 0.0195312 11.671875 0 11.578125 -0.03125 C 11.492188 -0.0625 11.4375 -0.0976562 11.40625 -0.140625 C 11.375 -0.179688 11.359375 -0.234375 11.359375 -0.296875 L 11.359375 -4.9375 C 11.359375 -5.207031 11.332031 -5.445312 11.28125 -5.65625 C 11.238281 -5.875 11.164062 -6.0625 11.0625 -6.21875 C 10.957031 -6.375 10.828125 -6.492188 10.671875 -6.578125 C 10.515625 -6.660156 10.328125 -6.703125 10.109375 -6.703125 C 9.847656 -6.703125 9.582031 -6.597656 9.3125 -6.390625 C 9.039062 -6.191406 8.75 -5.894531 8.4375 -5.5 L 8.4375 -0.296875 C 8.4375 -0.234375 8.414062 -0.179688 8.375 -0.140625 C 8.34375 -0.0976562 8.285156 -0.0625 8.203125 -0.03125 C 8.117188 0 8.003906 0.0195312 7.859375 0.03125 C 7.722656 0.0390625 7.550781 0.046875 7.34375 0.046875 C 7.125 0.046875 6.941406 0.0390625 6.796875 0.03125 C 6.660156 0.0195312 6.550781 0 6.46875 -0.03125 C 6.382812 -0.0625 6.320312 -0.0976562 6.28125 -0.140625 C 6.25 -0.179688 6.234375 -0.234375 6.234375 -0.296875 L 6.234375 -4.9375 C 6.234375 -5.207031 6.207031 -5.445312 6.15625 -5.65625 C 6.101562 -5.875 6.023438 -6.0625 5.921875 -6.21875 C 5.828125 -6.375 5.703125 -6.492188 5.546875 -6.578125 C 5.390625 -6.660156 5.207031 -6.703125 5 -6.703125 C 4.726562 -6.703125 4.457031 -6.597656 4.1875 -6.390625 C 3.914062 -6.191406 3.625 -5.894531 3.3125 -5.5 L 3.3125 -0.296875 C 3.3125 -0.234375 3.296875 -0.179688 3.265625 -0.140625 C 3.234375 -0.0976562 3.171875 -0.0625 3.078125 -0.03125 C 2.992188 0 2.878906 0.0195312 2.734375 0.03125 C 2.597656 0.0390625 2.425781 0.046875 2.21875 0.046875 C 2 0.046875 1.816406 0.0390625 1.671875 0.03125 C 1.535156 0.0195312 1.425781 0 1.34375 -0.03125 C 1.257812 -0.0625 1.195312 -0.0976562 1.15625 -0.140625 C 1.125 -0.179688 1.109375 -0.234375 1.109375 -0.296875 L 1.109375 -8.125 C 1.109375 -8.1875 1.117188 -8.238281 1.140625 -8.28125 C 1.171875 -8.320312 1.222656 -8.359375 1.296875 -8.390625 C 1.378906 -8.421875 1.476562 -8.441406 1.59375 -8.453125 C 1.71875 -8.472656 1.875 -8.484375 2.0625 -8.484375 C 2.238281 -8.484375 2.390625 -8.472656 2.515625 -8.453125 C 2.640625 -8.441406 2.734375 -8.421875 2.796875 -8.390625 C 2.867188 -8.359375 2.921875 -8.320312 2.953125 -8.28125 C 2.984375 -8.238281 3 -8.1875 3 -8.125 L 3 -7.234375 C 3.425781 -7.691406 3.851562 -8.035156 4.28125 -8.265625 C 4.71875 -8.503906 5.171875 -8.625 5.640625 -8.625 C 5.960938 -8.625 6.25 -8.59375 6.5 -8.53125 C 6.757812 -8.46875 6.988281 -8.367188 7.1875 -8.234375 C 7.394531 -8.109375 7.570312 -7.957031 7.71875 -7.78125 C 7.863281 -7.613281 7.988281 -7.421875 8.09375 -7.203125 C 8.320312 -7.453125 8.546875 -7.664062 8.765625 -7.84375 C 8.992188 -8.03125 9.21875 -8.179688 9.4375 -8.296875 C 9.664062 -8.410156 9.890625 -8.492188 10.109375 -8.546875 C 10.328125 -8.597656 10.550781 -8.625 10.78125 -8.625 C 11.300781 -8.625 11.738281 -8.535156 12.09375 -8.359375 C 12.445312 -8.191406 12.734375 -7.957031 12.953125 -7.65625 C 13.171875 -7.351562 13.328125 -7 13.421875 -6.59375 C 13.515625 -6.1875 13.5625 -5.757812 13.5625 -5.3125 Z M 13.5625 -0.296875 "/></g></g></g><g fill="#473c2f" fill-opacity="1"><g transform="translate(92.208733, 42.75)"><g><path d="M 8.53125 -0.296875 C 8.53125 -0.234375 8.515625 -0.179688 8.484375 -0.140625 C 8.460938 -0.0976562 8.414062 -0.0625 8.34375 -0.03125 C 8.269531 0 8.171875 0.0195312 8.046875 0.03125 C 7.929688 0.0390625 7.78125 0.046875 7.59375 0.046875 C 7.40625 0.046875 7.25 0.0390625 7.125 0.03125 C 7.007812 0.0195312 6.914062 0 6.84375 -0.03125 C 6.769531 -0.0625 6.71875 -0.0976562 6.6875 -0.140625 C 6.65625 -0.179688 6.640625 -0.234375 6.640625 -0.296875 L 6.640625 -1.203125 C 6.210938 -0.734375 5.773438 -0.378906 5.328125 -0.140625 C 4.878906 0.0859375 4.414062 0.203125 3.9375 0.203125 C 3.394531 0.203125 2.941406 0.113281 2.578125 -0.0625 C 2.210938 -0.238281 1.914062 -0.476562 1.6875 -0.78125 C 1.46875 -1.082031 1.304688 -1.429688 1.203125 -1.828125 C 1.109375 -2.234375 1.0625 -2.738281 1.0625 -3.34375 L 1.0625 -8.125 C 1.0625 -8.1875 1.078125 -8.238281 1.109375 -8.28125 C 1.140625 -8.320312 1.195312 -8.359375 1.28125 -8.390625 C 1.363281 -8.421875 1.476562 -8.441406 1.625 -8.453125 C 1.769531 -8.472656 1.945312 -8.484375 2.15625 -8.484375 C 2.375 -8.484375 2.550781 -8.472656 2.6875 -8.453125 C 2.832031 -8.441406 2.945312 -8.421875 3.03125 -8.390625 C 3.113281 -8.359375 3.171875 -8.320312 3.203125 -8.28125 C 3.242188 -8.238281 3.265625 -8.1875 3.265625 -8.125 L 3.265625 -3.703125 C 3.265625 -3.296875 3.289062 -2.984375 3.34375 -2.765625 C 3.394531 -2.546875 3.472656 -2.359375 3.578125 -2.203125 C 3.691406 -2.046875 3.832031 -1.925781 4 -1.84375 C 4.164062 -1.757812 4.359375 -1.71875 4.578125 -1.71875 C 4.859375 -1.71875 5.140625 -1.816406 5.421875 -2.015625 C 5.710938 -2.222656 6.019531 -2.523438 6.34375 -2.921875 L 6.34375 -8.125 C 6.34375 -8.1875 6.359375 -8.238281 6.390625 -8.28125 C 6.421875 -8.320312 6.476562 -8.359375 6.5625 -8.390625 C 6.644531 -8.421875 6.753906 -8.441406 6.890625 -8.453125 C 7.035156 -8.472656 7.21875 -8.484375 7.4375 -8.484375 C 7.65625 -8.484375 7.832031 -8.472656 7.96875 -8.453125 C 8.113281 -8.441406 8.226562 -8.421875 8.3125 -8.390625 C 8.394531 -8.359375 8.453125 -8.320312 8.484375 -8.28125 C 8.515625 -8.238281 8.53125 -8.1875 8.53125 -8.125 Z M 8.53125 -0.296875 "/></g></g></g><g fill="#473c2f" fill-opacity="1"><g transform="translate(101.855335, 42.75)"><g><path d="M 8.59375 -0.296875 C 8.59375 -0.234375 8.570312 -0.179688 8.53125 -0.140625 C 8.5 -0.0976562 8.441406 -0.0625 8.359375 -0.03125 C 8.273438 0 8.160156 0.0195312 8.015625 0.03125 C 7.878906 0.0390625 7.703125 0.046875 7.484375 0.046875 C 7.273438 0.046875 7.097656 0.0390625 6.953125 0.03125 C 6.804688 0.0195312 6.691406 0 6.609375 -0.03125 C 6.523438 -0.0625 6.46875 -0.0976562 6.4375 -0.140625 C 6.40625 -0.179688 6.390625 -0.234375 6.390625 -0.296875 L 6.390625 -4.765625 C 6.390625 -5.148438 6.359375 -5.445312 6.296875 -5.65625 C 6.242188 -5.875 6.164062 -6.0625 6.0625 -6.21875 C 5.957031 -6.375 5.820312 -6.492188 5.65625 -6.578125 C 5.488281 -6.660156 5.289062 -6.703125 5.0625 -6.703125 C 4.78125 -6.703125 4.492188 -6.597656 4.203125 -6.390625 C 3.921875 -6.191406 3.625 -5.894531 3.3125 -5.5 L 3.3125 -0.296875 C 3.3125 -0.234375 3.296875 -0.179688 3.265625 -0.140625 C 3.234375 -0.0976562 3.171875 -0.0625 3.078125 -0.03125 C 2.992188 0 2.878906 0.0195312 2.734375 0.03125 C 2.597656 0.0390625 2.425781 0.046875 2.21875 0.046875 C 2 0.046875 1.816406 0.0390625 1.671875 0.03125 C 1.535156 0.0195312 1.425781 0 1.34375 -0.03125 C 1.257812 -0.0625 1.195312 -0.0976562 1.15625 -0.140625 C 1.125 -0.179688 1.109375 -0.234375 1.109375 -0.296875 L 1.109375 -8.125 C 1.109375 -8.1875 1.117188 -8.238281 1.140625 -8.28125 C 1.171875 -8.320312 1.222656 -8.359375 1.296875 -8.390625 C 1.378906 -8.421875 1.476562 -8.441406 1.59375 -8.453125 C 1.71875 -8.472656 1.875 -8.484375 2.0625 -8.484375 C 2.238281 -8.484375 2.390625 -8.472656 2.515625 -8.453125 C 2.640625 -8.441406 2.734375 -8.421875 2.796875 -8.390625 C 2.867188 -8.359375 2.921875 -8.320312 2.953125 -8.28125 C 2.984375 -8.238281 3 -8.1875 3 -8.125 L 3 -7.234375 C 3.425781 -7.691406 3.863281 -8.035156 4.3125 -8.265625 C 4.757812 -8.503906 5.226562 -8.625 5.71875 -8.625 C 6.25 -8.625 6.695312 -8.535156 7.0625 -8.359375 C 7.425781 -8.191406 7.722656 -7.957031 7.953125 -7.65625 C 8.179688 -7.351562 8.34375 -7 8.4375 -6.59375 C 8.539062 -6.1875 8.59375 -5.703125 8.59375 -5.140625 Z M 8.59375 -0.296875 "/></g></g></g><g fill="#473c2f" fill-opacity="1"><g transform="translate(111.501937, 42.75)"><g><path d="M 8.53125 -0.296875 C 8.53125 -0.234375 8.515625 -0.175781 8.484375 -0.125 C 8.460938 -0.0820312 8.414062 -0.046875 8.34375 -0.015625 C 8.269531 0.00390625 8.171875 0.0195312 8.046875 0.03125 C 7.929688 0.0390625 7.785156 0.046875 7.609375 0.046875 C 7.421875 0.046875 7.269531 0.0390625 7.15625 0.03125 C 7.039062 0.0195312 6.945312 0.00390625 6.875 -0.015625 C 6.800781 -0.046875 6.75 -0.0820312 6.71875 -0.125 C 6.6875 -0.175781 6.671875 -0.234375 6.671875 -0.296875 L 6.671875 -1.171875 C 6.265625 -0.734375 5.835938 -0.394531 5.390625 -0.15625 C 4.953125 0.0820312 4.460938 0.203125 3.921875 0.203125 C 3.328125 0.203125 2.820312 0.0859375 2.40625 -0.140625 C 2 -0.367188 1.664062 -0.679688 1.40625 -1.078125 C 1.144531 -1.472656 0.953125 -1.929688 0.828125 -2.453125 C 0.710938 -2.972656 0.65625 -3.523438 0.65625 -4.109375 C 0.65625 -4.804688 0.726562 -5.429688 0.875 -5.984375 C 1.03125 -6.546875 1.25 -7.019531 1.53125 -7.40625 C 1.820312 -7.800781 2.179688 -8.101562 2.609375 -8.3125 C 3.035156 -8.519531 3.523438 -8.625 4.078125 -8.625 C 4.515625 -8.625 4.910156 -8.535156 5.265625 -8.359375 C 5.628906 -8.179688 5.988281 -7.921875 6.34375 -7.578125 L 6.34375 -11.8125 C 6.34375 -11.875 6.359375 -11.925781 6.390625 -11.96875 C 6.421875 -12.019531 6.476562 -12.0625 6.5625 -12.09375 C 6.644531 -12.125 6.753906 -12.148438 6.890625 -12.171875 C 7.035156 -12.191406 7.21875 -12.203125 7.4375 -12.203125 C 7.65625 -12.203125 7.832031 -12.191406 7.96875 -12.171875 C 8.113281 -12.148438 8.226562 -12.125 8.3125 -12.09375 C 8.394531 -12.0625 8.453125 -12.019531 8.484375 -11.96875 C 8.515625 -11.925781 8.53125 -11.875 8.53125 -11.8125 Z M 6.34375 -5.53125 C 6.019531 -5.925781 5.710938 -6.226562 5.421875 -6.4375 C 5.140625 -6.65625 4.835938 -6.765625 4.515625 -6.765625 C 4.234375 -6.765625 3.988281 -6.691406 3.78125 -6.546875 C 3.570312 -6.398438 3.40625 -6.207031 3.28125 -5.96875 C 3.15625 -5.726562 3.0625 -5.457031 3 -5.15625 C 2.9375 -4.863281 2.90625 -4.566406 2.90625 -4.265625 C 2.90625 -3.929688 2.929688 -3.609375 2.984375 -3.296875 C 3.035156 -2.992188 3.117188 -2.71875 3.234375 -2.46875 C 3.359375 -2.226562 3.519531 -2.035156 3.71875 -1.890625 C 3.914062 -1.742188 4.171875 -1.671875 4.484375 -1.671875 C 4.628906 -1.671875 4.773438 -1.691406 4.921875 -1.734375 C 5.066406 -1.773438 5.210938 -1.84375 5.359375 -1.9375 C 5.503906 -2.039062 5.65625 -2.171875 5.8125 -2.328125 C 5.976562 -2.492188 6.15625 -2.695312 6.34375 -2.9375 Z M 6.34375 -5.53125 "/></g></g></g><g fill="#473c2f" fill-opacity="1"><g transform="translate(121.148539, 42.75)"><g><path d="M 9.03125 -4.296875 C 9.03125 -3.628906 8.941406 -3.019531 8.765625 -2.46875 C 8.585938 -1.914062 8.316406 -1.441406 7.953125 -1.046875 C 7.597656 -0.648438 7.148438 -0.34375 6.609375 -0.125 C 6.078125 0.09375 5.453125 0.203125 4.734375 0.203125 C 4.035156 0.203125 3.425781 0.109375 2.90625 -0.078125 C 2.394531 -0.273438 1.96875 -0.554688 1.625 -0.921875 C 1.289062 -1.296875 1.039062 -1.75 0.875 -2.28125 C 0.707031 -2.820312 0.625 -3.441406 0.625 -4.140625 C 0.625 -4.804688 0.710938 -5.414062 0.890625 -5.96875 C 1.078125 -6.519531 1.347656 -6.992188 1.703125 -7.390625 C 2.054688 -7.785156 2.5 -8.085938 3.03125 -8.296875 C 3.570312 -8.515625 4.203125 -8.625 4.921875 -8.625 C 5.628906 -8.625 6.238281 -8.53125 6.75 -8.34375 C 7.269531 -8.15625 7.695312 -7.875 8.03125 -7.5 C 8.363281 -7.132812 8.613281 -6.679688 8.78125 -6.140625 C 8.945312 -5.609375 9.03125 -4.992188 9.03125 -4.296875 Z M 6.75 -4.203125 C 6.75 -4.585938 6.71875 -4.941406 6.65625 -5.265625 C 6.59375 -5.597656 6.488281 -5.882812 6.34375 -6.125 C 6.195312 -6.363281 6.003906 -6.550781 5.765625 -6.6875 C 5.523438 -6.820312 5.21875 -6.890625 4.84375 -6.890625 C 4.519531 -6.890625 4.234375 -6.828125 3.984375 -6.703125 C 3.742188 -6.585938 3.539062 -6.410156 3.375 -6.171875 C 3.21875 -5.941406 3.097656 -5.664062 3.015625 -5.34375 C 2.941406 -5.019531 2.90625 -4.648438 2.90625 -4.234375 C 2.90625 -3.847656 2.9375 -3.488281 3 -3.15625 C 3.0625 -2.832031 3.164062 -2.550781 3.3125 -2.3125 C 3.457031 -2.070312 3.648438 -1.882812 3.890625 -1.75 C 4.140625 -1.625 4.445312 -1.5625 4.8125 -1.5625 C 5.144531 -1.5625 5.429688 -1.617188 5.671875 -1.734375 C 5.921875 -1.859375 6.125 -2.035156 6.28125 -2.265625 C 6.445312 -2.492188 6.566406 -2.769531 6.640625 -3.09375 C 6.710938 -3.414062 6.75 -3.785156 6.75 -4.203125 Z M 6.75 -4.203125 "/></g></g></g><g fill="#473c2f" fill-opacity="1"><g transform="translate(50.431906, 56.249999)"><g><path d="M 3.3125 -0.296875 C 3.3125 -0.234375 3.296875 -0.179688 3.265625 -0.140625 C 3.234375 -0.0976562 3.171875 -0.0625 3.078125 -0.03125 C 2.992188 0 2.878906 0.0195312 2.734375 0.03125 C 2.597656 0.0390625 2.425781 0.046875 2.21875 0.046875 C 2 0.046875 1.816406 0.0390625 1.671875 0.03125 C 1.535156 0.0195312 1.425781 0 1.34375 -0.03125 C 1.257812 -0.0625 1.195312 -0.0976562 1.15625 -0.140625 C 1.125 -0.179688 1.109375 -0.234375 1.109375 -0.296875 L 1.109375 -8.109375 C 1.109375 -8.171875 1.125 -8.222656 1.15625 -8.265625 C 1.195312 -8.304688 1.257812 -8.34375 1.34375 -8.375 C 1.425781 -8.414062 1.535156 -8.441406 1.671875 -8.453125 C 1.816406 -8.472656 2 -8.484375 2.21875 -8.484375 C 2.425781 -8.484375 2.597656 -8.472656 2.734375 -8.453125 C 2.878906 -8.441406 2.992188 -8.414062 3.078125 -8.375 C 3.171875 -8.34375 3.234375 -8.304688 3.265625 -8.265625 C 3.296875 -8.222656 3.3125 -8.171875 3.3125 -8.109375 Z M 3.484375 -10.78125 C 3.484375 -10.332031 3.390625 -10.023438 3.203125 -9.859375 C 3.023438 -9.691406 2.691406 -9.609375 2.203125 -9.609375 C 1.703125 -9.609375 1.363281 -9.6875 1.1875 -9.84375 C 1.019531 -10.007812 0.9375 -10.304688 0.9375 -10.734375 C 0.9375 -11.179688 1.023438 -11.488281 1.203125 -11.65625 C 1.378906 -11.832031 1.71875 -11.921875 2.21875 -11.921875 C 2.707031 -11.921875 3.039062 -11.835938 3.21875 -11.671875 C 3.394531 -11.503906 3.484375 -11.207031 3.484375 -10.78125 Z M 3.484375 -10.78125 "/></g></g></g><g fill="#473c2f" fill-opacity="1"><g transform="translate(54.847048, 56.249999)"><g><path d="M 8.59375 -0.296875 C 8.59375 -0.234375 8.570312 -0.179688 8.53125 -0.140625 C 8.5 -0.0976562 8.441406 -0.0625 8.359375 -0.03125 C 8.273438 0 8.160156 0.0195312 8.015625 0.03125 C 7.878906 0.0390625 7.703125 0.046875 7.484375 0.046875 C 7.273438 0.046875 7.097656 0.0390625 6.953125 0.03125 C 6.804688 0.0195312 6.691406 0 6.609375 -0.03125 C 6.523438 -0.0625 6.46875 -0.0976562 6.4375 -0.140625 C 6.40625 -0.179688 6.390625 -0.234375 6.390625 -0.296875 L 6.390625 -4.765625 C 6.390625 -5.148438 6.359375 -5.445312 6.296875 -5.65625 C 6.242188 -5.875 6.164062 -6.0625 6.0625 -6.21875 C 5.957031 -6.375 5.820312 -6.492188 5.65625 -6.578125 C 5.488281 -6.660156 5.289062 -6.703125 5.0625 -6.703125 C 4.78125 -6.703125 4.492188 -6.597656 4.203125 -6.390625 C 3.921875 -6.191406 3.625 -5.894531 3.3125 -5.5 L 3.3125 -0.296875 C 3.3125 -0.234375 3.296875 -0.179688 3.265625 -0.140625 C 3.234375 -0.0976562 3.171875 -0.0625 3.078125 -0.03125 C 2.992188 0 2.878906 0.0195312 2.734375 0.03125 C 2.597656 0.0390625 2.425781 0.046875 2.21875 0.046875 C 2 0.046875 1.816406 0.0390625 1.671875 0.03125 C 1.535156 0.0195312 1.425781 0 1.34375 -0.03125 C 1.257812 -0.0625 1.195312 -0.0976562 1.15625 -0.140625 C 1.125 -0.179688 1.109375 -0.234375 1.109375 -0.296875 L 1.109375 -8.125 C 1.109375 -8.1875 1.117188 -8.238281 1.140625 -8.28125 C 1.171875 -8.320312 1.222656 -8.359375 1.296875 -8.390625 C 1.378906 -8.421875 1.476562 -8.441406 1.59375 -8.453125 C 1.71875 -8.472656 1.875 -8.484375 2.0625 -8.484375 C 2.238281 -8.484375 2.390625 -8.472656 2.515625 -8.453125 C 2.640625 -8.441406 2.734375 -8.421875 2.796875 -8.390625 C 2.867188 -8.359375 2.921875 -8.320312 2.953125 -8.28125 C 2.984375 -8.238281 3 -8.1875 3 -8.125 L 3 -7.234375 C 3.425781 -7.691406 3.863281 -8.035156 4.3125 -8.265625 C 4.757812 -8.503906 5.226562 -8.625 5.71875 -8.625 C 6.25 -8.625 6.695312 -8.535156 7.0625 -8.359375 C 7.425781 -8.191406 7.722656 -7.957031 7.953125 -7.65625 C 8.179688 -7.351562 8.34375 -7 8.4375 -6.59375 C 8.539062 -6.1875 8.59375 -5.703125 8.59375 -5.140625 Z M 8.59375 -0.296875 "/></g></g></g><g fill="#473c2f" fill-opacity="1"><g transform="translate(64.326864, 56.249999)"><g><path d="M 5.75 -1.078125 C 5.75 -0.816406 5.726562 -0.613281 5.6875 -0.46875 C 5.65625 -0.332031 5.613281 -0.238281 5.5625 -0.1875 C 5.507812 -0.132812 5.429688 -0.0820312 5.328125 -0.03125 C 5.234375 0.0078125 5.113281 0.046875 4.96875 0.078125 C 4.832031 0.109375 4.679688 0.128906 4.515625 0.140625 C 4.359375 0.160156 4.203125 0.171875 4.046875 0.171875 C 3.597656 0.171875 3.210938 0.113281 2.890625 0 C 2.578125 -0.101562 2.3125 -0.269531 2.09375 -0.5 C 1.882812 -0.738281 1.726562 -1.03125 1.625 -1.375 C 1.53125 -1.726562 1.484375 -2.144531 1.484375 -2.625 L 1.484375 -6.640625 L 0.546875 -6.640625 C 0.429688 -6.640625 0.34375 -6.707031 0.28125 -6.84375 C 0.226562 -6.976562 0.203125 -7.207031 0.203125 -7.53125 C 0.203125 -7.707031 0.207031 -7.851562 0.21875 -7.96875 C 0.238281 -8.082031 0.257812 -8.171875 0.28125 -8.234375 C 0.3125 -8.304688 0.347656 -8.359375 0.390625 -8.390625 C 0.441406 -8.421875 0.492188 -8.4375 0.546875 -8.4375 L 1.484375 -8.4375 L 1.484375 -10.171875 C 1.484375 -10.234375 1.5 -10.285156 1.53125 -10.328125 C 1.5625 -10.378906 1.617188 -10.421875 1.703125 -10.453125 C 1.785156 -10.484375 1.898438 -10.503906 2.046875 -10.515625 C 2.191406 -10.535156 2.367188 -10.546875 2.578125 -10.546875 C 2.796875 -10.546875 2.976562 -10.535156 3.125 -10.515625 C 3.269531 -10.503906 3.378906 -10.484375 3.453125 -10.453125 C 3.535156 -10.421875 3.59375 -10.378906 3.625 -10.328125 C 3.664062 -10.285156 3.6875 -10.234375 3.6875 -10.171875 L 3.6875 -8.4375 L 5.390625 -8.4375 C 5.453125 -8.4375 5.503906 -8.421875 5.546875 -8.390625 C 5.585938 -8.359375 5.625 -8.304688 5.65625 -8.234375 C 5.6875 -8.171875 5.707031 -8.082031 5.71875 -7.96875 C 5.738281 -7.851562 5.75 -7.707031 5.75 -7.53125 C 5.75 -7.207031 5.71875 -6.976562 5.65625 -6.84375 C 5.59375 -6.707031 5.507812 -6.640625 5.40625 -6.640625 L 3.6875 -6.640625 L 3.6875 -2.953125 C 3.6875 -2.523438 3.753906 -2.203125 3.890625 -1.984375 C 4.023438 -1.773438 4.265625 -1.671875 4.609375 -1.671875 C 4.722656 -1.671875 4.828125 -1.679688 4.921875 -1.703125 C 5.015625 -1.722656 5.097656 -1.742188 5.171875 -1.765625 C 5.242188 -1.796875 5.304688 -1.820312 5.359375 -1.84375 C 5.410156 -1.863281 5.457031 -1.875 5.5 -1.875 C 5.53125 -1.875 5.5625 -1.863281 5.59375 -1.84375 C 5.625 -1.820312 5.648438 -1.78125 5.671875 -1.71875 C 5.691406 -1.664062 5.707031 -1.582031 5.71875 -1.46875 C 5.738281 -1.363281 5.75 -1.234375 5.75 -1.078125 Z M 5.75 -1.078125 "/></g></g></g><g fill="#473c2f" fill-opacity="1"><g transform="translate(70.339521, 56.249999)"><g><path d="M 8.34375 -4.4375 C 8.34375 -4.175781 8.28125 -3.976562 8.15625 -3.84375 C 8.039062 -3.71875 7.878906 -3.65625 7.671875 -3.65625 L 2.890625 -3.65625 C 2.890625 -3.320312 2.929688 -3.015625 3.015625 -2.734375 C 3.097656 -2.460938 3.222656 -2.234375 3.390625 -2.046875 C 3.566406 -1.859375 3.789062 -1.710938 4.0625 -1.609375 C 4.332031 -1.515625 4.660156 -1.46875 5.046875 -1.46875 C 5.429688 -1.46875 5.769531 -1.492188 6.0625 -1.546875 C 6.351562 -1.609375 6.601562 -1.671875 6.8125 -1.734375 C 7.03125 -1.796875 7.207031 -1.851562 7.34375 -1.90625 C 7.488281 -1.96875 7.601562 -2 7.6875 -2 C 7.738281 -2 7.78125 -1.988281 7.8125 -1.96875 C 7.851562 -1.945312 7.882812 -1.910156 7.90625 -1.859375 C 7.9375 -1.804688 7.953125 -1.734375 7.953125 -1.640625 C 7.960938 -1.546875 7.96875 -1.421875 7.96875 -1.265625 C 7.96875 -1.140625 7.960938 -1.03125 7.953125 -0.9375 C 7.953125 -0.851562 7.945312 -0.773438 7.9375 -0.703125 C 7.925781 -0.640625 7.90625 -0.585938 7.875 -0.546875 C 7.851562 -0.503906 7.820312 -0.460938 7.78125 -0.421875 C 7.75 -0.378906 7.648438 -0.320312 7.484375 -0.25 C 7.316406 -0.1875 7.097656 -0.117188 6.828125 -0.046875 C 6.566406 0.015625 6.265625 0.0703125 5.921875 0.125 C 5.585938 0.175781 5.226562 0.203125 4.84375 0.203125 C 4.144531 0.203125 3.53125 0.113281 3 -0.0625 C 2.476562 -0.238281 2.039062 -0.503906 1.6875 -0.859375 C 1.34375 -1.210938 1.082031 -1.660156 0.90625 -2.203125 C 0.738281 -2.753906 0.65625 -3.394531 0.65625 -4.125 C 0.65625 -4.820312 0.742188 -5.445312 0.921875 -6 C 1.097656 -6.5625 1.359375 -7.035156 1.703125 -7.421875 C 2.054688 -7.816406 2.476562 -8.113281 2.96875 -8.3125 C 3.46875 -8.519531 4.023438 -8.625 4.640625 -8.625 C 5.296875 -8.625 5.859375 -8.523438 6.328125 -8.328125 C 6.796875 -8.140625 7.175781 -7.875 7.46875 -7.53125 C 7.769531 -7.195312 7.988281 -6.796875 8.125 -6.328125 C 8.269531 -5.859375 8.34375 -5.347656 8.34375 -4.796875 Z M 6.203125 -5.078125 C 6.210938 -5.691406 6.082031 -6.175781 5.8125 -6.53125 C 5.550781 -6.882812 5.144531 -7.0625 4.59375 -7.0625 C 4.3125 -7.0625 4.066406 -7.007812 3.859375 -6.90625 C 3.648438 -6.800781 3.476562 -6.660156 3.34375 -6.484375 C 3.207031 -6.304688 3.101562 -6.09375 3.03125 -5.84375 C 2.957031 -5.601562 2.910156 -5.347656 2.890625 -5.078125 Z M 6.203125 -5.078125 "/></g></g></g><g fill="#473c2f" fill-opacity="1"><g transform="translate(79.389245, 56.249999)"><g><path d="M 6.140625 -7.40625 C 6.140625 -7.195312 6.132812 -7.023438 6.125 -6.890625 C 6.113281 -6.753906 6.09375 -6.644531 6.0625 -6.5625 C 6.039062 -6.488281 6.007812 -6.4375 5.96875 -6.40625 C 5.9375 -6.375 5.890625 -6.359375 5.828125 -6.359375 C 5.785156 -6.359375 5.734375 -6.367188 5.671875 -6.390625 C 5.609375 -6.410156 5.539062 -6.429688 5.46875 -6.453125 C 5.394531 -6.484375 5.316406 -6.507812 5.234375 -6.53125 C 5.148438 -6.550781 5.050781 -6.5625 4.9375 -6.5625 C 4.820312 -6.5625 4.703125 -6.535156 4.578125 -6.484375 C 4.453125 -6.429688 4.320312 -6.351562 4.1875 -6.25 C 4.0625 -6.144531 3.925781 -6.003906 3.78125 -5.828125 C 3.632812 -5.648438 3.476562 -5.4375 3.3125 -5.1875 L 3.3125 -0.296875 C 3.3125 -0.234375 3.296875 -0.179688 3.265625 -0.140625 C 3.234375 -0.0976562 3.171875 -0.0625 3.078125 -0.03125 C 2.992188 0 2.878906 0.0195312 2.734375 0.03125 C 2.597656 0.0390625 2.425781 0.046875 2.21875 0.046875 C 2 0.046875 1.816406 0.0390625 1.671875 0.03125 C 1.535156 0.0195312 1.425781 0 1.34375 -0.03125 C 1.257812 -0.0625 1.195312 -0.0976562 1.15625 -0.140625 C 1.125 -0.179688 1.109375 -0.234375 1.109375 -0.296875 L 1.109375 -8.125 C 1.109375 -8.1875 1.117188 -8.238281 1.140625 -8.28125 C 1.171875 -8.320312 1.222656 -8.359375 1.296875 -8.390625 C 1.378906 -8.421875 1.476562 -8.441406 1.59375 -8.453125 C 1.71875 -8.472656 1.875 -8.484375 2.0625 -8.484375 C 2.238281 -8.484375 2.390625 -8.472656 2.515625 -8.453125 C 2.640625 -8.441406 2.734375 -8.421875 2.796875 -8.390625 C 2.867188 -8.359375 2.921875 -8.320312 2.953125 -8.28125 C 2.984375 -8.238281 3 -8.1875 3 -8.125 L 3 -7.15625 C 3.195312 -7.445312 3.382812 -7.6875 3.5625 -7.875 C 3.75 -8.070312 3.925781 -8.222656 4.09375 -8.328125 C 4.257812 -8.441406 4.421875 -8.519531 4.578125 -8.5625 C 4.742188 -8.601562 4.910156 -8.625 5.078125 -8.625 C 5.148438 -8.625 5.226562 -8.617188 5.3125 -8.609375 C 5.40625 -8.609375 5.5 -8.597656 5.59375 -8.578125 C 5.6875 -8.554688 5.765625 -8.53125 5.828125 -8.5 C 5.898438 -8.476562 5.953125 -8.453125 5.984375 -8.421875 C 6.023438 -8.390625 6.050781 -8.351562 6.0625 -8.3125 C 6.070312 -8.28125 6.082031 -8.234375 6.09375 -8.171875 C 6.113281 -8.117188 6.125 -8.03125 6.125 -7.90625 C 6.132812 -7.78125 6.140625 -7.613281 6.140625 -7.40625 Z M 6.140625 -7.40625 "/></g></g></g><g fill="#473c2f" fill-opacity="1"><g transform="translate(85.384335, 56.249999)"><g><path d="M 7.78125 -0.265625 C 7.78125 -0.191406 7.75 -0.128906 7.6875 -0.078125 C 7.632812 -0.0351562 7.546875 -0.00390625 7.421875 0.015625 C 7.296875 0.0351562 7.109375 0.046875 6.859375 0.046875 C 6.597656 0.046875 6.40625 0.0351562 6.28125 0.015625 C 6.164062 -0.00390625 6.082031 -0.0351562 6.03125 -0.078125 C 5.976562 -0.128906 5.953125 -0.191406 5.953125 -0.265625 L 5.953125 -0.890625 C 5.628906 -0.546875 5.257812 -0.273438 4.84375 -0.078125 C 4.4375 0.109375 3.984375 0.203125 3.484375 0.203125 C 3.066406 0.203125 2.679688 0.144531 2.328125 0.03125 C 1.984375 -0.0703125 1.679688 -0.226562 1.421875 -0.4375 C 1.171875 -0.65625 0.972656 -0.921875 0.828125 -1.234375 C 0.691406 -1.554688 0.625 -1.925781 0.625 -2.34375 C 0.625 -2.800781 0.710938 -3.195312 0.890625 -3.53125 C 1.066406 -3.875 1.332031 -4.15625 1.6875 -4.375 C 2.039062 -4.59375 2.476562 -4.753906 3 -4.859375 C 3.53125 -4.960938 4.144531 -5.015625 4.84375 -5.015625 L 5.609375 -5.015625 L 5.609375 -5.484375 C 5.609375 -5.734375 5.582031 -5.945312 5.53125 -6.125 C 5.488281 -6.3125 5.410156 -6.46875 5.296875 -6.59375 C 5.179688 -6.71875 5.023438 -6.804688 4.828125 -6.859375 C 4.640625 -6.921875 4.40625 -6.953125 4.125 -6.953125 C 3.757812 -6.953125 3.429688 -6.910156 3.140625 -6.828125 C 2.847656 -6.742188 2.585938 -6.648438 2.359375 -6.546875 C 2.140625 -6.453125 1.957031 -6.363281 1.8125 -6.28125 C 1.664062 -6.207031 1.546875 -6.171875 1.453125 -6.171875 C 1.390625 -6.171875 1.332031 -6.1875 1.28125 -6.21875 C 1.226562 -6.257812 1.1875 -6.316406 1.15625 -6.390625 C 1.125 -6.472656 1.097656 -6.566406 1.078125 -6.671875 C 1.054688 -6.785156 1.046875 -6.910156 1.046875 -7.046875 C 1.046875 -7.234375 1.0625 -7.378906 1.09375 -7.484375 C 1.125 -7.585938 1.179688 -7.679688 1.265625 -7.765625 C 1.347656 -7.847656 1.488281 -7.941406 1.6875 -8.046875 C 1.894531 -8.148438 2.132812 -8.242188 2.40625 -8.328125 C 2.6875 -8.421875 2.988281 -8.492188 3.3125 -8.546875 C 3.632812 -8.597656 3.972656 -8.625 4.328125 -8.625 C 4.941406 -8.625 5.460938 -8.5625 5.890625 -8.4375 C 6.328125 -8.320312 6.6875 -8.140625 6.96875 -7.890625 C 7.25 -7.648438 7.453125 -7.332031 7.578125 -6.9375 C 7.710938 -6.539062 7.78125 -6.078125 7.78125 -5.546875 Z M 5.609375 -3.625 L 4.765625 -3.625 C 4.410156 -3.625 4.109375 -3.597656 3.859375 -3.546875 C 3.609375 -3.492188 3.398438 -3.414062 3.234375 -3.3125 C 3.078125 -3.207031 2.960938 -3.078125 2.890625 -2.921875 C 2.816406 -2.773438 2.78125 -2.609375 2.78125 -2.421875 C 2.78125 -2.085938 2.882812 -1.828125 3.09375 -1.640625 C 3.300781 -1.453125 3.585938 -1.359375 3.953125 -1.359375 C 4.265625 -1.359375 4.550781 -1.4375 4.8125 -1.59375 C 5.070312 -1.75 5.335938 -1.984375 5.609375 -2.296875 Z M 5.609375 -3.625 "/></g></g></g><g fill="#473c2f" fill-opacity="1"><g transform="translate(94.258507, 56.249999)"><g><path d="M 7.03125 -1.546875 C 7.03125 -1.390625 7.023438 -1.257812 7.015625 -1.15625 C 7.003906 -1.0625 6.992188 -0.976562 6.984375 -0.90625 C 6.972656 -0.832031 6.957031 -0.773438 6.9375 -0.734375 C 6.914062 -0.691406 6.867188 -0.632812 6.796875 -0.5625 C 6.722656 -0.5 6.601562 -0.414062 6.4375 -0.3125 C 6.269531 -0.21875 6.078125 -0.132812 5.859375 -0.0625 C 5.640625 0.0078125 5.398438 0.0664062 5.140625 0.109375 C 4.890625 0.160156 4.628906 0.1875 4.359375 0.1875 C 3.753906 0.1875 3.21875 0.09375 2.75 -0.09375 C 2.289062 -0.28125 1.898438 -0.554688 1.578125 -0.921875 C 1.265625 -1.285156 1.023438 -1.726562 0.859375 -2.25 C 0.703125 -2.78125 0.625 -3.382812 0.625 -4.0625 C 0.625 -4.851562 0.722656 -5.53125 0.921875 -6.09375 C 1.117188 -6.664062 1.394531 -7.140625 1.75 -7.515625 C 2.101562 -7.890625 2.519531 -8.164062 3 -8.34375 C 3.476562 -8.53125 4.003906 -8.625 4.578125 -8.625 C 4.804688 -8.625 5.035156 -8.601562 5.265625 -8.5625 C 5.492188 -8.519531 5.703125 -8.460938 5.890625 -8.390625 C 6.085938 -8.328125 6.265625 -8.25 6.421875 -8.15625 C 6.578125 -8.070312 6.6875 -7.992188 6.75 -7.921875 C 6.8125 -7.859375 6.851562 -7.804688 6.875 -7.765625 C 6.90625 -7.722656 6.925781 -7.664062 6.9375 -7.59375 C 6.957031 -7.519531 6.972656 -7.429688 6.984375 -7.328125 C 6.992188 -7.234375 7 -7.113281 7 -6.96875 C 7 -6.625 6.96875 -6.382812 6.90625 -6.25 C 6.851562 -6.113281 6.78125 -6.046875 6.6875 -6.046875 C 6.582031 -6.046875 6.472656 -6.082031 6.359375 -6.15625 C 6.253906 -6.238281 6.125 -6.332031 5.96875 -6.4375 C 5.820312 -6.539062 5.640625 -6.628906 5.421875 -6.703125 C 5.210938 -6.785156 4.960938 -6.828125 4.671875 -6.828125 C 4.097656 -6.828125 3.65625 -6.601562 3.34375 -6.15625 C 3.039062 -5.71875 2.890625 -5.070312 2.890625 -4.21875 C 2.890625 -3.800781 2.925781 -3.429688 3 -3.109375 C 3.082031 -2.785156 3.195312 -2.515625 3.34375 -2.296875 C 3.5 -2.078125 3.6875 -1.914062 3.90625 -1.8125 C 4.132812 -1.707031 4.398438 -1.65625 4.703125 -1.65625 C 5.003906 -1.65625 5.265625 -1.695312 5.484375 -1.78125 C 5.703125 -1.875 5.894531 -1.972656 6.0625 -2.078125 C 6.226562 -2.191406 6.363281 -2.296875 6.46875 -2.390625 C 6.582031 -2.484375 6.675781 -2.53125 6.75 -2.53125 C 6.800781 -2.53125 6.84375 -2.515625 6.875 -2.484375 C 6.914062 -2.453125 6.945312 -2.394531 6.96875 -2.3125 C 6.988281 -2.238281 7.003906 -2.140625 7.015625 -2.015625 C 7.023438 -1.890625 7.03125 -1.734375 7.03125 -1.546875 Z M 7.03125 -1.546875 "/></g></g></g><g fill="#473c2f" fill-opacity="1"><g transform="translate(101.780926, 56.249999)"><g><path d="M 5.75 -1.078125 C 5.75 -0.816406 5.726562 -0.613281 5.6875 -0.46875 C 5.65625 -0.332031 5.613281 -0.238281 5.5625 -0.1875 C 5.507812 -0.132812 5.429688 -0.0820312 5.328125 -0.03125 C 5.234375 0.0078125 5.113281 0.046875 4.96875 0.078125 C 4.832031 0.109375 4.679688 0.128906 4.515625 0.140625 C 4.359375 0.160156 4.203125 0.171875 4.046875 0.171875 C 3.597656 0.171875 3.210938 0.113281 2.890625 0 C 2.578125 -0.101562 2.3125 -0.269531 2.09375 -0.5 C 1.882812 -0.738281 1.726562 -1.03125 1.625 -1.375 C 1.53125 -1.726562 1.484375 -2.144531 1.484375 -2.625 L 1.484375 -6.640625 L 0.546875 -6.640625 C 0.429688 -6.640625 0.34375 -6.707031 0.28125 -6.84375 C 0.226562 -6.976562 0.203125 -7.207031 0.203125 -7.53125 C 0.203125 -7.707031 0.207031 -7.851562 0.21875 -7.96875 C 0.238281 -8.082031 0.257812 -8.171875 0.28125 -8.234375 C 0.3125 -8.304688 0.347656 -8.359375 0.390625 -8.390625 C 0.441406 -8.421875 0.492188 -8.4375 0.546875 -8.4375 L 1.484375 -8.4375 L 1.484375 -10.171875 C 1.484375 -10.234375 1.5 -10.285156 1.53125 -10.328125 C 1.5625 -10.378906 1.617188 -10.421875 1.703125 -10.453125 C 1.785156 -10.484375 1.898438 -10.503906 2.046875 -10.515625 C 2.191406 -10.535156 2.367188 -10.546875 2.578125 -10.546875 C 2.796875 -10.546875 2.976562 -10.535156 3.125 -10.515625 C 3.269531 -10.503906 3.378906 -10.484375 3.453125 -10.453125 C 3.535156 -10.421875 3.59375 -10.378906 3.625 -10.328125 C 3.664062 -10.285156 3.6875 -10.234375 3.6875 -10.171875 L 3.6875 -8.4375 L 5.390625 -8.4375 C 5.453125 -8.4375 5.503906 -8.421875 5.546875 -8.390625 C 5.585938 -8.359375 5.625 -8.304688 5.65625 -8.234375 C 5.6875 -8.171875 5.707031 -8.082031 5.71875 -7.96875 C 5.738281 -7.851562 5.75 -7.707031 5.75 -7.53125 C 5.75 -7.207031 5.71875 -6.976562 5.65625 -6.84375 C 5.59375 -6.707031 5.507812 -6.640625 5.40625 -6.640625 L 3.6875 -6.640625 L 3.6875 -2.953125 C 3.6875 -2.523438 3.753906 -2.203125 3.890625 -1.984375 C 4.023438 -1.773438 4.265625 -1.671875 4.609375 -1.671875 C 4.722656 -1.671875 4.828125 -1.679688 4.921875 -1.703125 C 5.015625 -1.722656 5.097656 -1.742188 5.171875 -1.765625 C 5.242188 -1.796875 5.304688 -1.820312 5.359375 -1.84375 C 5.410156 -1.863281 5.457031 -1.875 5.5 -1.875 C 5.53125 -1.875 5.5625 -1.863281 5.59375 -1.84375 C 5.625 -1.820312 5.648438 -1.78125 5.671875 -1.71875 C 5.691406 -1.664062 5.707031 -1.582031 5.71875 -1.46875 C 5.738281 -1.363281 5.75 -1.234375 5.75 -1.078125 Z M 5.75 -1.078125 "/></g></g></g><g fill="#473c2f" fill-opacity="1"><g transform="translate(108.013034, 56.249999)"><g><path d="M 3.3125 -0.296875 C 3.3125 -0.234375 3.296875 -0.179688 3.265625 -0.140625 C 3.234375 -0.0976562 3.171875 -0.0625 3.078125 -0.03125 C 2.992188 0 2.878906 0.0195312 2.734375 0.03125 C 2.597656 0.0390625 2.425781 0.046875 2.21875 0.046875 C 2 0.046875 1.816406 0.0390625 1.671875 0.03125 C 1.535156 0.0195312 1.425781 0 1.34375 -0.03125 C 1.257812 -0.0625 1.195312 -0.0976562 1.15625 -0.140625 C 1.125 -0.179688 1.109375 -0.234375 1.109375 -0.296875 L 1.109375 -8.109375 C 1.109375 -8.171875 1.125 -8.222656 1.15625 -8.265625 C 1.195312 -8.304688 1.257812 -8.34375 1.34375 -8.375 C 1.425781 -8.414062 1.535156 -8.441406 1.671875 -8.453125 C 1.816406 -8.472656 2 -8.484375 2.21875 -8.484375 C 2.425781 -8.484375 2.597656 -8.472656 2.734375 -8.453125 C 2.878906 -8.441406 2.992188 -8.414062 3.078125 -8.375 C 3.171875 -8.34375 3.234375 -8.304688 3.265625 -8.265625 C 3.296875 -8.222656 3.3125 -8.171875 3.3125 -8.109375 Z M 3.484375 -10.78125 C 3.484375 -10.332031 3.390625 -10.023438 3.203125 -9.859375 C 3.023438 -9.691406 2.691406 -9.609375 2.203125 -9.609375 C 1.703125 -9.609375 1.363281 -9.6875 1.1875 -9.84375 C 1.019531 -10.007812 0.9375 -10.304688 0.9375 -10.734375 C 0.9375 -11.179688 1.023438 -11.488281 1.203125 -11.65625 C 1.378906 -11.832031 1.71875 -11.921875 2.21875 -11.921875 C 2.707031 -11.921875 3.039062 -11.835938 3.21875 -11.671875 C 3.394531 -11.503906 3.484375 -11.207031 3.484375 -10.78125 Z M 3.484375 -10.78125 "/></g></g></g><g fill="#473c2f" fill-opacity="1"><g transform="translate(112.428176, 56.249999)"><g><path d="M 8.3125 -8.140625 C 8.3125 -8.109375 8.3125 -8.070312 8.3125 -8.03125 C 8.3125 -7.988281 8.304688 -7.941406 8.296875 -7.890625 C 8.285156 -7.847656 8.269531 -7.789062 8.25 -7.71875 C 8.238281 -7.65625 8.222656 -7.585938 8.203125 -7.515625 L 5.84375 -0.421875 C 5.8125 -0.316406 5.769531 -0.234375 5.71875 -0.171875 C 5.675781 -0.117188 5.597656 -0.0703125 5.484375 -0.03125 C 5.367188 0 5.210938 0.0195312 5.015625 0.03125 C 4.816406 0.0390625 4.5625 0.046875 4.25 0.046875 C 3.9375 0.046875 3.679688 0.0390625 3.484375 0.03125 C 3.296875 0.0195312 3.144531 0 3.03125 -0.03125 C 2.914062 -0.0703125 2.832031 -0.125 2.78125 -0.1875 C 2.738281 -0.25 2.703125 -0.328125 2.671875 -0.421875 L 0.3125 -7.515625 C 0.28125 -7.628906 0.253906 -7.734375 0.234375 -7.828125 C 0.210938 -7.921875 0.195312 -7.988281 0.1875 -8.03125 C 0.1875 -8.070312 0.1875 -8.109375 0.1875 -8.140625 C 0.1875 -8.203125 0.203125 -8.253906 0.234375 -8.296875 C 0.273438 -8.335938 0.332031 -8.375 0.40625 -8.40625 C 0.488281 -8.4375 0.601562 -8.457031 0.75 -8.46875 C 0.894531 -8.476562 1.078125 -8.484375 1.296875 -8.484375 C 1.535156 -8.484375 1.726562 -8.472656 1.875 -8.453125 C 2.019531 -8.441406 2.132812 -8.421875 2.21875 -8.390625 C 2.300781 -8.367188 2.359375 -8.332031 2.390625 -8.28125 C 2.429688 -8.226562 2.460938 -8.171875 2.484375 -8.109375 L 4.265625 -2.359375 L 4.328125 -2.140625 L 4.375 -2.359375 L 6.125 -8.109375 C 6.144531 -8.171875 6.171875 -8.226562 6.203125 -8.28125 C 6.242188 -8.332031 6.304688 -8.367188 6.390625 -8.390625 C 6.472656 -8.421875 6.582031 -8.441406 6.71875 -8.453125 C 6.851562 -8.472656 7.035156 -8.484375 7.265625 -8.484375 C 7.484375 -8.484375 7.660156 -8.476562 7.796875 -8.46875 C 7.929688 -8.457031 8.035156 -8.4375 8.109375 -8.40625 C 8.191406 -8.375 8.242188 -8.335938 8.265625 -8.296875 C 8.296875 -8.253906 8.3125 -8.203125 8.3125 -8.140625 Z M 8.3125 -8.140625 "/></g></g></g><g fill="#473c2f" fill-opacity="1"><g transform="translate(120.670348, 56.249999)"><g><path d="M 7.78125 -0.265625 C 7.78125 -0.191406 7.75 -0.128906 7.6875 -0.078125 C 7.632812 -0.0351562 7.546875 -0.00390625 7.421875 0.015625 C 7.296875 0.0351562 7.109375 0.046875 6.859375 0.046875 C 6.597656 0.046875 6.40625 0.0351562 6.28125 0.015625 C 6.164062 -0.00390625 6.082031 -0.0351562 6.03125 -0.078125 C 5.976562 -0.128906 5.953125 -0.191406 5.953125 -0.265625 L 5.953125 -0.890625 C 5.628906 -0.546875 5.257812 -0.273438 4.84375 -0.078125 C 4.4375 0.109375 3.984375 0.203125 3.484375 0.203125 C 3.066406 0.203125 2.679688 0.144531 2.328125 0.03125 C 1.984375 -0.0703125 1.679688 -0.226562 1.421875 -0.4375 C 1.171875 -0.65625 0.972656 -0.921875 0.828125 -1.234375 C 0.691406 -1.554688 0.625 -1.925781 0.625 -2.34375 C 0.625 -2.800781 0.710938 -3.195312 0.890625 -3.53125 C 1.066406 -3.875 1.332031 -4.15625 1.6875 -4.375 C 2.039062 -4.59375 2.476562 -4.753906 3 -4.859375 C 3.53125 -4.960938 4.144531 -5.015625 4.84375 -5.015625 L 5.609375 -5.015625 L 5.609375 -5.484375 C 5.609375 -5.734375 5.582031 -5.945312 5.53125 -6.125 C 5.488281 -6.3125 5.410156 -6.46875 5.296875 -6.59375 C 5.179688 -6.71875 5.023438 -6.804688 4.828125 -6.859375 C 4.640625 -6.921875 4.40625 -6.953125 4.125 -6.953125 C 3.757812 -6.953125 3.429688 -6.910156 3.140625 -6.828125 C 2.847656 -6.742188 2.585938 -6.648438 2.359375 -6.546875 C 2.140625 -6.453125 1.957031 -6.363281 1.8125 -6.28125 C 1.664062 -6.207031 1.546875 -6.171875 1.453125 -6.171875 C 1.390625 -6.171875 1.332031 -6.1875 1.28125 -6.21875 C 1.226562 -6.257812 1.1875 -6.316406 1.15625 -6.390625 C 1.125 -6.472656 1.097656 -6.566406 1.078125 -6.671875 C 1.054688 -6.785156 1.046875 -6.910156 1.046875 -7.046875 C 1.046875 -7.234375 1.0625 -7.378906 1.09375 -7.484375 C 1.125 -7.585938 1.179688 -7.679688 1.265625 -7.765625 C 1.347656 -7.847656 1.488281 -7.941406 1.6875 -8.046875 C 1.894531 -8.148438 2.132812 -8.242188 2.40625 -8.328125 C 2.6875 -8.421875 2.988281 -8.492188 3.3125 -8.546875 C 3.632812 -8.597656 3.972656 -8.625 4.328125 -8.625 C 4.941406 -8.625 5.460938 -8.5625 5.890625 -8.4375 C 6.328125 -8.320312 6.6875 -8.140625 6.96875 -7.890625 C 7.25 -7.648438 7.453125 -7.332031 7.578125 -6.9375 C 7.710938 -6.539062 7.78125 -6.078125 7.78125 -5.546875 Z M 5.609375 -3.625 L 4.765625 -3.625 C 4.410156 -3.625 4.109375 -3.597656 3.859375 -3.546875 C 3.609375 -3.492188 3.398438 -3.414062 3.234375 -3.3125 C 3.078125 -3.207031 2.960938 -3.078125 2.890625 -2.921875 C 2.816406 -2.773438 2.78125 -2.609375 2.78125 -2.421875 C 2.78125 -2.085938 2.882812 -1.828125 3.09375 -1.640625 C 3.300781 -1.453125 3.585938 -1.359375 3.953125 -1.359375 C 4.265625 -1.359375 4.550781 -1.4375 4.8125 -1.59375 C 5.070312 -1.75 5.335938 -1.984375 5.609375 -2.296875 Z M 5.609375 -3.625 "/></g></g></g></svg>