<svg xmlns="http://www.w3.org/2000/svg" xmlns:xlink="http://www.w3.org/1999/xlink" width="240" zoomAndPan="magnify" viewBox="0 0 180 89.999999" height="120" preserveAspectRatio="xMidYMid meet" version="1.0"><defs><g/></defs><g fill="#473c2f" fill-opacity="1"><g transform="translate(61.318625, 50.999999)"><g><path d="M 14.484375 -0.3125 C 14.484375 -0.257812 14.46875 -0.207031 14.4375 -0.15625 C 14.40625 -0.113281 14.34375 -0.078125 14.25 -0.046875 C 14.164062 -0.015625 14.050781 0.00390625 13.90625 0.015625 C 13.769531 0.0351562 13.597656 0.046875 13.390625 0.046875 C 13.171875 0.046875 12.988281 0.0351562 12.84375 0.015625 C 12.707031 0.00390625 12.597656 -0.015625 12.515625 -0.046875 C 12.441406 -0.078125 12.382812 -0.113281 12.34375 -0.15625 C 12.3125 -0.207031 12.296875 -0.257812 12.296875 -0.3125 L 12.296875 -9.5625 L 12.28125 -9.5625 L 8.984375 -0.328125 C 8.960938 -0.242188 8.925781 -0.175781 8.875 -0.125 C 8.820312 -0.0820312 8.75 -0.046875 8.65625 -0.015625 C 8.5625 0.015625 8.441406 0.03125 8.296875 0.03125 C 8.160156 0.0390625 7.992188 0.046875 7.796875 0.046875 C 7.597656 0.046875 7.425781 0.0390625 7.28125 0.03125 C 7.144531 0.0195312 7.03125 0 6.9375 -0.03125 C 6.851562 -0.0703125 6.78125 -0.113281 6.71875 -0.15625 C 6.664062 -0.207031 6.632812 -0.265625 6.625 -0.328125 L 3.4375 -9.5625 L 3.421875 -9.5625 L 3.421875 -0.3125 C 3.421875 -0.257812 3.40625 -0.207031 3.375 -0.15625 C 3.34375 -0.113281 3.28125 -0.078125 3.1875 -0.046875 C 3.101562 -0.015625 2.992188 0.00390625 2.859375 0.015625 C 2.722656 0.0351562 2.546875 0.046875 2.328125 0.046875 C 2.117188 0.046875 1.941406 0.0351562 1.796875 0.015625 C 1.660156 0.00390625 1.546875 -0.015625 1.453125 -0.046875 C 1.367188 -0.078125 1.3125 -0.113281 1.28125 -0.15625 C 1.25 -0.207031 1.234375 -0.257812 1.234375 -0.3125 L 1.234375 -10.4375 C 1.234375 -10.738281 1.3125 -10.96875 1.46875 -11.125 C 1.632812 -11.28125 1.847656 -11.359375 2.109375 -11.359375 L 3.625 -11.359375 C 3.882812 -11.359375 4.109375 -11.335938 4.296875 -11.296875 C 4.492188 -11.253906 4.660156 -11.179688 4.796875 -11.078125 C 4.941406 -10.972656 5.0625 -10.835938 5.15625 -10.671875 C 5.25 -10.503906 5.332031 -10.300781 5.40625 -10.0625 L 7.875 -3.28125 L 7.90625 -3.28125 L 10.453125 -10.03125 C 10.523438 -10.28125 10.609375 -10.488281 10.703125 -10.65625 C 10.796875 -10.832031 10.898438 -10.972656 11.015625 -11.078125 C 11.140625 -11.179688 11.28125 -11.253906 11.4375 -11.296875 C 11.601562 -11.335938 11.796875 -11.359375 12.015625 -11.359375 L 13.5625 -11.359375 C 13.71875 -11.359375 13.851562 -11.335938 13.96875 -11.296875 C 14.082031 -11.253906 14.175781 -11.191406 14.25 -11.109375 C 14.320312 -11.035156 14.378906 -10.941406 14.421875 -10.828125 C 14.460938 -10.710938 14.484375 -10.582031 14.484375 -10.4375 Z M 14.484375 -0.3125 "/></g></g></g><g fill="#473c2f" fill-opacity="1"><g transform="translate(77.03056, 50.999999)"><g><path d="M 7.78125 -0.265625 C 7.78125 -0.191406 7.75 -0.128906 7.6875 -0.078125 C 7.632812 -0.0351562 7.546875 -0.00390625 7.421875 0.015625 C 7.296875 0.0351562 7.109375 0.046875 6.859375 0.046875 C 6.597656 0.046875 6.40625 0.0351562 6.28125 0.015625 C 6.164062 -0.00390625 6.082031 -0.0351562 6.03125 -0.078125 C 5.976562 -0.128906 5.953125 -0.191406 5.953125 -0.265625 L 5.953125 -0.890625 C 5.628906 -0.546875 5.257812 -0.273438 4.84375 -0.078125 C 4.4375 0.109375 3.984375 0.203125 3.484375 0.203125 C 3.066406 0.203125 2.679688 0.144531 2.328125 0.03125 C 1.984375 -0.0703125 1.679688 -0.226562 1.421875 -0.4375 C 1.171875 -0.65625 0.972656 -0.921875 0.828125 -1.234375 C 0.691406 -1.554688 0.625 -1.925781 0.625 -2.34375 C 0.625 -2.800781 0.710938 -3.195312 0.890625 -3.53125 C 1.066406 -3.875 1.332031 -4.15625 1.6875 -4.375 C 2.039062 -4.59375 2.476562 -4.753906 3 -4.859375 C 3.53125 -4.960938 4.144531 -5.015625 4.84375 -5.015625 L 5.609375 -5.015625 L 5.609375 -5.484375 C 5.609375 -5.734375 5.582031 -5.945312 5.53125 -6.125 C 5.488281 -6.3125 5.410156 -6.46875 5.296875 -6.59375 C 5.179688 -6.71875 5.023438 -6.804688 4.828125 -6.859375 C 4.640625 -6.921875 4.40625 -6.953125 4.125 -6.953125 C 3.757812 -6.953125 3.429688 -6.910156 3.140625 -6.828125 C 2.847656 -6.742188 2.585938 -6.648438 2.359375 -6.546875 C 2.140625 -6.453125 1.957031 -6.363281 1.8125 -6.28125 C 1.664062 -6.207031 1.546875 -6.171875 1.453125 -6.171875 C 1.390625 -6.171875 1.332031 -6.1875 1.28125 -6.21875 C 1.226562 -6.257812 1.1875 -6.316406 1.15625 -6.390625 C 1.125 -6.472656 1.097656 -6.566406 1.078125 -6.671875 C 1.054688 -6.785156 1.046875 -6.910156 1.046875 -7.046875 C 1.046875 -7.234375 1.0625 -7.378906 1.09375 -7.484375 C 1.125 -7.585938 1.179688 -7.679688 1.265625 -7.765625 C 1.347656 -7.847656 1.488281 -7.941406 1.6875 -8.046875 C 1.894531 -8.148438 2.132812 -8.242188 2.40625 -8.328125 C 2.6875 -8.421875 2.988281 -8.492188 3.3125 -8.546875 C 3.632812 -8.597656 3.972656 -8.625 4.328125 -8.625 C 4.941406 -8.625 5.460938 -8.5625 5.890625 -8.4375 C 6.328125 -8.320312 6.6875 -8.140625 6.96875 -7.890625 C 7.25 -7.648438 7.453125 -7.332031 7.578125 -6.9375 C 7.710938 -6.539062 7.78125 -6.078125 7.78125 -5.546875 Z M 5.609375 -3.625 L 4.765625 -3.625 C 4.410156 -3.625 4.109375 -3.597656 3.859375 -3.546875 C 3.609375 -3.492188 3.398438 -3.414062 3.234375 -3.3125 C 3.078125 -3.207031 2.960938 -3.078125 2.890625 -2.921875 C 2.816406 -2.773438 2.78125 -2.609375 2.78125 -2.421875 C 2.78125 -2.085938 2.882812 -1.828125 3.09375 -1.640625 C 3.300781 -1.453125 3.585938 -1.359375 3.953125 -1.359375 C 4.265625 -1.359375 4.550781 -1.4375 4.8125 -1.59375 C 5.070312 -1.75 5.335938 -1.984375 5.609375 -2.296875 Z M 5.609375 -3.625 "/></g></g></g><g fill="#473c2f" fill-opacity="1"><g transform="translate(85.904732, 50.999999)"><g><path d="M 8.59375 -0.296875 C 8.59375 -0.234375 8.570312 -0.179688 8.53125 -0.140625 C 8.5 -0.0976562 8.441406 -0.0625 8.359375 -0.03125 C 8.273438 0 8.160156 0.0195312 8.015625 0.03125 C 7.878906 0.0390625 7.703125 0.046875 7.484375 0.046875 C 7.273438 0.046875 7.097656 0.0390625 6.953125 0.03125 C 6.804688 0.0195312 6.691406 0 6.609375 -0.03125 C 6.523438 -0.0625 6.46875 -0.0976562 6.4375 -0.140625 C 6.40625 -0.179688 6.390625 -0.234375 6.390625 -0.296875 L 6.390625 -4.765625 C 6.390625 -5.148438 6.359375 -5.445312 6.296875 -5.65625 C 6.242188 -5.875 6.164062 -6.0625 6.0625 -6.21875 C 5.957031 -6.375 5.820312 -6.492188 5.65625 -6.578125 C 5.488281 -6.660156 5.289062 -6.703125 5.0625 -6.703125 C 4.78125 -6.703125 4.492188 -6.597656 4.203125 -6.390625 C 3.921875 -6.191406 3.625 -5.894531 3.3125 -5.5 L 3.3125 -0.296875 C 3.3125 -0.234375 3.296875 -0.179688 3.265625 -0.140625 C 3.234375 -0.0976562 3.171875 -0.0625 3.078125 -0.03125 C 2.992188 0 2.878906 0.0195312 2.734375 0.03125 C 2.597656 0.0390625 2.425781 0.046875 2.21875 0.046875 C 2 0.046875 1.816406 0.0390625 1.671875 0.03125 C 1.535156 0.0195312 1.425781 0 1.34375 -0.03125 C 1.257812 -0.0625 1.195312 -0.0976562 1.15625 -0.140625 C 1.125 -0.179688 1.109375 -0.234375 1.109375 -0.296875 L 1.109375 -11.84375 C 1.109375 -11.90625 1.125 -11.957031 1.15625 -12 C 1.195312 -12.050781 1.257812 -12.09375 1.34375 -12.125 C 1.425781 -12.15625 1.535156 -12.175781 1.671875 -12.1875 C 1.816406 -12.207031 2 -12.21875 2.21875 -12.21875 C 2.425781 -12.21875 2.597656 -12.207031 2.734375 -12.1875 C 2.878906 -12.175781 2.992188 -12.15625 3.078125 -12.125 C 3.171875 -12.09375 3.234375 -12.050781 3.265625 -12 C 3.296875 -11.957031 3.3125 -11.90625 3.3125 -11.84375 L 3.3125 -7.515625 C 3.695312 -7.890625 4.085938 -8.164062 4.484375 -8.34375 C 4.878906 -8.53125 5.289062 -8.625 5.71875 -8.625 C 6.25 -8.625 6.695312 -8.535156 7.0625 -8.359375 C 7.425781 -8.191406 7.722656 -7.953125 7.953125 -7.640625 C 8.179688 -7.335938 8.34375 -6.984375 8.4375 -6.578125 C 8.539062 -6.171875 8.59375 -5.679688 8.59375 -5.109375 Z M 8.59375 -0.296875 "/></g></g></g><g fill="#473c2f" fill-opacity="1"><g transform="translate(95.551334, 50.999999)"><g><path d="M 3.3125 -0.296875 C 3.3125 -0.234375 3.296875 -0.179688 3.265625 -0.140625 C 3.234375 -0.0976562 3.171875 -0.0625 3.078125 -0.03125 C 2.992188 0 2.878906 0.0195312 2.734375 0.03125 C 2.597656 0.0390625 2.425781 0.046875 2.21875 0.046875 C 2 0.046875 1.816406 0.0390625 1.671875 0.03125 C 1.535156 0.0195312 1.425781 0 1.34375 -0.03125 C 1.257812 -0.0625 1.195312 -0.0976562 1.15625 -0.140625 C 1.125 -0.179688 1.109375 -0.234375 1.109375 -0.296875 L 1.109375 -8.109375 C 1.109375 -8.171875 1.125 -8.222656 1.15625 -8.265625 C 1.195312 -8.304688 1.257812 -8.34375 1.34375 -8.375 C 1.425781 -8.414062 1.535156 -8.441406 1.671875 -8.453125 C 1.816406 -8.472656 2 -8.484375 2.21875 -8.484375 C 2.425781 -8.484375 2.597656 -8.472656 2.734375 -8.453125 C 2.878906 -8.441406 2.992188 -8.414062 3.078125 -8.375 C 3.171875 -8.34375 3.234375 -8.304688 3.265625 -8.265625 C 3.296875 -8.222656 3.3125 -8.171875 3.3125 -8.109375 Z M 3.484375 -10.78125 C 3.484375 -10.332031 3.390625 -10.023438 3.203125 -9.859375 C 3.023438 -9.691406 2.691406 -9.609375 2.203125 -9.609375 C 1.703125 -9.609375 1.363281 -9.6875 1.1875 -9.84375 C 1.019531 -10.007812 0.9375 -10.304688 0.9375 -10.734375 C 0.9375 -11.179688 1.023438 -11.488281 1.203125 -11.65625 C 1.378906 -11.832031 1.71875 -11.921875 2.21875 -11.921875 C 2.707031 -11.921875 3.039062 -11.835938 3.21875 -11.671875 C 3.394531 -11.503906 3.484375 -11.207031 3.484375 -10.78125 Z M 3.484375 -10.78125 "/></g></g></g><g fill="#473c2f" fill-opacity="1"><g transform="translate(99.966476, 50.999999)"><g><path d="M 8.53125 -0.296875 C 8.53125 -0.234375 8.515625 -0.175781 8.484375 -0.125 C 8.460938 -0.0820312 8.414062 -0.046875 8.34375 -0.015625 C 8.269531 0.00390625 8.171875 0.0195312 8.046875 0.03125 C 7.929688 0.0390625 7.785156 0.046875 7.609375 0.046875 C 7.421875 0.046875 7.269531 0.0390625 7.15625 0.03125 C 7.039062 0.0195312 6.945312 0.00390625 6.875 -0.015625 C 6.800781 -0.046875 6.75 -0.0820312 6.71875 -0.125 C 6.6875 -0.175781 6.671875 -0.234375 6.671875 -0.296875 L 6.671875 -1.171875 C 6.265625 -0.734375 5.835938 -0.394531 5.390625 -0.15625 C 4.953125 0.0820312 4.460938 0.203125 3.921875 0.203125 C 3.328125 0.203125 2.820312 0.0859375 2.40625 -0.140625 C 2 -0.367188 1.664062 -0.679688 1.40625 -1.078125 C 1.144531 -1.472656 0.953125 -1.929688 0.828125 -2.453125 C 0.710938 -2.972656 0.65625 -3.523438 0.65625 -4.109375 C 0.65625 -4.804688 0.726562 -5.429688 0.875 -5.984375 C 1.03125 -6.546875 1.25 -7.019531 1.53125 -7.40625 C 1.820312 -7.800781 2.179688 -8.101562 2.609375 -8.3125 C 3.035156 -8.519531 3.523438 -8.625 4.078125 -8.625 C 4.515625 -8.625 4.910156 -8.535156 5.265625 -8.359375 C 5.628906 -8.179688 5.988281 -7.921875 6.34375 -7.578125 L 6.34375 -11.8125 C 6.34375 -11.875 6.359375 -11.925781 6.390625 -11.96875 C 6.421875 -12.019531 6.476562 -12.0625 6.5625 -12.09375 C 6.644531 -12.125 6.753906 -12.148438 6.890625 -12.171875 C 7.035156 -12.191406 7.21875 -12.203125 7.4375 -12.203125 C 7.65625 -12.203125 7.832031 -12.191406 7.96875 -12.171875 C 8.113281 -12.148438 8.226562 -12.125 8.3125 -12.09375 C 8.394531 -12.0625 8.453125 -12.019531 8.484375 -11.96875 C 8.515625 -11.925781 8.53125 -11.875 8.53125 -11.8125 Z M 6.34375 -5.53125 C 6.019531 -5.925781 5.710938 -6.226562 5.421875 -6.4375 C 5.140625 -6.65625 4.835938 -6.765625 4.515625 -6.765625 C 4.234375 -6.765625 3.988281 -6.691406 3.78125 -6.546875 C 3.570312 -6.398438 3.40625 -6.207031 3.28125 -5.96875 C 3.15625 -5.726562 3.0625 -5.457031 3 -5.15625 C 2.9375 -4.863281 2.90625 -4.566406 2.90625 -4.265625 C 2.90625 -3.929688 2.929688 -3.609375 2.984375 -3.296875 C 3.035156 -2.992188 3.117188 -2.71875 3.234375 -2.46875 C 3.359375 -2.226562 3.519531 -2.035156 3.71875 -1.890625 C 3.914062 -1.742188 4.171875 -1.671875 4.484375 -1.671875 C 4.628906 -1.671875 4.773438 -1.691406 4.921875 -1.734375 C 5.066406 -1.773438 5.210938 -1.84375 5.359375 -1.9375 C 5.503906 -2.039062 5.65625 -2.171875 5.8125 -2.328125 C 5.976562 -2.492188 6.15625 -2.695312 6.34375 -2.9375 Z M 6.34375 -5.53125 "/></g></g></g><g fill="#473c2f" fill-opacity="1"><g transform="translate(109.613078, 50.999999)"><g><path d="M 8.34375 -4.4375 C 8.34375 -4.175781 8.28125 -3.976562 8.15625 -3.84375 C 8.039062 -3.71875 7.878906 -3.65625 7.671875 -3.65625 L 2.890625 -3.65625 C 2.890625 -3.320312 2.929688 -3.015625 3.015625 -2.734375 C 3.097656 -2.460938 3.222656 -2.234375 3.390625 -2.046875 C 3.566406 -1.859375 3.789062 -1.710938 4.0625 -1.609375 C 4.332031 -1.515625 4.660156 -1.46875 5.046875 -1.46875 C 5.429688 -1.46875 5.769531 -1.492188 6.0625 -1.546875 C 6.351562 -1.609375 6.601562 -1.671875 6.8125 -1.734375 C 7.03125 -1.796875 7.207031 -1.851562 7.34375 -1.90625 C 7.488281 -1.96875 7.601562 -2 7.6875 -2 C 7.738281 -2 7.78125 -1.988281 7.8125 -1.96875 C 7.851562 -1.945312 7.882812 -1.910156 7.90625 -1.859375 C 7.9375 -1.804688 7.953125 -1.734375 7.953125 -1.640625 C 7.960938 -1.546875 7.96875 -1.421875 7.96875 -1.265625 C 7.96875 -1.140625 7.960938 -1.03125 7.953125 -0.9375 C 7.953125 -0.851562 7.945312 -0.773438 7.9375 -0.703125 C 7.925781 -0.640625 7.90625 -0.585938 7.875 -0.546875 C 7.851562 -0.503906 7.820312 -0.460938 7.78125 -0.421875 C 7.75 -0.378906 7.648438 -0.320312 7.484375 -0.25 C 7.316406 -0.1875 7.097656 -0.117188 6.828125 -0.046875 C 6.566406 0.015625 6.265625 0.0703125 5.921875 0.125 C 5.585938 0.175781 5.226562 0.203125 4.84375 0.203125 C 4.144531 0.203125 3.53125 0.113281 3 -0.0625 C 2.476562 -0.238281 2.039062 -0.503906 1.6875 -0.859375 C 1.34375 -1.210938 1.082031 -1.660156 0.90625 -2.203125 C 0.738281 -2.753906 0.65625 -3.394531 0.65625 -4.125 C 0.65625 -4.820312 0.742188 -5.445312 0.921875 -6 C 1.097656 -6.5625 1.359375 -7.035156 1.703125 -7.421875 C 2.054688 -7.816406 2.476562 -8.113281 2.96875 -8.3125 C 3.46875 -8.519531 4.023438 -8.625 4.640625 -8.625 C 5.296875 -8.625 5.859375 -8.523438 6.328125 -8.328125 C 6.796875 -8.140625 7.175781 -7.875 7.46875 -7.53125 C 7.769531 -7.195312 7.988281 -6.796875 8.125 -6.328125 C 8.269531 -5.859375 8.34375 -5.347656 8.34375 -4.796875 Z M 6.203125 -5.078125 C 6.210938 -5.691406 6.082031 -6.175781 5.8125 -6.53125 C 5.550781 -6.882812 5.144531 -7.0625 4.59375 -7.0625 C 4.3125 -7.0625 4.066406 -7.007812 3.859375 -6.90625 C 3.648438 -6.800781 3.476562 -6.660156 3.34375 -6.484375 C 3.207031 -6.304688 3.101562 -6.09375 3.03125 -5.84375 C 2.957031 -5.601562 2.910156 -5.347656 2.890625 -5.078125 Z M 6.203125 -5.078125 "/></g></g></g><g fill="#473c2f" fill-opacity="1"><g transform="translate(61.326557, 51.374999)"><g><path d="M 14.484375 -0.3125 C 14.484375 -0.257812 14.46875 -0.207031 14.4375 -0.15625 C 14.40625 -0.113281 14.34375 -0.078125 14.25 -0.046875 C 14.164062 -0.015625 14.050781 0.00390625 13.90625 0.015625 C 13.769531 0.0351562 13.597656 0.046875 13.390625 0.046875 C 13.171875 0.046875 12.988281 0.0351562 12.84375 0.015625 C 12.707031 0.00390625 12.597656 -0.015625 12.515625 -0.046875 C 12.441406 -0.078125 12.382812 -0.113281 12.34375 -0.15625 C 12.3125 -0.207031 12.296875 -0.257812 12.296875 -0.3125 L 12.296875 -9.5625 L 12.28125 -9.5625 L 8.984375 -0.328125 C 8.960938 -0.242188 8.925781 -0.175781 8.875 -0.125 C 8.820312 -0.0820312 8.75 -0.046875 8.65625 -0.015625 C 8.5625 0.015625 8.441406 0.03125 8.296875 0.03125 C 8.160156 0.0390625 7.992188 0.046875 7.796875 0.046875 C 7.597656 0.046875 7.425781 0.0390625 7.28125 0.03125 C 7.144531 0.0195312 7.03125 0 6.9375 -0.03125 C 6.851562 -0.0703125 6.78125 -0.113281 6.71875 -0.15625 C 6.664062 -0.207031 6.632812 -0.265625 6.625 -0.328125 L 3.4375 -9.5625 L 3.421875 -9.5625 L 3.421875 -0.3125 C 3.421875 -0.257812 3.40625 -0.207031 3.375 -0.15625 C 3.34375 -0.113281 3.28125 -0.078125 3.1875 -0.046875 C 3.101562 -0.015625 2.992188 0.00390625 2.859375 0.015625 C 2.722656 0.0351562 2.546875 0.046875 2.328125 0.046875 C 2.117188 0.046875 1.941406 0.0351562 1.796875 0.015625 C 1.660156 0.00390625 1.546875 -0.015625 1.453125 -0.046875 C 1.367188 -0.078125 1.3125 -0.113281 1.28125 -0.15625 C 1.25 -0.207031 1.234375 -0.257812 1.234375 -0.3125 L 1.234375 -10.4375 C 1.234375 -10.738281 1.3125 -10.96875 1.46875 -11.125 C 1.632812 -11.28125 1.847656 -11.359375 2.109375 -11.359375 L 3.625 -11.359375 C 3.882812 -11.359375 4.109375 -11.335938 4.296875 -11.296875 C 4.492188 -11.253906 4.660156 -11.179688 4.796875 -11.078125 C 4.941406 -10.972656 5.0625 -10.835938 5.15625 -10.671875 C 5.25 -10.503906 5.332031 -10.300781 5.40625 -10.0625 L 7.875 -3.28125 L 7.90625 -3.28125 L 10.453125 -10.03125 C 10.523438 -10.28125 10.609375 -10.488281 10.703125 -10.65625 C 10.796875 -10.832031 10.898438 -10.972656 11.015625 -11.078125 C 11.140625 -11.179688 11.28125 -11.253906 11.4375 -11.296875 C 11.601562 -11.335938 11.796875 -11.359375 12.015625 -11.359375 L 13.5625 -11.359375 C 13.71875 -11.359375 13.851562 -11.335938 13.96875 -11.296875 C 14.082031 -11.253906 14.175781 -11.191406 14.25 -11.109375 C 14.320312 -11.035156 14.378906 -10.941406 14.421875 -10.828125 C 14.460938 -10.710938 14.484375 -10.582031 14.484375 -10.4375 Z M 14.484375 -0.3125 "/></g></g></g><g fill="#473c2f" fill-opacity="1"><g transform="translate(77.038493, 51.374999)"><g><path d="M 7.78125 -0.265625 C 7.78125 -0.191406 7.75 -0.128906 7.6875 -0.078125 C 7.632812 -0.0351562 7.546875 -0.00390625 7.421875 0.015625 C 7.296875 0.0351562 7.109375 0.046875 6.859375 0.046875 C 6.597656 0.046875 6.40625 0.0351562 6.28125 0.015625 C 6.164062 -0.00390625 6.082031 -0.0351562 6.03125 -0.078125 C 5.976562 -0.128906 5.953125 -0.191406 5.953125 -0.265625 L 5.953125 -0.890625 C 5.628906 -0.546875 5.257812 -0.273438 4.84375 -0.078125 C 4.4375 0.109375 3.984375 0.203125 3.484375 0.203125 C 3.066406 0.203125 2.679688 0.144531 2.328125 0.03125 C 1.984375 -0.0703125 1.679688 -0.226562 1.421875 -0.4375 C 1.171875 -0.65625 0.972656 -0.921875 0.828125 -1.234375 C 0.691406 -1.554688 0.625 -1.925781 0.625 -2.34375 C 0.625 -2.800781 0.710938 -3.195312 0.890625 -3.53125 C 1.066406 -3.875 1.332031 -4.15625 1.6875 -4.375 C 2.039062 -4.59375 2.476562 -4.753906 3 -4.859375 C 3.53125 -4.960938 4.144531 -5.015625 4.84375 -5.015625 L 5.609375 -5.015625 L 5.609375 -5.484375 C 5.609375 -5.734375 5.582031 -5.945312 5.53125 -6.125 C 5.488281 -6.3125 5.410156 -6.46875 5.296875 -6.59375 C 5.179688 -6.71875 5.023438 -6.804688 4.828125 -6.859375 C 4.640625 -6.921875 4.40625 -6.953125 4.125 -6.953125 C 3.757812 -6.953125 3.429688 -6.910156 3.140625 -6.828125 C 2.847656 -6.742188 2.585938 -6.648438 2.359375 -6.546875 C 2.140625 -6.453125 1.957031 -6.363281 1.8125 -6.28125 C 1.664062 -6.207031 1.546875 -6.171875 1.453125 -6.171875 C 1.390625 -6.171875 1.332031 -6.1875 1.28125 -6.21875 C 1.226562 -6.257812 1.1875 -6.316406 1.15625 -6.390625 C 1.125 -6.472656 1.097656 -6.566406 1.078125 -6.671875 C 1.054688 -6.785156 1.046875 -6.910156 1.046875 -7.046875 C 1.046875 -7.234375 1.0625 -7.378906 1.09375 -7.484375 C 1.125 -7.585938 1.179688 -7.679688 1.265625 -7.765625 C 1.347656 -7.847656 1.488281 -7.941406 1.6875 -8.046875 C 1.894531 -8.148438 2.132812 -8.242188 2.40625 -8.328125 C 2.6875 -8.421875 2.988281 -8.492188 3.3125 -8.546875 C 3.632812 -8.597656 3.972656 -8.625 4.328125 -8.625 C 4.941406 -8.625 5.460938 -8.5625 5.890625 -8.4375 C 6.328125 -8.320312 6.6875 -8.140625 6.96875 -7.890625 C 7.25 -7.648438 7.453125 -7.332031 7.578125 -6.9375 C 7.710938 -6.539062 7.78125 -6.078125 7.78125 -5.546875 Z M 5.609375 -3.625 L 4.765625 -3.625 C 4.410156 -3.625 4.109375 -3.597656 3.859375 -3.546875 C 3.609375 -3.492188 3.398438 -3.414062 3.234375 -3.3125 C 3.078125 -3.207031 2.960938 -3.078125 2.890625 -2.921875 C 2.816406 -2.773438 2.78125 -2.609375 2.78125 -2.421875 C 2.78125 -2.085938 2.882812 -1.828125 3.09375 -1.640625 C 3.300781 -1.453125 3.585938 -1.359375 3.953125 -1.359375 C 4.265625 -1.359375 4.550781 -1.4375 4.8125 -1.59375 C 5.070312 -1.75 5.335938 -1.984375 5.609375 -2.296875 Z M 5.609375 -3.625 "/></g></g></g><g fill="#473c2f" fill-opacity="1"><g transform="translate(85.912665, 51.374999)"><g><path d="M 8.59375 -0.296875 C 8.59375 -0.234375 8.570312 -0.179688 8.53125 -0.140625 C 8.5 -0.0976562 8.441406 -0.0625 8.359375 -0.03125 C 8.273438 0 8.160156 0.0195312 8.015625 0.03125 C 7.878906 0.0390625 7.703125 0.046875 7.484375 0.046875 C 7.273438 0.046875 7.097656 0.0390625 6.953125 0.03125 C 6.804688 0.0195312 6.691406 0 6.609375 -0.03125 C 6.523438 -0.0625 6.46875 -0.0976562 6.4375 -0.140625 C 6.40625 -0.179688 6.390625 -0.234375 6.390625 -0.296875 L 6.390625 -4.765625 C 6.390625 -5.148438 6.359375 -5.445312 6.296875 -5.65625 C 6.242188 -5.875 6.164062 -6.0625 6.0625 -6.21875 C 5.957031 -6.375 5.820312 -6.492188 5.65625 -6.578125 C 5.488281 -6.660156 5.289062 -6.703125 5.0625 -6.703125 C 4.78125 -6.703125 4.492188 -6.597656 4.203125 -6.390625 C 3.921875 -6.191406 3.625 -5.894531 3.3125 -5.5 L 3.3125 -0.296875 C 3.3125 -0.234375 3.296875 -0.179688 3.265625 -0.140625 C 3.234375 -0.0976562 3.171875 -0.0625 3.078125 -0.03125 C 2.992188 0 2.878906 0.0195312 2.734375 0.03125 C 2.597656 0.0390625 2.425781 0.046875 2.21875 0.046875 C 2 0.046875 1.816406 0.0390625 1.671875 0.03125 C 1.535156 0.0195312 1.425781 0 1.34375 -0.03125 C 1.257812 -0.0625 1.195312 -0.0976562 1.15625 -0.140625 C 1.125 -0.179688 1.109375 -0.234375 1.109375 -0.296875 L 1.109375 -11.84375 C 1.109375 -11.90625 1.125 -11.957031 1.15625 -12 C 1.195312 -12.050781 1.257812 -12.09375 1.34375 -12.125 C 1.425781 -12.15625 1.535156 -12.175781 1.671875 -12.1875 C 1.816406 -12.207031 2 -12.21875 2.21875 -12.21875 C 2.425781 -12.21875 2.597656 -12.207031 2.734375 -12.1875 C 2.878906 -12.175781 2.992188 -12.15625 3.078125 -12.125 C 3.171875 -12.09375 3.234375 -12.050781 3.265625 -12 C 3.296875 -11.957031 3.3125 -11.90625 3.3125 -11.84375 L 3.3125 -7.515625 C 3.695312 -7.890625 4.085938 -8.164062 4.484375 -8.34375 C 4.878906 -8.53125 5.289062 -8.625 5.71875 -8.625 C 6.25 -8.625 6.695312 -8.535156 7.0625 -8.359375 C 7.425781 -8.191406 7.722656 -7.953125 7.953125 -7.640625 C 8.179688 -7.335938 8.34375 -6.984375 8.4375 -6.578125 C 8.539062 -6.171875 8.59375 -5.679688 8.59375 -5.109375 Z M 8.59375 -0.296875 "/></g></g></g><g fill="#473c2f" fill-opacity="1"><g transform="translate(95.559267, 51.374999)"><g><path d="M 3.3125 -0.296875 C 3.3125 -0.234375 3.296875 -0.179688 3.265625 -0.140625 C 3.234375 -0.0976562 3.171875 -0.0625 3.078125 -0.03125 C 2.992188 0 2.878906 0.0195312 2.734375 0.03125 C 2.597656 0.0390625 2.425781 0.046875 2.21875 0.046875 C 2 0.046875 1.816406 0.0390625 1.671875 0.03125 C 1.535156 0.0195312 1.425781 0 1.34375 -0.03125 C 1.257812 -0.0625 1.195312 -0.0976562 1.15625 -0.140625 C 1.125 -0.179688 1.109375 -0.234375 1.109375 -0.296875 L 1.109375 -8.109375 C 1.109375 -8.171875 1.125 -8.222656 1.15625 -8.265625 C 1.195312 -8.304688 1.257812 -8.34375 1.34375 -8.375 C 1.425781 -8.414062 1.535156 -8.441406 1.671875 -8.453125 C 1.816406 -8.472656 2 -8.484375 2.21875 -8.484375 C 2.425781 -8.484375 2.597656 -8.472656 2.734375 -8.453125 C 2.878906 -8.441406 2.992188 -8.414062 3.078125 -8.375 C 3.171875 -8.34375 3.234375 -8.304688 3.265625 -8.265625 C 3.296875 -8.222656 3.3125 -8.171875 3.3125 -8.109375 Z M 3.484375 -10.78125 C 3.484375 -10.332031 3.390625 -10.023438 3.203125 -9.859375 C 3.023438 -9.691406 2.691406 -9.609375 2.203125 -9.609375 C 1.703125 -9.609375 1.363281 -9.6875 1.1875 -9.84375 C 1.019531 -10.007812 0.9375 -10.304688 0.9375 -10.734375 C 0.9375 -11.179688 1.023438 -11.488281 1.203125 -11.65625 C 1.378906 -11.832031 1.71875 -11.921875 2.21875 -11.921875 C 2.707031 -11.921875 3.039062 -11.835938 3.21875 -11.671875 C 3.394531 -11.503906 3.484375 -11.207031 3.484375 -10.78125 Z M 3.484375 -10.78125 "/></g></g></g><g fill="#473c2f" fill-opacity="1"><g transform="translate(99.974409, 51.374999)"><g><path d="M 8.53125 -0.296875 C 8.53125 -0.234375 8.515625 -0.175781 8.484375 -0.125 C 8.460938 -0.0820312 8.414062 -0.046875 8.34375 -0.015625 C 8.269531 0.00390625 8.171875 0.0195312 8.046875 0.03125 C 7.929688 0.0390625 7.785156 0.046875 7.609375 0.046875 C 7.421875 0.046875 7.269531 0.0390625 7.15625 0.03125 C 7.039062 0.0195312 6.945312 0.00390625 6.875 -0.015625 C 6.800781 -0.046875 6.75 -0.0820312 6.71875 -0.125 C 6.6875 -0.175781 6.671875 -0.234375 6.671875 -0.296875 L 6.671875 -1.171875 C 6.265625 -0.734375 5.835938 -0.394531 5.390625 -0.15625 C 4.953125 0.0820312 4.460938 0.203125 3.921875 0.203125 C 3.328125 0.203125 2.820312 0.0859375 2.40625 -0.140625 C 2 -0.367188 1.664062 -0.679688 1.40625 -1.078125 C 1.144531 -1.472656 0.953125 -1.929688 0.828125 -2.453125 C 0.710938 -2.972656 0.65625 -3.523438 0.65625 -4.109375 C 0.65625 -4.804688 0.726562 -5.429688 0.875 -5.984375 C 1.03125 -6.546875 1.25 -7.019531 1.53125 -7.40625 C 1.820312 -7.800781 2.179688 -8.101562 2.609375 -8.3125 C 3.035156 -8.519531 3.523438 -8.625 4.078125 -8.625 C 4.515625 -8.625 4.910156 -8.535156 5.265625 -8.359375 C 5.628906 -8.179688 5.988281 -7.921875 6.34375 -7.578125 L 6.34375 -11.8125 C 6.34375 -11.875 6.359375 -11.925781 6.390625 -11.96875 C 6.421875 -12.019531 6.476562 -12.0625 6.5625 -12.09375 C 6.644531 -12.125 6.753906 -12.148438 6.890625 -12.171875 C 7.035156 -12.191406 7.21875 -12.203125 7.4375 -12.203125 C 7.65625 -12.203125 7.832031 -12.191406 7.96875 -12.171875 C 8.113281 -12.148438 8.226562 -12.125 8.3125 -12.09375 C 8.394531 -12.0625 8.453125 -12.019531 8.484375 -11.96875 C 8.515625 -11.925781 8.53125 -11.875 8.53125 -11.8125 Z M 6.34375 -5.53125 C 6.019531 -5.925781 5.710938 -6.226562 5.421875 -6.4375 C 5.140625 -6.65625 4.835938 -6.765625 4.515625 -6.765625 C 4.234375 -6.765625 3.988281 -6.691406 3.78125 -6.546875 C 3.570312 -6.398438 3.40625 -6.207031 3.28125 -5.96875 C 3.15625 -5.726562 3.0625 -5.457031 3 -5.15625 C 2.9375 -4.863281 2.90625 -4.566406 2.90625 -4.265625 C 2.90625 -3.929688 2.929688 -3.609375 2.984375 -3.296875 C 3.035156 -2.992188 3.117188 -2.71875 3.234375 -2.46875 C 3.359375 -2.226562 3.519531 -2.035156 3.71875 -1.890625 C 3.914062 -1.742188 4.171875 -1.671875 4.484375 -1.671875 C 4.628906 -1.671875 4.773438 -1.691406 4.921875 -1.734375 C 5.066406 -1.773438 5.210938 -1.84375 5.359375 -1.9375 C 5.503906 -2.039062 5.65625 -2.171875 5.8125 -2.328125 C 5.976562 -2.492188 6.15625 -2.695312 6.34375 -2.9375 Z M 6.34375 -5.53125 "/></g></g></g><g fill="#473c2f" fill-opacity="1"><g transform="translate(109.621011, 51.374999)"><g><path d="M 8.34375 -4.4375 C 8.34375 -4.175781 8.28125 -3.976562 8.15625 -3.84375 C 8.039062 -3.71875 7.878906 -3.65625 7.671875 -3.65625 L 2.890625 -3.65625 C 2.890625 -3.320312 2.929688 -3.015625 3.015625 -2.734375 C 3.097656 -2.460938 3.222656 -2.234375 3.390625 -2.046875 C 3.566406 -1.859375 3.789062 -1.710938 4.0625 -1.609375 C 4.332031 -1.515625 4.660156 -1.46875 5.046875 -1.46875 C 5.429688 -1.46875 5.769531 -1.492188 6.0625 -1.546875 C 6.351562 -1.609375 6.601562 -1.671875 6.8125 -1.734375 C 7.03125 -1.796875 7.207031 -1.851562 7.34375 -1.90625 C 7.488281 -1.96875 7.601562 -2 7.6875 -2 C 7.738281 -2 7.78125 -1.988281 7.8125 -1.96875 C 7.851562 -1.945312 7.882812 -1.910156 7.90625 -1.859375 C 7.9375 -1.804688 7.953125 -1.734375 7.953125 -1.640625 C 7.960938 -1.546875 7.96875 -1.421875 7.96875 -1.265625 C 7.96875 -1.140625 7.960938 -1.03125 7.953125 -0.9375 C 7.953125 -0.851562 7.945312 -0.773438 7.9375 -0.703125 C 7.925781 -0.640625 7.90625 -0.585938 7.875 -0.546875 C 7.851562 -0.503906 7.820312 -0.460938 7.78125 -0.421875 C 7.75 -0.378906 7.648438 -0.320312 7.484375 -0.25 C 7.316406 -0.1875 7.097656 -0.117188 6.828125 -0.046875 C 6.566406 0.015625 6.265625 0.0703125 5.921875 0.125 C 5.585938 0.175781 5.226562 0.203125 4.84375 0.203125 C 4.144531 0.203125 3.53125 0.113281 3 -0.0625 C 2.476562 -0.238281 2.039062 -0.503906 1.6875 -0.859375 C 1.34375 -1.210938 1.082031 -1.660156 0.90625 -2.203125 C 0.738281 -2.753906 0.65625 -3.394531 0.65625 -4.125 C 0.65625 -4.820312 0.742188 -5.445312 0.921875 -6 C 1.097656 -6.5625 1.359375 -7.035156 1.703125 -7.421875 C 2.054688 -7.816406 2.476562 -8.113281 2.96875 -8.3125 C 3.46875 -8.519531 4.023438 -8.625 4.640625 -8.625 C 5.296875 -8.625 5.859375 -8.523438 6.328125 -8.328125 C 6.796875 -8.140625 7.175781 -7.875 7.46875 -7.53125 C 7.769531 -7.195312 7.988281 -6.796875 8.125 -6.328125 C 8.269531 -5.859375 8.34375 -5.347656 8.34375 -4.796875 Z M 6.203125 -5.078125 C 6.210938 -5.691406 6.082031 -6.175781 5.8125 -6.53125 C 5.550781 -6.882812 5.144531 -7.0625 4.59375 -7.0625 C 4.3125 -7.0625 4.066406 -7.007812 3.859375 -6.90625 C 3.648438 -6.800781 3.476562 -6.660156 3.34375 -6.484375 C 3.207031 -6.304688 3.101562 -6.09375 3.03125 -5.84375 C 2.957031 -5.601562 2.910156 -5.347656 2.890625 -5.078125 Z M 6.203125 -5.078125 "/></g></g></g></svg>