<svg xmlns="http://www.w3.org/2000/svg" xmlns:xlink="http://www.w3.org/1999/xlink" width="64" zoomAndPan="magnify" viewBox="0 0 48 48" height="64" preserveAspectRatio="xMidYMid meet" version="1.0"><defs><clipPath id="7884aa32d5"><path d="M 0.488281 9 L 47.507812 9 L 47.507812 45.082031 L 0.488281 45.082031 Z M 0.488281 9 " clip-rule="nonzero"/></clipPath><clipPath id="1f8e8bf039"><path d="M 23 1.734375 L 25 1.734375 L 25 7 L 23 7 Z M 23 1.734375 " clip-rule="nonzero"/></clipPath></defs><g clip-path="url(#7884aa32d5)"><path fill="#002060" d="M 46.753906 21.136719 L 36.554688 10.941406 C 35.539062 9.921875 33.882812 9.921875 32.863281 10.941406 L 31.4375 12.367188 C 30.546875 13.257812 30.433594 14.625 31.085938 15.632812 L 30.113281 16.609375 C 27.613281 15.773438 25.027344 16.425781 23.652344 16.914062 C 23.261719 17.050781 22.894531 17.246094 22.554688 17.480469 C 21.179688 16.539062 19.324219 16.320312 18.539062 16.277344 L 16.921875 14.65625 C 17.574219 13.648438 17.460938 12.28125 16.574219 11.394531 L 15.144531 9.964844 C 14.125 8.945312 12.472656 8.945312 11.453125 9.964844 L 1.257812 20.160156 C 0.757812 20.65625 0.488281 21.3125 0.488281 22.007812 C 0.488281 22.703125 0.757812 23.355469 1.257812 23.851562 L 2.683594 25.28125 C 3.179688 25.777344 3.832031 26.046875 4.53125 26.046875 C 5.042969 26.046875 5.53125 25.898438 5.949219 25.628906 L 7.71875 27.398438 C 7.933594 27.804688 8.640625 29.070312 9.660156 30.261719 L 9.390625 30.53125 C 8.1875 31.734375 8.1875 33.703125 9.40625 34.929688 C 10.007812 35.53125 10.800781 35.835938 11.59375 35.835938 C 11.609375 35.835938 11.636719 35.835938 11.652344 35.835938 C 11.644531 36.652344 11.941406 37.472656 12.566406 38.097656 C 13.195312 38.726562 13.960938 39.003906 14.753906 39.003906 C 14.945312 39.003906 15.136719 38.988281 15.328125 38.953125 C 15.414062 39.613281 15.691406 40.265625 16.214844 40.78125 C 16.816406 41.382812 17.609375 41.6875 18.402344 41.6875 C 18.59375 41.6875 18.785156 41.667969 18.976562 41.632812 C 19.0625 42.296875 19.339844 42.949219 19.863281 43.460938 C 20.464844 44.0625 21.257812 44.367188 22.050781 44.367188 C 22.25 44.367188 22.457031 44.351562 22.660156 44.308594 L 22.730469 44.375 C 23.304688 44.96875 24.085938 45.292969 24.921875 45.292969 C 25.757812 45.292969 26.535156 44.96875 27.125 44.386719 C 27.734375 43.777344 28.03125 42.984375 28.023438 42.171875 C 28.066406 42.171875 28.101562 42.183594 28.136719 42.183594 C 28.964844 42.183594 29.746094 41.859375 30.339844 41.269531 C 30.851562 40.753906 31.132812 40.109375 31.210938 39.449219 C 31.402344 39.484375 31.59375 39.507812 31.792969 39.507812 C 32.621094 39.507812 33.402344 39.1875 33.988281 38.59375 C 34.605469 37.976562 34.910156 37.148438 34.894531 36.339844 C 34.910156 36.339844 34.9375 36.339844 34.953125 36.339844 C 36.035156 36.339844 37.027344 35.78125 37.601562 34.859375 C 38.183594 33.917969 38.183594 32.726562 37.660156 31.742188 C 39.394531 30.246094 40.492188 28.40625 40.769531 27.910156 L 42.058594 26.621094 C 42.476562 26.890625 42.964844 27.039062 43.480469 27.039062 C 44.175781 27.039062 44.828125 26.769531 45.324219 26.273438 L 46.753906 24.847656 C 47.25 24.347656 47.519531 23.695312 47.519531 23 C 47.519531 22.304688 47.25 21.648438 46.753906 21.152344 Z M 3.910156 24.0625 L 2.484375 22.632812 C 2.320312 22.46875 2.230469 22.25 2.230469 22.015625 C 2.230469 21.78125 2.320312 21.5625 2.484375 21.398438 L 12.679688 11.203125 C 12.847656 11.027344 13.070312 10.949219 13.296875 10.949219 C 13.523438 10.949219 13.742188 11.035156 13.917969 11.203125 L 15.34375 12.628906 C 15.683594 12.96875 15.683594 13.515625 15.34375 13.855469 L 5.15625 24.042969 C 4.824219 24.375 4.25 24.375 3.929688 24.042969 Z M 10.609375 33.675781 C 10.085938 33.152344 10.085938 32.289062 10.609375 31.769531 L 12.332031 30.042969 C 12.59375 29.78125 12.933594 29.652344 13.28125 29.652344 C 13.628906 29.652344 13.988281 29.792969 14.265625 30.070312 C 14.789062 30.59375 14.789062 31.453125 14.265625 31.976562 L 12.539062 33.703125 C 12.011719 34.222656 11.15625 34.234375 10.609375 33.683594 Z M 13.777344 36.84375 C 13.253906 36.324219 13.253906 35.460938 13.777344 34.9375 L 15.5 33.214844 C 15.761719 32.953125 16.101562 32.820312 16.449219 32.820312 C 16.800781 32.820312 17.15625 32.960938 17.433594 33.238281 C 17.957031 33.761719 17.957031 34.625 17.433594 35.148438 L 15.710938 36.871094 C 15.1875 37.394531 14.324219 37.394531 13.777344 36.851562 Z M 17.425781 39.519531 C 16.902344 38.996094 16.902344 38.132812 17.425781 37.609375 L 18.664062 36.375 L 19.148438 35.886719 C 19.410156 35.625 19.75 35.496094 20.097656 35.496094 C 20.449219 35.496094 20.804688 35.632812 21.082031 35.914062 C 21.605469 36.433594 21.605469 37.296875 21.082031 37.820312 L 19.359375 39.542969 C 18.835938 40.066406 17.972656 40.074219 17.425781 39.527344 Z M 21.074219 40.285156 L 22.3125 39.046875 L 22.796875 38.558594 C 23.058594 38.300781 23.398438 38.167969 23.746094 38.167969 C 24.097656 38.167969 24.453125 38.308594 24.730469 38.585938 C 25.253906 39.109375 25.253906 39.972656 24.730469 40.492188 L 23.007812 42.21875 C 22.484375 42.738281 21.621094 42.738281 21.074219 42.199219 C 20.550781 41.675781 20.550781 40.816406 21.074219 40.292969 Z M 25.890625 43.132812 C 25.480469 43.539062 24.828125 43.609375 24.320312 43.367188 L 25.96875 41.722656 C 26.027344 41.660156 26.0625 41.597656 26.117188 41.539062 C 26.386719 42.0625 26.324219 42.695312 25.890625 43.132812 Z M 36.121094 33.917969 C 35.667969 34.652344 34.578125 34.773438 33.988281 34.179688 L 28.875 29.070312 C 28.535156 28.730469 27.988281 28.730469 27.648438 29.070312 C 27.308594 29.410156 27.308594 29.957031 27.648438 30.296875 L 32.757812 35.40625 C 33.289062 35.9375 33.289062 36.808594 32.757812 37.339844 C 32.230469 37.871094 31.347656 37.863281 30.828125 37.339844 L 25.714844 32.230469 C 25.375 31.890625 24.828125 31.890625 24.488281 32.230469 C 24.234375 32.480469 24.164062 32.855469 24.296875 33.179688 C 24.339844 33.285156 24.402344 33.378906 24.488281 33.464844 L 29.109375 38.089844 C 29.640625 38.621094 29.640625 39.492188 29.109375 40.023438 C 28.597656 40.535156 27.746094 40.5625 27.179688 40.023438 C 27.160156 40.003906 27.144531 39.980469 27.125 39.960938 L 26.855469 39.699219 C 26.898438 38.855469 26.605469 37.984375 25.949219 37.332031 C 25.203125 36.582031 24.15625 36.296875 23.179688 36.480469 C 23.09375 35.816406 22.816406 35.164062 22.292969 34.652344 C 21.542969 33.902344 20.5 33.613281 19.523438 33.796875 C 19.4375 33.136719 19.160156 32.480469 18.636719 31.96875 C 18.019531 31.351562 17.199219 31.054688 16.390625 31.070312 C 16.398438 30.253906 16.101562 29.433594 15.476562 28.808594 C 14.273438 27.605469 12.304688 27.597656 11.105469 28.808594 L 10.886719 29.027344 C 9.875 27.816406 9.207031 26.507812 9.199219 26.492188 C 9.152344 26.40625 9.101562 26.335938 9.03125 26.265625 L 7.210938 24.445312 L 15.710938 15.945312 L 17.53125 17.765625 C 17.695312 17.933594 17.914062 18.019531 18.148438 18.019531 C 18.714844 18.019531 20.132812 18.167969 21.1875 18.714844 L 19.175781 20.726562 C 18.121094 21.78125 17.90625 23.417969 18.664062 24.621094 C 19.238281 25.542969 20.230469 26.101562 21.308594 26.101562 C 22.136719 26.101562 22.921875 25.777344 23.503906 25.183594 L 24.84375 23.84375 C 25.574219 23.113281 26.777344 23.113281 27.507812 23.84375 L 35.832031 32.167969 C 35.832031 32.167969 35.84375 32.175781 35.851562 32.1875 C 36.328125 32.675781 36.433594 33.398438 36.113281 33.917969 Z M 39.445312 26.753906 C 39.386719 26.8125 39.332031 26.882812 39.289062 26.960938 C 39.28125 26.980469 38.238281 28.921875 36.53125 30.402344 L 28.746094 22.617188 C 28.039062 21.910156 27.109375 21.554688 26.1875 21.554688 C 25.261719 21.554688 24.332031 21.910156 23.625 22.617188 L 22.285156 23.957031 C 21.683594 24.558594 20.605469 24.429688 20.144531 23.695312 C 19.8125 23.175781 19.925781 22.441406 20.414062 21.953125 L 23.050781 19.316406 C 23.398438 18.96875 23.792969 18.714844 24.21875 18.566406 C 25.453125 18.125 27.847656 17.523438 29.972656 18.4375 C 30.304688 18.578125 30.679688 18.507812 30.929688 18.253906 L 32.261719 16.921875 L 40.769531 25.429688 L 39.4375 26.761719 Z M 45.515625 23.601562 L 44.089844 25.027344 C 43.757812 25.359375 43.183594 25.359375 42.859375 25.027344 L 32.671875 14.839844 C 32.332031 14.5 32.332031 13.953125 32.671875 13.613281 L 34.101562 12.183594 C 34.265625 12.011719 34.492188 11.933594 34.71875 11.933594 C 34.945312 11.933594 35.164062 12.019531 35.335938 12.183594 L 45.535156 22.382812 C 45.699219 22.546875 45.785156 22.765625 45.785156 23 C 45.785156 23.234375 45.699219 23.453125 45.535156 23.617188 Z M 45.515625 23.601562 " fill-opacity="1" fill-rule="nonzero"/></g><g clip-path="url(#1f8e8bf039)"><path fill="#002060" d="M 24 6.960938 C 24.480469 6.960938 24.871094 6.570312 24.871094 6.089844 L 24.871094 2.605469 C 24.871094 2.128906 24.480469 1.734375 24 1.734375 C 23.519531 1.734375 23.128906 2.128906 23.128906 2.605469 L 23.128906 6.089844 C 23.128906 6.570312 23.519531 6.960938 24 6.960938 Z M 24 6.960938 " fill-opacity="1" fill-rule="nonzero"/></g><path fill="#002060" d="M 17.296875 8.300781 C 17.433594 8.632812 17.757812 8.839844 18.097656 8.839844 C 18.210938 8.839844 18.324219 8.824219 18.425781 8.773438 C 18.871094 8.589844 19.082031 8.074219 18.898438 7.632812 L 17.554688 4.417969 C 17.375 3.972656 16.859375 3.765625 16.414062 3.949219 C 15.972656 4.128906 15.761719 4.644531 15.945312 5.089844 L 17.285156 8.300781 Z M 17.296875 8.300781 " fill-opacity="1" fill-rule="nonzero"/><path fill="#002060" d="M 29.5625 8.773438 C 29.675781 8.816406 29.789062 8.839844 29.894531 8.839844 C 30.234375 8.839844 30.558594 8.640625 30.695312 8.300781 L 32.035156 5.089844 C 32.21875 4.644531 32.011719 4.128906 31.566406 3.949219 C 31.121094 3.765625 30.609375 3.972656 30.425781 4.417969 L 29.085938 7.632812 C 28.902344 8.074219 29.109375 8.589844 29.554688 8.773438 Z M 29.5625 8.773438 " fill-opacity="1" fill-rule="nonzero"/></svg>