<svg xmlns="http://www.w3.org/2000/svg" xmlns:xlink="http://www.w3.org/1999/xlink" width="64" zoomAndPan="magnify" viewBox="0 0 48 48" height="64" preserveAspectRatio="xMidYMid meet" version="1.0"><defs><clipPath id="59ac299171"><path d="M 4.808594 0 L 43.011719 0 L 43.011719 47.019531 L 4.808594 47.019531 Z M 4.808594 0 " clip-rule="nonzero"/></clipPath></defs><g clip-path="url(#59ac299171)"><path fill="#002060" d="M 20.726562 27.570312 L 31.359375 16.929688 C 31.46875 16.824219 31.597656 16.742188 31.738281 16.683594 C 31.882812 16.625 32.03125 16.597656 32.183594 16.597656 C 32.339844 16.59375 32.488281 16.625 32.632812 16.679688 C 32.773438 16.738281 32.902344 16.820312 33.015625 16.925781 C 33.125 17.035156 33.207031 17.160156 33.269531 17.304688 C 33.328125 17.449219 33.359375 17.597656 33.359375 17.753906 C 33.359375 17.90625 33.328125 18.054688 33.269531 18.199219 C 33.210938 18.34375 33.128906 18.472656 33.019531 18.582031 L 21.421875 30.191406 C 21.191406 30.421875 20.917969 30.535156 20.59375 30.535156 L 20.589844 30.535156 C 20.269531 30.535156 19.992188 30.421875 19.765625 30.195312 C 19.71875 30.148438 19.675781 30.097656 19.636719 30.042969 L 14.859375 24.367188 C 14.765625 24.238281 14.703125 24.101562 14.667969 23.949219 C 14.628906 23.796875 14.621094 23.644531 14.648438 23.488281 C 14.671875 23.335938 14.726562 23.191406 14.804688 23.058594 C 14.886719 22.925781 14.992188 22.8125 15.121094 22.722656 C 15.246094 22.632812 15.386719 22.566406 15.539062 22.53125 C 15.6875 22.496094 15.84375 22.492188 15.996094 22.519531 C 16.152344 22.542969 16.292969 22.597656 16.425781 22.679688 C 16.558594 22.761719 16.667969 22.867188 16.761719 22.996094 Z M 43.132812 26.695312 C 43.160156 30.183594 41.132812 34.296875 37.425781 38.28125 C 35.828125 39.992188 34.078125 41.53125 32.175781 42.898438 L 32.09375 42.949219 C 32.058594 42.96875 32.027344 42.992188 31.996094 43.015625 L 31.921875 43.078125 C 29.652344 44.714844 27.203125 45.996094 24.566406 46.921875 L 24.230469 47.035156 L 23.894531 46.929688 C 23.09375 46.671875 22.304688 46.375 21.535156 46.035156 C 21.488281 46.011719 21.4375 45.988281 21.386719 45.972656 L 21.324219 45.945312 C 17.382812 44.109375 13.90625 41.628906 10.894531 38.5 C 9.316406 36.890625 7.964844 35.109375 6.84375 33.152344 L 6.800781 33.070312 C 6.785156 33.035156 6.765625 33 6.742188 32.964844 L 6.695312 32.890625 C 5.644531 31.070312 5.078125 29.109375 4.996094 27.011719 L 4.859375 10.234375 L 4.941406 10.191406 L 23.839844 0 L 23.914062 0.0390625 L 42.992188 9.925781 Z M 40.835938 11.25 L 23.863281 2.457031 L 7.039062 11.527344 L 7.167969 26.992188 C 7.25 28.71875 7.722656 30.332031 8.589844 31.824219 C 8.652344 31.925781 8.710938 32.027344 8.761719 32.136719 C 9.789062 33.910156 11.019531 35.53125 12.457031 36.996094 C 15.265625 39.914062 18.507812 42.234375 22.175781 43.949219 C 22.273438 43.984375 22.371094 44.023438 22.460938 44.070312 C 23.042969 44.320312 23.648438 44.554688 24.210938 44.746094 C 26.503906 43.894531 28.640625 42.753906 30.628906 41.328125 C 30.730469 41.246094 30.835938 41.167969 30.949219 41.101562 C 32.71875 39.828125 34.347656 38.394531 35.835938 36.796875 C 39.164062 33.222656 40.984375 29.640625 40.960938 26.710938 Z M 40.835938 11.25 " fill-opacity="1" fill-rule="nonzero"/></g></svg>