<svg xmlns="http://www.w3.org/2000/svg" xmlns:xlink="http://www.w3.org/1999/xlink" width="64" zoomAndPan="magnify" viewBox="0 0 48 48" height="64" preserveAspectRatio="xMidYMid meet" version="1.0"><defs><clipPath id="0cb083bcc5"><path d="M 5.742188 5.253906 L 42.476562 5.253906 L 42.476562 41.988281 L 5.742188 41.988281 Z M 5.742188 5.253906 " clip-rule="nonzero"/></clipPath><clipPath id="a5dd9f8a01"><path d="M 0.742188 0.40625 L 37 0.40625 L 37 36.988281 L 0.742188 36.988281 Z M 0.742188 0.40625 " clip-rule="nonzero"/></clipPath><clipPath id="17d54db77a"><rect x="0" width="38" y="0" height="37"/></clipPath></defs><g clip-path="url(#0cb083bcc5)"><g transform="matrix(1, 0, 0, 1, 5, 5)"><g clip-path="url(#17d54db77a)"><g clip-path="url(#a5dd9f8a01)"><path fill="#002060" d="M 1 19.109375 C 0.984375 18.519531 0.992188 17.933594 1.035156 17.34375 C 1.074219 16.757812 1.144531 16.171875 1.242188 15.589844 C 1.339844 15.011719 1.464844 14.433594 1.621094 13.867188 C 1.773438 13.296875 1.957031 12.738281 2.164062 12.1875 C 2.375 11.636719 2.609375 11.097656 2.871094 10.570312 C 3.136719 10.042969 3.421875 9.527344 3.734375 9.027344 C 4.046875 8.527344 4.382812 8.046875 4.746094 7.578125 C 5.105469 7.113281 5.488281 6.664062 5.890625 6.238281 C 6.292969 5.808594 6.71875 5.398438 7.164062 5.011719 C 7.605469 4.625 8.070312 4.261719 8.550781 3.917969 C 9.03125 3.578125 9.523438 3.261719 10.035156 2.96875 C 10.546875 2.675781 11.070312 2.40625 11.609375 2.164062 C 12.148438 1.921875 12.695312 1.707031 13.253906 1.519531 C 13.8125 1.332031 14.378906 1.171875 14.953125 1.039062 C 15.527344 0.910156 16.105469 0.804688 16.691406 0.730469 C 17.273438 0.65625 17.863281 0.609375 18.449219 0.589844 C 19.039062 0.574219 19.628906 0.585938 20.214844 0.625 C 20.804688 0.664062 21.386719 0.734375 21.96875 0.832031 C 22.550781 0.929688 23.125 1.054688 23.695312 1.210938 C 24.261719 1.363281 24.824219 1.542969 25.375 1.753906 C 25.925781 1.964844 26.464844 2.199219 26.992188 2.460938 C 27.519531 2.722656 28.03125 3.011719 28.53125 3.324219 C 29.03125 3.636719 29.515625 3.972656 29.980469 4.332031 C 30.449219 4.691406 30.894531 5.074219 31.324219 5.476562 C 31.753906 5.882812 32.160156 6.304688 32.550781 6.75 C 32.9375 7.195312 33.300781 7.65625 33.644531 8.136719 C 33.984375 8.617188 34.304688 9.109375 34.597656 9.621094 C 34.890625 10.132812 35.15625 10.65625 35.398438 11.195312 C 35.640625 11.730469 35.855469 12.28125 36.042969 12.839844 C 36.230469 13.398438 36.390625 13.964844 36.523438 14.539062 C 36.65625 15.113281 36.757812 15.691406 36.835938 16.277344 C 36.910156 16.859375 36.957031 17.445312 36.976562 18.035156 C 36.992188 18.625 36.980469 19.214844 36.941406 19.800781 C 36.902344 20.390625 36.832031 20.972656 36.734375 21.554688 C 36.636719 22.136719 36.511719 22.710938 36.359375 23.28125 C 36.203125 23.847656 36.023438 24.410156 35.8125 24.960938 C 35.605469 25.511719 35.371094 26.050781 35.105469 26.578125 C 34.84375 27.105469 34.558594 27.621094 34.246094 28.117188 C 33.933594 28.617188 33.597656 29.101562 33.238281 29.566406 C 32.878906 30.035156 32.496094 30.484375 32.09375 30.910156 C 31.6875 31.339844 31.265625 31.75 30.820312 32.136719 C 30.375 32.523438 29.914062 32.890625 29.433594 33.230469 C 28.953125 33.574219 28.460938 33.890625 27.949219 34.183594 C 27.4375 34.476562 26.914062 34.746094 26.375 34.988281 C 25.839844 35.230469 25.289062 35.445312 24.730469 35.632812 C 24.171875 35.820312 23.605469 35.980469 23.035156 36.113281 C 22.460938 36.246094 21.878906 36.347656 21.296875 36.425781 C 20.710938 36.5 20.125 36.546875 19.535156 36.566406 C 18.945312 36.582031 18.355469 36.574219 17.769531 36.53125 C 17.179688 36.492188 16.59375 36.421875 16.011719 36.328125 C 15.433594 36.230469 14.855469 36.101562 14.289062 35.949219 C 13.71875 35.796875 13.15625 35.613281 12.605469 35.40625 C 12.054688 35.195312 11.515625 34.960938 10.988281 34.699219 C 10.457031 34.433594 9.945312 34.148438 9.445312 33.835938 C 8.945312 33.523438 8.460938 33.1875 7.996094 32.824219 C 7.527344 32.464844 7.078125 32.082031 6.648438 31.679688 C 6.222656 31.273438 5.8125 30.851562 5.425781 30.40625 C 5.039062 29.960938 4.671875 29.5 4.332031 29.019531 C 3.988281 28.539062 3.671875 28.042969 3.378906 27.53125 C 3.082031 27.019531 2.816406 26.496094 2.574219 25.957031 C 2.332031 25.417969 2.117188 24.871094 1.929688 24.3125 C 1.742188 23.753906 1.582031 23.183594 1.449219 22.609375 C 1.316406 22.035156 1.214844 21.457031 1.140625 20.871094 C 1.0625 20.285156 1.015625 19.699219 1 19.109375 Z M 24.457031 28.003906 L 16.207031 18.570312 L 24.457031 9.136719 L 22.53125 7.4375 L 12.785156 18.570312 L 22.53125 29.703125 Z M 24.457031 28.003906 " fill-opacity="1" fill-rule="nonzero"/></g></g></g></g></svg>