<svg xmlns="http://www.w3.org/2000/svg" xmlns:xlink="http://www.w3.org/1999/xlink" width="64" zoomAndPan="magnify" viewBox="0 0 48 48" height="64" preserveAspectRatio="xMidYMid meet" version="1.0"><defs><clipPath id="f736a210bb"><path d="M 6 5.253906 L 42 5.253906 L 42 41.988281 L 6 41.988281 Z M 6 5.253906 " clip-rule="nonzero"/></clipPath></defs><g clip-path="url(#f736a210bb)"><path fill="#002060" d="M 41.992188 24.109375 C 42.007812 23.519531 41.996094 22.933594 41.957031 22.34375 C 41.914062 21.757812 41.847656 21.171875 41.75 20.589844 C 41.652344 20.011719 41.523438 19.433594 41.371094 18.867188 C 41.214844 18.296875 41.035156 17.738281 40.824219 17.1875 C 40.617188 16.636719 40.378906 16.097656 40.117188 15.570312 C 39.855469 15.042969 39.570312 14.527344 39.253906 14.027344 C 38.941406 13.527344 38.605469 13.046875 38.246094 12.578125 C 37.886719 12.113281 37.503906 11.664062 37.101562 11.238281 C 36.695312 10.808594 36.273438 10.398438 35.828125 10.011719 C 35.382812 9.625 34.921875 9.261719 34.441406 8.917969 C 33.960938 8.578125 33.464844 8.261719 32.953125 7.96875 C 32.445312 7.675781 31.917969 7.40625 31.382812 7.164062 C 30.84375 6.921875 30.296875 6.707031 29.738281 6.519531 C 29.179688 6.332031 28.613281 6.171875 28.039062 6.039062 C 27.464844 5.910156 26.886719 5.804688 26.300781 5.730469 C 25.714844 5.65625 25.128906 5.609375 24.539062 5.589844 C 23.953125 5.574219 23.363281 5.585938 22.773438 5.625 C 22.1875 5.664062 21.601562 5.734375 21.019531 5.832031 C 20.441406 5.929688 19.867188 6.054688 19.296875 6.210938 C 18.726562 6.363281 18.167969 6.542969 17.617188 6.753906 C 17.066406 6.964844 16.527344 7.199219 16 7.460938 C 15.472656 7.722656 14.957031 8.011719 14.457031 8.324219 C 13.957031 8.636719 13.476562 8.972656 13.007812 9.332031 C 12.542969 9.691406 12.09375 10.074219 11.664062 10.476562 C 11.238281 10.882812 10.828125 11.304688 10.441406 11.75 C 10.054688 12.195312 9.6875 12.65625 9.347656 13.136719 C 9.003906 13.617188 8.6875 14.109375 8.394531 14.621094 C 8.101562 15.132812 7.832031 15.65625 7.59375 16.195312 C 7.351562 16.730469 7.136719 17.28125 6.949219 17.839844 C 6.757812 18.398438 6.597656 18.964844 6.46875 19.539062 C 6.335938 20.113281 6.230469 20.691406 6.15625 21.277344 C 6.082031 21.859375 6.035156 22.445312 6.015625 23.035156 C 6 23.625 6.007812 24.214844 6.050781 24.800781 C 6.089844 25.390625 6.160156 25.972656 6.253906 26.554688 C 6.351562 27.136719 6.480469 27.710938 6.632812 28.28125 C 6.785156 28.847656 6.96875 29.410156 7.175781 29.960938 C 7.386719 30.511719 7.621094 31.050781 7.882812 31.578125 C 8.144531 32.105469 8.433594 32.621094 8.746094 33.117188 C 9.058594 33.617188 9.394531 34.101562 9.753906 34.566406 C 10.113281 35.035156 10.496094 35.484375 10.898438 35.910156 C 11.304688 36.339844 11.726562 36.75 12.171875 37.136719 C 12.613281 37.523438 13.078125 37.890625 13.554688 38.230469 C 14.035156 38.574219 14.53125 38.890625 15.042969 39.183594 C 15.554688 39.476562 16.078125 39.746094 16.613281 39.988281 C 17.152344 40.230469 17.699219 40.445312 18.257812 40.632812 C 18.816406 40.820312 19.382812 40.980469 19.957031 41.113281 C 20.53125 41.246094 21.109375 41.347656 21.695312 41.425781 C 22.28125 41.5 22.867188 41.546875 23.457031 41.566406 C 24.046875 41.582031 24.632812 41.574219 25.222656 41.53125 C 25.8125 41.492188 26.394531 41.421875 26.976562 41.328125 C 27.558594 41.230469 28.132812 41.101562 28.703125 40.949219 C 29.273438 40.796875 29.832031 40.613281 30.382812 40.40625 C 30.9375 40.195312 31.476562 39.960938 32.003906 39.699219 C 32.53125 39.433594 33.046875 39.148438 33.546875 38.835938 C 34.046875 38.523438 34.53125 38.1875 34.996094 37.824219 C 35.464844 37.464844 35.910156 37.082031 36.339844 36.679688 C 36.769531 36.273438 37.179688 35.851562 37.566406 35.40625 C 37.953125 34.960938 38.320312 34.5 38.660156 34.019531 C 39.003906 33.539062 39.320312 33.042969 39.613281 32.53125 C 39.90625 32.019531 40.175781 31.496094 40.417969 30.957031 C 40.660156 30.417969 40.875 29.871094 41.0625 29.3125 C 41.25 28.753906 41.410156 28.183594 41.542969 27.609375 C 41.671875 27.035156 41.777344 26.457031 41.851562 25.871094 C 41.925781 25.285156 41.972656 24.699219 41.992188 24.109375 Z M 18.53125 33.003906 L 26.785156 23.570312 L 18.53125 14.136719 L 20.460938 12.4375 L 30.203125 23.570312 L 20.460938 34.703125 Z M 18.53125 33.003906 " fill-opacity="1" fill-rule="nonzero"/></g></svg>