<svg xmlns="http://www.w3.org/2000/svg" xmlns:xlink="http://www.w3.org/1999/xlink" width="64" zoomAndPan="magnify" viewBox="0 0 48 48" height="64" preserveAspectRatio="xMidYMid meet" version="1.0"><defs><clipPath id="209525d928"><path d="M 0.488281 0 L 47.507812 0 L 47.507812 47 L 0.488281 47 Z M 0.488281 0 " clip-rule="nonzero"/></clipPath></defs><g clip-path="url(#209525d928)"><path fill="#002060" d="M 45.523438 31.6875 C 45.039062 31.394531 44.230469 31.125 43.132812 31.484375 C 40.683594 32.289062 25.683594 35.253906 25.53125 35.28125 C 24.867188 35.410156 23.796875 35.144531 23.28125 34.71875 L 21.59375 33.332031 C 22.164062 33.3125 22.765625 33.25 23.402344 33.09375 C 24.761719 32.757812 25.695312 32.113281 26.171875 31.179688 C 26.816406 29.917969 26.339844 28.667969 26.285156 28.53125 C 25.839844 27.433594 24.640625 26.363281 23.492188 26.042969 L 14.949219 23.632812 C 13.78125 23.304688 12.207031 23.652344 11.292969 24.441406 L 7.046875 28.105469 C 6.695312 27.152344 5.777344 26.464844 4.691406 26.464844 L 3.007812 26.464844 C 1.621094 26.464844 0.488281 27.585938 0.488281 28.960938 L 0.488281 42.238281 C 0.488281 43.613281 1.621094 44.730469 3.007812 44.730469 L 4.691406 44.730469 C 5.71875 44.730469 6.601562 44.117188 6.992188 43.242188 L 22.210938 46.816406 C 22.566406 46.898438 22.976562 46.9375 23.410156 46.9375 C 24.285156 46.9375 25.242188 46.773438 25.914062 46.476562 L 45.554688 37.867188 C 46.753906 37.34375 47.523438 35.929688 47.308594 34.652344 C 47.269531 34.4375 46.910156 32.523438 45.523438 31.6875 Z M 5.539062 42.238281 C 5.539062 42.691406 5.15625 43.058594 4.691406 43.058594 L 3.007812 43.058594 C 2.542969 43.058594 2.164062 42.691406 2.164062 42.238281 L 2.164062 28.960938 C 2.164062 28.507812 2.542969 28.136719 3.007812 28.136719 L 4.691406 28.136719 C 5.15625 28.136719 5.539062 28.507812 5.539062 28.960938 Z M 44.882812 36.335938 L 25.242188 44.945312 C 24.5625 45.246094 23.324219 45.355469 22.597656 45.1875 L 7.210938 41.574219 L 7.210938 30.175781 L 12.382812 25.710938 C 12.871094 25.289062 13.875 25.070312 14.496094 25.242188 L 23.039062 27.652344 C 23.679688 27.832031 24.484375 28.546875 24.734375 29.15625 C 24.734375 29.164062 24.980469 29.828125 24.679688 30.417969 C 24.433594 30.902344 23.867188 31.253906 23 31.46875 C 20.050781 32.191406 17.789062 30.761719 17.769531 30.75 C 17.386719 30.496094 16.867188 30.605469 16.613281 30.992188 C 16.359375 31.375 16.464844 31.894531 16.851562 32.148438 C 16.902344 32.183594 17.480469 32.546875 18.410156 32.863281 C 18.429688 32.882812 18.441406 32.910156 18.464844 32.925781 L 22.21875 36.011719 C 23.128906 36.761719 24.695312 37.152344 25.851562 36.925781 C 26.476562 36.800781 41.109375 33.910156 43.652344 33.074219 C 44.191406 32.898438 44.480469 33.015625 44.65625 33.117188 C 45.277344 33.492188 45.59375 34.582031 45.65625 34.929688 C 45.742188 35.449219 45.375 36.121094 44.882812 36.335938 Z M 23.019531 23.570312 C 23.019531 23.792969 23.105469 24.007812 23.265625 24.164062 C 23.421875 24.320312 23.632812 24.40625 23.855469 24.40625 L 30.472656 24.40625 C 31.875 24.921875 33.328125 25.183594 34.792969 25.183594 C 41.714844 25.183594 47.34375 19.554688 47.34375 12.632812 C 47.34375 5.714844 41.714844 0.0859375 34.792969 0.0859375 C 27.871094 0.0859375 22.242188 5.714844 22.242188 12.632812 C 22.242188 14.097656 22.503906 15.550781 23.019531 16.953125 Z M 34.792969 1.757812 C 40.789062 1.757812 45.667969 6.636719 45.667969 12.632812 C 45.667969 18.628906 40.789062 23.511719 34.792969 23.511719 C 33.484375 23.511719 32.179688 23.265625 30.925781 22.789062 C 30.828125 22.753906 30.726562 22.734375 30.625 22.734375 L 24.695312 22.734375 L 24.695312 16.800781 C 24.695312 16.699219 24.675781 16.597656 24.640625 16.503906 C 24.160156 15.246094 23.917969 13.945312 23.917969 12.632812 C 23.917969 6.636719 28.796875 1.757812 34.792969 1.757812 Z M 29.179688 14.0625 C 28.855469 13.734375 28.855469 13.207031 29.179688 12.878906 C 29.507812 12.550781 30.039062 12.550781 30.363281 12.878906 L 33.121094 15.632812 L 40.058594 8.695312 C 40.386719 8.367188 40.914062 8.367188 41.242188 8.695312 C 41.566406 9.023438 41.566406 9.550781 41.242188 9.878906 L 33.710938 17.410156 C 33.546875 17.570312 33.332031 17.652344 33.121094 17.652344 C 32.90625 17.652344 32.691406 17.570312 32.527344 17.410156 Z M 29.179688 14.0625 " fill-opacity="1" fill-rule="nonzero"/></g></svg>