<svg xmlns="http://www.w3.org/2000/svg" xmlns:xlink="http://www.w3.org/1999/xlink" width="64" zoomAndPan="magnify" viewBox="0 0 48 48" height="64" preserveAspectRatio="xMidYMid meet" version="1.0"><defs><clipPath id="a130c452d5"><path d="M 27 6.132812 L 37 6.132812 L 37 29 L 27 29 Z M 27 6.132812 " clip-rule="nonzero"/></clipPath><clipPath id="6f5437bd47"><path d="M 0.488281 11 L 47.507812 11 L 47.507812 40.664062 L 0.488281 40.664062 Z M 0.488281 11 " clip-rule="nonzero"/></clipPath></defs><path fill="#002060" d="M 8.242188 25.382812 L 8.285156 25.382812 C 8.644531 25.398438 8.980469 25.558594 9.214844 25.828125 L 13.046875 30.265625 L 13.046875 17.152344 L 4.09375 17.152344 L 4.09375 28.996094 L 7.332031 25.757812 C 7.574219 25.515625 7.898438 25.382812 8.242188 25.382812 Z M 8.242188 25.382812 " fill-opacity="1" fill-rule="nonzero"/><path fill="#002060" d="M 24.863281 31.078125 L 24.863281 24.957031 L 15.914062 24.957031 L 15.914062 33.585938 L 18.871094 37.007812 Z M 24.863281 31.078125 " fill-opacity="1" fill-rule="nonzero"/><g clip-path="url(#a130c452d5)"><path fill="#002060" d="M 36.6875 6.136719 L 27.734375 6.136719 L 27.734375 28.238281 L 36.6875 19.382812 Z M 36.6875 6.136719 " fill-opacity="1" fill-rule="nonzero"/></g><g clip-path="url(#6f5437bd47)"><path fill="#002060" d="M 47.300781 12.1875 C 47.144531 12.007812 46.90625 11.925781 46.671875 11.96875 L 40.757812 13.066406 C 40.390625 13.132812 40.148438 13.484375 40.21875 13.851562 C 40.285156 14.21875 40.636719 14.460938 41.003906 14.390625 L 44.589844 13.726562 L 18.835938 39.214844 L 8.75 27.539062 C 8.628906 27.394531 8.453125 27.3125 8.265625 27.304688 C 8.078125 27.296875 7.894531 27.367188 7.761719 27.503906 L 0.488281 34.773438 L 0.488281 36.683594 L 8.203125 28.96875 L 18.289062 40.640625 C 18.410156 40.78125 18.585938 40.867188 18.773438 40.875 C 18.957031 40.878906 19.140625 40.8125 19.273438 40.679688 L 45.367188 14.859375 L 44.300781 18.164062 C 44.1875 18.519531 44.382812 18.898438 44.734375 19.015625 C 44.804688 19.039062 44.875 19.046875 44.945312 19.046875 C 45.226562 19.046875 45.492188 18.867188 45.585938 18.578125 L 47.4375 12.839844 C 47.507812 12.613281 47.457031 12.367188 47.300781 12.1875 Z M 47.300781 12.1875 " fill-opacity="1" fill-rule="nonzero"/></g></svg>