<svg xmlns="http://www.w3.org/2000/svg" xmlns:xlink="http://www.w3.org/1999/xlink" width="64" zoomAndPan="magnify" viewBox="0 0 48 48" height="64" preserveAspectRatio="xMidYMid meet" version="1.0"><defs><clipPath id="c7bc4fb1d6"><path d="M 3 0 L 45.304688 0 L 45.304688 47.019531 L 3 47.019531 Z M 3 0 " clip-rule="nonzero"/></clipPath></defs><g clip-path="url(#c7bc4fb1d6)"><path fill="#c00000" d="M 23.34375 38.148438 C 23.34375 38.503906 23.632812 38.792969 23.988281 38.792969 L 35.34375 38.792969 C 35.515625 38.792969 35.675781 38.726562 35.796875 38.605469 L 42.625 31.777344 C 42.746094 31.65625 42.8125 31.492188 42.8125 31.320312 L 42.8125 7.5625 C 42.8125 7.207031 42.527344 6.917969 42.171875 6.917969 L 15.957031 6.917969 C 15.601562 6.917969 15.3125 7.207031 15.3125 7.5625 L 15.3125 21.796875 C 15.3125 22.152344 15.601562 22.4375 15.957031 22.4375 C 16.308594 22.4375 16.597656 22.148438 16.597656 21.796875 L 16.597656 8.203125 L 41.527344 8.203125 L 41.527344 30.675781 L 35.34375 30.675781 C 34.988281 30.675781 34.699219 30.964844 34.699219 31.320312 L 34.699219 37.507812 L 23.988281 37.507812 C 23.632812 37.507812 23.34375 37.792969 23.34375 38.148438 Z M 40.621094 31.960938 L 35.988281 36.597656 L 35.988281 31.960938 Z M 43.734375 2.226562 L 33.519531 2.226562 L 33.519531 0.652344 C 33.519531 0.296875 33.230469 0.0117188 32.875 0.0117188 L 23.796875 0.0117188 C 23.441406 0.0117188 23.152344 0.296875 23.152344 0.652344 L 23.152344 2.226562 L 14.394531 2.226562 C 13.523438 2.226562 12.816406 2.933594 12.816406 3.804688 L 12.816406 20.617188 C 12.816406 20.972656 13.101562 21.257812 13.457031 21.257812 C 13.8125 21.257812 14.101562 20.972656 14.101562 20.617188 L 14.101562 3.804688 C 14.101562 3.644531 14.234375 3.511719 14.394531 3.511719 L 23.152344 3.511719 L 23.152344 5.085938 C 23.152344 5.441406 23.441406 5.726562 23.796875 5.726562 L 32.875 5.726562 C 33.230469 5.726562 33.519531 5.441406 33.519531 5.085938 L 33.519531 3.511719 L 43.734375 3.511719 C 43.894531 3.511719 44.027344 3.644531 44.027344 3.804688 L 44.027344 40.589844 C 44.027344 40.75 43.894531 40.882812 43.734375 40.882812 L 22.425781 40.882812 C 22.070312 40.882812 21.785156 41.167969 21.785156 41.523438 C 21.785156 41.878906 22.070312 42.167969 22.425781 42.167969 L 43.734375 42.167969 C 44.605469 42.167969 45.3125 41.460938 45.3125 40.589844 L 45.3125 3.804688 C 45.3125 2.933594 44.605469 2.226562 43.734375 2.226562 Z M 32.234375 4.441406 L 24.4375 4.441406 L 24.4375 1.296875 L 32.234375 1.296875 Z M 18.765625 12.59375 C 18.984375 12.3125 19.390625 12.269531 19.667969 12.488281 L 20.628906 13.257812 L 22.570312 10.765625 C 22.789062 10.484375 23.191406 10.433594 23.472656 10.652344 C 23.753906 10.871094 23.800781 11.277344 23.585938 11.554688 L 21.246094 14.558594 C 21.140625 14.695312 20.984375 14.78125 20.8125 14.800781 C 20.789062 14.804688 20.761719 14.804688 20.738281 14.804688 C 20.59375 14.804688 20.453125 14.757812 20.335938 14.667969 L 18.867188 13.496094 C 18.589844 13.273438 18.542969 12.871094 18.765625 12.59375 Z M 25.074219 11.492188 C 25.074219 11.136719 25.363281 10.847656 25.71875 10.847656 L 38.863281 10.847656 C 39.214844 10.847656 39.503906 11.136719 39.503906 11.492188 C 39.503906 11.847656 39.214844 12.132812 38.863281 12.132812 L 25.71875 12.132812 C 25.363281 12.132812 25.074219 11.847656 25.074219 11.492188 Z M 25.074219 14.191406 C 25.074219 13.835938 25.363281 13.550781 25.71875 13.550781 L 32.289062 13.550781 C 32.644531 13.550781 32.929688 13.835938 32.929688 14.191406 C 32.929688 14.546875 32.644531 14.835938 32.289062 14.835938 L 25.71875 14.835938 C 25.363281 14.835938 25.074219 14.546875 25.074219 14.191406 Z M 23.449219 27.507812 C 23.429688 27.277344 23.289062 27.074219 23.082031 26.976562 L 13.730469 22.570312 C 13.558594 22.492188 13.355469 22.492188 13.183594 22.574219 L 3.835938 26.976562 C 3.628906 27.074219 3.488281 27.277344 3.46875 27.507812 C 2.699219 37.140625 5.96875 43.679688 13.191406 46.953125 C 13.277344 46.992188 13.367188 47.011719 13.457031 47.011719 C 13.546875 47.011719 13.636719 46.992188 13.722656 46.953125 C 20.945312 43.683594 24.214844 37.140625 23.449219 27.507812 Z M 13.457031 45.660156 C 6.964844 42.601562 4.105469 36.8125 4.722656 27.980469 L 13.457031 23.863281 L 22.195312 27.980469 C 22.808594 36.8125 19.949219 42.601562 13.457031 45.660156 Z M 20.402344 28.785156 L 13.730469 25.644531 C 13.558594 25.5625 13.355469 25.5625 13.183594 25.644531 L 6.515625 28.785156 C 6.296875 28.890625 6.152344 29.105469 6.144531 29.347656 C 5.925781 36.355469 8.214844 41.089844 13.144531 43.828125 C 13.242188 43.882812 13.351562 43.90625 13.457031 43.90625 C 13.566406 43.90625 13.671875 43.882812 13.769531 43.828125 C 18.699219 41.089844 20.988281 36.355469 20.769531 29.347656 C 20.761719 29.105469 20.617188 28.890625 20.402344 28.785156 Z M 13.457031 42.523438 C 9.292969 40.066406 7.3125 35.890625 7.421875 29.78125 L 13.457031 26.933594 L 19.492188 29.78125 C 19.601562 35.890625 17.621094 40.070312 13.457031 42.523438 Z M 18.765625 19.992188 C 18.984375 19.714844 19.390625 19.667969 19.667969 19.890625 L 20.628906 20.65625 L 22.570312 18.167969 C 22.789062 17.886719 23.191406 17.839844 23.472656 18.058594 C 23.753906 18.273438 23.800781 18.679688 23.585938 18.957031 L 21.246094 21.960938 C 21.140625 22.09375 20.984375 22.183594 20.8125 22.203125 C 20.789062 22.203125 20.761719 22.207031 20.738281 22.207031 C 20.59375 22.207031 20.453125 22.15625 20.335938 22.066406 L 18.867188 20.894531 C 18.589844 20.675781 18.542969 20.269531 18.765625 19.992188 Z M 25.074219 18.894531 C 25.074219 18.539062 25.363281 18.25 25.71875 18.25 L 38.863281 18.25 C 39.214844 18.25 39.503906 18.539062 39.503906 18.894531 C 39.503906 19.25 39.214844 19.535156 38.863281 19.535156 L 25.71875 19.535156 C 25.363281 19.535156 25.074219 19.25 25.074219 18.894531 Z M 25.074219 21.59375 C 25.074219 21.238281 25.363281 20.949219 25.71875 20.949219 L 32.289062 20.949219 C 32.644531 20.949219 32.929688 21.238281 32.929688 21.59375 C 32.929688 21.949219 32.644531 22.234375 32.289062 22.234375 L 25.71875 22.234375 C 25.363281 22.234375 25.074219 21.949219 25.074219 21.59375 Z M 25.074219 21.59375 " fill-opacity="1" fill-rule="nonzero"/></g></svg>