<svg xmlns="http://www.w3.org/2000/svg" xmlns:xlink="http://www.w3.org/1999/xlink" width="64" zoomAndPan="magnify" viewBox="0 0 48 48" height="64" preserveAspectRatio="xMidYMid meet" version="1.0"><defs><clipPath id="08a1054158"><path d="M 2.046875 28 L 46 28 L 46 47 L 2.046875 47 Z M 2.046875 28 " clip-rule="nonzero"/></clipPath></defs><g clip-path="url(#08a1054158)"><path fill="#002060" d="M 45.335938 33.730469 C 44.40625 32.070312 42.488281 31.28125 40.664062 31.820312 L 29.398438 35.132812 C 29.035156 33.238281 27.660156 31.6875 25.753906 31.113281 L 18.371094 28.894531 C 18.214844 28.847656 18.050781 28.851562 17.894531 28.902344 L 11.09375 31.214844 L 11.09375 29.640625 C 11.09375 29.210938 10.742188 28.863281 10.3125 28.863281 L 2.847656 28.863281 C 2.417969 28.863281 2.066406 29.210938 2.066406 29.640625 L 2.066406 43.757812 C 2.066406 44.1875 2.417969 44.535156 2.847656 44.535156 L 10.3125 44.535156 C 10.742188 44.535156 11.09375 44.1875 11.09375 43.757812 L 11.09375 42.71875 C 14.207031 43.71875 22.371094 45.871094 26.226562 46.875 C 26.398438 46.921875 26.582031 46.90625 26.742188 46.832031 L 43.449219 39.394531 C 44.484375 38.933594 45.28125 38.050781 45.640625 36.980469 C 45.996094 35.90625 45.886719 34.722656 45.335938 33.730469 Z M 9.53125 42.976562 L 3.628906 42.976562 L 3.628906 30.421875 L 9.53125 30.421875 Z M 44.160156 36.484375 C 43.9375 37.15625 43.457031 37.683594 42.8125 37.96875 L 26.355469 45.296875 C 21.105469 43.925781 13.050781 41.761719 11.09375 41.089844 L 11.09375 32.859375 L 18.160156 30.460938 L 25.304688 32.609375 C 26.785156 33.050781 27.796875 34.339844 27.910156 35.855469 C 27.332031 36.398438 25.410156 37.828125 21.816406 37.117188 C 21.394531 37.027344 20.984375 37.304688 20.902344 37.730469 C 20.816406 38.152344 21.09375 38.5625 21.515625 38.644531 C 22.3125 38.804688 23.042969 38.871094 23.710938 38.871094 C 26.863281 38.871094 28.605469 37.378906 29.140625 36.832031 L 41.101562 33.316406 C 42.222656 32.988281 43.402344 33.46875 43.972656 34.488281 C 44.316406 35.109375 44.382812 35.816406 44.160156 36.484375 Z M 44.160156 36.484375 " fill-opacity="1" fill-rule="nonzero"/></g><path fill="#002060" d="M 7.277344 31.746094 L 5.882812 31.746094 C 5.449219 31.746094 5.101562 32.09375 5.101562 32.523438 C 5.101562 32.957031 5.449219 33.304688 5.882812 33.304688 L 7.277344 33.304688 C 7.707031 33.304688 8.058594 32.957031 8.058594 32.523438 C 8.058594 32.09375 7.707031 31.746094 7.277344 31.746094 Z M 7.277344 31.746094 " fill-opacity="1" fill-rule="nonzero"/><path fill="#002060" d="M 23.957031 25.070312 C 30.835938 25.070312 36.433594 19.472656 36.433594 12.59375 C 36.433594 5.714844 30.835938 0.117188 23.957031 0.117188 C 17.078125 0.117188 11.480469 5.714844 11.480469 12.59375 C 11.480469 19.472656 17.078125 25.070312 23.957031 25.070312 Z M 23.957031 1.679688 C 29.976562 1.679688 34.875 6.574219 34.875 12.59375 C 34.875 18.613281 29.976562 23.511719 23.957031 23.511719 C 17.9375 23.511719 13.042969 18.613281 13.042969 12.59375 C 13.042969 6.574219 17.9375 1.679688 23.957031 1.679688 Z M 23.957031 1.679688 " fill-opacity="1" fill-rule="nonzero"/><path fill="#002060" d="M 21.617188 15.714844 C 21.617188 15.28125 21.269531 14.933594 20.839844 14.933594 C 20.40625 14.933594 20.058594 15.28125 20.058594 15.714844 C 20.058594 17.59375 21.402344 19.171875 23.175781 19.53125 L 23.175781 20.84375 C 23.175781 21.273438 23.527344 21.625 23.957031 21.625 C 24.386719 21.625 24.738281 21.273438 24.738281 20.84375 L 24.738281 19.53125 C 26.515625 19.171875 27.855469 17.597656 27.855469 15.714844 C 27.855469 13.828125 26.515625 12.253906 24.738281 11.894531 L 24.738281 7.28125 C 25.640625 7.601562 26.296875 8.460938 26.296875 9.476562 C 26.296875 9.90625 26.644531 10.253906 27.078125 10.253906 C 27.507812 10.253906 27.855469 9.90625 27.855469 9.476562 C 27.855469 7.59375 26.515625 6.019531 24.738281 5.65625 L 24.738281 4.34375 C 24.738281 3.914062 24.386719 3.566406 23.957031 3.566406 C 23.527344 3.566406 23.175781 3.914062 23.175781 4.34375 L 23.175781 5.65625 C 21.402344 6.019531 20.058594 7.59375 20.058594 9.476562 C 20.058594 11.359375 21.402344 12.933594 23.175781 13.296875 L 23.175781 17.910156 C 22.273438 17.585938 21.617188 16.726562 21.617188 15.714844 Z M 26.296875 15.714844 C 26.296875 16.726562 25.640625 17.585938 24.738281 17.910156 L 24.738281 13.519531 C 25.640625 13.839844 26.296875 14.699219 26.296875 15.714844 Z M 21.617188 9.476562 C 21.617188 8.460938 22.273438 7.601562 23.175781 7.28125 L 23.175781 11.671875 C 22.273438 11.347656 21.617188 10.488281 21.617188 9.472656 Z M 21.617188 9.476562 " fill-opacity="1" fill-rule="nonzero"/></svg>