<svg xmlns="http://www.w3.org/2000/svg" xmlns:xlink="http://www.w3.org/1999/xlink" width="64" zoomAndPan="magnify" viewBox="0 0 48 48" height="64" preserveAspectRatio="xMidYMid meet" version="1.0"><defs><clipPath id="1baf74f400"><path d="M 9 38 L 37 38 L 37 45.550781 L 9 45.550781 Z M 9 38 " clip-rule="nonzero"/></clipPath></defs><path fill="#c00000" d="M 24 17.730469 C 20.710938 17.730469 18.007812 20.398438 18.007812 23.722656 C 18.007812 27.011719 20.710938 29.714844 24 29.714844 C 27.289062 29.714844 29.992188 27.046875 29.992188 23.722656 C 29.992188 20.433594 27.289062 17.730469 24 17.730469 Z M 24 28.328125 C 21.472656 28.328125 19.394531 26.25 19.394531 23.722656 C 19.394531 21.195312 21.472656 19.117188 24 19.117188 C 26.527344 19.117188 28.605469 21.195312 28.605469 23.722656 C 28.605469 26.25 26.527344 28.328125 24 28.328125 Z M 24 28.328125 " fill-opacity="1" fill-rule="nonzero"/><path fill="#c00000" d="M 39.617188 28.742188 C 39.445312 27.980469 38.996094 27.359375 38.371094 27.011719 L 36.8125 26.113281 C 36.953125 25.316406 37.019531 24.519531 37.019531 23.757812 C 37.019531 22.613281 36.917969 21.609375 36.640625 20.605469 L 38.199219 19.671875 C 39.582031 18.875 40.035156 17.382812 39.308594 16.101562 L 38.023438 13.886719 C 37.507812 13.019531 36.535156 12.433594 35.53125 12.433594 C 35.082031 12.433594 34.632812 12.535156 34.214844 12.777344 L 32.449219 13.816406 C 31.097656 12.640625 29.539062 11.773438 27.808594 11.253906 L 27.808594 9.28125 C 27.808594 7.6875 26.734375 6.546875 25.28125 6.546875 L 22.71875 6.546875 C 21.160156 6.511719 19.84375 7.792969 19.84375 9.28125 L 19.84375 11.359375 C 18.183594 11.914062 16.625 12.8125 15.273438 14.058594 L 13.609375 13.089844 C 13.125 12.8125 12.605469 12.675781 12.085938 12.675781 C 11.1875 12.675781 10.425781 13.125 9.976562 13.921875 L 8.691406 16.136719 C 8.347656 16.761719 8.207031 17.523438 8.382812 18.25 C 8.554688 19.011719 9.003906 19.636719 9.664062 20.015625 L 11.289062 20.917969 C 11.082031 21.851562 10.980469 22.785156 10.980469 23.757812 C 10.980469 24.65625 11.082031 25.59375 11.257812 26.457031 L 9.800781 27.289062 C 8.417969 28.085938 7.964844 29.574219 8.691406 30.855469 L 9.976562 33.070312 C 10.492188 33.9375 11.464844 34.527344 12.46875 34.527344 C 12.917969 34.527344 13.367188 34.421875 13.785156 34.179688 L 15.203125 33.347656 C 16.625 34.664062 18.355469 35.636719 20.191406 36.1875 L 20.191406 37.679688 C 20.191406 39.269531 21.265625 40.414062 22.71875 40.414062 L 25.28125 40.414062 C 26.839844 40.414062 28.15625 39.167969 28.15625 37.644531 L 28.121094 36.050781 C 29.957031 35.425781 31.652344 34.421875 33.039062 33.070312 L 34.390625 33.867188 C 34.875 34.144531 35.394531 34.285156 35.914062 34.285156 C 36.8125 34.285156 37.574219 33.835938 38.023438 33.039062 L 39.308594 30.820312 C 39.6875 30.234375 39.792969 29.4375 39.617188 28.742188 Z M 38.128906 30.164062 L 36.847656 32.378906 C 36.605469 32.828125 36.191406 32.933594 35.914062 32.933594 C 35.636719 32.933594 35.359375 32.863281 35.082031 32.691406 L 32.796875 31.375 L 32.414062 31.757812 C 30.996094 33.246094 29.195312 34.351562 27.21875 34.90625 L 26.703125 35.046875 L 26.769531 37.679688 C 26.769531 38.40625 26.078125 39.027344 25.28125 39.027344 L 22.71875 39.027344 C 21.886719 39.027344 21.574219 38.300781 21.574219 37.679688 L 21.574219 35.148438 L 21.054688 35.011719 C 19.082031 34.492188 17.246094 33.453125 15.792969 32 L 15.410156 31.617188 L 13.089844 32.96875 C 12.917969 33.070312 12.710938 33.140625 12.46875 33.140625 C 11.949219 33.140625 11.429688 32.828125 11.152344 32.378906 L 9.871094 30.164062 C 9.457031 29.4375 9.941406 28.8125 10.492188 28.5 L 12.847656 27.148438 L 12.710938 26.632812 C 12.46875 25.695312 12.363281 24.726562 12.363281 23.757812 C 12.363281 22.753906 12.503906 21.746094 12.746094 20.742188 L 12.882812 20.222656 L 10.320312 18.804688 C 10.007812 18.632812 9.800781 18.320312 9.730469 17.9375 C 9.628906 17.558594 9.699219 17.140625 9.90625 16.832031 L 11.1875 14.613281 C 11.429688 14.164062 11.84375 14.058594 12.121094 14.058594 C 12.398438 14.058594 12.675781 14.128906 12.953125 14.300781 L 15.515625 15.792969 L 15.894531 15.410156 C 17.351562 13.992188 18.945312 13.054688 20.78125 12.535156 L 21.230469 12.398438 L 21.230469 9.28125 C 21.230469 8.554688 21.921875 7.929688 22.71875 7.929688 L 25.28125 7.929688 C 26.113281 7.929688 26.425781 8.65625 26.425781 9.316406 L 26.457031 12.363281 L 26.976562 12.5 C 28.847656 12.988281 30.546875 13.921875 31.929688 15.203125 L 32.3125 15.550781 L 34.941406 13.992188 C 35.117188 13.886719 35.324219 13.816406 35.566406 13.816406 C 36.085938 13.816406 36.605469 14.128906 36.882812 14.578125 L 38.164062 16.796875 C 38.578125 17.523438 38.09375 18.144531 37.539062 18.457031 L 35.046875 19.914062 L 35.21875 20.433594 C 35.53125 21.472656 35.671875 22.511719 35.671875 23.722656 C 35.671875 24.585938 35.566406 25.453125 35.394531 26.285156 L 35.289062 26.769531 L 37.714844 28.15625 C 38.023438 28.328125 38.234375 28.640625 38.300781 29.019531 C 38.371094 29.4375 38.300781 29.816406 38.128906 30.164062 Z M 38.128906 30.164062 " fill-opacity="1" fill-rule="nonzero"/><path fill="#c00000" d="M 11.777344 6.546875 C 11.914062 6.546875 12.050781 6.511719 12.191406 6.40625 C 18.492188 1.90625 27.1875 1.453125 34.007812 5.160156 L 31.792969 6.09375 L 38.960938 8.035156 L 35.1875 1.628906 L 34.875 4.085938 C 27.53125 0 18.183594 0.449219 11.359375 5.296875 C 11.046875 5.507812 10.980469 5.957031 11.1875 6.269531 C 11.324219 6.441406 11.566406 6.546875 11.777344 6.546875 Z M 11.777344 6.546875 " fill-opacity="1" fill-rule="nonzero"/><path fill="#c00000" d="M 5.714844 13.472656 L 6.648438 15.6875 L 8.589844 8.519531 L 2.148438 12.292969 L 4.605469 12.605469 C 0.519531 19.945312 0.96875 29.296875 5.820312 36.121094 C 5.957031 36.292969 6.164062 36.398438 6.375 36.398438 C 6.511719 36.398438 6.648438 36.363281 6.789062 36.257812 C 7.101562 36.050781 7.167969 35.601562 6.960938 35.289062 C 2.460938 28.984375 1.976562 20.328125 5.714844 13.472656 Z M 5.714844 13.472656 " fill-opacity="1" fill-rule="nonzero"/><g clip-path="url(#1baf74f400)"><path fill="#c00000" d="M 35.84375 40.519531 C 29.539062 45.019531 20.847656 45.46875 13.992188 41.765625 L 16.207031 40.828125 L 9.039062 38.890625 L 12.8125 45.296875 L 13.125 42.839844 C 16.449219 44.707031 20.191406 45.609375 23.929688 45.609375 C 28.433594 45.609375 32.898438 44.257812 36.640625 41.625 C 36.953125 41.417969 37.019531 40.96875 36.8125 40.65625 C 36.570312 40.378906 36.15625 40.308594 35.84375 40.519531 Z M 35.84375 40.519531 " fill-opacity="1" fill-rule="nonzero"/></g><path fill="#c00000" d="M 42.179688 10.839844 C 41.972656 10.527344 41.523438 10.457031 41.210938 10.667969 C 40.898438 10.875 40.832031 11.324219 41.039062 11.636719 C 45.539062 17.9375 45.992188 26.632812 42.285156 33.453125 L 41.351562 31.238281 L 39.410156 38.40625 L 45.816406 34.628906 L 43.359375 34.320312 C 47.480469 27.011719 47.03125 17.660156 42.179688 10.839844 Z M 42.179688 10.839844 " fill-opacity="1" fill-rule="nonzero"/></svg>