<svg xmlns="http://www.w3.org/2000/svg" xmlns:xlink="http://www.w3.org/1999/xlink" width="64" zoomAndPan="magnify" viewBox="0 0 48 48" height="64" preserveAspectRatio="xMidYMid meet" version="1.0"><defs><clipPath id="7bb8d03144"><path d="M 16 15 L 41 15 L 41 43.347656 L 16 43.347656 Z M 16 15 " clip-rule="nonzero"/></clipPath><clipPath id="60d153becd"><path d="M 33 28 L 47.507812 28 L 47.507812 39 L 33 39 Z M 33 28 " clip-rule="nonzero"/></clipPath><clipPath id="e14dbd2869"><path d="M 0.488281 0 L 33 0 L 33 32 L 0.488281 32 Z M 0.488281 0 " clip-rule="nonzero"/></clipPath></defs><g clip-path="url(#7bb8d03144)"><path fill="#c00000" d="M 29.78125 17.226562 C 23.308594 17.582031 18.152344 22.960938 18.152344 29.523438 C 18.152344 36.3125 23.675781 41.835938 30.464844 41.835938 C 33.527344 41.835938 36.417969 40.726562 38.675781 38.699219 L 29.984375 30.003906 C 29.855469 29.875 29.78125 29.703125 29.78125 29.523438 Z M 30.464844 43.199219 C 22.921875 43.199219 16.785156 37.066406 16.785156 29.523438 C 16.785156 21.980469 22.921875 15.84375 30.464844 15.84375 C 30.84375 15.84375 31.148438 16.148438 31.148438 16.527344 L 31.148438 29.238281 L 40.136719 38.230469 C 40.402344 38.496094 40.402344 38.929688 40.136719 39.195312 C 37.554688 41.777344 34.121094 43.199219 30.464844 43.199219 " fill-opacity="1" fill-rule="nonzero"/></g><path fill="#c00000" d="M 33.523438 25.992188 L 45.136719 25.992188 C 44.792969 19.742188 39.769531 14.722656 33.523438 14.378906 Z M 45.835938 27.355469 L 32.839844 27.355469 C 32.460938 27.355469 32.15625 27.050781 32.15625 26.675781 L 32.15625 13.679688 C 32.15625 13.300781 32.460938 12.996094 32.839844 12.996094 C 40.382812 12.996094 46.519531 19.132812 46.519531 26.675781 C 46.519531 27.050781 46.210938 27.355469 45.835938 27.355469 " fill-opacity="1" fill-rule="nonzero"/><g clip-path="url(#60d153becd)"><path fill="#c00000" d="M 35.433594 29.730469 L 42.964844 37.257812 C 44.84375 35.167969 45.933594 32.535156 46.085938 29.730469 Z M 42.976562 38.917969 C 42.804688 38.917969 42.628906 38.855469 42.496094 38.71875 L 33.304688 29.53125 C 33.109375 29.335938 33.050781 29.042969 33.15625 28.789062 C 33.261719 28.53125 33.511719 28.367188 33.789062 28.367188 L 46.785156 28.367188 C 47.160156 28.367188 47.46875 28.671875 47.46875 29.046875 C 47.46875 32.703125 46.042969 36.136719 43.460938 38.71875 C 43.328125 38.855469 43.152344 38.917969 42.976562 38.917969 " fill-opacity="1" fill-rule="nonzero"/></g><path fill="#c00000" d="M 15.386719 28.191406 C 15.367188 28.191406 15.351562 28.191406 15.332031 28.1875 C 8.929688 27.679688 3.914062 22.242188 3.914062 15.8125 C 3.914062 8.964844 9.484375 3.394531 16.328125 3.394531 C 22.8125 3.394531 28.132812 8.261719 28.699219 14.710938 C 28.734375 15.085938 28.453125 15.417969 28.082031 15.449219 C 27.707031 15.488281 27.375 15.207031 27.339844 14.828125 C 26.84375 9.183594 22.007812 4.757812 16.328125 4.757812 C 10.238281 4.757812 5.277344 9.714844 5.277344 15.8125 C 5.277344 21.535156 9.742188 26.375 15.441406 26.832031 C 15.816406 26.859375 16.097656 27.1875 16.066406 27.5625 C 16.039062 27.921875 15.738281 28.191406 15.386719 28.191406 " fill-opacity="1" fill-rule="nonzero"/><g clip-path="url(#e14dbd2869)"><path fill="#c00000" d="M 15.386719 31.597656 C 15.375 31.597656 15.359375 31.59375 15.34375 31.59375 C 7.03125 31.085938 0.515625 24.152344 0.515625 15.8125 C 0.515625 7.089844 7.609375 -0.00390625 16.328125 -0.00390625 C 24.609375 -0.00390625 31.539062 6.460938 32.105469 14.714844 C 32.132812 15.089844 31.847656 15.414062 31.472656 15.441406 C 31.105469 15.453125 30.773438 15.183594 30.746094 14.808594 C 30.226562 7.265625 23.894531 1.359375 16.328125 1.359375 C 8.363281 1.359375 1.878906 7.84375 1.878906 15.8125 C 1.878906 23.429688 7.832031 29.765625 15.429688 30.234375 C 15.804688 30.257812 16.089844 30.578125 16.066406 30.957031 C 16.046875 31.316406 15.746094 31.597656 15.386719 31.597656 " fill-opacity="1" fill-rule="nonzero"/></g><path fill="#c00000" d="M 17.28125 21.03125 L 15.378906 21.03125 C 13.75 21.03125 12.425781 19.707031 12.425781 18.078125 C 12.425781 17.703125 12.734375 17.398438 13.109375 17.398438 C 13.488281 17.398438 13.792969 17.703125 13.792969 18.078125 C 13.792969 18.957031 14.503906 19.667969 15.378906 19.667969 L 17.28125 19.667969 C 18.15625 19.667969 18.867188 18.957031 18.867188 18.078125 C 18.867188 17.203125 18.15625 16.492188 17.28125 16.492188 L 15.378906 16.492188 C 13.75 16.492188 12.425781 15.167969 12.425781 13.542969 C 12.425781 11.914062 13.75 10.589844 15.378906 10.589844 L 17.28125 10.589844 C 18.910156 10.589844 20.234375 11.914062 20.234375 13.542969 C 20.234375 13.917969 19.929688 14.222656 19.550781 14.222656 C 19.175781 14.222656 18.867188 13.917969 18.867188 13.542969 C 18.867188 12.667969 18.15625 11.953125 17.28125 11.953125 L 15.378906 11.953125 C 14.503906 11.953125 13.792969 12.667969 13.792969 13.542969 C 13.792969 14.417969 14.503906 15.128906 15.378906 15.128906 L 17.28125 15.128906 C 18.910156 15.128906 20.234375 16.453125 20.234375 18.078125 C 20.234375 19.707031 18.910156 21.03125 17.28125 21.03125 " fill-opacity="1" fill-rule="nonzero"/><path fill="#c00000" d="M 16.328125 11.953125 C 15.953125 11.953125 15.648438 11.648438 15.648438 11.273438 L 15.648438 9.175781 C 15.648438 8.796875 15.953125 8.492188 16.328125 8.492188 C 16.707031 8.492188 17.011719 8.796875 17.011719 9.175781 L 17.011719 11.273438 C 17.011719 11.648438 16.707031 11.953125 16.328125 11.953125 " fill-opacity="1" fill-rule="nonzero"/><path fill="#c00000" d="M 16.328125 23.132812 C 15.953125 23.132812 15.648438 22.824219 15.648438 22.449219 L 15.648438 20.351562 C 15.648438 19.972656 15.953125 19.667969 16.328125 19.667969 C 16.707031 19.667969 17.011719 19.972656 17.011719 20.351562 L 17.011719 22.449219 C 17.011719 22.824219 16.707031 23.132812 16.328125 23.132812 " fill-opacity="1" fill-rule="nonzero"/></svg>