<svg xmlns="http://www.w3.org/2000/svg" xmlns:xlink="http://www.w3.org/1999/xlink" width="64" zoomAndPan="magnify" viewBox="0 0 48 48" height="64" preserveAspectRatio="xMidYMid meet" version="1.0"><defs><clipPath id="a8c94cd97d"><path d="M 0.488281 0 L 47.507812 0 L 47.507812 47.019531 L 0.488281 47.019531 Z M 0.488281 0 " clip-rule="nonzero"/></clipPath></defs><g clip-path="url(#a8c94cd97d)"><path fill="#002060" d="M 46.84375 45.6875 L 44.5 45.6875 L 44.5 14.617188 C 44.5 14.25 44.199219 13.953125 43.832031 13.953125 L 35.183594 13.953125 L 35.183594 0.667969 C 35.183594 0.296875 34.886719 0 34.519531 0 L 13.480469 0 C 13.113281 0 12.816406 0.296875 12.816406 0.667969 L 12.816406 13.953125 L 4.167969 13.953125 C 3.800781 13.953125 3.5 14.25 3.5 14.617188 L 3.5 45.6875 L 1.15625 45.6875 C 0.789062 45.6875 0.488281 45.984375 0.488281 46.355469 C 0.488281 46.722656 0.789062 47.019531 1.15625 47.019531 L 46.84375 47.019531 C 47.210938 47.019531 47.511719 46.722656 47.511719 46.355469 C 47.511719 45.984375 47.210938 45.6875 46.84375 45.6875 Z M 43.167969 15.285156 L 43.167969 45.6875 L 35.183594 45.6875 L 35.183594 15.285156 Z M 33.851562 1.332031 L 33.851562 45.6875 L 28.777344 45.6875 L 28.777344 34.109375 C 28.777344 33.738281 28.480469 33.441406 28.113281 33.441406 L 19.886719 33.441406 C 19.519531 33.441406 19.222656 33.738281 19.222656 34.109375 L 19.222656 45.6875 L 14.148438 45.6875 L 14.148438 1.332031 Z M 27.445312 45.6875 L 20.554688 45.6875 L 20.554688 34.773438 L 27.445312 34.773438 Z M 4.832031 15.285156 L 12.816406 15.285156 L 12.816406 45.6875 L 4.832031 45.6875 Z M 17.507812 10.570312 L 21.914062 10.570312 C 22.28125 10.570312 22.578125 10.273438 22.578125 9.90625 L 22.578125 4.503906 C 22.578125 4.132812 22.28125 3.835938 21.914062 3.835938 L 17.507812 3.835938 C 17.140625 3.835938 16.84375 4.132812 16.84375 4.503906 L 16.84375 9.90625 C 16.84375 10.273438 17.140625 10.570312 17.507812 10.570312 Z M 18.175781 5.167969 L 21.246094 5.167969 L 21.246094 9.238281 L 18.175781 9.238281 Z M 26.085938 10.570312 L 30.492188 10.570312 C 30.859375 10.570312 31.15625 10.273438 31.15625 9.90625 L 31.15625 4.503906 C 31.15625 4.132812 30.859375 3.835938 30.492188 3.835938 L 26.085938 3.835938 C 25.71875 3.835938 25.421875 4.132812 25.421875 4.503906 L 25.421875 9.90625 C 25.421875 10.273438 25.71875 10.570312 26.085938 10.570312 Z M 26.753906 5.167969 L 29.824219 5.167969 L 29.824219 9.238281 L 26.753906 9.238281 Z M 17.507812 20.671875 L 21.914062 20.671875 C 22.28125 20.671875 22.578125 20.371094 22.578125 20.003906 L 22.578125 14.601562 C 22.578125 14.234375 22.28125 13.933594 21.914062 13.933594 L 17.507812 13.933594 C 17.140625 13.933594 16.84375 14.234375 16.84375 14.601562 L 16.84375 20.003906 C 16.84375 20.371094 17.140625 20.671875 17.507812 20.671875 Z M 18.175781 15.265625 L 21.246094 15.265625 L 21.246094 19.335938 L 18.175781 19.335938 Z M 26.085938 20.671875 L 30.492188 20.671875 C 30.859375 20.671875 31.15625 20.371094 31.15625 20.003906 L 31.15625 14.601562 C 31.15625 14.234375 30.859375 13.933594 30.492188 13.933594 L 26.085938 13.933594 C 25.71875 13.933594 25.421875 14.234375 25.421875 14.601562 L 25.421875 20.003906 C 25.421875 20.371094 25.71875 20.671875 26.085938 20.671875 Z M 26.753906 15.265625 L 29.824219 15.265625 L 29.824219 19.335938 L 26.753906 19.335938 Z M 17.507812 30.769531 L 21.914062 30.769531 C 22.28125 30.769531 22.578125 30.472656 22.578125 30.101562 L 22.578125 24.699219 C 22.578125 24.332031 22.28125 24.035156 21.914062 24.035156 L 17.507812 24.035156 C 17.140625 24.035156 16.84375 24.332031 16.84375 24.699219 L 16.84375 30.101562 C 16.84375 30.472656 17.140625 30.769531 17.507812 30.769531 Z M 18.175781 25.367188 L 21.246094 25.367188 L 21.246094 29.4375 L 18.175781 29.4375 Z M 26.085938 30.769531 L 30.492188 30.769531 C 30.859375 30.769531 31.15625 30.472656 31.15625 30.101562 L 31.15625 24.699219 C 31.15625 24.332031 30.859375 24.035156 30.492188 24.035156 L 26.085938 24.035156 C 25.71875 24.035156 25.421875 24.332031 25.421875 24.699219 L 25.421875 30.101562 C 25.421875 30.472656 25.71875 30.769531 26.085938 30.769531 Z M 26.753906 25.367188 L 29.824219 25.367188 L 29.824219 29.4375 L 26.753906 29.4375 Z M 26.753906 25.367188 " fill-opacity="1" fill-rule="nonzero"/></g></svg>