<svg xmlns="http://www.w3.org/2000/svg" xmlns:xlink="http://www.w3.org/1999/xlink" width="64" zoomAndPan="magnify" viewBox="0 0 48 48" height="64" preserveAspectRatio="xMidYMid meet" version="1.0"><defs><clipPath id="6518e00c19"><path d="M 0.488281 0 L 44.570312 0 L 44.570312 47.019531 L 0.488281 47.019531 Z M 0.488281 0 " clip-rule="nonzero"/></clipPath></defs><g clip-path="url(#6518e00c19)"><path fill="#c00000" d="M 43.46875 45.066406 L 39.558594 45.066406 L 39.558594 42.136719 L 42.492188 42.136719 C 43.03125 42.136719 43.46875 41.699219 43.46875 41.160156 L 43.46875 14.789062 C 43.46875 14.445312 43.289062 14.125 42.992188 13.949219 C 37.816406 10.84375 38.050781 10.96875 37.867188 10.917969 C 37.832031 10.90625 37.792969 10.898438 37.753906 10.890625 C 37.742188 10.890625 37.730469 10.890625 37.714844 10.886719 C 37.632812 10.878906 37.546875 10.878906 37.472656 10.890625 C 37.367188 10.90625 34.25 11.425781 31.746094 11.84375 L 31.746094 5.019531 C 31.746094 4.722656 31.613281 4.441406 31.378906 4.257812 C 26.054688 0 26.480469 0.324219 26.347656 0.253906 C 26.191406 0.167969 26.015625 0.132812 25.847656 0.136719 C 25.820312 0.140625 25.792969 0.140625 25.761719 0.144531 C 25.753906 0.148438 25.691406 0.152344 25.59375 0.179688 C 25.503906 0.210938 21.269531 2.144531 13.761719 5.5625 C 13.410156 5.722656 13.1875 6.070312 13.1875 6.453125 L 13.1875 13.378906 C 6.351562 10.816406 6.675781 10.929688 6.550781 10.902344 C 6.425781 10.875 6.292969 10.875 6.164062 10.898438 C 6.148438 10.902344 6.136719 10.90625 6.125 10.90625 C 6.039062 10.925781 5.96875 10.953125 5.886719 10.996094 C 5.875 11.003906 5.863281 11.011719 5.851562 11.019531 C 5.832031 11.03125 5.8125 11.042969 5.796875 11.054688 C 5.789062 11.058594 5.785156 11.0625 5.777344 11.066406 C 5.707031 11.117188 2.832031 13.277344 1.859375 14.007812 C 1.613281 14.191406 1.46875 14.480469 1.46875 14.789062 L 1.46875 41.160156 C 1.46875 41.699219 1.90625 42.136719 2.445312 42.136719 L 3.421875 42.136719 L 3.421875 45.066406 L 1.46875 45.066406 C 0.929688 45.066406 0.492188 45.503906 0.492188 46.042969 C 0.492188 46.582031 0.929688 47.019531 1.46875 47.019531 C 2.03125 47.019531 42.890625 47.019531 43.46875 47.019531 C 44.007812 47.019531 44.445312 46.582031 44.445312 46.042969 C 44.445312 45.503906 44.007812 45.066406 43.46875 45.066406 Z M 37.605469 45.066406 L 34.675781 45.066406 L 34.675781 42.136719 L 37.605469 42.136719 Z M 41.515625 40.183594 L 38.582031 40.183594 L 38.582031 13.582031 L 41.515625 15.339844 Z M 36.628906 40.183594 L 34.675781 40.183594 L 34.675781 36.277344 C 34.675781 35.738281 34.238281 35.300781 33.699219 35.300781 L 26.863281 35.300781 L 26.863281 14.636719 L 36.628906 13.011719 Z M 29.792969 12.167969 L 26.863281 12.65625 L 26.863281 3.144531 L 29.792969 5.488281 Z M 15.140625 7.082031 L 24.910156 2.632812 C 24.910156 3.917969 24.910156 33.761719 24.910156 35.300781 L 18.070312 35.300781 C 17.53125 35.300781 17.09375 35.738281 17.09375 36.277344 L 17.09375 40.183594 L 15.140625 40.183594 C 15.140625 38.597656 15.140625 8.644531 15.140625 7.082031 Z M 13.1875 40.183594 L 7.328125 40.183594 L 7.328125 13.265625 L 13.1875 15.464844 Z M 3.421875 15.277344 L 5.375 13.8125 L 5.375 40.183594 C 4.691406 40.183594 4.105469 40.183594 3.421875 40.183594 Z M 5.375 42.136719 C 7.746094 42.136719 14.714844 42.136719 17.09375 42.136719 L 17.09375 45.066406 L 5.375 45.066406 Z M 19.050781 45.066406 C 19.050781 44.121094 19.050781 38.203125 19.050781 37.253906 C 20.703125 37.253906 31.058594 37.253906 32.722656 37.253906 C 32.722656 38.199219 32.722656 44.113281 32.722656 45.066406 Z M 19.050781 45.066406 " fill-opacity="1" fill-rule="nonzero"/></g><path fill="#c00000" d="M 17.09375 7.949219 L 19.050781 7.949219 L 19.050781 11.855469 L 17.09375 11.855469 Z M 17.09375 7.949219 " fill-opacity="1" fill-rule="nonzero"/><path fill="#c00000" d="M 20.027344 7.949219 L 21.980469 7.949219 L 21.980469 11.855469 L 20.027344 11.855469 Z M 20.027344 7.949219 " fill-opacity="1" fill-rule="nonzero"/><path fill="#c00000" d="M 17.09375 12.835938 L 19.050781 12.835938 L 19.050781 16.742188 L 17.09375 16.742188 Z M 17.09375 12.835938 " fill-opacity="1" fill-rule="nonzero"/><path fill="#c00000" d="M 20.027344 12.835938 L 21.980469 12.835938 L 21.980469 16.742188 L 20.027344 16.742188 Z M 20.027344 12.835938 " fill-opacity="1" fill-rule="nonzero"/><path fill="#c00000" d="M 17.09375 17.71875 L 19.050781 17.71875 L 19.050781 21.625 L 17.09375 21.625 Z M 17.09375 17.71875 " fill-opacity="1" fill-rule="nonzero"/><path fill="#c00000" d="M 20.027344 17.71875 L 21.980469 17.71875 L 21.980469 21.625 L 20.027344 21.625 Z M 20.027344 17.71875 " fill-opacity="1" fill-rule="nonzero"/><path fill="#c00000" d="M 17.09375 22.601562 L 19.050781 22.601562 L 19.050781 26.507812 L 17.09375 26.507812 Z M 17.09375 22.601562 " fill-opacity="1" fill-rule="nonzero"/><path fill="#c00000" d="M 9.28125 17.71875 L 11.234375 17.71875 L 11.234375 21.625 L 9.28125 21.625 Z M 9.28125 17.71875 " fill-opacity="1" fill-rule="nonzero"/><path fill="#c00000" d="M 9.28125 22.601562 L 11.234375 22.601562 L 11.234375 26.507812 L 9.28125 26.507812 Z M 9.28125 22.601562 " fill-opacity="1" fill-rule="nonzero"/><path fill="#c00000" d="M 9.28125 27.484375 L 11.234375 27.484375 L 11.234375 31.390625 L 9.28125 31.390625 Z M 9.28125 27.484375 " fill-opacity="1" fill-rule="nonzero"/><path fill="#c00000" d="M 9.28125 32.367188 L 11.234375 32.367188 L 11.234375 36.277344 L 9.28125 36.277344 Z M 9.28125 32.367188 " fill-opacity="1" fill-rule="nonzero"/><path fill="#c00000" d="M 20.027344 22.601562 L 21.980469 22.601562 L 21.980469 26.507812 L 20.027344 26.507812 Z M 20.027344 22.601562 " fill-opacity="1" fill-rule="nonzero"/><path fill="#c00000" d="M 27.839844 15.765625 L 29.792969 15.765625 L 29.792969 18.695312 L 27.839844 18.695312 Z M 27.839844 15.765625 " fill-opacity="1" fill-rule="nonzero"/><path fill="#c00000" d="M 30.769531 15.765625 L 32.722656 15.765625 L 32.722656 18.695312 L 30.769531 18.695312 Z M 30.769531 15.765625 " fill-opacity="1" fill-rule="nonzero"/><path fill="#c00000" d="M 33.699219 15.765625 L 35.652344 15.765625 L 35.652344 18.695312 L 33.699219 18.695312 Z M 33.699219 15.765625 " fill-opacity="1" fill-rule="nonzero"/><path fill="#c00000" d="M 27.839844 19.671875 L 29.792969 19.671875 L 29.792969 22.601562 L 27.839844 22.601562 Z M 27.839844 19.671875 " fill-opacity="1" fill-rule="nonzero"/><path fill="#c00000" d="M 30.769531 19.671875 L 32.722656 19.671875 L 32.722656 22.601562 L 30.769531 22.601562 Z M 30.769531 19.671875 " fill-opacity="1" fill-rule="nonzero"/><path fill="#c00000" d="M 33.699219 19.671875 L 35.652344 19.671875 L 35.652344 22.601562 L 33.699219 22.601562 Z M 33.699219 19.671875 " fill-opacity="1" fill-rule="nonzero"/><path fill="#c00000" d="M 27.839844 23.578125 L 29.792969 23.578125 L 29.792969 26.507812 L 27.839844 26.507812 Z M 27.839844 23.578125 " fill-opacity="1" fill-rule="nonzero"/><path fill="#c00000" d="M 30.769531 23.578125 L 32.722656 23.578125 L 32.722656 26.507812 L 30.769531 26.507812 Z M 30.769531 23.578125 " fill-opacity="1" fill-rule="nonzero"/><path fill="#c00000" d="M 33.699219 23.578125 L 35.652344 23.578125 L 35.652344 26.507812 L 33.699219 26.507812 Z M 33.699219 23.578125 " fill-opacity="1" fill-rule="nonzero"/><path fill="#c00000" d="M 27.839844 27.484375 L 29.792969 27.484375 L 29.792969 30.414062 L 27.839844 30.414062 Z M 27.839844 27.484375 " fill-opacity="1" fill-rule="nonzero"/><path fill="#c00000" d="M 30.769531 27.484375 L 32.722656 27.484375 L 32.722656 30.414062 L 30.769531 30.414062 Z M 30.769531 27.484375 " fill-opacity="1" fill-rule="nonzero"/><path fill="#c00000" d="M 27.839844 31.390625 L 29.792969 31.390625 L 29.792969 34.324219 L 27.839844 34.324219 Z M 27.839844 31.390625 " fill-opacity="1" fill-rule="nonzero"/><path fill="#c00000" d="M 17.09375 27.484375 L 19.050781 27.484375 L 19.050781 31.390625 L 17.09375 31.390625 Z M 17.09375 27.484375 " fill-opacity="1" fill-rule="nonzero"/><path fill="#c00000" d="M 21.003906 38.230469 L 30.769531 38.230469 L 30.769531 40.183594 L 21.003906 40.183594 Z M 21.003906 38.230469 " fill-opacity="1" fill-rule="nonzero"/><path fill="#c00000" d="M 21.003906 41.160156 L 30.769531 41.160156 L 30.769531 43.113281 L 21.003906 43.113281 Z M 21.003906 41.160156 " fill-opacity="1" fill-rule="nonzero"/></svg>