<svg xmlns="http://www.w3.org/2000/svg" xmlns:xlink="http://www.w3.org/1999/xlink" width="64" zoomAndPan="magnify" viewBox="0 0 48 48" height="64" preserveAspectRatio="xMidYMid meet" version="1.0"><defs><clipPath id="f59cbe3f76"><path d="M 5.191406 0 L 42.660156 0 L 42.660156 47.019531 L 5.191406 47.019531 Z M 5.191406 0 " clip-rule="nonzero"/></clipPath></defs><g clip-path="url(#f59cbe3f76)"><path fill="#c00000" d="M 5.191406 42.3125 C 5.191406 44.910156 7.296875 47.015625 9.894531 47.015625 L 38.097656 47.015625 C 40.695312 47.015625 42.800781 44.910156 42.800781 42.3125 C 42.800781 38.65625 42.800781 32.675781 42.800781 29.257812 C 42.800781 26.988281 41.175781 25.042969 38.941406 24.636719 C 35.628906 24.03125 29.914062 22.992188 26.683594 22.40625 C 24.90625 22.082031 23.085938 22.082031 21.304688 22.40625 C 18.074219 22.992188 12.363281 24.03125 9.050781 24.636719 C 6.816406 25.042969 5.191406 26.988281 5.191406 29.257812 Z M 27.613281 25.761719 L 29.964844 34.703125 C 30.273438 35.875 29.859375 37.121094 28.910156 37.878906 C 28.105469 38.519531 26.84375 39.527344 25.964844 40.230469 C 24.8125 41.148438 23.175781 41.148438 22.027344 40.230469 C 21.148438 39.527344 19.882812 38.519531 19.082031 37.878906 C 18.132812 37.121094 17.71875 35.875 18.027344 34.703125 L 20.378906 25.761719 L 9.613281 27.71875 C 8.867188 27.855469 8.324219 28.503906 8.324219 29.257812 L 8.324219 42.3125 C 8.324219 43.179688 9.027344 43.878906 9.894531 43.878906 C 16.449219 43.878906 31.542969 43.878906 38.097656 43.878906 C 38.964844 43.878906 39.664062 43.179688 39.664062 42.3125 C 39.664062 38.65625 39.664062 32.675781 39.664062 29.257812 C 39.664062 28.503906 39.121094 27.855469 38.378906 27.71875 Z M 24.25 25.300781 C 24.078125 25.296875 23.910156 25.296875 23.738281 25.300781 L 21.070312 35.457031 L 23.980469 37.78125 C 23.988281 37.789062 24 37.789062 24.007812 37.78125 L 26.921875 35.457031 Z M 23.996094 0.00390625 C 18.375 0.00390625 13.808594 4.570312 13.808594 10.191406 C 13.808594 15.8125 18.375 20.375 23.996094 20.375 C 29.617188 20.375 34.179688 15.8125 34.179688 10.191406 C 34.179688 4.570312 29.617188 0.00390625 23.996094 0.00390625 Z M 23.996094 3.140625 C 27.886719 3.140625 31.046875 6.296875 31.046875 10.191406 C 31.046875 14.082031 27.886719 17.242188 23.996094 17.242188 C 20.101562 17.242188 16.945312 14.082031 16.945312 10.191406 C 16.945312 6.296875 20.101562 3.140625 23.996094 3.140625 Z M 23.996094 3.140625 " fill-opacity="1" fill-rule="evenodd"/></g></svg>