<svg xmlns="http://www.w3.org/2000/svg" xmlns:xlink="http://www.w3.org/1999/xlink" width="64" zoomAndPan="magnify" viewBox="0 0 48 48" height="64" preserveAspectRatio="xMidYMid meet" version="1.0"><defs><clipPath id="d71730c601"><path d="M 10.707031 37.601562 L 37.472656 37.601562 L 37.472656 44.816406 L 10.707031 44.816406 Z M 10.707031 37.601562 " clip-rule="nonzero"/></clipPath><clipPath id="45c33179e7"><path d="M 0.488281 24 L 20 24 L 20 34 L 0.488281 34 Z M 0.488281 24 " clip-rule="nonzero"/></clipPath><clipPath id="11e177c9fe"><path d="M 28.421875 24.472656 L 47.496094 24.472656 L 47.496094 33.648438 L 28.421875 33.648438 Z M 28.421875 24.472656 " clip-rule="nonzero"/></clipPath></defs><path fill="#c00000" d="M 24.003906 0 C 24.644531 0 25.226562 0.261719 25.648438 0.683594 C 26.066406 1.105469 26.328125 1.6875 26.328125 2.328125 L 26.328125 3.925781 C 26.328125 4.332031 26 4.660156 25.59375 4.660156 L 22.410156 4.660156 C 22.003906 4.660156 21.675781 4.332031 21.675781 3.925781 L 21.675781 2.328125 C 21.675781 1.6875 21.9375 1.105469 22.359375 0.683594 C 22.78125 0.261719 23.363281 0 24.003906 0 Z M 24.003906 1.46875 C 23.765625 1.46875 23.550781 1.566406 23.398438 1.722656 C 23.242188 1.878906 23.144531 2.09375 23.144531 2.328125 L 23.144531 3.191406 L 24.863281 3.191406 L 24.863281 2.328125 C 24.863281 2.09375 24.765625 1.878906 24.609375 1.722656 C 24.453125 1.566406 24.238281 1.46875 24.003906 1.46875 Z M 26.328125 7.261719 L 26.328125 38.402344 C 26.328125 38.808594 26 39.136719 25.59375 39.136719 L 22.410156 39.136719 C 22.003906 39.136719 21.675781 38.808594 21.675781 38.402344 L 21.675781 7.261719 C 21.675781 6.859375 22.003906 6.527344 22.410156 6.527344 L 25.59375 6.527344 C 26 6.527344 26.328125 6.859375 26.328125 7.261719 Z M 24.863281 37.667969 L 24.863281 7.996094 L 23.144531 7.996094 L 23.144531 37.667969 L 24.863281 37.667969 " fill-opacity="1" fill-rule="nonzero"/><g clip-path="url(#d71730c601)"><path fill="#c00000" d="M 36.613281 44.835938 L 11.554688 44.835938 C 11.148438 44.835938 10.820312 44.507812 10.820312 44.101562 C 10.820312 42.332031 11.542969 40.722656 12.707031 39.558594 C 13.875 38.394531 15.480469 37.667969 17.25 37.667969 L 30.917969 37.667969 C 32.6875 37.667969 34.292969 38.394531 35.460938 39.558594 C 36.625 40.722656 37.347656 42.332031 37.347656 44.101562 C 37.347656 44.507812 37.019531 44.835938 36.613281 44.835938 Z M 12.34375 43.367188 L 35.824219 43.367188 C 35.664062 42.296875 35.15625 41.332031 34.421875 40.597656 C 33.519531 39.695312 32.28125 39.136719 30.917969 39.136719 L 17.25 39.136719 C 15.886719 39.136719 14.644531 39.695312 13.746094 40.597656 C 13.011719 41.332031 12.503906 42.296875 12.34375 43.367188 " fill-opacity="1" fill-rule="nonzero"/></g><path fill="#c00000" d="M 7.480469 3.191406 L 40.6875 3.191406 C 41.09375 3.191406 41.421875 3.519531 41.421875 3.925781 L 41.421875 7.261719 C 41.421875 7.667969 41.09375 7.996094 40.6875 7.996094 L 7.480469 7.996094 C 7.074219 7.996094 6.746094 7.667969 6.746094 7.261719 L 6.746094 3.925781 C 6.746094 3.519531 7.074219 3.191406 7.480469 3.191406 Z M 39.953125 4.660156 L 8.214844 4.660156 L 8.214844 6.527344 L 39.953125 6.527344 L 39.953125 4.660156 " fill-opacity="1" fill-rule="nonzero"/><g clip-path="url(#45c33179e7)"><path fill="#c00000" d="M 1.242188 24.484375 L 18.824219 24.484375 C 19.230469 24.484375 19.558594 24.8125 19.558594 25.21875 C 19.558594 27.523438 18.617188 29.621094 17.097656 31.140625 C 15.578125 32.660156 13.480469 33.601562 11.171875 33.601562 L 8.894531 33.601562 C 6.589844 33.601562 4.492188 32.660156 2.972656 31.140625 C 1.453125 29.621094 0.507812 27.523438 0.507812 25.21875 C 0.507812 24.8125 0.839844 24.484375 1.242188 24.484375 Z M 18.050781 25.953125 L 2.015625 25.953125 C 2.1875 27.5625 2.921875 29.011719 4.011719 30.101562 C 5.265625 31.355469 6.992188 32.132812 8.894531 32.132812 L 11.171875 32.132812 C 13.074219 32.132812 14.804688 31.355469 16.058594 30.101562 C 17.148438 29.011719 17.878906 27.5625 18.050781 25.953125 " fill-opacity="1" fill-rule="nonzero"/></g><path fill="#c00000" d="M 10.625 7.769531 C 10.789062 7.398438 10.617188 6.964844 10.25 6.804688 C 9.878906 6.640625 9.445312 6.808594 9.28125 7.179688 L 1.46875 24.921875 C 1.304688 25.292969 1.472656 25.726562 1.84375 25.890625 C 2.214844 26.050781 2.648438 25.882812 2.808594 25.511719 L 10.625 7.769531 " fill-opacity="1" fill-rule="nonzero"/><path fill="#c00000" d="M 10.625 7.179688 C 10.460938 6.808594 10.027344 6.640625 9.65625 6.804688 C 9.285156 6.964844 9.117188 7.398438 9.28125 7.769531 L 17.097656 25.511719 C 17.257812 25.882812 17.691406 26.050781 18.0625 25.890625 C 18.433594 25.726562 18.601562 25.292969 18.4375 24.921875 L 10.625 7.179688 " fill-opacity="1" fill-rule="nonzero"/><g clip-path="url(#11e177c9fe)"><path fill="#c00000" d="M 29.179688 24.484375 L 46.761719 24.484375 C 47.167969 24.484375 47.496094 24.8125 47.496094 25.21875 C 47.496094 27.523438 46.550781 29.621094 45.03125 31.140625 C 43.511719 32.660156 41.417969 33.601562 39.109375 33.601562 L 36.832031 33.601562 C 34.523438 33.601562 32.429688 32.660156 30.910156 31.140625 C 29.390625 29.621094 28.445312 27.523438 28.445312 25.21875 C 28.445312 24.8125 28.773438 24.484375 29.179688 24.484375 Z M 45.988281 25.953125 L 29.953125 25.953125 C 30.125 27.5625 30.855469 29.011719 31.945312 30.101562 C 33.199219 31.355469 34.929688 32.132812 36.832031 32.132812 L 39.109375 32.132812 C 41.011719 32.132812 42.742188 31.355469 43.996094 30.101562 C 45.085938 29.011719 45.816406 27.5625 45.988281 25.953125 " fill-opacity="1" fill-rule="nonzero"/></g><path fill="#c00000" d="M 38.558594 7.769531 C 38.722656 7.398438 38.554688 6.964844 38.183594 6.804688 C 37.8125 6.640625 37.382812 6.808594 37.21875 7.179688 L 29.40625 24.921875 C 29.242188 25.292969 29.410156 25.726562 29.78125 25.890625 C 30.152344 26.050781 30.582031 25.882812 30.746094 25.511719 L 38.558594 7.769531 " fill-opacity="1" fill-rule="nonzero"/><path fill="#c00000" d="M 38.558594 7.179688 C 38.398438 6.808594 37.964844 6.640625 37.59375 6.804688 C 37.222656 6.964844 37.054688 7.398438 37.21875 7.769531 L 45.03125 25.511719 C 45.195312 25.882812 45.628906 26.050781 46 25.890625 C 46.371094 25.726562 46.539062 25.292969 46.375 24.921875 L 38.558594 7.179688 " fill-opacity="1" fill-rule="nonzero"/></svg>