<svg xmlns="http://www.w3.org/2000/svg" xmlns:xlink="http://www.w3.org/1999/xlink" width="64" zoomAndPan="magnify" viewBox="0 0 48 48" height="64" preserveAspectRatio="xMidYMid meet" version="1.0"><defs><clipPath id="fd161356b9"><path d="M 0.488281 32 L 47.507812 32 L 47.507812 47 L 0.488281 47 Z M 0.488281 32 " clip-rule="nonzero"/></clipPath></defs><path fill="#c00000" d="M 42.1875 16.667969 L 33.855469 16.667969 L 33.855469 19.167969 L 42.1875 19.167969 L 42.1875 16.667969 " fill-opacity="1" fill-rule="nonzero"/><path fill="#c00000" d="M 42.1875 20.832031 L 33.855469 20.832031 L 33.855469 23.332031 L 42.1875 23.332031 L 42.1875 20.832031 " fill-opacity="1" fill-rule="nonzero"/><path fill="#c00000" d="M 22.1875 7.988281 L 27.1875 12.988281 L 37.1875 2.988281 L 38.855469 4.65625 L 38.855469 0 L 34.199219 0 L 35.867188 1.667969 L 27.1875 10.34375 L 22.1875 5.34375 L 10.035156 17.5 L 11.355469 18.820312 L 22.1875 7.988281 " fill-opacity="1" fill-rule="nonzero"/><path fill="#c00000" d="M 33.855469 13.332031 L 33.855469 15 L 42.1875 15 L 42.1875 13.332031 C 42.1875 12.875 41.816406 12.5 41.355469 12.5 L 34.6875 12.5 C 34.230469 12.5 33.855469 12.875 33.855469 13.332031 " fill-opacity="1" fill-rule="nonzero"/><path fill="#c00000" d="M 42.1875 25 L 33.855469 25 L 33.855469 27.5 L 42.1875 27.5 L 42.1875 25 " fill-opacity="1" fill-rule="nonzero"/><path fill="#c00000" d="M 42.1875 29.167969 L 33.855469 29.167969 L 33.855469 31.667969 L 42.1875 31.667969 L 42.1875 29.167969 " fill-opacity="1" fill-rule="nonzero"/><path fill="#c00000" d="M 24.273438 36.667969 L 20.84375 36.667969 L 26.207031 38.730469 C 26.796875 38.957031 27.4375 38.953125 28.023438 38.71875 L 28.023438 33.332031 L 27.160156 33.332031 C 27.179688 33.46875 27.1875 33.609375 27.1875 33.75 C 27.1875 35.359375 25.878906 36.667969 24.273438 36.667969 " fill-opacity="1" fill-rule="nonzero"/><path fill="#c00000" d="M 33.855469 36.15625 L 40.273438 33.332031 L 33.855469 33.332031 Z M 33.855469 36.15625 " fill-opacity="1" fill-rule="nonzero"/><path fill="#c00000" d="M 28.023438 20.832031 L 19.6875 20.832031 L 19.6875 23.332031 L 28.023438 23.332031 L 28.023438 20.832031 " fill-opacity="1" fill-rule="nonzero"/><path fill="#c00000" d="M 9.730469 32.945312 L 10.136719 32.542969 C 10.148438 32.527344 10.164062 32.515625 10.179688 32.5 L 5.523438 32.5 L 5.523438 34.167969 L 6.785156 34.167969 C 7.898438 34.167969 8.945312 33.734375 9.730469 32.945312 " fill-opacity="1" fill-rule="nonzero"/><g clip-path="url(#fd161356b9)"><path fill="#c00000" d="M 46.460938 33.132812 C 46.03125 32.875 45.527344 32.839844 45.066406 33.042969 L 28.78125 40.210938 C 27.769531 40.65625 26.640625 40.679688 25.609375 40.285156 L 16.203125 36.667969 L 14.691406 36.667969 C 14.230469 36.667969 13.855469 36.292969 13.855469 35.832031 C 13.855469 35.371094 14.230469 35 14.691406 35 L 24.234375 35 C 24.886719 35 25.457031 34.519531 25.515625 33.871094 C 25.585938 33.128906 25 32.5 24.273438 32.5 L 14.261719 32.5 C 13.15625 32.5 12.097656 32.9375 11.316406 33.71875 L 10.910156 34.125 C 9.808594 35.226562 8.34375 35.832031 6.785156 35.832031 L 0.523438 35.832031 L 0.523438 43.332031 L 9.460938 43.332031 C 9.6875 43.332031 9.914062 43.363281 10.132812 43.425781 L 20.304688 46.25 C 23.066406 47.019531 25.984375 46.695312 28.511719 45.339844 L 46.390625 35.761719 C 46.972656 35.449219 47.296875 34.789062 47.15625 34.113281 C 47.074219 33.707031 46.816406 33.351562 46.460938 33.132812 " fill-opacity="1" fill-rule="nonzero"/></g><path fill="#c00000" d="M 13.855469 28.332031 L 5.523438 28.332031 L 5.523438 30.832031 L 13.855469 30.832031 L 13.855469 28.332031 " fill-opacity="1" fill-rule="nonzero"/><path fill="#c00000" d="M 28.023438 25 L 19.6875 25 L 19.6875 27.5 L 28.023438 27.5 L 28.023438 25 " fill-opacity="1" fill-rule="nonzero"/><path fill="#c00000" d="M 28.023438 29.167969 L 19.6875 29.167969 L 19.6875 30.832031 L 24.273438 30.832031 C 25.066406 30.832031 25.785156 31.152344 26.3125 31.667969 L 28.023438 31.667969 L 28.023438 29.167969 " fill-opacity="1" fill-rule="nonzero"/><path fill="#c00000" d="M 13.855469 25 C 13.855469 24.539062 13.480469 24.167969 13.023438 24.167969 L 6.355469 24.167969 C 5.898438 24.167969 5.523438 24.539062 5.523438 25 L 5.523438 26.667969 L 13.855469 26.667969 L 13.855469 25 " fill-opacity="1" fill-rule="nonzero"/><path fill="#c00000" d="M 28.023438 17.5 C 28.023438 17.039062 27.648438 16.667969 27.1875 16.667969 L 20.523438 16.667969 C 20.0625 16.667969 19.6875 17.039062 19.6875 17.5 L 19.6875 19.167969 L 28.023438 19.167969 L 28.023438 17.5 " fill-opacity="1" fill-rule="nonzero"/></svg>