<svg xmlns="http://www.w3.org/2000/svg" xmlns:xlink="http://www.w3.org/1999/xlink" width="64" zoomAndPan="magnify" viewBox="0 0 48 48" height="64" preserveAspectRatio="xMidYMid meet" version="1.0"><defs><clipPath id="568ff0f440"><path d="M 2.28125 0 L 45.628906 0 L 45.628906 47.019531 L 2.28125 47.019531 Z M 2.28125 0 " clip-rule="nonzero"/></clipPath></defs><g clip-path="url(#568ff0f440)"><path fill="#c00000" d="M 34.359375 13.160156 C 35.835938 13.160156 37.011719 12.363281 37.597656 10.972656 C 38.246094 9.417969 38.003906 7.433594 37.042969 6.453125 C 36.335938 5.734375 35.484375 5.402344 34.363281 5.402344 C 33.238281 5.402344 32.386719 5.734375 31.679688 6.453125 C 30.71875 7.433594 30.472656 9.417969 31.125 10.972656 C 31.707031 12.363281 32.886719 13.160156 34.359375 13.160156 Z M 32.515625 7.273438 C 33 6.78125 33.550781 6.570312 34.363281 6.570312 C 35.171875 6.570312 35.722656 6.78125 36.207031 7.273438 C 36.84375 7.917969 36.984375 9.40625 36.515625 10.519531 C 36.234375 11.191406 35.632812 11.992188 34.359375 11.992188 C 33.089844 11.992188 32.484375 11.191406 32.203125 10.519531 C 31.738281 9.40625 31.878906 7.921875 32.515625 7.273438 Z M 7.625 20.242188 C 7.945312 20.242188 8.210938 19.980469 8.210938 19.65625 L 8.210938 19.097656 C 8.210938 16.769531 9.957031 14.875 12.101562 14.875 L 15.0625 14.875 C 15.082031 14.875 15.105469 14.875 15.125 14.875 C 14.5 15.988281 14.171875 17.234375 14.171875 18.527344 L 14.171875 19.953125 C 14.171875 20.277344 14.433594 20.539062 14.757812 20.539062 C 15.082031 20.539062 15.34375 20.277344 15.34375 19.953125 L 15.34375 18.527344 C 15.34375 15.914062 16.921875 13.609375 19.324219 12.648438 L 23.453125 20.320312 C 23.558594 20.507812 23.753906 20.625 23.96875 20.625 C 24.183594 20.625 24.382812 20.507812 24.484375 20.320312 L 28.617188 12.648438 C 31.015625 13.609375 32.597656 15.914062 32.597656 18.527344 L 32.597656 19.953125 C 32.597656 20.277344 32.859375 20.539062 33.183594 20.539062 C 33.503906 20.539062 33.765625 20.277344 33.765625 19.953125 L 33.765625 18.527344 C 33.765625 17.234375 33.441406 15.988281 32.8125 14.875 C 32.835938 14.875 32.855469 14.875 32.878906 14.875 L 35.839844 14.875 C 37.984375 14.875 39.730469 16.769531 39.730469 19.097656 L 39.730469 19.65625 C 39.730469 19.980469 39.992188 20.242188 40.316406 20.242188 C 40.636719 20.242188 40.902344 19.980469 40.902344 19.65625 L 40.902344 19.097656 C 40.902344 16.125 38.628906 13.703125 35.839844 13.703125 L 32.878906 13.703125 C 32.605469 13.703125 32.328125 13.726562 32.058594 13.773438 C 31.136719 12.65625 29.890625 11.808594 28.515625 11.371094 C 28.246094 11.285156 27.957031 11.40625 27.824219 11.652344 L 25.632812 15.71875 L 25.226562 14.269531 C 25.171875 14.078125 25.203125 13.910156 25.316406 13.75 L 26.605469 11.949219 C 26.730469 11.773438 26.75 11.539062 26.648438 11.34375 C 26.550781 11.148438 26.347656 11.023438 26.128906 11.023438 L 21.8125 11.023438 C 21.589844 11.023438 21.390625 11.148438 21.289062 11.34375 C 21.191406 11.539062 21.207031 11.773438 21.335938 11.949219 L 22.625 13.753906 C 22.738281 13.910156 22.769531 14.082031 22.714844 14.269531 L 22.3125 15.734375 L 20.117188 11.652344 C 19.980469 11.40625 19.691406 11.289062 19.425781 11.371094 C 18.046875 11.808594 16.800781 12.65625 15.878906 13.773438 C 15.609375 13.726562 15.335938 13.703125 15.0625 13.703125 L 12.101562 13.703125 C 9.308594 13.703125 7.039062 16.125 7.039062 19.101562 L 7.039062 19.65625 C 7.039062 19.980469 7.300781 20.242188 7.625 20.242188 Z M 23.578125 13.070312 L 22.949219 12.195312 L 24.992188 12.195312 L 24.367188 13.066406 C 24.046875 13.515625 23.953125 14.054688 24.101562 14.582031 L 24.835938 17.199219 L 23.972656 18.804688 L 23.117188 17.222656 L 23.84375 14.574219 C 23.988281 14.050781 23.894531 13.515625 23.578125 13.070312 Z M 13.582031 13.160156 C 15.054688 13.160156 16.234375 12.363281 16.816406 10.972656 C 17.46875 9.417969 17.226562 7.433594 16.261719 6.453125 C 15.554688 5.738281 14.703125 5.402344 13.585938 5.402344 C 12.460938 5.402344 11.605469 5.738281 10.902344 6.453125 C 9.9375 7.433594 9.695312 9.417969 10.347656 10.972656 C 10.929688 12.363281 12.109375 13.160156 13.582031 13.160156 Z M 11.734375 7.273438 C 12.21875 6.78125 12.773438 6.570312 13.585938 6.570312 C 14.390625 6.570312 14.945312 6.78125 15.429688 7.273438 C 16.0625 7.917969 16.207031 9.40625 15.738281 10.519531 C 15.457031 11.191406 14.855469 11.992188 13.582031 11.992188 C 12.308594 11.992188 11.707031 11.191406 11.425781 10.519531 C 10.957031 9.40625 11.097656 7.921875 11.734375 7.273438 Z M 23.972656 10.726562 C 25.996094 10.726562 27.617188 9.628906 28.417969 7.714844 C 29.328125 5.550781 29 2.796875 27.671875 1.449219 C 26.699219 0.460938 25.527344 0 23.976562 0 C 22.417969 0 21.242188 0.460938 20.269531 1.449219 C 18.945312 2.796875 18.613281 5.550781 19.523438 7.714844 C 20.324219 9.628906 21.945312 10.726562 23.972656 10.726562 Z M 21.105469 2.269531 C 21.863281 1.5 22.722656 1.171875 23.976562 1.171875 C 25.207031 1.171875 26.089844 1.511719 26.835938 2.269531 C 27.824219 3.273438 28.054688 5.5625 27.339844 7.265625 C 26.902344 8.3125 25.960938 9.558594 23.972656 9.558594 C 21.980469 9.558594 21.039062 8.3125 20.601562 7.265625 C 19.886719 5.5625 20.117188 3.273438 21.105469 2.269531 Z M 45.371094 31.359375 L 38.960938 20.949219 C 38.425781 20.082031 37.285156 19.808594 36.417969 20.34375 L 33.53125 22.121094 C 33.113281 22.375 32.820312 22.785156 32.703125 23.265625 C 32.589844 23.746094 32.667969 24.242188 32.925781 24.660156 L 32.953125 24.703125 C 32.808594 24.746094 32.660156 24.792969 32.515625 24.835938 C 32.109375 24.957031 31.691406 25.085938 31.351562 25.179688 C 31.125 25.242188 30.929688 25.242188 30.707031 25.175781 L 27.855469 24.335938 C 25.574219 23.667969 22.738281 24.972656 21.039062 26.082031 C 19.863281 25.675781 18.679688 25.496094 17.433594 25.527344 L 14.988281 24.589844 L 15.039062 24.507812 C 15.296875 24.085938 15.375 23.589844 15.257812 23.109375 C 15.140625 22.628906 14.84375 22.222656 14.425781 21.96875 L 11.535156 20.203125 C 10.664062 19.671875 9.523438 19.945312 8.996094 20.816406 L 2.617188 31.246094 C 2.363281 31.664062 2.285156 32.164062 2.402344 32.640625 C 2.515625 33.125 2.8125 33.527344 3.230469 33.785156 L 6.125 35.550781 C 6.421875 35.734375 6.757812 35.820312 7.082031 35.820312 C 7.707031 35.820312 8.316406 35.507812 8.664062 34.9375 L 8.960938 34.449219 C 9.449219 35.25 10.078125 36.066406 10.839844 36.886719 L 10.171875 38.046875 C 9.859375 38.59375 9.773438 39.230469 9.9375 39.839844 C 10.101562 40.449219 10.492188 40.957031 11.039062 41.269531 C 11.40625 41.484375 11.8125 41.585938 12.210938 41.585938 C 12.398438 41.585938 12.582031 41.5625 12.761719 41.519531 C 12.804688 42.292969 13.226562 43.023438 13.945312 43.4375 C 14.3125 43.652344 14.71875 43.75 15.117188 43.75 C 15.449219 43.75 15.78125 43.679688 16.085938 43.542969 C 16.253906 44.136719 16.640625 44.632812 17.171875 44.941406 C 17.542969 45.152344 17.949219 45.253906 18.347656 45.253906 C 18.859375 45.253906 19.367188 45.085938 19.78125 44.769531 C 19.953125 45.238281 20.300781 45.625 20.820312 45.921875 C 21.1875 46.136719 21.59375 46.238281 21.992188 46.238281 C 22.769531 46.238281 23.53125 45.851562 23.976562 45.160156 C 24.273438 45.363281 24.761719 45.714844 25.566406 46.316406 L 25.644531 46.371094 C 26.25 46.824219 26.925781 47.019531 27.566406 47.019531 C 28.46875 47.019531 29.304688 46.632812 29.78125 46.019531 C 30.082031 45.636719 30.210938 45.21875 30.175781 44.804688 C 31.179688 44.828125 32.070312 44.316406 32.574219 43.609375 C 32.925781 43.105469 33.066406 42.5625 33 42.050781 C 34.023438 42.066406 34.90625 41.550781 35.359375 40.859375 C 35.652344 40.40625 35.757812 39.917969 35.683594 39.441406 C 36.367188 39.394531 36.996094 39.046875 37.363281 38.5625 C 37.683594 38.132812 37.863281 37.503906 37.605469 36.84375 C 38.34375 36.648438 39.03125 36.222656 39.476562 35.644531 C 39.53125 35.574219 39.582031 35.5 39.625 35.429688 C 39.976562 35.765625 40.4375 35.945312 40.910156 35.945312 C 41.242188 35.945312 41.574219 35.859375 41.875 35.671875 L 44.761719 33.898438 C 45.183594 33.640625 45.476562 33.234375 45.589844 32.753906 C 45.707031 32.273438 45.628906 31.777344 45.371094 31.359375 Z M 7.664062 34.328125 C 7.46875 34.644531 7.050781 34.746094 6.734375 34.550781 L 3.839844 32.785156 C 3.6875 32.691406 3.582031 32.542969 3.539062 32.367188 C 3.496094 32.191406 3.523438 32.007812 3.617188 31.855469 L 9.996094 21.421875 C 10.121094 21.214844 10.34375 21.101562 10.574219 21.101562 C 10.695312 21.101562 10.816406 21.132812 10.925781 21.199219 L 13.816406 22.964844 C 13.972656 23.058594 14.078125 23.207031 14.121094 23.382812 C 14.164062 23.558594 14.136719 23.742188 14.042969 23.894531 Z M 11.621094 40.257812 C 11.347656 40.097656 11.152344 39.84375 11.070312 39.535156 C 10.988281 39.226562 11.027344 38.90625 11.183594 38.632812 L 13.679688 34.308594 C 13.902344 33.925781 14.300781 33.710938 14.714844 33.710938 C 14.914062 33.710938 15.121094 33.761719 15.308594 33.871094 C 15.578125 34.03125 15.777344 34.285156 15.859375 34.59375 C 15.941406 34.898438 15.902344 35.21875 15.746094 35.492188 C 15.742188 35.492188 15.742188 35.492188 15.742188 35.496094 L 13.246094 39.820312 C 12.917969 40.386719 12.191406 40.585938 11.621094 40.257812 Z M 14.527344 42.425781 C 14.003906 42.125 13.789062 41.460938 14.035156 40.910156 L 14.046875 40.878906 C 14.203125 40.523438 14.25 40.425781 14.265625 40.398438 L 16.753906 36.078125 C 16.808594 35.992188 17.128906 35.511719 17.171875 35.449219 C 17.523438 34.960938 18.210938 34.808594 18.734375 35.109375 C 19.007812 35.269531 19.207031 35.523438 19.289062 35.832031 C 19.371094 36.140625 19.332031 36.460938 19.171875 36.734375 L 16.304688 41.71875 C 16.25 41.808594 16.207031 41.902344 16.167969 41.996094 L 16.152344 41.988281 C 15.824219 42.554688 15.097656 42.75 14.527344 42.425781 Z M 17.757812 43.925781 C 17.484375 43.769531 17.289062 43.511719 17.203125 43.203125 C 17.121094 42.894531 17.164062 42.578125 17.320312 42.304688 L 20.191406 37.316406 L 20.34375 37.050781 C 20.5625 36.671875 20.964844 36.457031 21.378906 36.457031 C 21.578125 36.457031 21.78125 36.507812 21.96875 36.613281 C 22.242188 36.773438 22.4375 37.027344 22.519531 37.335938 C 22.605469 37.644531 22.5625 37.964844 22.40625 38.238281 L 19.382812 43.488281 C 19.054688 44.058594 18.328125 44.253906 17.757812 43.925781 Z M 21.402344 44.910156 C 20.886719 44.613281 20.507812 44.140625 21.195312 42.691406 L 22.679688 40.109375 C 22.929688 39.671875 23.867188 39.378906 24.410156 39.691406 C 24.683594 39.847656 24.878906 40.105469 24.960938 40.410156 C 25.042969 40.71875 25.003906 41.039062 24.847656 41.3125 L 23.027344 44.472656 C 22.703125 45.039062 21.972656 45.238281 21.402344 44.910156 Z M 36.429688 37.859375 C 36.136719 38.246094 35.488281 38.441406 34.980469 38.117188 C 34.171875 37.597656 33.347656 37.085938 32.546875 36.59375 C 32.140625 36.34375 31.734375 36.089844 31.328125 35.839844 C 31.054688 35.667969 30.691406 35.753906 30.519531 36.027344 C 30.351562 36.300781 30.433594 36.660156 30.707031 36.832031 C 31.113281 37.085938 31.523438 37.339844 31.929688 37.589844 C 32.636719 38.027344 33.367188 38.476562 34.082031 38.929688 C 34.558594 39.328125 34.664062 39.789062 34.378906 40.226562 C 34.011719 40.785156 33.117188 41.125 32.164062 40.667969 L 29.21875 38.605469 C 28.957031 38.417969 28.589844 38.484375 28.40625 38.746094 C 28.21875 39.011719 28.285156 39.378906 28.546875 39.5625 L 31.507812 41.640625 C 32.089844 42.128906 31.777344 42.710938 31.617188 42.9375 C 31.257812 43.445312 30.351562 43.976562 29.320312 43.371094 L 27.464844 42.015625 C 27.203125 41.828125 26.835938 41.886719 26.644531 42.144531 C 26.457031 42.40625 26.515625 42.773438 26.773438 42.960938 L 28.640625 44.320312 C 29.238281 44.820312 28.957031 45.179688 28.863281 45.300781 C 28.449219 45.832031 27.289062 46.136719 26.34375 45.433594 L 26.269531 45.378906 C 25.492188 44.796875 24.9375 44.398438 24.566406 44.144531 L 25.859375 41.898438 C 26.175781 41.355469 26.257812 40.71875 26.09375 40.109375 C 25.929688 39.5 25.539062 38.992188 24.992188 38.675781 C 24.585938 38.445312 24.09375 38.359375 23.613281 38.398438 C 23.761719 37.960938 23.777344 37.488281 23.652344 37.03125 C 23.488281 36.421875 23.097656 35.914062 22.550781 35.601562 C 21.871094 35.210938 21.078125 35.195312 20.410156 35.496094 C 20.242188 34.902344 19.855469 34.40625 19.320312 34.097656 C 18.554688 33.65625 17.648438 33.691406 16.933594 34.117188 C 16.746094 33.585938 16.382812 33.140625 15.890625 32.859375 C 14.765625 32.207031 13.320312 32.597656 12.667969 33.722656 L 11.457031 35.824219 C 10.691406 34.964844 10.089844 34.125 9.660156 33.308594 L 14.371094 25.605469 L 17.125 26.664062 C 17.199219 26.691406 17.277344 26.703125 17.355469 26.703125 C 18.21875 26.671875 19.050781 26.757812 19.867188 26.960938 C 19.332031 27.429688 18.8125 28.027344 18.316406 28.742188 C 17.878906 29.378906 17.824219 30.171875 18.175781 30.863281 C 18.53125 31.554688 19.203125 31.976562 19.976562 31.992188 C 21.613281 32.027344 22.414062 31.203125 23.265625 30.328125 C 23.351562 30.238281 23.441406 30.148438 23.535156 30.054688 C 24.335938 30.328125 25.121094 30.21875 25.878906 29.726562 L 31.367188 33.546875 L 36.1875 36.835938 C 36.46875 37.089844 36.726562 37.46875 36.429688 37.859375 Z M 38.554688 34.929688 C 38.160156 35.441406 37.417969 35.789062 36.738281 35.796875 L 32.03125 32.582031 L 26.207031 28.527344 C 25.992188 28.375 25.703125 28.386719 25.5 28.554688 C 24.871094 29.070312 24.300781 29.160156 23.65625 28.84375 C 23.4375 28.734375 23.171875 28.773438 22.996094 28.945312 C 22.789062 29.140625 22.605469 29.328125 22.425781 29.511719 C 21.644531 30.316406 21.128906 30.839844 20.003906 30.820312 C 19.65625 30.8125 19.378906 30.636719 19.21875 30.328125 C 19.0625 30.019531 19.082031 29.691406 19.28125 29.40625 C 19.820312 28.625 20.386719 28.007812 20.957031 27.574219 C 20.960938 27.574219 20.964844 27.570312 20.96875 27.566406 C 22.777344 26.144531 25.691406 24.921875 27.527344 25.460938 L 30.375 26.296875 C 30.808594 26.421875 31.230469 26.425781 31.664062 26.304688 C 32.011719 26.207031 32.441406 26.078125 32.851562 25.957031 C 33.097656 25.878906 33.351562 25.804688 33.585938 25.734375 L 38.773438 34.160156 C 38.851562 34.460938 38.699219 34.742188 38.554688 34.929688 Z M 44.457031 32.484375 C 44.414062 32.660156 44.304688 32.808594 44.152344 32.902344 L 41.265625 34.679688 C 40.949219 34.875 40.53125 34.773438 40.335938 34.457031 L 33.921875 24.046875 C 33.828125 23.894531 33.800781 23.710938 33.84375 23.535156 C 33.882812 23.359375 33.992188 23.210938 34.144531 23.117188 L 37.03125 21.339844 C 37.347656 21.144531 37.765625 21.246094 37.960938 21.5625 L 44.375 31.972656 C 44.46875 32.125 44.496094 32.308594 44.457031 32.484375 Z M 44.457031 32.484375 " fill-opacity="1" fill-rule="nonzero"/></g></svg>