<svg xmlns="http://www.w3.org/2000/svg" xmlns:xlink="http://www.w3.org/1999/xlink" width="64" zoomAndPan="magnify" viewBox="0 0 48 48" height="64" preserveAspectRatio="xMidYMid meet" version="1.0"><defs><clipPath id="802d7735c6"><path d="M 0.488281 0 L 47.507812 0 L 47.507812 47.019531 L 0.488281 47.019531 Z M 0.488281 0 " clip-rule="nonzero"/></clipPath></defs><g clip-path="url(#802d7735c6)"><path fill="#c00000" d="M 6.007812 35.691406 L 14.492188 35.691406 C 14.65625 36.046875 14.824219 36.394531 15 36.746094 C 16.585938 39.863281 18.75 42.707031 21.335938 45.082031 C 14.972656 44.300781 9.449219 40.757812 6.007812 35.691406 Z M 21.335938 1.9375 C 18.75 4.316406 16.585938 7.15625 15 10.277344 C 14.824219 10.625 14.65625 10.976562 14.492188 11.328125 L 6.007812 11.328125 C 9.449219 6.261719 14.972656 2.71875 21.335938 1.9375 Z M 41.992188 11.328125 L 33.480469 11.328125 C 33.320312 10.976562 33.152344 10.625 32.972656 10.277344 C 31.390625 7.15625 29.222656 4.3125 26.632812 1.933594 C 33.011719 2.707031 38.542969 6.253906 41.992188 11.328125 Z M 26.632812 45.085938 C 29.222656 42.707031 31.390625 39.867188 32.972656 36.746094 C 33.152344 36.394531 33.320312 36.046875 33.480469 35.691406 L 41.992188 35.691406 C 38.542969 40.765625 33.011719 44.3125 26.632812 45.085938 Z M 23.117188 35.691406 L 23.117188 44.304688 C 20.292969 41.867188 18.035156 38.941406 16.433594 35.691406 Z M 13.625 24.394531 L 23.117188 24.394531 L 23.117188 33.925781 L 15.636719 33.925781 C 14.417969 30.9375 13.730469 27.722656 13.625 24.394531 Z M 23.117188 13.09375 L 23.117188 22.625 L 13.625 22.625 C 13.730469 19.296875 14.417969 16.082031 15.636719 13.09375 Z M 23.117188 2.714844 L 23.117188 11.328125 L 16.433594 11.328125 C 18.035156 8.078125 20.292969 5.152344 23.117188 2.714844 Z M 24.882812 11.328125 L 24.882812 2.738281 C 27.695312 5.171875 29.945312 8.089844 31.542969 11.328125 Z M 34.347656 22.625 L 24.882812 22.625 L 24.882812 13.09375 L 32.339844 13.09375 C 33.554688 16.082031 34.246094 19.296875 34.347656 22.625 Z M 24.882812 33.925781 L 24.882812 24.394531 L 34.347656 24.394531 C 34.246094 27.722656 33.554688 30.9375 32.339844 33.925781 Z M 24.882812 44.28125 L 24.882812 35.691406 L 31.542969 35.691406 C 29.945312 38.929688 27.695312 41.847656 24.882812 44.28125 Z M 43.074219 33.925781 L 34.226562 33.925781 C 35.386719 30.886719 36.023438 27.695312 36.117188 24.394531 L 45.714844 24.394531 C 45.578125 27.835938 44.636719 31.074219 43.074219 33.925781 Z M 45.714844 22.625 L 36.117188 22.625 C 36.023438 19.324219 35.386719 16.132812 34.226562 13.09375 L 43.074219 13.09375 C 44.636719 15.945312 45.578125 19.183594 45.714844 22.625 Z M 4.925781 13.09375 L 13.75 13.09375 C 12.585938 16.132812 11.953125 19.324219 11.855469 22.625 L 2.285156 22.625 C 2.421875 19.183594 3.363281 15.945312 4.925781 13.09375 Z M 2.285156 24.394531 L 11.855469 24.394531 C 11.953125 27.695312 12.585938 30.886719 13.75 33.925781 L 4.925781 33.925781 C 3.363281 31.074219 2.421875 27.835938 2.285156 24.394531 Z M 24.121094 47.011719 C 30.355469 46.980469 36.207031 44.539062 40.621094 40.128906 C 42.078125 38.667969 43.324219 37.046875 44.335938 35.308594 C 44.359375 35.277344 44.378906 35.242188 44.398438 35.203125 C 46.402344 31.71875 47.480469 27.757812 47.5 23.628906 C 47.507812 23.589844 47.511719 23.550781 47.511719 23.511719 C 47.511719 23.46875 47.507812 23.429688 47.5 23.390625 C 47.480469 19.265625 46.402344 15.300781 44.398438 11.816406 C 44.378906 11.78125 44.359375 11.746094 44.335938 11.710938 C 43.324219 9.972656 42.078125 8.351562 40.621094 6.890625 C 36.207031 2.480469 30.355469 0.0390625 24.121094 0.0078125 C 24.117188 0.0078125 24.113281 0.0078125 24.109375 0.0078125 C 24.097656 0.0078125 24.085938 0.00390625 24.070312 0.00390625 C 24.054688 0.00390625 24.039062 0 24.023438 0 C 24.015625 0 24.007812 0 24 0 C 23.996094 0 23.988281 0 23.984375 0 C 23.976562 0 23.96875 0 23.960938 0 C 23.921875 0 23.886719 0.00390625 23.847656 0.0078125 C 17.628906 0.046875 11.785156 2.488281 7.382812 6.890625 C 5.921875 8.351562 4.675781 9.972656 3.664062 11.710938 C 3.640625 11.746094 3.621094 11.78125 3.601562 11.816406 C 1.597656 15.304688 0.519531 19.265625 0.5 23.390625 C 0.492188 23.429688 0.488281 23.46875 0.488281 23.511719 C 0.488281 23.550781 0.492188 23.589844 0.5 23.628906 C 0.519531 27.753906 1.597656 31.71875 3.601562 35.203125 C 3.621094 35.238281 3.640625 35.277344 3.664062 35.308594 C 4.675781 37.046875 5.921875 38.667969 7.382812 40.128906 C 11.785156 44.53125 17.628906 46.972656 23.847656 47.011719 C 23.890625 47.015625 23.933594 47.019531 23.972656 47.019531 C 23.976562 47.019531 23.984375 47.019531 23.988281 47.019531 C 23.988281 47.019531 23.992188 47.019531 23.992188 47.019531 C 23.996094 47.019531 23.996094 47.019531 24 47.019531 C 24.027344 47.019531 24.054688 47.019531 24.082031 47.015625 C 24.089844 47.015625 24.097656 47.015625 24.105469 47.011719 C 24.109375 47.011719 24.117188 47.011719 24.121094 47.011719 " fill-opacity="1" fill-rule="nonzero"/></g></svg>