<svg xmlns="http://www.w3.org/2000/svg" xmlns:xlink="http://www.w3.org/1999/xlink" width="64" zoomAndPan="magnify" viewBox="0 0 48 48" height="64" preserveAspectRatio="xMidYMid meet" version="1.0"><defs><clipPath id="2478bb35de"><path d="M 12 2 L 47.507812 2 L 47.507812 30 L 12 30 Z M 12 2 " clip-rule="nonzero"/></clipPath><clipPath id="65a3b8225b"><path d="M 0.488281 6 L 45 6 L 45 44 L 0.488281 44 Z M 0.488281 6 " clip-rule="nonzero"/></clipPath></defs><g clip-path="url(#2478bb35de)"><path fill="#c00000" d="M 15.355469 17.390625 L 12.828125 19.917969 L 22.613281 29.699219 L 47.511719 4.800781 L 44.980469 2.273438 L 22.613281 24.644531 Z M 15.355469 17.390625 " fill-opacity="1" fill-rule="nonzero"/></g><path fill="#c00000" d="M 7.398438 25.742188 C 7.707031 26.949219 8.160156 28.117188 8.75 29.214844 L 10.640625 28.203125 C 10.132812 27.257812 9.742188 26.25 9.476562 25.210938 C 9.207031 24.140625 9.070312 23.035156 9.070312 21.917969 C 9.070312 20.117188 9.421875 18.371094 10.117188 16.726562 C 10.789062 15.140625 11.75 13.710938 12.972656 12.488281 C 14.199219 11.265625 15.625 10.300781 17.214844 9.628906 C 18.855469 8.933594 20.601562 8.582031 22.402344 8.582031 C 24.203125 8.582031 25.949219 8.933594 27.59375 9.628906 C 29.183594 10.300781 30.609375 11.261719 31.832031 12.488281 C 31.984375 12.640625 32.132812 12.796875 32.277344 12.953125 L 33.792969 11.4375 C 33.648438 11.277344 33.5 11.121094 33.351562 10.972656 C 32.648438 10.273438 31.878906 9.636719 31.058594 9.082031 C 30.230469 8.523438 29.34375 8.042969 28.429688 7.65625 C 26.519531 6.847656 24.492188 6.4375 22.402344 6.4375 C 20.3125 6.4375 18.285156 6.847656 16.375 7.65625 C 15.457031 8.042969 14.574219 8.523438 13.746094 9.082031 C 12.925781 9.636719 12.15625 10.273438 11.457031 10.972656 C 10.753906 11.671875 10.121094 12.445312 9.566406 13.261719 C 9.007812 14.089844 8.527344 14.976562 8.140625 15.894531 C 7.332031 17.800781 6.921875 19.832031 6.921875 21.917969 C 6.925781 23.210938 7.085938 24.496094 7.398438 25.742188 Z M 7.398438 25.742188 " fill-opacity="1" fill-rule="nonzero"/><path fill="#c00000" d="M 11.640625 32.210938 L 13.757812 37.671875 L 15.105469 35.574219 C 17.339844 36.773438 19.835938 37.398438 22.402344 37.398438 C 24.492188 37.398438 26.519531 36.988281 28.429688 36.179688 C 29.347656 35.792969 30.230469 35.3125 31.058594 34.753906 C 31.878906 34.199219 32.652344 33.566406 33.351562 32.867188 C 34.050781 32.164062 34.6875 31.394531 35.242188 30.574219 C 35.800781 29.746094 36.28125 28.859375 36.667969 27.945312 C 37.476562 26.035156 37.882812 24.007812 37.882812 21.917969 C 37.882812 20.292969 37.636719 18.707031 37.148438 17.183594 L 35.40625 18.929688 C 35.628906 19.902344 35.742188 20.902344 35.742188 21.917969 C 35.742188 23.71875 35.390625 25.464844 34.695312 27.109375 C 34.023438 28.695312 33.0625 30.125 31.835938 31.347656 C 30.609375 32.570312 29.183594 33.535156 27.597656 34.207031 C 25.953125 34.902344 24.207031 35.253906 22.40625 35.253906 C 20.25 35.253906 18.160156 34.742188 16.273438 33.761719 L 17.484375 31.875 Z M 11.640625 32.210938 " fill-opacity="1" fill-rule="nonzero"/><path fill="#c00000" d="M 16.855469 2.9375 C 18.648438 2.414062 20.515625 2.148438 22.40625 2.148438 C 25.074219 2.148438 27.664062 2.671875 30.101562 3.703125 C 31.273438 4.195312 32.402344 4.808594 33.457031 5.523438 C 34.503906 6.234375 35.492188 7.046875 36.386719 7.941406 C 36.539062 8.09375 36.6875 8.246094 36.832031 8.402344 L 38.347656 6.886719 C 38.203125 6.730469 38.054688 6.574219 37.902344 6.421875 C 36.910156 5.433594 35.820312 4.53125 34.660156 3.746094 C 33.488281 2.957031 32.234375 2.277344 30.9375 1.726562 C 29.613281 1.167969 28.230469 0.738281 26.820312 0.449219 C 25.375 0.152344 23.890625 0.00390625 22.402344 0.00390625 C 20.3125 0.00390625 18.242188 0.300781 16.25 0.878906 C 14.324219 1.445312 12.480469 2.273438 10.773438 3.339844 L 11.914062 5.160156 C 13.453125 4.191406 15.117188 3.445312 16.855469 2.9375 Z M 16.855469 2.9375 " fill-opacity="1" fill-rule="nonzero"/><g clip-path="url(#65a3b8225b)"><path fill="#c00000" d="M 42.597656 13.386719 C 42.4375 13.007812 42.261719 12.628906 42.078125 12.253906 L 40.464844 13.867188 C 40.519531 13.984375 40.570312 14.105469 40.621094 14.222656 C 41.652344 16.660156 42.175781 19.25 42.175781 21.917969 C 42.175781 24.589844 41.652344 27.179688 40.621094 29.613281 C 40.125 30.785156 39.511719 31.914062 38.796875 32.972656 C 38.089844 34.019531 37.277344 35.003906 36.382812 35.898438 C 35.488281 36.796875 34.503906 37.605469 33.457031 38.316406 C 32.398438 39.027344 31.269531 39.640625 30.097656 40.136719 C 27.660156 41.167969 25.074219 41.691406 22.402344 41.691406 C 19.734375 41.691406 17.144531 41.167969 14.707031 40.136719 C 13.535156 39.644531 12.40625 39.03125 11.351562 38.316406 C 10.304688 37.605469 9.316406 36.796875 8.421875 35.898438 C 7.527344 35.003906 6.714844 34.019531 6.007812 32.972656 C 5.292969 31.914062 4.679688 30.785156 4.183594 29.613281 C 3.152344 27.179688 2.628906 24.589844 2.628906 21.917969 C 2.628906 19.71875 2.988281 17.554688 3.699219 15.496094 C 4.191406 14.054688 4.847656 12.683594 5.65625 11.398438 L 7.351562 12.6875 L 7.472656 6.832031 L 1.867188 8.519531 L 3.949219 10.097656 C 3.003906 11.570312 2.242188 13.144531 1.675781 14.796875 C 0.890625 17.085938 0.488281 19.480469 0.488281 21.917969 C 0.488281 23.40625 0.640625 24.890625 0.933594 26.335938 C 1.222656 27.742188 1.652344 29.128906 2.210938 30.453125 C 2.761719 31.75 3.441406 33.003906 4.230469 34.171875 C 5.015625 35.332031 5.917969 36.425781 6.90625 37.417969 C 7.898438 38.40625 8.988281 39.308594 10.152344 40.09375 C 11.324219 40.886719 12.574219 41.5625 13.875 42.113281 C 15.195312 42.671875 16.582031 43.101562 17.988281 43.390625 C 19.433594 43.6875 20.917969 43.835938 22.40625 43.835938 C 23.894531 43.835938 25.378906 43.683594 26.820312 43.390625 C 28.230469 43.101562 29.613281 42.671875 30.9375 42.113281 C 32.234375 41.5625 33.488281 40.882812 34.660156 40.09375 C 35.820312 39.308594 36.910156 38.40625 37.902344 37.417969 C 38.894531 36.425781 39.796875 35.335938 40.578125 34.171875 C 41.371094 33.003906 42.050781 31.75 42.597656 30.453125 C 43.160156 29.128906 43.589844 27.746094 43.875 26.335938 C 44.171875 24.890625 44.320312 23.40625 44.320312 21.917969 C 44.320312 20.433594 44.171875 18.949219 43.875 17.503906 C 43.585938 16.097656 43.160156 14.710938 42.597656 13.386719 Z M 42.597656 13.386719 " fill-opacity="1" fill-rule="nonzero"/></g></svg>