<svg xmlns="http://www.w3.org/2000/svg" xmlns:xlink="http://www.w3.org/1999/xlink" width="64" zoomAndPan="magnify" viewBox="0 0 48 48" height="64" preserveAspectRatio="xMidYMid meet" version="1.0"><defs><clipPath id="471aa99286"><path d="M 0.488281 0 L 47.507812 0 L 47.507812 47.019531 L 0.488281 47.019531 Z M 0.488281 0 " clip-rule="nonzero"/></clipPath></defs><g clip-path="url(#471aa99286)"><path fill="#c00000" d="M 46.777344 41.878906 L 43.835938 41.878906 L 43.835938 21.304688 C 43.835938 21.101562 43.765625 20.929688 43.621094 20.785156 C 43.476562 20.644531 43.304688 20.570312 43.101562 20.570312 L 38.695312 20.570312 C 38.492188 20.570312 38.316406 20.644531 38.175781 20.785156 C 38.03125 20.929688 37.960938 21.101562 37.960938 21.304688 L 37.960938 41.878906 L 34.285156 41.878906 L 34.285156 27.917969 C 34.285156 27.714844 34.214844 27.542969 34.070312 27.398438 C 33.925781 27.253906 33.753906 27.183594 33.550781 27.183594 L 29.144531 27.183594 C 28.941406 27.183594 28.765625 27.253906 28.625 27.398438 C 28.480469 27.542969 28.40625 27.714844 28.40625 27.917969 L 28.40625 41.878906 L 24.734375 41.878906 L 24.734375 24.246094 C 24.734375 24.042969 24.664062 23.867188 24.519531 23.726562 C 24.375 23.582031 24.203125 23.511719 24 23.511719 L 19.59375 23.511719 C 19.390625 23.511719 19.214844 23.582031 19.074219 23.726562 C 18.929688 23.867188 18.855469 24.042969 18.855469 24.246094 L 18.855469 41.878906 L 15.183594 41.878906 L 15.183594 32.328125 C 15.183594 32.125 15.113281 31.949219 14.96875 31.808594 C 14.824219 31.664062 14.652344 31.589844 14.449219 31.59375 L 10.039062 31.59375 C 9.839844 31.589844 9.664062 31.664062 9.519531 31.808594 C 9.378906 31.949219 9.304688 32.125 9.304688 32.328125 L 9.304688 41.878906 L 5.632812 41.878906 L 5.632812 0.734375 C 5.632812 0.53125 5.5625 0.359375 5.417969 0.214844 C 5.273438 0.0703125 5.101562 0 4.898438 0 L 1.222656 0 C 1.023438 0 0.847656 0.0703125 0.703125 0.214844 C 0.5625 0.359375 0.488281 0.53125 0.488281 0.734375 L 0.488281 42.613281 C 0.488281 42.902344 0.519531 43.1875 0.574219 43.472656 C 0.632812 43.753906 0.714844 44.03125 0.828125 44.296875 C 0.9375 44.566406 1.074219 44.820312 1.234375 45.058594 C 1.394531 45.300781 1.578125 45.523438 1.78125 45.726562 C 1.988281 45.933594 2.210938 46.113281 2.449219 46.277344 C 2.691406 46.4375 2.945312 46.574219 3.210938 46.683594 C 3.480469 46.792969 3.753906 46.878906 4.039062 46.933594 C 4.320312 46.992188 4.609375 47.019531 4.898438 47.019531 L 46.777344 47.019531 C 46.976562 47.019531 47.152344 46.949219 47.296875 46.804688 C 47.4375 46.660156 47.511719 46.488281 47.511719 46.285156 L 47.511719 42.613281 C 47.511719 42.410156 47.4375 42.234375 47.296875 42.09375 C 47.152344 41.949219 46.976562 41.878906 46.777344 41.878906 Z M 39.429688 22.039062 L 42.367188 22.039062 L 42.367188 41.878906 L 39.429688 41.878906 Z M 29.878906 28.652344 L 32.816406 28.652344 L 32.816406 41.878906 L 29.878906 41.878906 Z M 20.328125 24.980469 L 23.265625 24.980469 L 23.265625 41.878906 L 20.328125 41.878906 Z M 10.777344 33.0625 L 13.714844 33.0625 L 13.714844 41.878906 L 10.777344 41.878906 Z M 46.039062 45.550781 L 4.898438 45.550781 C 4.507812 45.550781 4.132812 45.476562 3.773438 45.328125 C 3.414062 45.175781 3.097656 44.964844 2.820312 44.6875 C 2.546875 44.414062 2.332031 44.097656 2.183594 43.738281 C 2.035156 43.375 1.960938 43 1.960938 42.613281 L 1.960938 1.46875 L 4.164062 1.46875 L 4.164062 42.613281 C 4.164062 42.816406 4.234375 42.988281 4.378906 43.132812 C 4.523438 43.273438 4.695312 43.347656 4.898438 43.347656 L 46.039062 43.347656 Z M 46.039062 45.550781 " fill-opacity="1" fill-rule="nonzero"/></g><path fill="#c00000" d="M 12.816406 29.117188 L 21.898438 17.9375 L 30.140625 24.808594 C 30.292969 24.933594 30.464844 24.988281 30.65625 24.976562 C 30.851562 24.964844 31.015625 24.886719 31.148438 24.746094 L 40.164062 15.089844 L 40.164062 17.632812 C 40.164062 17.835938 40.234375 18.007812 40.378906 18.152344 C 40.523438 18.296875 40.695312 18.367188 40.898438 18.367188 C 41.101562 18.367188 41.273438 18.296875 41.417969 18.152344 C 41.5625 18.007812 41.632812 17.835938 41.632812 17.632812 L 41.632812 13.222656 C 41.628906 13.023438 41.554688 12.851562 41.410156 12.710938 C 41.269531 12.570312 41.097656 12.496094 40.898438 12.488281 L 36.488281 12.488281 C 36.285156 12.488281 36.113281 12.5625 35.96875 12.703125 C 35.828125 12.847656 35.753906 13.023438 35.753906 13.222656 C 35.753906 13.425781 35.828125 13.601562 35.96875 13.742188 C 36.113281 13.886719 36.285156 13.960938 36.488281 13.960938 L 39.207031 13.960938 L 30.550781 23.234375 L 22.265625 16.332031 C 22.109375 16.203125 21.929688 16.144531 21.726562 16.167969 C 21.519531 16.1875 21.355469 16.277344 21.226562 16.433594 L 11.675781 28.191406 C 11.546875 28.347656 11.492188 28.527344 11.515625 28.730469 C 11.535156 28.929688 11.625 29.09375 11.78125 29.222656 C 11.941406 29.351562 12.121094 29.402344 12.320312 29.382812 C 12.523438 29.363281 12.6875 29.273438 12.816406 29.117188 Z M 12.816406 29.117188 " fill-opacity="1" fill-rule="nonzero"/><path fill="#c00000" d="M 21.796875 14.695312 C 22.277344 14.695312 22.757812 14.648438 23.230469 14.550781 C 23.703125 14.457031 24.160156 14.320312 24.609375 14.132812 C 25.054688 13.949219 25.476562 13.722656 25.878906 13.457031 C 26.277344 13.1875 26.648438 12.882812 26.992188 12.542969 C 27.332031 12.199219 27.636719 11.828125 27.90625 11.429688 C 28.171875 11.027344 28.398438 10.605469 28.582031 10.160156 C 28.769531 9.710938 28.90625 9.253906 29 8.78125 C 29.097656 8.308594 29.144531 7.828125 29.144531 7.347656 C 29.144531 6.863281 29.097656 6.386719 29 5.914062 C 28.90625 5.441406 28.769531 4.980469 28.582031 4.535156 C 28.398438 4.089844 28.171875 3.667969 27.90625 3.265625 C 27.636719 2.863281 27.332031 2.492188 26.992188 2.152344 C 26.648438 1.8125 26.277344 1.507812 25.878906 1.238281 C 25.476562 0.96875 25.054688 0.742188 24.609375 0.558594 C 24.160156 0.375 23.703125 0.234375 23.230469 0.140625 C 22.757812 0.046875 22.277344 0 21.796875 0 C 21.3125 0 20.835938 0.046875 20.363281 0.140625 C 19.890625 0.234375 19.429688 0.375 18.984375 0.558594 C 18.539062 0.742188 18.117188 0.96875 17.714844 1.238281 C 17.3125 1.507812 16.941406 1.8125 16.601562 2.152344 C 16.257812 2.492188 15.957031 2.863281 15.6875 3.265625 C 15.417969 3.667969 15.191406 4.089844 15.007812 4.535156 C 14.824219 4.980469 14.683594 5.441406 14.589844 5.914062 C 14.496094 6.386719 14.449219 6.863281 14.449219 7.347656 C 14.449219 7.828125 14.496094 8.308594 14.589844 8.78125 C 14.6875 9.253906 14.824219 9.710938 15.011719 10.15625 C 15.195312 10.601562 15.421875 11.027344 15.691406 11.425781 C 15.957031 11.828125 16.261719 12.199219 16.601562 12.539062 C 16.945312 12.878906 17.316406 13.183594 17.714844 13.453125 C 18.117188 13.722656 18.539062 13.949219 18.984375 14.132812 C 19.429688 14.316406 19.890625 14.457031 20.363281 14.550781 C 20.835938 14.644531 21.3125 14.691406 21.796875 14.695312 Z M 21.796875 1.46875 C 22.183594 1.46875 22.5625 1.507812 22.941406 1.582031 C 23.320312 1.65625 23.6875 1.769531 24.046875 1.917969 C 24.402344 2.066406 24.742188 2.246094 25.0625 2.460938 C 25.382812 2.675781 25.679688 2.917969 25.953125 3.191406 C 26.226562 3.464844 26.46875 3.761719 26.683594 4.082031 C 26.898438 4.402344 27.078125 4.742188 27.226562 5.097656 C 27.375 5.453125 27.484375 5.820312 27.558594 6.199219 C 27.636719 6.578125 27.671875 6.960938 27.671875 7.347656 C 27.671875 7.734375 27.636719 8.113281 27.558594 8.492188 C 27.484375 8.871094 27.375 9.238281 27.226562 9.597656 C 27.078125 9.953125 26.898438 10.292969 26.683594 10.613281 C 26.46875 10.933594 26.226562 11.230469 25.953125 11.503906 C 25.679688 11.777344 25.382812 12.019531 25.0625 12.234375 C 24.742188 12.449219 24.402344 12.628906 24.046875 12.777344 C 23.6875 12.925781 23.320312 13.035156 22.941406 13.113281 C 22.5625 13.1875 22.183594 13.222656 21.796875 13.222656 C 21.410156 13.222656 21.027344 13.1875 20.648438 13.113281 C 20.269531 13.035156 19.902344 12.925781 19.546875 12.777344 C 19.191406 12.628906 18.851562 12.449219 18.53125 12.234375 C 18.210938 12.019531 17.914062 11.777344 17.640625 11.503906 C 17.367188 11.230469 17.125 10.933594 16.910156 10.613281 C 16.695312 10.292969 16.511719 9.953125 16.367188 9.597656 C 16.21875 9.238281 16.105469 8.871094 16.03125 8.492188 C 15.957031 8.113281 15.917969 7.734375 15.917969 7.347656 C 15.917969 6.960938 15.957031 6.578125 16.03125 6.199219 C 16.109375 5.824219 16.21875 5.457031 16.367188 5.097656 C 16.515625 4.742188 16.695312 4.402344 16.910156 4.082031 C 17.125 3.761719 17.367188 3.464844 17.640625 3.191406 C 17.914062 2.921875 18.210938 2.675781 18.53125 2.460938 C 18.851562 2.246094 19.191406 2.066406 19.546875 1.917969 C 19.902344 1.769531 20.269531 1.660156 20.648438 1.582031 C 21.027344 1.507812 21.410156 1.46875 21.796875 1.46875 Z M 21.796875 1.46875 " fill-opacity="1" fill-rule="nonzero"/><path fill="#c00000" d="M 21.0625 8.03125 L 21.0625 9.503906 C 20.496094 9.40625 20.335938 9.195312 20.328125 9.109375 C 20.3125 8.910156 20.234375 8.742188 20.085938 8.605469 C 19.933594 8.46875 19.757812 8.40625 19.558594 8.410156 C 19.355469 8.421875 19.1875 8.5 19.050781 8.648438 C 18.914062 8.800781 18.847656 8.976562 18.859375 9.179688 C 18.871094 9.460938 19.050781 10.75 21.0625 10.980469 L 21.0625 11.019531 C 21.0625 11.222656 21.132812 11.394531 21.277344 11.539062 C 21.417969 11.683594 21.59375 11.753906 21.796875 11.753906 C 22 11.753906 22.171875 11.683594 22.316406 11.539062 C 22.457031 11.394531 22.53125 11.222656 22.53125 11.019531 L 22.53125 10.96875 C 23.980469 10.742188 24.734375 9.773438 24.734375 8.816406 C 24.734375 7.859375 23.976562 6.890625 22.53125 6.664062 L 22.53125 5.191406 C 23.089844 5.285156 23.253906 5.496094 23.265625 5.585938 C 23.277344 5.789062 23.359375 5.957031 23.507812 6.09375 C 23.65625 6.226562 23.832031 6.289062 24.035156 6.277344 C 24.238281 6.269531 24.40625 6.191406 24.542969 6.039062 C 24.679688 5.890625 24.742188 5.714844 24.734375 5.515625 C 24.71875 5.230469 24.542969 3.945312 22.53125 3.710938 L 22.53125 3.671875 C 22.53125 3.46875 22.457031 3.296875 22.316406 3.152344 C 22.171875 3.011719 22 2.9375 21.796875 2.9375 C 21.59375 2.9375 21.417969 3.011719 21.277344 3.152344 C 21.132812 3.296875 21.0625 3.46875 21.0625 3.671875 L 21.0625 3.726562 C 19.613281 3.953125 18.855469 4.921875 18.855469 5.878906 C 18.855469 6.835938 19.613281 7.804688 21.0625 8.03125 Z M 23.265625 8.816406 C 23.265625 9.078125 23.011719 9.34375 22.53125 9.472656 L 22.53125 8.160156 C 23.011719 8.289062 23.265625 8.554688 23.265625 8.816406 Z M 21.0625 5.222656 L 21.0625 6.535156 C 20.578125 6.40625 20.328125 6.140625 20.328125 5.878906 C 20.328125 5.617188 20.578125 5.347656 21.0625 5.222656 Z M 21.0625 5.222656 " fill-opacity="1" fill-rule="nonzero"/></svg>