<svg xmlns="http://www.w3.org/2000/svg" xmlns:xlink="http://www.w3.org/1999/xlink" width="64" zoomAndPan="magnify" viewBox="0 0 48 48" height="64" preserveAspectRatio="xMidYMid meet" version="1.0"><defs><clipPath id="24f67d3bb8"><path d="M 0.488281 0 L 47.507812 0 L 47.507812 47.019531 L 0.488281 47.019531 Z M 0.488281 0 " clip-rule="nonzero"/></clipPath></defs><g clip-path="url(#24f67d3bb8)"><path fill="#c00000" d="M 45.648438 14.328125 L 45.648438 13.914062 L 45.460938 13.914062 C 41.878906 5.925781 33.96875 0.292969 24.734375 0.00390625 C 24.59375 -0.00390625 24.453125 -0.0117188 24.316406 -0.0117188 C 24.277344 -0.0117188 24.238281 -0.0078125 24.199219 -0.0078125 C 24.132812 -0.0078125 24.066406 -0.0117188 23.996094 -0.0117188 C 14.445312 -0.0117188 6.210938 5.714844 2.535156 13.914062 L 2.347656 13.914062 L 2.347656 14.328125 C 1.148438 17.148438 0.484375 20.25 0.484375 23.5 C 0.484375 36.46875 11.03125 47.015625 23.996094 47.015625 C 36.964844 47.015625 47.511719 36.464844 47.511719 23.5 C 47.511719 20.25 46.847656 17.148438 45.648438 14.328125 Z M 18.59375 2.359375 C 15.882812 4.761719 13.734375 8.84375 12.527344 13.914062 L 4.402344 13.914062 C 7.183594 8.246094 12.355469 3.953125 18.59375 2.359375 Z M 2.175781 23.5 C 2.175781 20.71875 2.707031 18.058594 3.660156 15.609375 L 12.164062 15.609375 C 11.703125 18.0625 11.449219 20.710938 11.449219 23.488281 C 11.449219 26.070312 11.667969 28.542969 12.070312 30.847656 L 3.453125 30.847656 C 2.628906 28.550781 2.175781 26.078125 2.175781 23.5 Z M 4.144531 32.542969 L 12.40625 32.542969 C 13.589844 37.875 15.808594 42.171875 18.628906 44.652344 C 12.175781 43.011719 6.863281 38.488281 4.144531 32.542969 Z M 23.148438 45.179688 C 19.144531 44.367188 15.765625 39.402344 14.152344 32.542969 L 23.148438 32.542969 Z M 23.148438 30.847656 L 13.796875 30.847656 C 13.375 28.546875 13.140625 26.070312 13.140625 23.488281 C 13.140625 20.710938 13.410156 18.054688 13.898438 15.609375 L 23.148438 15.609375 Z M 23.148438 13.914062 L 14.277344 13.914062 C 15.933594 7.324219 19.246094 2.589844 23.148438 1.800781 Z M 43.59375 13.914062 L 36.101562 13.914062 C 34.9375 9.019531 32.894531 5.046875 30.316406 2.617188 C 36.144531 4.382812 40.945312 8.527344 43.59375 13.914062 Z M 24.84375 1.707031 C 29.019531 2.089844 32.605469 6.96875 34.351562 13.914062 L 24.84375 13.914062 Z M 24.84375 15.609375 L 34.730469 15.609375 C 35.21875 18.054688 35.488281 20.710938 35.488281 23.488281 C 35.488281 26.070312 35.257812 28.546875 34.832031 30.847656 L 24.84375 30.847656 Z M 24.84375 45.273438 L 24.84375 32.542969 L 34.476562 32.542969 C 32.78125 39.765625 29.125 44.882812 24.84375 45.273438 Z M 30.277344 44.398438 C 32.964844 41.882812 35.074219 37.699219 36.222656 32.542969 L 43.847656 32.542969 C 41.257812 38.207031 36.316406 42.578125 30.277344 44.398438 Z M 36.558594 30.847656 C 36.960938 28.542969 37.183594 26.070312 37.183594 23.488281 C 37.183594 20.710938 36.925781 18.0625 36.464844 15.609375 L 44.332031 15.609375 C 45.289062 18.058594 45.816406 20.71875 45.816406 23.5 C 45.816406 26.078125 45.367188 28.550781 44.542969 30.847656 Z M 36.558594 30.847656 " fill-opacity="1" fill-rule="nonzero"/></g></svg>