<svg xmlns="http://www.w3.org/2000/svg" xmlns:xlink="http://www.w3.org/1999/xlink" width="64" zoomAndPan="magnify" viewBox="0 0 48 48" height="64" preserveAspectRatio="xMidYMid meet" version="1.0"><defs><clipPath id="b238820080"><path d="M 7.015625 0 L 40.808594 0 L 40.808594 47 L 7.015625 47 Z M 7.015625 0 " clip-rule="nonzero"/></clipPath></defs><g clip-path="url(#b238820080)"><path fill="#c00000" d="M 25.382812 45.460938 C 25.921875 44.730469 26.519531 43.898438 27.160156 42.996094 C 28.996094 40.398438 30.832031 37.65625 32.546875 34.917969 C 33.65625 33.152344 34.679688 31.4375 35.59375 29.792969 C 38.726562 24.160156 40.492188 19.65625 40.492188 16.5625 C 40.492188 7.417969 33.074219 0 23.933594 0 C 14.789062 0 7.371094 7.417969 7.371094 16.5625 C 7.371094 19.65625 9.136719 24.160156 12.273438 29.792969 C 13.1875 31.4375 14.210938 33.152344 15.316406 34.917969 C 17.03125 37.65625 18.871094 40.398438 20.707031 42.996094 C 21.34375 43.898438 21.945312 44.730469 22.480469 45.460938 C 22.796875 45.898438 23.03125 46.210938 23.152344 46.375 C 23.546875 46.890625 24.320312 46.890625 24.714844 46.375 C 24.835938 46.210938 25.070312 45.898438 25.382812 45.460938 Z M 22.289062 41.871094 C 20.472656 39.300781 18.65625 36.59375 16.960938 33.882812 C 15.875 32.148438 14.871094 30.464844 13.976562 28.851562 C 10.996094 23.492188 9.320312 19.21875 9.320312 16.5625 C 9.320312 8.492188 15.867188 1.949219 23.933594 1.949219 C 32 1.949219 38.546875 8.492188 38.546875 16.5625 C 38.546875 19.21875 36.871094 23.492188 33.886719 28.851562 C 32.996094 30.464844 31.992188 32.148438 30.90625 33.882812 C 29.210938 36.59375 27.394531 39.300781 25.578125 41.871094 C 24.9375 42.773438 23.933594 44.132812 23.933594 44.132812 C 23.933594 44.132812 22.929688 42.773438 22.289062 41.871094 Z M 23.933594 21.433594 C 27.699219 21.433594 30.753906 18.378906 30.753906 14.613281 C 30.753906 10.847656 27.699219 7.792969 23.933594 7.792969 C 20.167969 7.792969 17.113281 10.847656 17.113281 14.613281 C 17.113281 18.378906 20.167969 21.433594 23.933594 21.433594 Z M 23.933594 19.484375 C 26.621094 19.484375 28.804688 17.300781 28.804688 14.613281 C 28.804688 11.921875 26.621094 9.742188 23.933594 9.742188 C 21.242188 9.742188 19.0625 11.921875 19.0625 14.613281 C 19.0625 17.300781 21.242188 19.484375 23.933594 19.484375 Z M 23.933594 19.484375 " fill-opacity="1" fill-rule="evenodd"/></g></svg>