<svg xmlns="http://www.w3.org/2000/svg" xmlns:xlink="http://www.w3.org/1999/xlink" width="64" zoomAndPan="magnify" viewBox="0 0 48 48" height="64" preserveAspectRatio="xMidYMid meet" version="1.0"><defs><clipPath id="5499254199"><path d="M 6.550781 0.46875 L 41.445312 0.46875 L 41.445312 47.019531 L 6.550781 47.019531 Z M 6.550781 0.46875 " clip-rule="nonzero"/></clipPath></defs><path fill="#c00000" d="M 10.222656 17.449219 C 10.222656 25.046875 16.402344 31.222656 24 31.222656 C 31.59375 31.222656 37.773438 25.046875 37.773438 17.449219 C 37.773438 9.851562 31.59375 3.671875 24 3.671875 C 16.402344 3.671875 10.222656 9.851562 10.222656 17.449219 Z M 24 5.511719 C 30.582031 5.511719 35.9375 10.867188 35.9375 17.449219 C 35.9375 24.03125 30.582031 29.386719 24 29.386719 C 17.414062 29.386719 12.058594 24.03125 12.058594 17.449219 C 12.058594 10.867188 17.414062 5.511719 24 5.511719 " fill-opacity="1" fill-rule="nonzero"/><path fill="#c00000" d="M 15.492188 15.8125 L 19.054688 19.320312 L 18.234375 24.25 C 18.175781 24.59375 18.320312 24.9375 18.601562 25.140625 C 18.882812 25.347656 19.253906 25.375 19.5625 25.214844 L 24 22.910156 L 28.433594 25.214844 C 28.738281 25.371094 29.113281 25.347656 29.394531 25.140625 C 29.675781 24.9375 29.820312 24.589844 29.761719 24.25 L 28.941406 19.320312 L 32.503906 15.8125 C 32.75 15.566406 32.839844 15.203125 32.730469 14.875 C 32.625 14.542969 32.339844 14.300781 31.996094 14.25 L 27.054688 13.503906 L 24.820312 9.035156 C 24.664062 8.722656 24.34375 8.527344 24 8.527344 C 23.648438 8.527344 23.332031 8.722656 23.175781 9.035156 L 20.941406 13.503906 L 16 14.25 C 15.65625 14.300781 15.371094 14.542969 15.265625 14.875 C 15.15625 15.203125 15.246094 15.566406 15.492188 15.8125 Z M 21.6875 15.25 C 21.980469 15.207031 22.238281 15.019531 22.371094 14.753906 L 24 11.5 L 25.625 14.753906 C 25.757812 15.019531 26.015625 15.207031 26.308594 15.25 L 29.90625 15.792969 L 27.3125 18.34375 C 27.101562 18.554688 27.003906 18.855469 27.050781 19.148438 L 27.648438 22.738281 L 24.421875 21.0625 C 24.289062 20.992188 24.144531 20.957031 24 20.957031 C 23.851562 20.957031 23.707031 20.992188 23.574219 21.0625 L 20.347656 22.738281 L 20.941406 19.148438 C 20.992188 18.855469 20.894531 18.554688 20.679688 18.34375 L 18.089844 15.792969 L 21.6875 15.25 " fill-opacity="1" fill-rule="nonzero"/><path fill="#c00000" d="M 24.917969 0.917969 C 24.917969 1.425781 24.503906 1.835938 24 1.835938 C 23.492188 1.835938 23.078125 1.425781 23.078125 0.917969 C 23.078125 0.410156 23.492188 0 24 0 C 24.503906 0 24.917969 0.410156 24.917969 0.917969 " fill-opacity="1" fill-rule="nonzero"/><g clip-path="url(#5499254199)"><path fill="#c00000" d="M 19.671875 0.542969 C 11.945312 2.511719 6.550781 9.464844 6.550781 17.449219 C 6.550781 22.40625 8.632812 27.078125 12.292969 30.386719 L 6.761719 40.136719 C 6.582031 40.453125 6.605469 40.839844 6.816406 41.132812 C 7.027344 41.425781 7.390625 41.5625 7.746094 41.492188 L 14.027344 40.1875 L 16.238281 46.410156 C 16.355469 46.746094 16.664062 46.984375 17.023438 47.015625 C 17.378906 47.046875 17.722656 46.867188 17.902344 46.554688 L 24 35.835938 L 30.09375 46.554688 C 30.257812 46.84375 30.566406 47.019531 30.890625 47.019531 C 30.917969 47.019531 30.945312 47.019531 30.972656 47.015625 C 31.332031 46.984375 31.636719 46.746094 31.757812 46.410156 L 33.964844 40.1875 L 40.25 41.492188 C 40.601562 41.5625 40.964844 41.425781 41.179688 41.132812 C 41.390625 40.839844 41.414062 40.453125 41.234375 40.136719 L 35.703125 30.386719 C 39.363281 27.078125 41.445312 22.40625 41.445312 17.449219 C 41.445312 9.464844 36.050781 2.511719 28.328125 0.542969 C 27.835938 0.414062 27.335938 0.710938 27.210938 1.203125 C 27.082031 1.695312 27.378906 2.195312 27.871094 2.320312 C 34.78125 4.085938 39.609375 10.304688 39.609375 17.449219 C 39.609375 26.140625 32.550781 33.0625 24 33.0625 C 15.441406 33.0625 8.386719 26.136719 8.386719 17.449219 C 8.386719 10.304688 13.210938 4.085938 20.125 2.320312 C 20.617188 2.195312 20.914062 1.695312 20.789062 1.203125 C 20.660156 0.710938 20.160156 0.414062 19.671875 0.542969 Z M 17.296875 43.902344 L 15.492188 38.816406 C 15.339844 38.382812 14.890625 38.132812 14.441406 38.226562 L 9.359375 39.28125 L 13.738281 31.5625 C 16.292969 33.417969 19.3125 34.550781 22.457031 34.828125 Z M 33.554688 38.226562 C 33.105469 38.132812 32.65625 38.382812 32.503906 38.816406 L 30.699219 43.902344 L 25.539062 34.828125 C 28.683594 34.550781 31.703125 33.417969 34.257812 31.5625 L 38.636719 39.28125 L 33.554688 38.226562 " fill-opacity="1" fill-rule="nonzero"/></g></svg>