<svg xmlns="http://www.w3.org/2000/svg" xmlns:xlink="http://www.w3.org/1999/xlink" width="64" zoomAndPan="magnify" viewBox="0 0 48 48" height="64" preserveAspectRatio="xMidYMid meet" version="1.0"><defs><clipPath id="c11e0128ba"><path d="M 2.195312 0 L 45.542969 0 L 45.542969 47.019531 L 2.195312 47.019531 Z M 2.195312 0 " clip-rule="nonzero"/></clipPath></defs><g clip-path="url(#c11e0128ba)"><path fill="#002060" d="M 41.640625 34.613281 C 40.703125 35.160156 39.386719 36.019531 37.863281 37.011719 C 34.144531 39.433594 27.554688 43.730469 25.605469 43.605469 C 24.191406 43.527344 22.804688 43.40625 21.46875 43.289062 C 18.203125 43.007812 14.703125 42.683594 11.179688 43.214844 L 11.179688 34.792969 C 12.308594 34.738281 13.660156 34.625 15.019531 34.34375 C 15.859375 34.167969 17.375 33.472656 18.964844 32.75 C 22.101562 31.332031 22.335938 31.378906 25.246094 31.980469 C 26.238281 32.183594 27.21875 32.363281 28.3125 32.675781 C 30.152344 33.203125 31.164062 33.835938 31.164062 34.464844 C 31.164062 34.835938 31.058594 35.257812 30.8125 35.515625 C 30.421875 35.929688 29.765625 36.324219 29.09375 36.199219 L 23.78125 35.1875 C 23.695312 35.171875 23.605469 35.171875 23.519531 35.1875 L 21.167969 35.613281 C 20.78125 35.683594 20.527344 36.054688 20.597656 36.441406 C 20.667969 36.828125 21.035156 37.082031 21.421875 37.011719 L 23.644531 36.609375 L 28.832031 37.59375 C 29.003906 37.625 29.179688 37.640625 29.355469 37.640625 C 30.132812 37.640625 30.914062 37.328125 31.566406 36.757812 C 31.632812 36.742188 31.695312 36.71875 31.757812 36.6875 L 41.3125 31.449219 C 42.492188 30.898438 43.53125 31.148438 43.824219 31.703125 C 44.140625 32.300781 43.59375 33.46875 41.640625 34.613281 Z M 9.757812 44.828125 C 9.757812 45.253906 9.410156 45.601562 8.984375 45.601562 L 4.394531 45.601562 C 3.964844 45.601562 3.617188 45.253906 3.617188 44.828125 L 3.617188 33.960938 C 3.617188 33.53125 3.964844 33.183594 4.394531 33.183594 L 8.984375 33.183594 C 9.410156 33.183594 9.757812 33.53125 9.757812 33.960938 Z M 13.1875 26.347656 L 13.1875 33.105469 C 13.6875 33.046875 14.203125 32.964844 14.710938 32.859375 C 15.109375 32.777344 15.816406 32.492188 16.628906 32.140625 L 16.628906 26.347656 C 16.628906 26.253906 16.546875 26.171875 16.453125 26.171875 L 13.363281 26.171875 C 13.269531 26.171875 13.1875 26.253906 13.1875 26.347656 Z M 23.414062 21.609375 L 26.503906 21.609375 C 26.597656 21.609375 26.679688 21.6875 26.679688 21.78125 L 26.679688 30.726562 C 25.640625 30.503906 24.03125 30.171875 23.238281 30.097656 L 23.238281 21.78125 C 23.238281 21.6875 23.320312 21.609375 23.414062 21.609375 Z M 33.488281 14.835938 C 33.394531 14.835938 33.316406 14.914062 33.316406 15.007812 L 33.316406 34.105469 L 36.753906 32.21875 L 36.753906 15.007812 C 36.753906 14.914062 36.675781 14.835938 36.582031 14.835938 Z M 45.164062 30.992188 C 44.429688 29.605469 42.488281 29.214844 40.644531 30.089844 L 38.175781 31.441406 L 38.175781 15.007812 C 38.175781 14.128906 37.460938 13.414062 36.582031 13.414062 L 33.488281 13.414062 C 32.609375 13.414062 31.894531 14.128906 31.894531 15.007812 L 31.894531 32.75 C 30.964844 31.867188 29.355469 31.371094 28.097656 31.050781 L 28.097656 21.78125 C 28.097656 20.902344 27.382812 20.1875 26.503906 20.1875 L 23.414062 20.1875 C 22.535156 20.1875 21.820312 20.902344 21.820312 21.78125 L 21.820312 30.125 C 20.792969 30.28125 19.632812 30.78125 18.046875 31.503906 L 18.046875 26.347656 C 18.046875 25.46875 17.332031 24.753906 16.453125 24.753906 L 13.363281 24.753906 C 12.484375 24.753906 11.769531 25.46875 11.769531 26.347656 L 11.769531 33.242188 C 11.527344 33.257812 11.296875 33.269531 11.070312 33.28125 C 10.785156 32.402344 9.957031 31.765625 8.984375 31.765625 L 4.394531 31.765625 C 3.183594 31.765625 2.199219 32.75 2.199219 33.960938 L 2.199219 44.828125 C 2.199219 46.039062 3.183594 47.023438 4.394531 47.023438 L 8.984375 47.023438 C 10.195312 47.023438 11.179688 46.039062 11.179688 44.828125 L 11.179688 44.746094 C 14.441406 44.210938 17.691406 44.480469 21.335938 44.800781 C 22.6875 44.917969 24.085938 45.039062 25.523438 45.117188 C 27.808594 45.25 32.996094 41.988281 38.6875 38.28125 C 40.195312 37.296875 41.5 36.449219 42.40625 35.921875 C 45.421875 34.15625 45.808594 32.21875 45.164062 30.992188 Z M 5.644531 23.90625 C 5.785156 24.277344 6.199219 24.457031 6.5625 24.316406 C 18.035156 19.925781 28.265625 13.578125 37.203125 5.234375 L 36.304688 8.984375 C 36.210938 9.363281 36.449219 9.746094 36.828125 9.839844 C 37.210938 9.933594 37.59375 9.695312 37.683594 9.3125 C 37.835938 8.6875 39.160156 3.234375 39.164062 3.09375 C 39.167969 3.09375 39.167969 3.09375 39.167969 3.09375 C 39.175781 2.71875 38.960938 2.554688 38.960938 2.550781 L 38.957031 2.546875 C 38.824219 2.390625 38.558594 2.320312 38.351562 2.347656 L 32.148438 3.21875 C 31.757812 3.273438 31.488281 3.632812 31.542969 4.019531 C 31.597656 4.410156 31.957031 4.679688 32.34375 4.625 L 36.378906 4.058594 C 27.621094 12.269531 17.429688 18.632812 6.054688 22.992188 C 5.6875 23.128906 5.503906 23.542969 5.644531 23.90625 Z M 12.492188 6.84375 C 12.800781 6.84375 13.074219 6.644531 13.171875 6.351562 L 14.191406 3.1875 L 15.210938 6.351562 C 15.304688 6.644531 15.578125 6.84375 15.890625 6.84375 L 19.214844 6.835938 L 16.519531 8.785156 C 16.269531 8.964844 16.164062 9.289062 16.261719 9.582031 L 17.292969 12.738281 L 14.609375 10.78125 C 14.359375 10.597656 14.019531 10.597656 13.773438 10.78125 L 11.085938 12.738281 L 12.121094 9.582031 C 12.214844 9.289062 12.113281 8.964844 11.863281 8.785156 L 9.167969 6.835938 Z M 6.554688 6.695312 C 6 6.296875 6.285156 5.410156 6.96875 5.410156 L 11.976562 5.421875 L 13.515625 0.65625 C 13.726562 0.00390625 14.65625 0.00390625 14.867188 0.65625 L 16.402344 5.421875 L 21.410156 5.410156 C 22.09375 5.410156 22.382812 6.292969 21.828125 6.695312 L 17.769531 9.632812 L 19.328125 14.386719 C 19.542969 15.042969 18.785156 15.585938 18.234375 15.183594 L 14.191406 12.234375 L 10.144531 15.183594 C 9.59375 15.585938 8.839844 15.039062 9.054688 14.386719 L 10.609375 9.632812 Z M 6.554688 6.695312 " fill-opacity="1" fill-rule="evenodd"/></g></svg>