<svg xmlns="http://www.w3.org/2000/svg" xmlns:xlink="http://www.w3.org/1999/xlink" width="64" zoomAndPan="magnify" viewBox="0 0 48 48" height="64" preserveAspectRatio="xMidYMid meet" version="1.0"><defs><clipPath id="bfacd3f0de"><path d="M 28 10 L 47.507812 10 L 47.507812 28 L 28 28 Z M 28 10 " clip-rule="nonzero"/></clipPath><clipPath id="a42049c015"><path d="M 28 27 L 47.507812 27 L 47.507812 35 L 28 35 Z M 28 27 " clip-rule="nonzero"/></clipPath><clipPath id="37a90c790c"><path d="M 0.488281 15 L 20 15 L 20 33 L 0.488281 33 Z M 0.488281 15 " clip-rule="nonzero"/></clipPath><clipPath id="e791202415"><path d="M 0.488281 32 L 20 32 L 20 39 L 0.488281 39 Z M 0.488281 32 " clip-rule="nonzero"/></clipPath><clipPath id="27446f00b6"><path d="M 21 3.085938 L 27 3.085938 L 27 10 L 21 10 Z M 21 3.085938 " clip-rule="nonzero"/></clipPath></defs><g clip-path="url(#bfacd3f0de)"><path fill="#c00000" d="M 29.570312 27.355469 L 30.734375 27.355469 L 37.453125 14.363281 L 37.453125 27.355469 L 38.863281 27.355469 L 38.863281 14.363281 L 45.582031 27.355469 L 46.746094 27.355469 C 46.988281 27.355469 47.214844 27.480469 47.34375 27.6875 C 47.355469 27.703125 47.363281 27.722656 47.371094 27.738281 L 38.699219 10.960938 C 38.59375 11.085938 38.449219 11.179688 38.273438 11.207031 L 37.417969 11.351562 L 28.945312 27.738281 C 28.953125 27.722656 28.964844 27.703125 28.972656 27.6875 C 29.101562 27.480469 29.328125 27.355469 29.570312 27.355469 " fill-opacity="1" fill-rule="nonzero"/></g><g clip-path="url(#a42049c015)"><path fill="#c00000" d="M 38.160156 32.730469 C 35.140625 32.730469 32.410156 31.238281 30.785156 28.769531 L 45.53125 28.769531 C 43.90625 31.238281 41.175781 32.730469 38.160156 32.730469 Z M 47.371094 27.738281 C 47.363281 27.722656 47.355469 27.703125 47.34375 27.6875 C 47.214844 27.480469 46.988281 27.355469 46.746094 27.355469 L 29.574219 27.355469 C 29.328125 27.355469 29.101562 27.480469 28.972656 27.6875 C 28.964844 27.703125 28.953125 27.722656 28.945312 27.738281 C 28.84375 27.933594 28.839844 28.167969 28.9375 28.371094 C 30.667969 31.929688 34.203125 34.140625 38.160156 34.140625 C 42.113281 34.140625 45.648438 31.929688 47.378906 28.371094 C 47.480469 28.167969 47.472656 27.933594 47.371094 27.738281 " fill-opacity="1" fill-rule="nonzero"/></g><g clip-path="url(#37a90c790c)"><path fill="#c00000" d="M 9.839844 15.949219 C 9.613281 15.949219 9.40625 15.835938 9.277344 15.660156 L 0.628906 32.386719 C 0.636719 32.371094 0.644531 32.351562 0.65625 32.335938 C 0.785156 32.128906 1.011719 32.003906 1.253906 32.003906 L 2.417969 32.003906 L 9.136719 19.011719 L 9.136719 32.003906 L 10.546875 32.003906 L 10.546875 19.011719 L 17.265625 32.003906 L 18.429688 32.003906 C 18.671875 32.003906 18.898438 32.128906 19.027344 32.335938 C 19.039062 32.351562 19.046875 32.371094 19.054688 32.386719 L 10.503906 15.847656 L 9.957031 15.941406 C 9.917969 15.945312 9.878906 15.949219 9.839844 15.949219 " fill-opacity="1" fill-rule="nonzero"/></g><g clip-path="url(#e791202415)"><path fill="#c00000" d="M 9.84375 37.378906 C 6.824219 37.378906 4.09375 35.886719 2.46875 33.417969 L 17.214844 33.417969 C 15.589844 35.886719 12.859375 37.378906 9.84375 37.378906 Z M 18.429688 32.003906 L 1.253906 32.003906 C 1.011719 32.003906 0.785156 32.128906 0.65625 32.335938 C 0.644531 32.351562 0.636719 32.371094 0.628906 32.386719 C 0.527344 32.582031 0.523438 32.816406 0.621094 33.019531 C 2.351562 36.578125 5.886719 38.789062 9.84375 38.789062 C 13.796875 38.789062 17.332031 36.578125 19.0625 33.019531 C 19.160156 32.816406 19.15625 32.582031 19.054688 32.386719 C 19.046875 32.371094 19.039062 32.351562 19.027344 32.335938 C 18.898438 32.128906 18.671875 32.003906 18.429688 32.003906 " fill-opacity="1" fill-rule="nonzero"/></g><path fill="#c00000" d="M 38.699219 10.960938 C 38.824219 10.808594 38.890625 10.605469 38.855469 10.394531 C 38.792969 10.007812 38.425781 9.75 38.042969 9.8125 L 26.226562 11.789062 L 26.226562 7.996094 C 25.855469 8.417969 25.367188 8.734375 24.8125 8.894531 L 24.8125 39.9375 L 33.164062 39.9375 L 33.164062 42.515625 L 14.835938 42.515625 L 14.835938 39.9375 L 23.007812 39.9375 L 23.007812 8.832031 C 22.433594 8.628906 21.941406 8.253906 21.59375 7.765625 C 21.59375 7.773438 21.59375 7.777344 21.59375 7.785156 L 21.59375 12.5625 L 9.726562 14.546875 C 9.339844 14.609375 9.082031 14.972656 9.144531 15.359375 C 9.164062 15.472656 9.210938 15.574219 9.277344 15.660156 C 9.40625 15.835938 9.613281 15.949219 9.839844 15.949219 C 9.878906 15.949219 9.917969 15.945312 9.957031 15.941406 L 10.503906 15.847656 L 21.59375 13.996094 L 21.59375 38.523438 L 14.835938 38.523438 C 14.058594 38.523438 13.425781 39.15625 13.425781 39.9375 L 13.425781 42.515625 C 13.425781 43.296875 14.058594 43.929688 14.835938 43.929688 L 33.164062 43.929688 C 33.945312 43.929688 34.578125 43.296875 34.578125 42.515625 L 34.578125 39.9375 C 34.578125 39.15625 33.945312 38.523438 33.164062 38.523438 L 26.226562 38.523438 L 26.226562 13.222656 L 37.417969 11.351562 L 38.273438 11.207031 C 38.449219 11.179688 38.59375 11.085938 38.699219 10.960938 " fill-opacity="1" fill-rule="nonzero"/><g clip-path="url(#27446f00b6)"><path fill="#c00000" d="M 22.453125 6.046875 C 22.453125 5.191406 23.144531 4.496094 24 4.496094 C 24.855469 4.496094 25.550781 5.191406 25.550781 6.046875 C 25.550781 6.902344 24.855469 7.597656 24 7.597656 C 23.144531 7.597656 22.453125 6.902344 22.453125 6.046875 Z M 23.007812 8.832031 C 23.316406 8.945312 23.652344 9.007812 24 9.007812 C 24.28125 9.007812 24.554688 8.96875 24.8125 8.894531 C 25.367188 8.734375 25.855469 8.417969 26.226562 7.996094 C 26.683594 7.472656 26.960938 6.792969 26.960938 6.046875 C 26.960938 4.414062 25.632812 3.085938 24 3.085938 C 22.367188 3.085938 21.039062 4.414062 21.039062 6.046875 C 21.039062 6.6875 21.246094 7.28125 21.59375 7.765625 C 21.941406 8.253906 22.433594 8.628906 23.007812 8.832031 " fill-opacity="1" fill-rule="nonzero"/></g></svg>