<svg xmlns="http://www.w3.org/2000/svg" xmlns:xlink="http://www.w3.org/1999/xlink" width="64" zoomAndPan="magnify" viewBox="0 0 48 48" height="64" preserveAspectRatio="xMidYMid meet" version="1.0"><defs><clipPath id="0164f0e5c2"><path d="M 0.488281 3.664062 L 41 3.664062 L 41 43.335938 L 0.488281 43.335938 Z M 0.488281 3.664062 " clip-rule="nonzero"/></clipPath><clipPath id="fd7bd6bc57"><path d="M 41 37 L 47.507812 37 L 47.507812 43.335938 L 41 43.335938 Z M 41 37 " clip-rule="nonzero"/></clipPath></defs><path fill="#ffffff" d="M 44.988281 40.777344 C 45.199219 40.777344 45.378906 40.703125 45.523438 40.550781 C 45.671875 40.398438 45.738281 40.214844 45.726562 40.003906 C 45.726562 39.460938 45.394531 39.199219 44.71875 39.199219 L 43.625 39.199219 L 43.625 42.058594 L 44.035156 42.058594 L 44.035156 40.8125 L 44.542969 40.8125 L 44.554688 40.828125 L 45.335938 42.058594 L 45.777344 42.058594 L 44.933594 40.785156 Z M 44.515625 40.488281 L 44.039062 40.488281 L 44.039062 39.523438 L 44.640625 39.523438 C 44.953125 39.523438 45.308594 39.574219 45.308594 39.980469 C 45.308594 40.453125 44.949219 40.488281 44.511719 40.488281 " fill-opacity="1" fill-rule="nonzero"/><g clip-path="url(#0164f0e5c2)"><path fill="#ffffff" d="M 34.261719 37.191406 L 28.429688 37.191406 L 28.429688 28.058594 C 28.429688 25.882812 28.390625 23.078125 25.398438 23.078125 C 22.359375 23.078125 21.894531 25.453125 21.894531 27.902344 L 21.894531 37.191406 L 16.0625 37.191406 L 16.0625 18.414062 L 21.660156 18.414062 L 21.660156 20.980469 L 21.738281 20.980469 C 22.019531 20.5 22.359375 20.066406 22.757812 19.679688 C 23.152344 19.292969 23.597656 18.96875 24.082031 18.699219 C 24.570312 18.433594 25.082031 18.234375 25.621094 18.109375 C 26.160156 17.980469 26.707031 17.925781 27.261719 17.945312 C 33.175781 17.945312 34.265625 21.832031 34.265625 26.890625 Z M 9.480469 15.847656 C 9.035156 15.847656 8.601562 15.761719 8.1875 15.589844 C 7.773438 15.417969 7.40625 15.175781 7.089844 14.855469 C 6.773438 14.539062 6.527344 14.171875 6.355469 13.757812 C 6.183594 13.34375 6.097656 12.914062 6.097656 12.464844 C 6.097656 12.015625 6.183594 11.585938 6.355469 11.167969 C 6.527344 10.753906 6.769531 10.390625 7.089844 10.070312 C 7.40625 9.753906 7.769531 9.511719 8.1875 9.339844 C 8.601562 9.167969 9.03125 9.082031 9.480469 9.082031 C 9.929688 9.082031 10.363281 9.167969 10.777344 9.335938 C 11.191406 9.507812 11.558594 9.753906 11.875 10.070312 C 12.191406 10.386719 12.4375 10.753906 12.609375 11.167969 C 12.78125 11.582031 12.867188 12.015625 12.867188 12.464844 C 12.867188 12.910156 12.78125 13.34375 12.609375 13.757812 C 12.4375 14.171875 12.191406 14.539062 11.875 14.855469 C 11.558594 15.171875 11.191406 15.417969 10.777344 15.589844 C 10.363281 15.761719 9.929688 15.847656 9.480469 15.847656 M 12.398438 37.191406 L 6.558594 37.191406 L 6.558594 18.414062 L 12.398438 18.414062 Z M 37.167969 3.667969 L 3.628906 3.667969 C 3.25 3.660156 2.882812 3.730469 2.527344 3.871094 C 2.175781 4.015625 1.863281 4.21875 1.589844 4.484375 C 1.316406 4.75 1.105469 5.058594 0.957031 5.40625 C 0.808594 5.757812 0.730469 6.121094 0.726562 6.503906 L 0.726562 40.171875 C 0.730469 40.550781 0.808594 40.917969 0.957031 41.269531 C 1.105469 41.617188 1.316406 41.925781 1.589844 42.191406 C 1.863281 42.457031 2.175781 42.664062 2.527344 42.804688 C 2.882812 42.945312 3.25 43.015625 3.628906 43.011719 L 37.167969 43.011719 C 37.550781 43.015625 37.917969 42.945312 38.273438 42.804688 C 38.628906 42.664062 38.941406 42.460938 39.214844 42.195312 C 39.488281 41.929688 39.699219 41.621094 39.851562 41.269531 C 40 40.917969 40.078125 40.554688 40.085938 40.171875 L 40.085938 6.5 C 40.078125 6.117188 40 5.753906 39.851562 5.402344 C 39.699219 5.050781 39.488281 4.746094 39.214844 4.480469 C 38.941406 4.210938 38.628906 4.007812 38.273438 3.867188 C 37.917969 3.726562 37.550781 3.660156 37.167969 3.664062 " fill-opacity="1" fill-rule="nonzero"/></g><g clip-path="url(#fd7bd6bc57)"><path fill="#ffffff" d="M 44.5625 37.921875 C 44.328125 37.925781 44.097656 37.957031 43.871094 38.019531 C 43.644531 38.082031 43.433594 38.175781 43.230469 38.292969 C 43.027344 38.414062 42.84375 38.554688 42.679688 38.722656 C 42.511719 38.890625 42.375 39.074219 42.257812 39.28125 C 42.140625 39.484375 42.054688 39.699219 41.992188 39.925781 C 41.933594 40.152344 41.90625 40.382812 41.90625 40.617188 C 41.90625 40.855469 41.9375 41.085938 42 41.3125 C 42.0625 41.539062 42.152344 41.753906 42.269531 41.957031 C 42.386719 42.15625 42.53125 42.34375 42.695312 42.507812 C 42.863281 42.671875 43.046875 42.816406 43.25 42.933594 C 43.457031 43.050781 43.671875 43.136719 43.898438 43.199219 C 44.125 43.257812 44.355469 43.289062 44.589844 43.289062 C 44.824219 43.289062 45.054688 43.257812 45.28125 43.199219 C 45.507812 43.136719 45.722656 43.050781 45.929688 42.933594 C 46.132812 42.816406 46.316406 42.671875 46.484375 42.507812 C 46.648438 42.34375 46.792969 42.15625 46.910156 41.957031 C 47.027344 41.753906 47.117188 41.539062 47.179688 41.3125 C 47.242188 41.085938 47.273438 40.855469 47.273438 40.617188 C 47.273438 40.382812 47.246094 40.152344 47.1875 39.925781 C 47.125 39.699219 47.039062 39.484375 46.921875 39.28125 C 46.808594 39.074219 46.667969 38.890625 46.5 38.722656 C 46.335938 38.554688 46.152344 38.414062 45.949219 38.292969 C 45.746094 38.175781 45.535156 38.082031 45.308594 38.019531 C 45.082031 37.957031 44.851562 37.925781 44.617188 37.921875 L 44.5625 37.921875 M 44.5625 42.980469 C 44.253906 42.988281 43.949219 42.933594 43.660156 42.816406 C 43.371094 42.703125 43.113281 42.539062 42.890625 42.320312 C 42.664062 42.105469 42.488281 41.851562 42.367188 41.566406 C 42.242188 41.28125 42.175781 40.980469 42.171875 40.667969 C 42.167969 40.355469 42.222656 40.054688 42.335938 39.765625 C 42.449219 39.476562 42.617188 39.21875 42.832031 38.992188 C 43.050781 38.769531 43.300781 38.59375 43.589844 38.472656 C 43.875 38.347656 44.171875 38.28125 44.484375 38.277344 C 44.796875 38.273438 45.097656 38.328125 45.390625 38.441406 C 45.679688 38.554688 45.9375 38.722656 46.160156 38.9375 C 46.386719 39.15625 46.558594 39.40625 46.683594 39.691406 C 46.808594 39.980469 46.871094 40.277344 46.878906 40.589844 C 46.878906 40.605469 46.878906 40.617188 46.878906 40.628906 C 46.882812 40.933594 46.832031 41.230469 46.722656 41.515625 C 46.609375 41.800781 46.449219 42.050781 46.238281 42.273438 C 46.027344 42.492188 45.78125 42.664062 45.503906 42.785156 C 45.222656 42.910156 44.929688 42.972656 44.625 42.980469 L 44.566406 42.980469 " fill-opacity="1" fill-rule="nonzero"/></g></svg>