<svg xmlns="http://www.w3.org/2000/svg" xmlns:xlink="http://www.w3.org/1999/xlink" width="64" zoomAndPan="magnify" viewBox="0 0 48 48" height="64" preserveAspectRatio="xMidYMid meet" version="1.0"><defs><clipPath id="08230e5a40"><path d="M 0.488281 2.175781 L 47.507812 2.175781 L 47.507812 44.785156 L 0.488281 44.785156 Z M 0.488281 2.175781 " clip-rule="nonzero"/></clipPath></defs><g clip-path="url(#08230e5a40)"><path fill="#002060" d="M 28.765625 36.035156 L 21.933594 37.894531 C 21.777344 37.9375 21.621094 37.96875 21.464844 37.988281 C 21.515625 37.917969 21.558594 37.847656 21.605469 37.773438 C 22.265625 36.625 21.878906 35.144531 20.726562 34.394531 C 20.699219 34.378906 20.667969 34.359375 20.636719 34.347656 C 19.039062 33.59375 17.53125 32.542969 16.324219 31.699219 C 15.898438 31.40625 15.496094 31.125 15.152344 30.902344 C 13.699219 29.960938 12.113281 30.207031 10.753906 30.574219 L 5.882812 31.882812 L 5.71875 31.25 C 5.488281 30.363281 4.582031 29.832031 3.699219 30.058594 L 1.789062 30.554688 C 1.359375 30.664062 1 30.9375 0.777344 31.320312 C 0.550781 31.699219 0.488281 32.144531 0.597656 32.574219 L 3.167969 42.492188 C 3.359375 43.238281 4.035156 43.734375 4.769531 43.734375 C 4.90625 43.734375 5.046875 43.71875 5.1875 43.683594 L 7.097656 43.1875 C 7.980469 42.960938 8.515625 42.054688 8.285156 41.167969 L 8.074219 40.351562 L 8.941406 40.121094 L 15.890625 44.132812 C 16.679688 44.585938 17.519531 44.816406 18.371094 44.816406 C 18.84375 44.816406 19.316406 44.746094 19.789062 44.605469 L 32.285156 40.875 C 33.527344 40.503906 34.3125 38.945312 33.933594 37.605469 C 33.746094 36.957031 32.828125 34.929688 28.765625 36.035156 Z M 6.714844 41.722656 L 4.808594 42.21875 C 4.730469 42.238281 4.652344 42.191406 4.632812 42.113281 L 2.0625 32.195312 C 2.050781 32.148438 2.066406 32.109375 2.082031 32.085938 C 2.09375 32.0625 2.121094 32.03125 2.167969 32.019531 L 4.078125 31.523438 C 4.089844 31.523438 4.101562 31.519531 4.113281 31.519531 C 4.175781 31.519531 4.238281 31.566406 4.253906 31.628906 L 6.820312 41.546875 C 6.839844 41.625 6.792969 41.703125 6.714844 41.722656 Z M 31.851562 39.425781 L 19.355469 43.15625 C 18.425781 43.433594 17.511719 43.320312 16.644531 42.820312 L 9.425781 38.652344 C 9.25 38.550781 9.046875 38.523438 8.851562 38.578125 L 7.695312 38.886719 L 6.261719 33.347656 L 11.144531 32.035156 C 12.636719 31.632812 13.558594 31.671875 14.328125 32.171875 C 14.652344 32.382812 15.027344 32.640625 15.457031 32.941406 C 16.699219 33.808594 18.246094 34.886719 19.941406 35.691406 C 20.398438 36.011719 20.550781 36.570312 20.292969 37.015625 C 20.023438 37.484375 19.582031 37.605469 18.984375 37.371094 C 18.171875 36.964844 17.414062 36.511719 16.609375 36.03125 C 16.226562 35.800781 15.828125 35.5625 15.417969 35.324219 C 15.058594 35.113281 14.59375 35.238281 14.386719 35.601562 C 14.175781 35.960938 14.300781 36.425781 14.664062 36.632812 C 15.0625 36.867188 15.453125 37.101562 15.832031 37.328125 C 16.667969 37.828125 17.460938 38.300781 18.335938 38.738281 C 18.339844 38.742188 18.355469 38.75 18.363281 38.753906 L 19.066406 39.070312 C 20.164062 39.558594 21.230469 39.652344 22.332031 39.355469 L 29.164062 37.496094 C 30.972656 37.003906 32.242188 37.203125 32.476562 38.019531 C 32.632812 38.566406 32.3125 39.289062 31.851562 39.425781 Z M 4.058594 33.109375 C 4.019531 33.445312 3.714844 33.6875 3.378906 33.648438 C 3.042969 33.609375 2.800781 33.304688 2.839844 32.96875 C 2.882812 32.632812 3.183594 32.390625 3.523438 32.429688 C 3.859375 32.46875 4.097656 32.773438 4.058594 33.109375 Z M 47.402344 14.625 L 44.832031 4.703125 C 44.605469 3.820312 43.699219 3.285156 42.8125 3.515625 L 40.90625 4.007812 C 40.019531 4.238281 39.484375 5.144531 39.714844 6.03125 L 39.925781 6.847656 L 39.058594 7.078125 L 32.109375 3.066406 C 30.886719 2.359375 29.539062 2.195312 28.210938 2.59375 L 15.714844 6.324219 C 14.472656 6.695312 13.6875 8.253906 14.066406 9.59375 C 14.214844 10.109375 14.820312 11.484375 17.089844 11.484375 C 17.683594 11.484375 18.390625 11.390625 19.234375 11.160156 L 26.066406 9.304688 C 26.222656 9.261719 26.378906 9.230469 26.535156 9.210938 C 26.484375 9.277344 26.441406 9.351562 26.394531 9.425781 C 25.734375 10.574219 26.121094 12.054688 27.273438 12.800781 C 27.300781 12.820312 27.332031 12.835938 27.363281 12.851562 C 28.960938 13.605469 30.46875 14.65625 31.675781 15.5 C 32.101562 15.792969 32.503906 16.074219 32.847656 16.296875 C 33.597656 16.785156 34.382812 16.953125 35.152344 16.953125 C 35.875 16.953125 36.589844 16.804688 37.246094 16.625 L 42.117188 15.316406 L 42.28125 15.949219 C 42.476562 16.695312 43.148438 17.191406 43.886719 17.191406 C 44.023438 17.191406 44.164062 17.175781 44.300781 17.136719 L 46.210938 16.644531 C 46.640625 16.535156 47 16.261719 47.222656 15.878906 C 47.449219 15.5 47.511719 15.050781 47.402344 14.625 Z M 36.855469 15.164062 C 35.363281 15.566406 34.441406 15.527344 33.671875 15.027344 C 33.347656 14.816406 32.972656 14.558594 32.542969 14.257812 C 31.296875 13.390625 29.753906 12.3125 28.058594 11.507812 C 27.601562 11.1875 27.449219 10.625 27.707031 10.183594 C 27.976562 9.714844 28.417969 9.59375 29.015625 9.828125 C 29.828125 10.234375 30.585938 10.6875 31.386719 11.167969 C 31.773438 11.398438 32.167969 11.636719 32.582031 11.875 C 32.699219 11.945312 32.832031 11.976562 32.957031 11.976562 C 33.21875 11.976562 33.472656 11.839844 33.613281 11.597656 C 33.824219 11.234375 33.699219 10.773438 33.335938 10.5625 C 32.9375 10.332031 32.546875 10.097656 32.167969 9.871094 C 31.328125 9.371094 30.539062 8.894531 29.664062 8.460938 C 29.660156 8.457031 29.640625 8.449219 29.636719 8.445312 L 28.933594 8.128906 C 27.835938 7.636719 26.765625 7.542969 25.667969 7.84375 L 18.835938 9.703125 C 17.023438 10.195312 15.753906 9.996094 15.523438 9.179688 C 15.367188 8.632812 15.6875 7.910156 16.148438 7.773438 L 28.644531 4.042969 C 29.574219 3.765625 30.488281 3.878906 31.355469 4.378906 L 38.574219 8.546875 C 38.75 8.648438 38.953125 8.675781 39.148438 8.621094 L 40.304688 8.3125 L 41.738281 13.851562 Z M 45.917969 15.113281 C 45.90625 15.136719 45.878906 15.167969 45.832031 15.179688 L 43.921875 15.671875 C 43.847656 15.691406 43.765625 15.644531 43.746094 15.570312 L 41.179688 5.648438 C 41.160156 5.574219 41.207031 5.492188 41.285156 5.472656 L 43.191406 4.980469 C 43.269531 4.960938 43.347656 5.007812 43.367188 5.082031 L 45.9375 15.003906 C 45.949219 15.050781 45.933594 15.089844 45.917969 15.113281 Z M 45.160156 14.230469 C 45.117188 14.566406 44.816406 14.808594 44.476562 14.769531 C 44.140625 14.730469 43.902344 14.425781 43.941406 14.089844 C 43.980469 13.75 44.285156 13.511719 44.621094 13.550781 C 44.957031 13.589844 45.199219 13.894531 45.160156 14.230469 Z M 14.269531 21.613281 C 13.980469 21.726562 13.785156 22.007812 13.785156 22.320312 L 13.785156 24.878906 C 13.785156 25.191406 13.980469 25.472656 14.269531 25.585938 L 15.476562 26.050781 C 15.660156 26.691406 15.917969 27.308594 16.242188 27.894531 L 15.714844 29.074219 C 15.589844 29.359375 15.652344 29.695312 15.871094 29.917969 L 17.683594 31.726562 C 17.902344 31.949219 18.238281 32.011719 18.523438 31.882812 L 19.707031 31.359375 C 20.292969 31.683594 20.910156 31.9375 21.550781 32.121094 L 22.015625 33.328125 C 22.125 33.621094 22.40625 33.8125 22.71875 33.8125 L 25.28125 33.8125 C 25.59375 33.8125 25.875 33.621094 25.984375 33.328125 L 26.449219 32.125 C 27.09375 31.9375 27.710938 31.683594 28.292969 31.359375 L 29.476562 31.882812 C 29.761719 32.011719 30.097656 31.949219 30.316406 31.726562 L 32.128906 29.917969 C 32.347656 29.695312 32.410156 29.359375 32.285156 29.074219 L 31.757812 27.894531 C 32.082031 27.308594 32.339844 26.691406 32.523438 26.050781 L 33.730469 25.585938 C 34.019531 25.472656 34.214844 25.191406 34.214844 24.878906 L 34.214844 22.320312 C 34.214844 22.007812 34.019531 21.726562 33.730469 21.613281 L 32.523438 21.148438 C 32.339844 20.507812 32.082031 19.890625 31.757812 19.304688 L 32.285156 18.125 C 32.410156 17.839844 32.347656 17.503906 32.128906 17.28125 L 30.316406 15.472656 C 30.097656 15.25 29.761719 15.1875 29.476562 15.316406 L 28.292969 15.839844 C 27.710938 15.515625 27.089844 15.261719 26.449219 15.074219 L 25.984375 13.871094 C 25.875 13.578125 25.59375 13.386719 25.28125 13.386719 L 22.71875 13.386719 C 22.40625 13.386719 22.125 13.578125 22.015625 13.871094 L 21.550781 15.074219 C 20.910156 15.261719 20.292969 15.515625 19.707031 15.839844 L 18.523438 15.316406 C 18.238281 15.1875 17.902344 15.25 17.683594 15.472656 L 15.871094 17.28125 C 15.652344 17.503906 15.589844 17.839844 15.714844 18.125 L 16.242188 19.304688 C 15.917969 19.890625 15.660156 20.507812 15.476562 21.148438 Z M 16.382812 22.421875 C 16.613281 22.332031 16.789062 22.132812 16.847656 21.890625 C 17.027344 21.132812 17.324219 20.414062 17.734375 19.75 C 17.863281 19.535156 17.882812 19.273438 17.78125 19.046875 L 17.308594 17.984375 L 18.386719 16.910156 L 19.445312 17.378906 C 19.675781 17.480469 19.9375 17.464844 20.148438 17.332031 C 20.816406 16.925781 21.535156 16.625 22.292969 16.445312 C 22.535156 16.386719 22.734375 16.214844 22.824219 15.980469 L 23.238281 14.898438 L 24.761719 14.898438 L 25.175781 15.980469 C 25.265625 16.214844 25.464844 16.386719 25.707031 16.445312 C 26.464844 16.625 27.183594 16.925781 27.851562 17.332031 C 28.0625 17.464844 28.324219 17.480469 28.554688 17.378906 L 29.613281 16.910156 L 30.691406 17.984375 L 30.21875 19.046875 C 30.117188 19.273438 30.136719 19.535156 30.265625 19.75 C 30.675781 20.414062 30.972656 21.132812 31.15625 21.890625 C 31.210938 22.132812 31.386719 22.332031 31.617188 22.421875 L 32.699219 22.839844 L 32.699219 24.359375 L 31.617188 24.777344 C 31.386719 24.867188 31.210938 25.066406 31.152344 25.308594 C 30.972656 26.0625 30.675781 26.785156 30.265625 27.449219 C 30.136719 27.660156 30.117188 27.925781 30.21875 28.152344 L 30.691406 29.214844 L 29.613281 30.289062 L 28.554688 29.820312 C 28.328125 29.71875 28.0625 29.734375 27.851562 29.867188 C 27.1875 30.273438 26.464844 30.574219 25.707031 30.753906 C 25.464844 30.8125 25.265625 30.984375 25.175781 31.21875 L 24.761719 32.300781 L 23.238281 32.300781 L 22.824219 31.21875 C 22.734375 30.984375 22.535156 30.8125 22.292969 30.753906 C 21.535156 30.574219 20.816406 30.273438 20.148438 29.867188 C 19.9375 29.734375 19.675781 29.71875 19.445312 29.816406 L 18.386719 30.289062 L 17.308594 29.214844 L 17.78125 28.152344 C 17.882812 27.925781 17.863281 27.660156 17.734375 27.449219 C 17.324219 26.785156 17.027344 26.066406 16.84375 25.308594 C 16.789062 25.0625 16.613281 24.867188 16.382812 24.777344 L 15.300781 24.359375 L 15.300781 22.839844 Z M 24 28.820312 C 26.878906 28.820312 29.222656 26.476562 29.222656 23.597656 C 29.222656 20.71875 26.878906 18.378906 24 18.378906 C 21.121094 18.378906 18.777344 20.71875 18.777344 23.597656 C 18.777344 26.476562 21.121094 28.820312 24 28.820312 Z M 24 19.890625 C 26.042969 19.890625 27.707031 21.554688 27.707031 23.597656 C 27.707031 25.644531 26.042969 27.308594 24 27.308594 C 21.957031 27.308594 20.292969 25.644531 20.292969 23.597656 C 20.292969 21.554688 21.957031 19.890625 24 19.890625 Z M 36.007812 32.050781 L 36.890625 31.894531 C 37.300781 31.820312 37.695312 32.097656 37.765625 32.507812 C 37.839844 32.917969 37.566406 33.3125 37.152344 33.382812 L 33.546875 34.019531 C 33.503906 34.027344 33.460938 34.03125 33.417969 34.03125 C 33.210938 34.03125 33.015625 33.949219 32.871094 33.800781 C 32.695312 33.621094 32.625 33.363281 32.675781 33.117188 L 33.375 29.878906 C 33.460938 29.46875 33.863281 29.210938 34.273438 29.296875 C 34.679688 29.386719 34.941406 29.789062 34.851562 30.195312 L 34.613281 31.304688 C 37.480469 28.558594 38.699219 24.425781 37.667969 20.496094 C 37.5625 20.09375 37.804688 19.679688 38.207031 19.574219 C 38.613281 19.464844 39.027344 19.707031 39.132812 20.113281 C 40.257812 24.414062 39.011719 28.933594 36.007812 32.050781 Z M 11.992188 15.148438 L 11.109375 15.304688 C 10.699219 15.375 10.304688 15.101562 10.234375 14.691406 C 10.160156 14.277344 10.433594 13.886719 10.847656 13.8125 L 14.453125 13.179688 C 14.699219 13.132812 14.953125 13.214844 15.128906 13.398438 C 15.304688 13.578125 15.375 13.835938 15.324219 14.082031 L 14.625 17.320312 C 14.550781 17.675781 14.234375 17.917969 13.886719 17.917969 C 13.835938 17.917969 13.78125 17.914062 13.726562 17.902344 C 13.320312 17.8125 13.058594 17.410156 13.148438 17.003906 L 13.386719 15.894531 C 10.519531 18.640625 9.300781 22.773438 10.332031 26.703125 C 10.4375 27.105469 10.195312 27.519531 9.792969 27.625 C 9.726562 27.644531 9.664062 27.652344 9.597656 27.652344 C 9.261719 27.652344 8.957031 27.425781 8.867188 27.085938 C 7.742188 22.78125 8.988281 18.265625 11.992188 15.148438 Z M 11.992188 15.148438 " fill-opacity="1" fill-rule="nonzero"/></g></svg>