<svg xmlns="http://www.w3.org/2000/svg" xmlns:xlink="http://www.w3.org/1999/xlink" width="64" zoomAndPan="magnify" viewBox="0 0 48 48" height="64" preserveAspectRatio="xMidYMid meet" version="1.0"><defs><clipPath id="20f2d79367"><path d="M 0.488281 1.988281 L 47.507812 1.988281 L 47.507812 45.335938 L 0.488281 45.335938 Z M 0.488281 1.988281 " clip-rule="nonzero"/></clipPath></defs><g clip-path="url(#20f2d79367)"><path fill="#002060" d="M 46.898438 40.800781 L 40.820312 31.660156 C 40.414062 31.050781 39.726562 30.734375 39.042969 30.769531 L 37.648438 28.671875 C 37.824219 28.515625 37.996094 28.355469 38.164062 28.191406 C 39.042969 27.308594 39.738281 26.28125 40.222656 25.140625 C 40.722656 23.957031 40.976562 22.699219 40.976562 21.40625 C 40.976562 20.109375 40.722656 18.851562 40.222656 17.667969 C 39.738281 16.527344 39.046875 15.5 38.164062 14.617188 C 37.371094 13.828125 36.460938 13.1875 35.457031 12.714844 L 35.457031 7.023438 C 35.457031 6.554688 35.078125 6.175781 34.605469 6.175781 L 30.996094 6.175781 L 30.996094 2.839844 C 30.996094 2.371094 30.617188 1.988281 30.148438 1.988281 L 10.160156 1.988281 C 9.9375 1.988281 9.71875 2.078125 9.5625 2.238281 L 0.742188 11.019531 C 0.578125 11.175781 0.488281 11.394531 0.488281 11.621094 L 0.492188 39.992188 C 0.492188 40.460938 0.871094 40.839844 1.34375 40.839844 L 4.953125 40.839844 L 4.953125 44.175781 C 4.953125 44.644531 5.332031 45.023438 5.800781 45.023438 L 34.605469 45.023438 C 35.074219 45.023438 35.457031 44.644531 35.457031 44.175781 L 35.457031 30.09375 C 35.628906 30.011719 35.800781 29.925781 35.96875 29.832031 L 37.34375 31.898438 C 37.046875 32.515625 37.074219 33.273438 37.480469 33.882812 L 43.558594 43.019531 C 43.941406 43.601562 44.578125 43.914062 45.226562 43.914062 C 45.609375 43.914062 45.996094 43.808594 46.335938 43.578125 C 47.257812 42.964844 47.511719 41.71875 46.898438 40.800781 Z M 38.933594 21.40625 C 38.933594 25.570312 35.542969 28.960938 31.378906 28.960938 C 27.210938 28.960938 23.820312 25.570312 23.820312 21.40625 C 23.820312 17.238281 27.210938 13.847656 31.378906 13.847656 C 35.542969 13.847656 38.933594 17.238281 38.933594 21.40625 Z M 5.199219 13.738281 C 5.039062 13.898438 4.949219 14.113281 4.949219 14.339844 L 4.949219 39.140625 L 2.191406 39.140625 L 2.1875 11.972656 L 10.511719 3.6875 L 29.296875 3.6875 L 29.296875 6.175781 L 13.117188 6.175781 C 12.890625 6.175781 12.675781 6.265625 12.515625 6.421875 Z M 12.578125 8.761719 L 12.578125 13.488281 L 7.851562 13.488281 Z M 6.648438 43.324219 L 6.648438 15.1875 L 13.429688 15.1875 C 13.898438 15.1875 14.277344 14.808594 14.277344 14.339844 L 14.277344 7.875 L 33.757812 7.875 L 33.757812 12.105469 C 32.984375 11.90625 32.1875 11.808594 31.378906 11.808594 C 30.082031 11.808594 28.824219 12.0625 27.640625 12.5625 C 26.5 13.046875 25.472656 13.738281 24.589844 14.621094 C 23.710938 15.5 23.019531 16.527344 22.535156 17.667969 C 22.035156 18.851562 21.777344 20.109375 21.777344 21.40625 C 21.777344 22.703125 22.03125 23.957031 22.535156 25.140625 C 23.015625 26.285156 23.710938 27.3125 24.589844 28.191406 C 25.472656 29.074219 26.5 29.765625 27.640625 30.25 C 28.824219 30.75 30.082031 31.003906 31.378906 31.003906 C 32.1875 31.003906 32.984375 30.902344 33.757812 30.707031 L 33.757812 43.328125 L 6.648438 43.328125 Z M 6.648438 43.324219 " fill-opacity="1" fill-rule="nonzero"/></g><path fill="#002060" d="M 10.113281 19.203125 L 18.203125 19.203125 L 18.203125 20.597656 L 10.113281 20.597656 Z M 10.113281 19.203125 " fill-opacity="1" fill-rule="nonzero"/><path fill="#002060" d="M 10.113281 23.652344 L 18.203125 23.652344 L 18.203125 25.046875 L 10.113281 25.046875 Z M 10.113281 23.652344 " fill-opacity="1" fill-rule="nonzero"/><path fill="#002060" d="M 10.113281 28.105469 L 18.203125 28.105469 L 18.203125 29.496094 L 10.113281 29.496094 Z M 10.113281 28.105469 " fill-opacity="1" fill-rule="nonzero"/><path fill="#002060" d="M 10.113281 32.554688 L 30.421875 32.554688 L 30.421875 33.949219 L 10.113281 33.949219 Z M 10.113281 32.554688 " fill-opacity="1" fill-rule="nonzero"/><path fill="#002060" d="M 10.113281 37.003906 L 30.421875 37.003906 L 30.421875 38.398438 L 10.113281 38.398438 Z M 10.113281 37.003906 " fill-opacity="1" fill-rule="nonzero"/></svg>