<svg xmlns="http://www.w3.org/2000/svg" xmlns:xlink="http://www.w3.org/1999/xlink" width="64" zoomAndPan="magnify" viewBox="0 0 48 48" height="64" preserveAspectRatio="xMidYMid meet" version="1.0"><path fill="#002060" d="M 12.222656 17.382812 L 23.441406 17.382812 C 23.734375 17.382812 23.972656 17.144531 23.972656 16.851562 C 23.972656 16.554688 23.734375 16.3125 23.441406 16.3125 L 12.226562 16.3125 C 11.929688 16.3125 11.6875 16.554688 11.6875 16.851562 C 11.6875 17.148438 11.929688 17.382812 12.222656 17.382812 Z M 12.222656 17.382812 " fill-opacity="1" fill-rule="nonzero"/><path fill="#002060" d="M 12.222656 25.394531 L 23.441406 25.394531 C 23.734375 25.394531 23.972656 25.152344 23.972656 24.863281 C 23.972656 24.570312 23.734375 24.328125 23.441406 24.328125 L 12.222656 24.328125 C 11.929688 24.328125 11.6875 24.570312 11.6875 24.863281 C 11.6875 25.152344 11.929688 25.394531 12.222656 25.394531 Z M 12.222656 25.394531 " fill-opacity="1" fill-rule="nonzero"/><path fill="#002060" d="M 12.222656 32.335938 L 23.441406 32.335938 C 23.734375 32.335938 23.972656 32.574219 23.972656 32.867188 C 23.972656 33.164062 23.734375 33.40625 23.441406 33.40625 L 12.222656 33.40625 C 11.929688 33.40625 11.6875 33.164062 11.6875 32.871094 C 11.6875 32.574219 11.929688 32.335938 12.222656 32.335938 Z M 12.222656 32.335938 " fill-opacity="1" fill-rule="nonzero"/><path fill="#002060" d="M 8.546875 40.546875 L 8.703125 40.679688 C 8.808594 40.769531 8.917969 40.863281 9.011719 40.933594 C 9.210938 41.101562 9.386719 41.242188 9.570312 41.382812 C 9.871094 41.613281 10.164062 41.828125 10.460938 42.035156 C 10.6875 42.191406 10.910156 42.347656 11.136719 42.480469 C 11.386719 42.640625 11.621094 42.789062 11.851562 42.921875 C 12.066406 43.046875 12.277344 43.167969 12.496094 43.285156 C 12.53125 43.300781 12.5625 43.316406 12.578125 43.324219 C 12.75 43.417969 12.914062 43.507812 13.078125 43.582031 L 13.296875 43.695312 C 13.609375 43.839844 13.933594 44.003906 14.257812 44.140625 C 14.597656 44.273438 14.933594 44.421875 15.265625 44.535156 C 15.640625 44.683594 15.96875 44.792969 16.28125 44.890625 C 16.546875 44.984375 16.8125 45.046875 17.0625 45.125 L 17.144531 45.144531 C 17.378906 45.214844 17.605469 45.265625 17.832031 45.3125 C 18 45.359375 18.144531 45.398438 18.296875 45.429688 C 18.328125 45.433594 18.363281 45.445312 18.398438 45.449219 C 18.40625 45.453125 18.464844 45.460938 18.46875 45.460938 C 18.785156 45.53125 19.09375 45.589844 19.40625 45.640625 C 19.6875 45.6875 19.980469 45.730469 20.261719 45.765625 L 20.386719 45.78125 C 20.5 45.796875 20.625 45.808594 20.753906 45.820312 L 20.984375 45.839844 C 20.984375 45.839844 21.019531 45.847656 21.03125 45.847656 L 21.15625 45.855469 C 21.15625 45.855469 21.222656 45.863281 21.234375 45.867188 C 21.277344 45.867188 21.308594 45.871094 21.339844 45.871094 C 21.613281 45.894531 21.839844 45.910156 22.0625 45.917969 C 22.125 45.925781 22.164062 45.925781 22.1875 45.925781 L 22.273438 45.925781 C 22.554688 45.933594 22.847656 45.941406 23.132812 45.941406 C 23.34375 45.941406 23.546875 45.941406 23.746094 45.933594 C 23.96875 45.929688 24.1875 45.917969 24.398438 45.910156 C 24.589844 45.898438 24.761719 45.886719 24.9375 45.871094 C 25.101562 45.855469 25.253906 45.851562 25.398438 45.832031 C 25.589844 45.8125 25.757812 45.804688 25.914062 45.777344 C 26.085938 45.761719 26.238281 45.742188 26.378906 45.710938 C 26.394531 45.710938 26.410156 45.710938 26.425781 45.703125 C 26.4375 45.703125 26.453125 45.699219 26.464844 45.699219 C 26.652344 45.679688 26.828125 45.648438 27.015625 45.609375 C 27.210938 45.578125 27.359375 45.546875 27.5 45.523438 C 27.648438 45.496094 27.785156 45.460938 27.925781 45.4375 L 28.007812 45.417969 C 28.121094 45.398438 28.230469 45.371094 28.351562 45.335938 C 28.375 45.328125 28.398438 45.324219 28.429688 45.324219 C 28.460938 45.304688 28.492188 45.296875 28.535156 45.292969 C 28.648438 45.277344 28.757812 45.246094 28.867188 45.214844 C 28.875 45.214844 28.882812 45.210938 28.890625 45.210938 C 28.910156 45.203125 28.921875 45.199219 28.941406 45.195312 C 29.0625 45.160156 29.183594 45.125 29.300781 45.09375 L 29.386719 45.074219 C 29.617188 45.011719 29.828125 44.949219 30.054688 44.871094 C 30.132812 44.847656 30.195312 44.828125 30.257812 44.800781 C 30.324219 44.78125 30.382812 44.765625 30.445312 44.738281 C 30.464844 44.734375 30.488281 44.730469 30.519531 44.71875 C 30.605469 44.691406 30.691406 44.65625 30.777344 44.628906 L 30.898438 44.582031 C 31.007812 44.550781 31.101562 44.507812 31.203125 44.476562 C 31.453125 44.378906 31.703125 44.273438 31.941406 44.179688 C 32.019531 44.148438 32.082031 44.113281 32.15625 44.082031 L 32.265625 44.039062 C 32.429688 43.972656 32.710938 43.847656 32.867188 43.773438 C 32.957031 43.738281 33.011719 43.699219 33.070312 43.679688 L 32.339844 42.3125 L 32.234375 42.375 C 32.191406 42.390625 32.140625 42.410156 32.097656 42.4375 C 31.933594 42.527344 31.761719 42.589844 31.59375 42.664062 L 31.5 42.699219 C 31.390625 42.75 31.253906 42.808594 31.117188 42.855469 C 31.101562 42.859375 31.09375 42.867188 31.078125 42.871094 C 30.941406 42.933594 30.800781 42.984375 30.660156 43.03125 C 30.371094 43.136719 30.0625 43.253906 29.75 43.347656 C 29.472656 43.441406 29.1875 43.527344 28.898438 43.601562 C 28.859375 43.617188 28.804688 43.628906 28.757812 43.636719 L 28.097656 43.804688 C 28.003906 43.832031 27.886719 43.855469 27.769531 43.882812 C 27.140625 44.015625 26.609375 44.109375 26.117188 44.179688 C 25.976562 44.203125 25.8125 44.222656 25.65625 44.242188 C 25.378906 44.265625 25.144531 44.289062 24.90625 44.316406 C 24.695312 44.328125 24.386719 44.347656 24.191406 44.363281 C 24.066406 44.363281 23.972656 44.367188 23.886719 44.375 C 23.632812 44.378906 23.421875 44.382812 23.207031 44.382812 C 20.867188 44.382812 18.566406 44.003906 16.363281 43.242188 C 16.050781 43.125 15.738281 43.011719 15.425781 42.886719 C 15.117188 42.765625 14.804688 42.632812 14.507812 42.496094 C 14.1875 42.347656 13.886719 42.199219 13.589844 42.042969 C 13.113281 41.796875 12.625 41.519531 12.101562 41.191406 L 11.957031 41.097656 C 11.773438 40.972656 11.59375 40.855469 11.40625 40.726562 C 10.71875 40.257812 10.050781 39.734375 9.378906 39.117188 C 9.121094 38.882812 8.867188 38.644531 8.609375 38.398438 C 8.359375 38.152344 8.121094 37.898438 7.882812 37.640625 C 7.664062 37.40625 7.441406 37.144531 7.183594 36.824219 C 7.089844 36.714844 7.011719 36.601562 6.917969 36.488281 L 6.824219 36.367188 C 6.710938 36.210938 6.585938 36.050781 6.476562 35.886719 C 6.40625 35.808594 6.335938 35.707031 6.265625 35.605469 C 6.148438 35.441406 6.023438 35.25 5.894531 35.070312 C 5.78125 34.886719 5.671875 34.710938 5.566406 34.53125 C 5.46875 34.375 5.363281 34.199219 5.269531 34.03125 C 5.140625 33.800781 5.015625 33.578125 4.894531 33.347656 L 4.765625 33.085938 C 4.695312 32.957031 4.632812 32.824219 4.566406 32.695312 C 4.558594 32.679688 4.554688 32.664062 4.542969 32.648438 C 4.472656 32.496094 4.402344 32.339844 4.339844 32.195312 C 4.035156 31.5 3.789062 30.851562 3.589844 30.210938 C 3.527344 30.058594 3.476562 29.882812 3.445312 29.710938 C 3.402344 29.585938 3.355469 29.429688 3.308594 29.253906 C 3.265625 29.109375 3.21875 28.941406 3.1875 28.777344 C 3.140625 28.609375 3.097656 28.425781 3.0625 28.234375 L 3.03125 28.074219 C 2.972656 27.832031 2.933594 27.582031 2.886719 27.324219 C 2.863281 27.167969 2.824219 26.917969 2.800781 26.761719 L 2.722656 26.132812 C 2.707031 25.953125 2.691406 25.769531 2.675781 25.585938 C 2.65625 25.378906 2.644531 25.191406 2.632812 25.003906 C 2.625 24.878906 2.617188 24.726562 2.613281 24.578125 L 2.613281 24.507812 C 2.609375 24.351562 2.601562 24.171875 2.601562 24 L 2.601562 23.800781 C 2.601562 23.582031 2.609375 23.367188 2.617188 23.148438 C 2.617188 23.070312 2.625 22.976562 2.628906 22.878906 C 2.640625 22.582031 2.660156 22.324219 2.683594 22.0625 C 2.707031 21.730469 2.746094 21.425781 2.78125 21.121094 C 2.859375 20.53125 2.96875 19.914062 3.109375 19.296875 C 3.15625 19.0625 3.207031 18.816406 3.277344 18.578125 C 3.367188 18.253906 3.449219 17.929688 3.546875 17.605469 C 3.5625 17.554688 3.585938 17.492188 3.609375 17.441406 L 3.632812 17.367188 L 3.648438 17.304688 L 3.898438 16.589844 C 3.914062 16.542969 3.921875 16.496094 3.945312 16.453125 C 4.027344 16.246094 4.113281 16.019531 4.195312 15.800781 C 4.195312 15.800781 4.210938 15.761719 4.214844 15.761719 C 4.304688 15.546875 4.398438 15.34375 4.480469 15.144531 L 4.589844 14.910156 C 4.589844 14.910156 4.605469 14.871094 4.617188 14.847656 C 4.742188 14.582031 4.878906 14.308594 5.019531 14.042969 C 5.15625 13.773438 5.324219 13.484375 5.472656 13.214844 C 5.628906 12.941406 5.808594 12.664062 5.976562 12.40625 C 6.140625 12.132812 6.324219 11.863281 6.515625 11.601562 C 6.691406 11.351562 6.886719 11.070312 7.105469 10.800781 C 7.167969 10.738281 7.214844 10.675781 7.261719 10.609375 C 7.300781 10.546875 7.351562 10.496094 7.398438 10.4375 C 7.503906 10.304688 7.609375 10.175781 7.726562 10.050781 C 7.875 9.890625 8.109375 9.832031 8.316406 9.914062 C 8.527344 10.003906 8.664062 10.195312 8.65625 10.421875 L 8.621094 12.308594 L 8.65625 12.347656 L 10.226562 12.320312 C 10.269531 12.320312 10.300781 12.289062 10.300781 12.253906 L 10.382812 6.996094 C 10.382812 6.695312 10.144531 6.445312 9.835938 6.445312 L 8.984375 6.445312 L 4.523438 6.511719 C 4.488281 6.511719 4.457031 6.539062 4.457031 6.558594 L 4.429688 8.144531 L 6.148438 8.144531 C 6.351562 8.140625 6.558594 8.265625 6.648438 8.460938 C 6.738281 8.652344 6.710938 8.882812 6.5625 9.039062 C 6.449219 9.167969 6.339844 9.300781 6.226562 9.433594 C 6.152344 9.527344 6.089844 9.601562 6.027344 9.683594 L 5.890625 9.851562 C 5.683594 10.117188 5.46875 10.40625 5.273438 10.6875 C 5.164062 10.828125 5.070312 10.96875 4.972656 11.109375 L 4.910156 11.203125 C 4.84375 11.308594 4.769531 11.417969 4.695312 11.527344 C 4.628906 11.625 4.585938 11.695312 4.550781 11.761719 L 4.398438 11.996094 C 4.308594 12.144531 4.214844 12.285156 4.136719 12.4375 L 4.027344 12.628906 C 3.898438 12.859375 3.765625 13.09375 3.648438 13.328125 C 3.480469 13.636719 3.335938 13.9375 3.1875 14.246094 C 3.078125 14.476562 2.96875 14.714844 2.875 14.945312 L 2.800781 15.097656 C 2.722656 15.285156 2.65625 15.460938 2.578125 15.644531 C 2.492188 15.84375 2.429688 16.042969 2.351562 16.25 L 2.316406 16.355469 C 2.222656 16.589844 2.15625 16.824219 2.082031 17.058594 C 2.019531 17.226562 1.980469 17.386719 1.933594 17.542969 C 1.738281 18.226562 1.574219 18.863281 1.460938 19.484375 C 1.425781 19.660156 1.386719 19.820312 1.367188 19.972656 C 1.324219 20.199219 1.28125 20.425781 1.257812 20.640625 C 1.257812 20.648438 1.25 20.660156 1.25 20.671875 C 1.214844 20.910156 1.183594 21.105469 1.167969 21.296875 C 1.148438 21.441406 1.136719 21.578125 1.125 21.71875 C 0.472656 28.375 2.78125 34.859375 7.46875 39.515625 C 7.796875 39.847656 8.167969 40.195312 8.550781 40.539062 Z M 8.546875 40.546875 " fill-opacity="1" fill-rule="nonzero"/><path fill="#002060" d="M 28.34375 31.402344 L 30.871094 33.835938 C 30.945312 33.910156 31.023438 33.941406 31.113281 33.941406 C 31.191406 33.941406 31.265625 33.910156 31.320312 33.84375 L 32.625 32.5625 L 36.164062 29.191406 C 36.226562 29.128906 36.257812 29.058594 36.257812 28.972656 C 36.257812 28.894531 36.226562 28.816406 36.164062 28.753906 L 35.554688 28.15625 C 35.421875 28.027344 35.199219 28.027344 35.070312 28.160156 L 31.472656 31.597656 C 31.269531 31.800781 30.941406 31.800781 30.738281 31.605469 L 29.4375 30.382812 C 29.371094 30.304688 29.28125 30.273438 29.1875 30.273438 C 29.105469 30.273438 29.027344 30.304688 28.957031 30.371094 L 28.347656 30.96875 C 28.28125 31.03125 28.246094 31.101562 28.246094 31.1875 C 28.246094 31.269531 28.28125 31.34375 28.347656 31.402344 Z M 28.34375 31.402344 " fill-opacity="1" fill-rule="nonzero"/><path fill="#002060" d="M 28.34375 23.390625 L 30.871094 25.828125 C 30.945312 25.894531 31.023438 25.925781 31.113281 25.925781 C 31.191406 25.925781 31.265625 25.894531 31.320312 25.832031 L 32.625 24.554688 L 36.164062 21.175781 C 36.226562 21.113281 36.257812 21.046875 36.257812 20.964844 C 36.257812 20.878906 36.226562 20.804688 36.164062 20.742188 L 35.554688 20.136719 C 35.421875 20.019531 35.199219 20.019531 35.070312 20.144531 L 31.472656 23.589844 C 31.269531 23.785156 30.941406 23.785156 30.738281 23.59375 L 29.4375 22.367188 C 29.371094 22.289062 29.28125 22.257812 29.1875 22.257812 C 29.105469 22.257812 29.027344 22.289062 28.957031 22.355469 L 28.347656 22.957031 C 28.28125 23.007812 28.246094 23.085938 28.246094 23.175781 C 28.246094 23.253906 28.28125 23.328125 28.347656 23.390625 Z M 28.34375 23.390625 " fill-opacity="1" fill-rule="nonzero"/><path fill="#002060" d="M 30.871094 17.816406 C 30.945312 17.890625 31.023438 17.921875 31.113281 17.921875 C 31.191406 17.921875 31.265625 17.890625 31.320312 17.820312 L 32.625 16.542969 L 36.164062 13.167969 C 36.226562 13.113281 36.257812 13.035156 36.257812 12.953125 C 36.257812 12.875 36.226562 12.796875 36.164062 12.734375 L 35.554688 12.132812 C 35.421875 12.007812 35.199219 12.007812 35.070312 12.136719 L 31.472656 15.578125 C 31.269531 15.78125 30.941406 15.78125 30.738281 15.582031 L 29.4375 14.363281 C 29.371094 14.28125 29.28125 14.25 29.1875 14.25 C 29.105469 14.25 29.027344 14.28125 28.957031 14.351562 L 28.347656 14.945312 C 28.28125 15.007812 28.246094 15.078125 28.246094 15.164062 C 28.246094 15.25 28.28125 15.316406 28.347656 15.378906 L 30.878906 17.816406 Z M 30.871094 17.816406 " fill-opacity="1" fill-rule="nonzero"/><path fill="#002060" d="M 15.738281 3.589844 C 15.785156 3.570312 15.832031 3.554688 15.875 3.527344 C 16.042969 3.4375 16.214844 3.371094 16.386719 3.304688 L 16.476562 3.265625 C 16.585938 3.214844 16.71875 3.152344 16.855469 3.109375 C 16.871094 3.105469 16.882812 3.097656 16.898438 3.09375 C 17.03125 3.03125 17.175781 2.980469 17.316406 2.933594 C 17.601562 2.828125 17.910156 2.714844 18.222656 2.621094 C 18.5 2.527344 18.785156 2.4375 19.074219 2.363281 C 19.117188 2.347656 19.167969 2.335938 19.214844 2.328125 L 19.808594 2.171875 C 19.808594 2.171875 19.863281 2.164062 19.863281 2.160156 C 19.964844 2.132812 20.082031 2.109375 20.199219 2.082031 C 20.828125 1.945312 21.359375 1.855469 21.851562 1.785156 C 21.992188 1.761719 22.15625 1.742188 22.3125 1.722656 C 22.589844 1.695312 22.824219 1.675781 23.0625 1.648438 C 23.273438 1.636719 23.582031 1.617188 23.777344 1.601562 C 23.902344 1.601562 23.996094 1.597656 24.082031 1.589844 C 24.335938 1.585938 24.546875 1.582031 24.761719 1.582031 C 27.101562 1.582031 29.402344 1.960938 31.605469 2.722656 C 31.917969 2.839844 32.230469 2.953125 32.542969 3.078125 C 32.851562 3.199219 33.164062 3.335938 33.464844 3.46875 C 33.78125 3.609375 34.082031 3.765625 34.378906 3.925781 C 34.855469 4.167969 35.34375 4.445312 35.871094 4.773438 L 36.011719 4.867188 C 36.195312 4.992188 36.375 5.109375 36.5625 5.238281 C 37.25 5.707031 37.917969 6.226562 38.589844 6.847656 C 38.847656 7.082031 39.101562 7.320312 39.359375 7.566406 C 39.609375 7.8125 39.847656 8.066406 40.085938 8.324219 C 40.304688 8.558594 40.527344 8.820312 40.785156 9.144531 C 40.878906 9.253906 40.957031 9.363281 41.050781 9.476562 L 41.144531 9.589844 C 41.257812 9.753906 41.382812 9.914062 41.492188 10.070312 C 41.5625 10.15625 41.632812 10.257812 41.703125 10.359375 C 41.820312 10.527344 41.945312 10.714844 42.074219 10.894531 C 42.1875 11.078125 42.296875 11.25 42.402344 11.433594 C 42.5 11.589844 42.605469 11.769531 42.699219 11.933594 C 42.828125 12.164062 42.953125 12.390625 43.074219 12.617188 L 43.203125 12.878906 C 43.273438 13.003906 43.335938 13.140625 43.402344 13.269531 C 43.410156 13.285156 43.417969 13.300781 43.425781 13.316406 C 43.496094 13.46875 43.566406 13.625 43.628906 13.773438 C 43.933594 14.464844 44.179688 15.113281 44.378906 15.753906 C 44.441406 15.90625 44.492188 16.082031 44.523438 16.253906 C 44.566406 16.382812 44.613281 16.539062 44.660156 16.710938 C 44.703125 16.855469 44.75 17.023438 44.78125 17.191406 C 44.828125 17.351562 44.871094 17.535156 44.90625 17.722656 L 44.9375 17.882812 C 45 18.164062 45.046875 18.449219 45.097656 18.734375 C 45.121094 18.859375 45.144531 19.058594 45.167969 19.183594 L 45.246094 19.824219 C 45.261719 20.007812 45.277344 20.191406 45.292969 20.375 C 45.3125 20.578125 45.324219 20.769531 45.335938 20.953125 C 45.34375 21.082031 45.351562 21.234375 45.355469 21.378906 L 45.355469 21.453125 C 45.359375 21.609375 45.367188 21.78125 45.367188 21.960938 L 45.367188 22.15625 C 45.367188 22.378906 45.359375 22.589844 45.351562 22.808594 C 45.351562 22.898438 45.34375 23 45.339844 23.109375 C 45.328125 23.378906 45.308594 23.640625 45.285156 23.902344 C 45.261719 24.234375 45.222656 24.539062 45.1875 24.847656 C 45.109375 25.433594 45 26.050781 44.859375 26.667969 C 44.8125 26.902344 44.761719 27.148438 44.691406 27.386719 C 44.601562 27.710938 44.519531 28.027344 44.421875 28.359375 C 44.40625 28.410156 44.382812 28.472656 44.359375 28.523438 L 44.335938 28.597656 L 44.320312 28.660156 L 44.070312 29.375 C 44.054688 29.421875 44.046875 29.46875 44.023438 29.511719 C 43.933594 29.734375 43.839844 29.96875 43.757812 30.199219 C 43.664062 30.414062 43.570312 30.621094 43.488281 30.820312 L 43.378906 31.054688 C 43.378906 31.054688 43.363281 31.09375 43.351562 31.109375 C 43.226562 31.378906 43.089844 31.652344 42.949219 31.917969 C 42.8125 32.1875 42.644531 32.476562 42.496094 32.746094 C 42.363281 32.972656 42.222656 33.191406 42.082031 33.414062 C 41.894531 33.707031 41.703125 34 41.503906 34.285156 C 41.316406 34.550781 41.101562 34.871094 40.863281 35.15625 C 40.800781 35.21875 40.753906 35.28125 40.703125 35.351562 C 40.667969 35.414062 40.617188 35.464844 40.570312 35.523438 C 40.464844 35.652344 40.359375 35.785156 40.242188 35.902344 C 40.09375 36.070312 39.859375 36.128906 39.652344 36.046875 C 39.441406 35.957031 39.304688 35.761719 39.3125 35.539062 L 39.347656 33.648438 L 39.3125 33.613281 L 37.742188 33.640625 C 37.699219 33.640625 37.667969 33.671875 37.667969 33.707031 L 37.585938 38.960938 C 37.585938 39.265625 37.824219 39.515625 38.128906 39.515625 L 38.976562 39.515625 C 38.976562 39.515625 43.441406 39.453125 43.441406 39.453125 C 43.476562 39.453125 43.507812 39.425781 43.507812 39.40625 L 43.535156 37.8125 L 41.816406 37.8125 C 41.625 37.824219 41.40625 37.699219 41.316406 37.507812 C 41.226562 37.3125 41.253906 37.082031 41.398438 36.925781 C 41.515625 36.796875 41.625 36.667969 41.738281 36.53125 C 41.8125 36.4375 41.875 36.363281 41.9375 36.28125 L 42.074219 36.113281 C 42.28125 35.847656 42.496094 35.558594 42.6875 35.277344 C 42.796875 35.136719 42.890625 34.996094 42.992188 34.855469 L 43.054688 34.757812 C 43.125 34.652344 43.195312 34.546875 43.265625 34.4375 C 43.335938 34.339844 43.378906 34.269531 43.414062 34.203125 L 43.566406 33.96875 C 43.652344 33.820312 43.746094 33.679688 43.824219 33.523438 L 43.933594 33.335938 C 44.066406 33.105469 44.195312 32.871094 44.316406 32.636719 C 44.484375 32.324219 44.628906 32.03125 44.777344 31.722656 C 44.886719 31.488281 44.996094 31.25 45.089844 31.019531 L 45.160156 30.867188 C 45.238281 30.679688 45.308594 30.503906 45.386719 30.320312 C 45.46875 30.121094 45.53125 29.917969 45.609375 29.714844 L 45.648438 29.609375 C 45.742188 29.375 45.808594 29.140625 45.882812 28.90625 C 45.945312 28.734375 45.980469 28.578125 46.027344 28.421875 C 46.226562 27.738281 46.386719 27.101562 46.503906 26.480469 C 46.539062 26.308594 46.574219 26.144531 46.597656 26 C 46.640625 25.765625 46.679688 25.539062 46.707031 25.324219 C 46.707031 25.316406 46.710938 25.304688 46.710938 25.292969 C 46.75 25.054688 46.78125 24.863281 46.796875 24.664062 C 46.816406 24.523438 46.828125 24.386719 46.835938 24.246094 L 46.835938 24.234375 C 47.488281 17.589844 45.183594 11.105469 40.496094 6.449219 C 40.167969 6.117188 39.796875 5.769531 39.410156 5.425781 L 39.253906 5.292969 C 39.148438 5.207031 39.039062 5.117188 38.945312 5.035156 C 38.746094 4.875 38.570312 4.734375 38.386719 4.59375 C 38.085938 4.363281 37.792969 4.148438 37.496094 3.941406 C 37.269531 3.78125 37.046875 3.625 36.824219 3.496094 C 36.570312 3.335938 36.335938 3.1875 36.105469 3.050781 C 35.894531 2.925781 35.679688 2.808594 35.460938 2.691406 C 35.429688 2.675781 35.398438 2.660156 35.382812 2.644531 C 35.210938 2.558594 35.042969 2.472656 34.882812 2.394531 L 34.660156 2.28125 C 34.347656 2.132812 34.023438 1.972656 33.703125 1.835938 C 33.363281 1.695312 33.023438 1.554688 32.695312 1.433594 C 32.320312 1.292969 31.988281 1.183594 31.675781 1.085938 C 31.410156 0.992188 31.144531 0.929688 30.894531 0.851562 L 30.816406 0.828125 C 30.582031 0.761719 30.351562 0.710938 30.125 0.664062 C 29.960938 0.617188 29.8125 0.578125 29.664062 0.546875 C 29.632812 0.542969 29.59375 0.53125 29.558594 0.527344 C 29.550781 0.519531 29.496094 0.511719 29.488281 0.511719 C 29.171875 0.441406 28.863281 0.386719 28.550781 0.339844 C 28.269531 0.292969 27.976562 0.246094 27.699219 0.214844 L 27.570312 0.199219 C 27.460938 0.183594 27.335938 0.171875 27.203125 0.160156 L 26.976562 0.140625 C 26.976562 0.140625 26.9375 0.136719 26.925781 0.136719 L 26.800781 0.125 C 26.800781 0.125 26.734375 0.121094 26.722656 0.113281 C 26.683594 0.113281 26.652344 0.109375 26.621094 0.109375 C 26.34375 0.0898438 26.117188 0.0742188 25.894531 0.0625 C 25.832031 0.0585938 25.796875 0.0585938 25.769531 0.0585938 L 25.6875 0.0585938 C 25.402344 0.0429688 25.105469 0.0351562 24.824219 0.0351562 C 24.617188 0.0351562 24.417969 0.0351562 24.214844 0.046875 C 23.988281 0.0507812 23.769531 0.0625 23.5625 0.0742188 C 23.375 0.0820312 23.195312 0.09375 23.019531 0.109375 C 22.855469 0.125 22.707031 0.128906 22.558594 0.152344 C 22.367188 0.167969 22.199219 0.175781 22.042969 0.203125 C 21.871094 0.21875 21.71875 0.238281 21.578125 0.265625 C 21.5625 0.265625 21.546875 0.265625 21.53125 0.269531 C 21.519531 0.269531 21.503906 0.277344 21.496094 0.277344 C 21.308594 0.300781 21.128906 0.339844 20.941406 0.371094 C 20.75 0.402344 20.597656 0.433594 20.457031 0.457031 C 20.308594 0.484375 20.175781 0.511719 20.035156 0.542969 L 19.949219 0.5625 C 19.835938 0.585938 19.726562 0.609375 19.605469 0.648438 C 19.585938 0.652344 19.558594 0.65625 19.527344 0.65625 C 19.496094 0.679688 19.464844 0.683594 19.421875 0.6875 C 19.308594 0.703125 19.199219 0.730469 19.089844 0.765625 C 19.085938 0.765625 19.074219 0.773438 19.066406 0.773438 C 19.046875 0.777344 19.035156 0.78125 19.015625 0.789062 C 18.894531 0.820312 18.777344 0.855469 18.65625 0.886719 L 18.574219 0.90625 C 18.34375 0.96875 18.128906 1.03125 17.90625 1.109375 C 17.828125 1.132812 17.761719 1.152344 17.699219 1.179688 C 17.632812 1.199219 17.574219 1.214844 17.511719 1.230469 C 17.492188 1.242188 17.472656 1.246094 17.441406 1.257812 C 17.351562 1.285156 17.269531 1.320312 17.179688 1.347656 L 17.058594 1.394531 C 16.949219 1.425781 16.855469 1.460938 16.757812 1.496094 C 16.507812 1.597656 16.253906 1.695312 16.015625 1.792969 C 15.9375 1.824219 15.875 1.863281 15.800781 1.894531 L 15.691406 1.929688 C 15.53125 2.003906 15.25 2.128906 15.089844 2.203125 C 14.988281 2.25 14.929688 2.28125 14.863281 2.3125 L 15.617188 3.664062 L 15.722656 3.601562 Z M 15.738281 3.589844 " fill-opacity="1" fill-rule="nonzero"/></svg>