<svg xmlns="http://www.w3.org/2000/svg" xmlns:xlink="http://www.w3.org/1999/xlink" width="64" zoomAndPan="magnify" viewBox="0 0 48 48" height="64" preserveAspectRatio="xMidYMid meet" version="1.0"><defs><clipPath id="437769586f"><path d="M 17 0 L 47.507812 0 L 47.507812 30 L 17 30 Z M 17 0 " clip-rule="nonzero"/></clipPath></defs><path fill="#002060" d="M 35.132812 15.867188 C 39.785156 22.207031 39.242188 31.199219 33.515625 36.921875 C 27.191406 43.25 16.910156 43.25 10.585938 36.921875 C 4.265625 30.605469 4.265625 20.324219 10.59375 14 C 16.316406 8.273438 25.304688 7.730469 31.648438 12.382812 L 34.101562 9.929688 C 26.410156 3.945312 15.230469 4.492188 8.15625 11.5625 C 0.492188 19.230469 0.492188 31.703125 8.148438 39.359375 C 15.8125 47.023438 28.285156 47.023438 35.953125 39.359375 C 43.023438 32.285156 43.566406 21.121094 37.582031 13.414062 Z M 35.132812 15.867188 " fill-opacity="1" fill-rule="nonzero"/><path fill="#002060" d="M 26.140625 17.890625 L 28.667969 15.363281 C 23.992188 12.308594 17.632812 12.820312 13.523438 16.929688 C 8.820312 21.632812 8.820312 29.28125 13.523438 33.984375 C 18.226562 38.683594 25.875 38.683594 30.574219 33.984375 C 31.0625 33.496094 31.503906 32.972656 31.898438 32.410156 C 32.292969 31.851562 32.640625 31.257812 32.933594 30.636719 C 33.230469 30.019531 33.472656 29.375 33.65625 28.714844 C 33.84375 28.054688 33.972656 27.378906 34.042969 26.695312 C 34.113281 26.011719 34.125 25.328125 34.078125 24.644531 C 34.03125 23.957031 33.929688 23.28125 33.765625 22.613281 C 33.605469 21.945312 33.386719 21.296875 33.117188 20.664062 C 32.84375 20.035156 32.519531 19.429688 32.144531 18.855469 L 29.625 21.371094 C 29.789062 21.671875 29.933594 21.980469 30.058594 22.300781 C 30.183594 22.617188 30.289062 22.941406 30.378906 23.273438 C 30.464844 23.601562 30.53125 23.9375 30.578125 24.277344 C 30.625 24.613281 30.652344 24.953125 30.660156 25.296875 C 30.667969 25.636719 30.65625 25.980469 30.621094 26.320312 C 30.585938 26.660156 30.535156 26.996094 30.460938 27.328125 C 30.386719 27.664062 30.292969 27.992188 30.179688 28.3125 C 30.066406 28.636719 29.9375 28.953125 29.785156 29.257812 C 29.636719 29.566406 29.46875 29.863281 29.28125 30.148438 C 29.097656 30.4375 28.894531 30.710938 28.675781 30.972656 C 28.457031 31.238281 28.226562 31.488281 27.976562 31.722656 C 27.730469 31.957031 27.46875 32.175781 27.195312 32.382812 C 26.921875 32.585938 26.636719 32.773438 26.339844 32.941406 C 26.042969 33.113281 25.738281 33.265625 25.421875 33.398438 C 25.109375 33.53125 24.785156 33.648438 24.457031 33.742188 C 24.132812 33.839844 23.796875 33.914062 23.460938 33.972656 C 23.125 34.027344 22.785156 34.0625 22.445312 34.078125 C 22.101562 34.09375 21.761719 34.089844 21.421875 34.066406 C 21.078125 34.042969 20.742188 33.996094 20.40625 33.933594 C 20.070312 33.867188 19.738281 33.78125 19.414062 33.679688 C 19.089844 33.574219 18.769531 33.449219 18.460938 33.308594 C 18.148438 33.164062 17.847656 33.007812 17.554688 32.828125 C 17.265625 32.648438 16.984375 32.457031 16.714844 32.242188 C 16.445312 32.03125 16.191406 31.804688 15.949219 31.566406 C 15.707031 31.324219 15.480469 31.066406 15.269531 30.800781 C 15.058594 30.53125 14.863281 30.25 14.6875 29.957031 C 14.507812 29.667969 14.347656 29.367188 14.207031 29.054688 C 14.0625 28.742188 13.941406 28.425781 13.835938 28.101562 C 13.734375 27.773438 13.648438 27.445312 13.582031 27.109375 C 13.519531 26.773438 13.472656 26.433594 13.449219 26.09375 C 13.421875 25.753906 13.417969 25.414062 13.433594 25.070312 C 13.449219 24.730469 13.488281 24.390625 13.542969 24.054688 C 13.597656 23.714844 13.675781 23.382812 13.769531 23.054688 C 13.867188 22.726562 13.980469 22.40625 14.117188 22.09375 C 14.25 21.777344 14.402344 21.472656 14.570312 21.175781 C 14.742188 20.878906 14.929688 20.59375 15.132812 20.320312 C 15.339844 20.046875 15.558594 19.785156 15.792969 19.539062 C 16.027344 19.289062 16.277344 19.054688 16.539062 18.839844 C 16.804688 18.621094 17.078125 18.417969 17.367188 18.234375 C 17.652344 18.046875 17.949219 17.878906 18.257812 17.730469 C 18.5625 17.578125 18.878906 17.449219 19.199219 17.335938 C 19.523438 17.222656 19.851562 17.128906 20.183594 17.054688 C 20.519531 16.980469 20.855469 16.925781 21.195312 16.894531 C 21.535156 16.859375 21.878906 16.847656 22.21875 16.855469 C 22.558594 16.859375 22.902344 16.886719 23.238281 16.933594 C 23.578125 16.984375 23.910156 17.050781 24.242188 17.136719 C 24.574219 17.222656 24.898438 17.332031 25.214844 17.457031 C 25.53125 17.582031 25.839844 17.726562 26.140625 17.890625 Z M 26.140625 17.890625 " fill-opacity="1" fill-rule="nonzero"/><g clip-path="url(#437769586f)"><path fill="#002060" d="M 47.507812 4.597656 L 43.234375 4.269531 L 42.910156 0 L 38.933594 3.980469 L 39.09375 6.121094 L 38.21875 4.695312 L 35.707031 7.203125 L 36.53125 9.121094 L 23.867188 21.78125 C 23.578125 21.640625 23.273438 21.53125 22.957031 21.457031 C 22.644531 21.386719 22.324219 21.351562 22 21.355469 C 21.675781 21.359375 21.355469 21.398438 21.042969 21.476562 C 20.726562 21.554688 20.425781 21.667969 20.140625 21.816406 C 19.851562 21.96875 19.585938 22.148438 19.339844 22.359375 C 19.097656 22.570312 18.878906 22.808594 18.691406 23.070312 C 18.503906 23.335938 18.347656 23.617188 18.222656 23.917969 C 18.101562 24.214844 18.015625 24.527344 17.964844 24.847656 C 17.917969 25.167969 17.90625 25.488281 17.929688 25.808594 C 17.957031 26.132812 18.019531 26.449219 18.121094 26.757812 C 18.222656 27.0625 18.355469 27.355469 18.527344 27.632812 C 18.695312 27.90625 18.894531 28.160156 19.125 28.390625 C 19.351562 28.617188 19.605469 28.816406 19.882812 28.988281 C 20.15625 29.15625 20.449219 29.292969 20.757812 29.390625 C 21.066406 29.492188 21.378906 29.554688 21.703125 29.582031 C 22.027344 29.609375 22.347656 29.597656 22.667969 29.546875 C 22.988281 29.5 23.296875 29.414062 23.597656 29.289062 C 23.898438 29.167969 24.179688 29.011719 24.441406 28.824219 C 24.703125 28.632812 24.941406 28.417969 25.152344 28.171875 C 25.367188 27.925781 25.546875 27.660156 25.695312 27.375 C 25.84375 27.085938 25.957031 26.785156 26.035156 26.472656 C 26.113281 26.15625 26.15625 25.835938 26.160156 25.515625 C 26.160156 25.191406 26.128906 24.871094 26.054688 24.554688 C 25.984375 24.238281 25.875 23.9375 25.730469 23.644531 L 38.398438 10.980469 L 40.304688 11.796875 L 42.8125 9.289062 L 41.382812 8.414062 L 43.527344 8.574219 Z M 47.507812 4.597656 " fill-opacity="1" fill-rule="nonzero"/></g></svg>