<svg xmlns="http://www.w3.org/2000/svg" xmlns:xlink="http://www.w3.org/1999/xlink" width="64" zoomAndPan="magnify" viewBox="0 0 48 48" height="64" preserveAspectRatio="xMidYMid meet" version="1.0"><defs><clipPath id="c948d41033"><path d="M 0.488281 0 L 47.507812 0 L 47.507812 47.019531 L 0.488281 47.019531 Z M 0.488281 0 " clip-rule="nonzero"/></clipPath></defs><g clip-path="url(#c948d41033)"><path fill="#002060" d="M 5.632812 35.359375 L 5.632812 41.710938 L 45.011719 41.710938 L 44.375 40.992188 C 44.097656 40.679688 44.128906 40.199219 44.445312 39.921875 C 44.757812 39.648438 45.234375 39.675781 45.511719 39.992188 L 47.253906 41.96875 C 47.507812 42.253906 47.507812 42.683594 47.253906 42.96875 L 45.511719 44.949219 C 45.234375 45.261719 44.757812 45.292969 44.445312 45.015625 C 44.128906 44.738281 44.097656 44.261719 44.375 43.949219 L 45.011719 43.226562 L 5.632812 43.226562 L 5.632812 46.261719 C 5.632812 46.679688 5.296875 47.019531 4.878906 47.019531 C 4.460938 47.019531 4.121094 46.679688 4.121094 46.261719 L 4.121094 43.226562 L 1.246094 43.226562 C 0.828125 43.226562 0.488281 42.886719 0.488281 42.46875 C 0.488281 42.050781 0.828125 41.710938 1.246094 41.710938 L 4.121094 41.710938 L 4.121094 34.859375 C 4.113281 34.855469 4.109375 34.847656 4.105469 34.84375 L 1.898438 32.570312 L 1.894531 32.566406 C 1.214844 31.863281 1.234375 30.742188 1.929688 30.066406 L 4.121094 27.941406 L 4.121094 2.5 L 3.398438 3.132812 C 3.085938 3.410156 2.605469 3.378906 2.332031 3.066406 C 2.054688 2.753906 2.085938 2.273438 2.398438 1.996094 L 4.375 0.253906 C 4.664062 0.00390625 5.089844 0.00390625 5.378906 0.253906 L 7.355469 1.996094 C 7.667969 2.273438 7.699219 2.753906 7.421875 3.066406 C 7.148438 3.378906 6.667969 3.410156 6.355469 3.132812 L 5.632812 2.5 L 5.632812 26.472656 L 8.050781 24.128906 C 8.601562 23.59375 9.429688 23.492188 10.082031 23.820312 L 12.648438 21.328125 C 11.515625 19.503906 10.859375 17.351562 10.859375 15.046875 C 10.859375 8.476562 16.183594 3.148438 22.753906 3.148438 C 29.328125 3.148438 34.652344 8.476562 34.652344 15.046875 C 34.652344 21.617188 29.328125 26.945312 22.753906 26.945312 C 20.054688 26.945312 17.5625 26.042969 15.566406 24.527344 L 13.09375 26.921875 C 13.40625 27.589844 13.277344 28.410156 12.722656 28.945312 L 6.609375 34.882812 C 6.605469 34.882812 6.605469 34.882812 6.605469 34.882812 C 6.328125 35.148438 5.988281 35.308594 5.632812 35.359375 Z M 11.207031 24.839844 C 11.492188 25.132812 11.824219 25.476562 12.109375 25.769531 L 14.414062 23.53125 C 14.105469 23.226562 13.816406 22.90625 13.542969 22.574219 Z M 5.191406 33.789062 C 5.289062 33.890625 5.453125 33.890625 5.554688 33.792969 L 11.667969 27.859375 C 11.667969 27.855469 11.667969 27.855469 11.671875 27.855469 C 11.769531 27.757812 11.773438 27.597656 11.675781 27.496094 L 9.464844 25.222656 C 9.367188 25.121094 9.203125 25.117188 9.105469 25.214844 L 2.984375 31.152344 C 2.886719 31.25 2.886719 31.414062 2.984375 31.515625 Z M 22.753906 4.664062 C 17.019531 4.664062 12.371094 9.3125 12.371094 15.046875 C 12.371094 20.78125 17.019531 25.429688 22.753906 25.429688 C 28.492188 25.429688 33.136719 20.78125 33.136719 15.046875 C 33.136719 9.3125 28.492188 4.664062 22.753906 4.664062 Z M 22.753906 23.800781 C 17.933594 23.800781 14.003906 19.867188 14.003906 15.046875 C 14.003906 10.226562 17.933594 6.292969 22.753906 6.292969 C 27.578125 6.292969 31.507812 10.226562 31.507812 15.046875 C 31.507812 19.867188 27.578125 23.800781 22.753906 23.800781 Z M 22.753906 22.285156 C 26.742188 22.285156 29.996094 19.03125 29.996094 15.046875 C 29.996094 11.058594 26.742188 7.808594 22.753906 7.808594 C 18.769531 7.808594 15.515625 11.058594 15.515625 15.046875 C 15.515625 19.03125 18.769531 22.285156 22.753906 22.285156 Z M 22 10.445312 L 22 9.988281 C 22 9.570312 22.335938 9.230469 22.753906 9.230469 C 23.171875 9.230469 23.511719 9.570312 23.511719 9.988281 L 23.511719 10.4375 C 24.46875 10.636719 25.355469 11.242188 25.808594 12.324219 C 25.972656 12.710938 25.789062 13.15625 25.402344 13.316406 C 25.019531 13.480469 24.574219 13.296875 24.414062 12.910156 C 23.988281 11.898438 22.851562 11.691406 22.035156 12.011719 C 21.566406 12.199219 21.1875 12.578125 21.214844 13.128906 C 21.234375 13.5625 21.515625 13.808594 21.847656 13.96875 C 22.167969 14.125 22.535156 14.210938 22.886719 14.269531 C 24.300781 14.503906 25.855469 15.144531 26.058594 16.828125 C 26.257812 18.476562 24.914062 19.425781 23.511719 19.667969 L 23.511719 20.105469 C 23.511719 20.523438 23.171875 20.863281 22.753906 20.863281 C 22.335938 20.863281 22 20.523438 22 20.105469 L 22 19.660156 C 20.804688 19.425781 19.773438 18.648438 19.457031 17.382812 C 19.355469 16.976562 19.601562 16.566406 20.007812 16.464844 C 20.414062 16.363281 20.824219 16.609375 20.925781 17.015625 C 21.140625 17.871094 22.003906 18.238281 22.839844 18.21875 L 22.84375 18.21875 C 23.292969 18.207031 23.792969 18.097656 24.160156 17.84375 C 24.421875 17.660156 24.601562 17.390625 24.554688 17.007812 C 24.496094 16.519531 24.164062 16.253906 23.777344 16.078125 C 23.421875 15.914062 23.019531 15.828125 22.640625 15.765625 C 21.257812 15.539062 19.78125 14.84375 19.703125 13.203125 C 19.640625 11.945312 20.410156 11.023438 21.480469 10.601562 C 21.648438 10.539062 21.820312 10.484375 22 10.445312 Z M 40.605469 22.886719 L 39.375 22.925781 C 38.957031 22.9375 38.609375 22.609375 38.59375 22.191406 C 38.582031 21.773438 38.910156 21.425781 39.328125 21.410156 L 42.46875 21.316406 C 42.679688 21.308594 42.886719 21.394531 43.035156 21.546875 C 43.183594 21.703125 43.261719 21.910156 43.246094 22.125 L 43.035156 25.222656 C 43.003906 25.640625 42.644531 25.957031 42.226562 25.929688 C 41.808594 25.898438 41.492188 25.539062 41.523438 25.121094 L 41.597656 24.039062 L 28.707031 36.925781 C 28.445312 37.1875 28.035156 37.222656 27.734375 37.007812 C 27.734375 37.007812 21.59375 32.609375 21.59375 32.609375 L 15.386719 38.820312 C 15.089844 39.113281 14.609375 39.113281 14.3125 38.820312 C 14.019531 38.523438 14.019531 38.042969 14.3125 37.746094 L 20.976562 31.085938 C 21.238281 30.824219 21.652344 30.789062 21.953125 31.003906 L 28.09375 35.402344 Z M 40.605469 22.886719 " fill-opacity="1" fill-rule="evenodd"/></g></svg>